<svg width="20" height="20" viewBox="0 0 20 20" fill="none" xmlns="http://www.w3.org/2000/svg">
<path d="M14.6666 4.42865L9.95828 1.89531C9.45828 1.62865 8.86661 1.62865 8.36661 1.89531L3.66661 4.42865C3.32494 4.62031 3.10828 4.98698 3.10828 5.38698C3.10828 5.79531 3.31661 6.16198 3.66661 6.34531L8.37494 8.87865C8.62494 9.01198 8.89994 9.07865 9.16661 9.07865C9.43328 9.07865 9.71661 9.01198 9.95828 8.87865L14.6666 6.34531C15.0083 6.16198 15.2249 5.79531 15.2249 5.38698C15.2249 4.98698 15.0083 4.62031 14.6666 4.42865Z" fill="currentColor"/>
<path d="M7.59996 9.76207L3.22496 7.57874C2.88329 7.40374 2.49996 7.42874 2.17496 7.6204C1.85829 7.8204 1.66663 8.16207 1.66663 8.53707V12.6704C1.66663 13.3871 2.06663 14.0287 2.70829 14.3537L7.08329 16.5371C7.23329 16.6121 7.39996 16.6537 7.56663 16.6537C7.75829 16.6537 7.95829 16.5954 8.13329 16.4954C8.44996 16.2954 8.64163 15.9537 8.64163 15.5787V11.4454C8.63329 10.7287 8.23329 10.0871 7.59996 9.76207Z" fill="currentColor"/>
<path d="M16.6666 8.53707V10.5871C16.2666 10.4704 15.8416 10.4204 15.4166 10.4204C14.2833 10.4204 13.175 10.8121 12.3 11.5121C11.1 12.4537 10.4166 13.8787 10.4166 15.4204C10.4166 15.8287 10.4666 16.2371 10.575 16.6287C10.45 16.6121 10.325 16.5621 10.2083 16.4871C9.89162 16.2954 9.69995 15.9537 9.69995 15.5787V11.4454C9.69995 10.7287 10.1 10.0871 10.7333 9.76207L15.1083 7.57874C15.45 7.40374 15.8333 7.42874 16.1583 7.6204C16.475 7.8204 16.6666 8.16207 16.6666 8.53707Z" fill="currentColor"/>
<path d="M18.3166 13.0547C17.6333 12.213 16.5916 11.6797 15.4166 11.6797C14.5333 11.6797 13.7166 11.988 13.075 12.5047C12.2083 13.188 11.6666 14.2464 11.6666 15.4297C11.6666 16.1297 11.8666 16.7964 12.2083 17.363C12.4333 17.738 12.7166 18.063 13.05 18.3297H13.0583C13.7 18.863 14.525 19.1797 15.4166 19.1797C16.3666 19.1797 17.225 18.8297 17.8833 18.2464C18.175 17.9964 18.425 17.6964 18.625 17.363C18.9666 16.7964 19.1666 16.1297 19.1666 15.4297C19.1666 14.5297 18.85 13.6964 18.3166 13.0547ZM17.3 14.963L15.3 16.813C15.1833 16.9214 15.025 16.9797 14.875 16.9797C14.7166 16.9797 14.5583 16.9214 14.4333 16.7964L13.5083 15.8714C13.2666 15.6297 13.2666 15.2297 13.5083 14.988C13.75 14.7464 14.15 14.7464 14.3916 14.988L14.8916 15.488L16.45 14.0464C16.7 13.813 17.1 13.8297 17.3333 14.0797C17.575 14.338 17.5583 14.7297 17.3 14.963Z" fill="currentColor"/>
</svg>
