<svg width="20" height="20" viewBox="0 0 20 20" fill="none" xmlns="http://www.w3.org/2000/svg">
<path d="M16.75 5.78073C16.75 6.23073 16.5083 6.63906 16.125 6.8474L14.675 7.63073L13.4417 8.28906L10.8833 9.6724C10.6083 9.8224 10.3083 9.8974 10 9.8974C9.69167 9.8974 9.39167 9.8224 9.11667 9.6724L3.875 6.8474C3.49167 6.63906 3.25 6.23073 3.25 5.78073C3.25 5.33073 3.49167 4.9224 3.875 4.71406L5.51667 3.83073L6.825 3.1224L9.11667 1.88906C9.66667 1.58906 10.3333 1.58906 10.8833 1.88906L16.125 4.71406C16.5083 4.9224 16.75 5.33073 16.75 5.78073Z" fill="currentColor"/>
<path d="M8.25006 10.6565L3.37506 8.22316C3.00006 8.0315 2.56672 8.0565 2.20839 8.27316C1.85006 8.48983 1.64172 8.87316 1.64172 9.28983V13.8982C1.64172 14.6982 2.08339 15.4148 2.80006 15.7732L7.67506 18.2065C7.84172 18.2898 8.02506 18.3315 8.20839 18.3315C8.42506 18.3315 8.64172 18.2732 8.83339 18.1482C9.19172 17.9315 9.40006 17.5482 9.40006 17.1315V12.5232C9.40839 11.7315 8.96672 11.0148 8.25006 10.6565Z" fill="currentColor"/>
<path d="M18.3583 9.29267V13.901C18.3583 14.6927 17.9167 15.4093 17.2 15.7677L12.325 18.2093C12.1583 18.2927 11.975 18.3343 11.7917 18.3343C11.575 18.3343 11.3583 18.276 11.1583 18.151C10.8083 17.9343 10.5917 17.551 10.5917 17.1343V12.5343C10.5917 11.7343 11.0333 11.0177 11.75 10.6593L13.5417 9.76767L14.7917 9.14267L16.625 8.226C17 8.03433 17.4333 8.051 17.7917 8.276C18.1417 8.49267 18.3583 8.876 18.3583 9.29267Z" fill="currentColor"/>
<path d="M12.2452 6.90137L6.80969 3.84375L6.81848 3.83887L12.2452 6.90137Z" fill="currentColor" stroke="currentColor" stroke-width="1.25"/>
<mask id="path-5-inside-1_19179_7586" fill="currentColor">
<path d="M14.7916 9.14062V11.0323C14.7916 11.374 14.5083 11.6573 14.1666 11.6573C13.825 11.6573 13.5416 11.374 13.5416 11.0323V9.76562L14.7916 9.14062Z"/>
</mask>
<path d="M14.7916 9.14062V11.0323C14.7916 11.374 14.5083 11.6573 14.1666 11.6573C13.825 11.6573 13.5416 11.374 13.5416 11.0323V9.76562L14.7916 9.14062Z" fill="currentColor"/>
<path d="M14.7916 9.14062H16.0416V7.11808L14.2326 8.02259L14.7916 9.14062ZM13.5416 9.76562L12.9826 8.64759L12.2916 8.99308V9.76562H13.5416ZM14.7916 9.14062H13.5416V11.0323H14.7916H16.0416V9.14062H14.7916ZM14.7916 11.0323H13.5416C13.5416 10.6836 13.8179 10.4073 14.1666 10.4073V11.6573V12.9073C15.1986 12.9073 16.0416 12.0643 16.0416 11.0323H14.7916ZM14.1666 11.6573V10.4073C14.5153 10.4073 14.7916 10.6836 14.7916 11.0323H13.5416H12.2916C12.2916 12.0643 13.1346 12.9073 14.1666 12.9073V11.6573ZM13.5416 11.0323H14.7916V9.76562H13.5416H12.2916V11.0323H13.5416ZM13.5416 9.76562L14.1006 10.8837L15.3506 10.2587L14.7916 9.14062L14.2326 8.02259L12.9826 8.64759L13.5416 9.76562Z" fill="currentColor" mask="url(#path-5-inside-1_19179_7586)"/>
</svg>
