<svg width="20" height="20" viewBox="0 0 20 20" fill="none" xmlns="http://www.w3.org/2000/svg">
<path d="M6.5648 1.23465C6.63068 1.23469 6.69656 1.23467 6.76244 1.23458C6.93989 1.23453 7.11732 1.23545 7.29477 1.23654C7.48072 1.23753 7.66668 1.23761 7.85264 1.2378C8.20416 1.23828 8.55567 1.23956 8.90719 1.24113C9.30764 1.24288 9.70809 1.24374 10.1085 1.24452C10.9317 1.24615 11.7549 1.2489 12.5781 1.25239C12.5782 1.30256 12.5782 1.35273 12.5783 1.40442C12.5789 1.87908 12.5806 2.35373 12.5833 2.82838C12.5846 3.07236 12.5856 3.31633 12.5857 3.56032C12.5859 3.79613 12.587 4.03192 12.5888 4.26772C12.5893 4.35733 12.5895 4.44693 12.5893 4.53654C12.5882 5.24681 12.642 5.79642 13.1592 6.32761C13.6245 6.76575 14.1891 6.84231 14.8018 6.84634C14.8388 6.84673 14.8758 6.84712 14.9139 6.84752C15.035 6.84874 15.1561 6.84971 15.2772 6.85068C15.3617 6.85149 15.4461 6.85231 15.5306 6.85314C15.7519 6.85529 15.9733 6.85722 16.1946 6.85911C16.4209 6.86108 16.6471 6.86325 16.8734 6.86541C17.3166 6.8696 17.7599 6.87356 18.2031 6.87739C18.2049 8.16392 18.2063 9.45045 18.2071 10.737C18.2072 10.889 18.2073 11.041 18.2074 11.193C18.2074 11.2384 18.2074 11.2384 18.2075 11.2847C18.2078 11.7742 18.2084 12.2637 18.2091 12.7532C18.2099 13.2557 18.2103 13.7583 18.2105 14.2608C18.2106 14.5708 18.2109 14.8807 18.2115 15.1906C18.212 15.4285 18.212 15.6665 18.2119 15.9044C18.212 16.0018 18.2121 16.0992 18.2124 16.1966C18.2128 16.3298 18.2127 16.4631 18.2125 16.5964C18.2128 16.6538 18.2128 16.6538 18.2132 16.7123C18.2107 17.291 18.0709 17.7984 17.6636 18.225C17.2363 18.6187 16.802 18.7709 16.2263 18.7675C16.1822 18.7677 16.1382 18.7679 16.0928 18.7682C15.946 18.7687 15.7992 18.7684 15.6525 18.7682C15.5469 18.7683 15.4413 18.7687 15.3357 18.769C15.0792 18.7697 14.8227 18.7697 14.5662 18.7695C14.3577 18.7693 14.1491 18.7694 13.9405 18.7696C13.8959 18.7696 13.8959 18.7696 13.8504 18.7697C13.7899 18.7697 13.7295 18.7698 13.6691 18.7699C13.103 18.7704 12.5369 18.7702 11.9709 18.7697C11.4536 18.7693 10.9363 18.7698 10.4191 18.7708C9.88721 18.7717 9.35534 18.7721 8.82347 18.7719C8.52516 18.7717 8.22686 18.7718 7.92855 18.7725C7.67463 18.7731 7.42072 18.7731 7.16679 18.7724C7.03738 18.7721 6.90799 18.7721 6.77858 18.7726C6.63796 18.7731 6.49738 18.7727 6.35676 18.772C6.31632 18.7723 6.27589 18.7727 6.23424 18.7731C5.73731 18.7681 5.28712 18.5575 4.91697 18.2299C4.63427 17.934 4.40893 17.4741 4.40934 17.0638C4.40929 17.0225 4.40924 16.9812 4.40918 16.9387C4.40932 16.8936 4.40946 16.8485 4.40961 16.802C4.4096 16.7544 4.40959 16.7067 4.40959 16.6577C4.40961 16.5272 4.40981 16.3967 4.41008 16.2662C4.41032 16.1298 4.41035 15.9933 4.41039 15.8569C4.41051 15.5986 4.41083 15.3403 4.41123 15.082C4.41166 14.788 4.41188 14.4939 4.41207 14.1998C4.41248 13.5949 4.41317 12.9901 4.41404 12.3852C4.44131 12.3877 4.46858 12.3902 4.49667 12.3927C4.62266 12.404 4.74868 12.4148 4.8747 12.4256C4.91758 12.4295 4.96045 12.4335 5.00463 12.4375C6.3025 12.5469 7.6576 12.1313 8.65903 11.2924C8.68905 11.2663 8.71906 11.2402 8.74998 11.2133C8.79862 11.1718 8.79862 11.1718 8.84824 11.1294C9.87818 10.229 10.4879 8.95183 10.6152 7.59516C10.6192 7.52521 10.6225 7.45522 10.625 7.3852C10.6265 7.35539 10.6281 7.32558 10.6297 7.29487C10.6696 5.90726 10.1098 4.54828 9.16637 3.54487C8.13309 2.47732 6.78435 1.96393 5.31248 1.91645C5.15615 1.91401 5.00005 1.91374 4.84373 1.91645C5.29429 1.3388 5.86505 1.22802 6.5648 1.23465ZM14.5261 10.9169C14.4088 11.0995 14.4314 11.3077 14.4329 11.5174C14.4326 11.5636 14.4323 11.6097 14.4321 11.6572C14.4315 11.7833 14.4316 11.9094 14.4321 12.0354C14.4325 12.1676 14.4321 12.2998 14.4319 12.4321C14.4316 12.654 14.432 12.876 14.4327 13.098C14.4336 13.3543 14.4333 13.6105 14.4324 13.8668C14.4317 14.0872 14.4316 14.3077 14.432 14.5281C14.4323 14.6596 14.4323 14.791 14.4318 14.9225C14.4314 15.0691 14.432 15.2157 14.4329 15.3623C14.4326 15.4057 14.4323 15.449 14.4319 15.4937C14.4346 15.7332 14.4486 15.8752 14.6094 16.0571C14.7793 16.2109 14.9186 16.2381 15.1407 16.2284C15.3288 16.1981 15.4338 16.0949 15.5591 15.9594C15.6577 15.8132 15.6689 15.6905 15.6695 15.5165C15.6697 15.4786 15.67 15.4406 15.6702 15.4015C15.6702 15.3602 15.6703 15.3188 15.6703 15.2762C15.6705 15.2324 15.6707 15.1886 15.6709 15.1435C15.6715 14.9985 15.6718 14.8536 15.672 14.7087C15.6722 14.6079 15.6724 14.5072 15.6726 14.4065C15.673 14.2223 15.6733 14.038 15.6734 13.8538C15.6735 13.583 15.6742 13.3123 15.6754 13.0415C15.6763 12.8066 15.6766 12.5717 15.6767 12.3368C15.6768 12.2371 15.6771 12.1373 15.6776 12.0376C15.6783 11.898 15.6782 11.7584 15.678 11.6188C15.6783 11.5776 15.6787 11.5365 15.6791 11.4941C15.6776 11.2416 15.6609 11.0303 15.4869 10.8328C15.1481 10.5815 14.8169 10.5878 14.5261 10.9169ZM9.60935 12.6977C9.46772 12.8762 9.43345 12.9936 9.43288 13.2203C9.43261 13.2482 9.43234 13.276 9.43205 13.3047C9.43137 13.3962 9.43182 13.4876 9.43235 13.579C9.43225 13.643 9.43209 13.7069 9.4319 13.7708C9.43167 13.9045 9.432 14.0382 9.43273 14.1719C9.43362 14.3429 9.43311 14.5139 9.43217 14.6849C9.43161 14.8168 9.43179 14.9487 9.43219 15.0806C9.4323 15.1437 9.43217 15.2067 9.43181 15.2697C9.43141 15.358 9.43202 15.4462 9.43288 15.5345C9.43301 15.5846 9.43313 15.6347 9.43326 15.6864C9.46335 15.8931 9.55964 16.0121 9.71189 16.1498C9.89054 16.2359 10.0394 16.2448 10.2344 16.2133C10.4154 16.1228 10.5805 15.992 10.6482 15.7936C10.669 15.6776 10.6697 15.5662 10.6703 15.4483C10.6705 15.4228 10.6707 15.3973 10.6709 15.371C10.6715 15.287 10.6718 15.2029 10.672 15.1188C10.6722 15.0601 10.6724 15.0015 10.6726 14.9428C10.6731 14.8198 10.6733 14.6968 10.6734 14.5739C10.6736 14.4168 10.6746 14.2597 10.6757 14.1026C10.6764 13.9814 10.6766 13.8602 10.6767 13.739C10.6768 13.6811 10.6771 13.6232 10.6776 13.5653C10.6783 13.4841 10.6782 13.4029 10.678 13.3217C10.6781 13.2755 10.6782 13.2294 10.6784 13.1819C10.659 13.0029 10.6083 12.8456 10.4869 12.7078C10.2025 12.4969 9.89324 12.4409 9.60935 12.6977ZM12.0261 13.4138C11.9013 13.608 11.9309 13.845 11.9324 14.0673C11.9322 14.1167 11.9321 14.1661 11.9319 14.217C11.9318 14.3213 11.932 14.4256 11.9327 14.5299C11.9336 14.6631 11.9331 14.7962 11.9322 14.9294C11.9315 15.0571 11.932 15.1848 11.9324 15.3124C11.932 15.3601 11.9317 15.4077 11.9314 15.4567C11.9342 15.7067 11.9375 15.8689 12.1094 16.0571C12.2793 16.2109 12.4186 16.2381 12.6407 16.2284C12.8288 16.1981 12.9338 16.0949 13.0591 15.9594C13.1599 15.81 13.169 15.6835 13.1703 15.5056C13.1707 15.4659 13.1711 15.4261 13.1715 15.3851C13.1716 15.3424 13.1718 15.2996 13.172 15.2555C13.1722 15.2113 13.1724 15.1671 13.1726 15.1215C13.173 15.028 13.1733 14.9344 13.1734 14.8409C13.1738 14.6982 13.175 14.5554 13.1762 14.4127C13.1765 14.3217 13.1767 14.2308 13.1769 14.1398C13.1773 14.0973 13.1778 14.0547 13.1783 14.0109C13.1776 13.7519 13.1656 13.5356 12.9869 13.3328C12.647 13.0807 12.3215 13.0905 12.0261 13.4138ZM7.02604 14.6639C6.90109 14.8572 6.93063 15.0935 6.93357 15.3149C6.93297 15.3603 6.93236 15.4057 6.93174 15.4525C6.93289 15.7037 6.93696 15.8683 7.10935 16.0571C7.2793 16.2108 7.41864 16.2383 7.64066 16.2283C7.83931 16.1966 7.94008 16.0942 8.05906 15.9399C8.17356 15.7363 8.17231 15.5532 8.17381 15.3247C8.17461 15.2944 8.17542 15.2642 8.17625 15.2331C8.17779 15.0034 8.15399 14.7663 7.99012 14.5897C7.80294 14.4302 7.68231 14.4025 7.44291 14.4056C7.2518 14.4265 7.15099 14.5271 7.02604 14.6639Z" fill="currentColor"/>
<path d="M4.74609 3.30078C4.74754 3.72712 4.74988 4.15375 4.75293 4.58008C4.75447 4.79926 4.75623 5.01912 4.75684 5.23828C4.75743 5.44989 4.75888 5.66146 4.76074 5.87305C4.76132 5.95358 4.76169 6.0347 4.76172 6.11523L4.76367 6.45508C4.76348 6.48785 4.7629 6.52093 4.7627 6.55469L4.76953 6.66602C4.78647 6.84849 4.83678 7.01384 4.91699 7.17383L5.02734 7.36426L5.03027 7.36816C5.40303 7.72463 5.8343 7.79237 6.29395 7.80566L6.76172 7.80957C6.83724 7.8103 6.91276 7.81073 6.98828 7.81152C7.18584 7.81352 7.38351 7.81495 7.58105 7.81641C7.78314 7.81798 7.98539 7.82031 8.1875 7.82227C8.57578 7.82596 8.96426 7.8281 9.35254 7.83105C9.34746 7.88637 9.34314 7.94176 9.33789 7.99707C9.33468 8.03151 9.33144 8.06609 9.32812 8.10156C9.25999 8.67154 8.94718 9.22972 8.58203 9.68262L8.42285 9.87012L8.42188 9.87109C8.40384 9.89463 8.38576 9.91814 8.36719 9.94238C7.87829 10.5774 7.05777 10.978 6.26953 11.1641L5.93457 11.2305C5.74989 11.2461 5.56672 11.2496 5.38086 11.248L5.23145 11.2471C4.83916 11.2402 4.47909 11.197 4.10742 11.0752L4.03125 11.0508C3.42227 10.846 2.92894 10.5134 2.47461 10.0645L2.47363 10.0635C2.43204 10.0261 2.43225 10.0256 2.38965 9.9873C1.80376 9.44814 1.40462 8.57921 1.31543 7.77734L1.30176 7.61719C1.29039 7.03966 1.28519 6.49295 1.46387 5.94336L1.48828 5.86719C1.69304 5.25831 2.02572 4.76482 2.47461 4.31055H2.47559L2.55176 4.22559C2.80927 3.94579 3.17016 3.68215 3.56348 3.49023C3.95056 3.30141 4.36779 3.1824 4.74609 3.18359C4.74625 3.23269 4.7459 3.23925 4.74609 3.30078Z" fill="currentColor" stroke="currentColor" stroke-width="0.0390625"/>
<path d="M13.9541 1.28613C13.9847 1.28912 14.0154 1.29087 14.0469 1.29395V1.29492C14.3392 1.33865 14.5933 1.49266 14.8213 1.68945C15.0494 1.88637 15.2501 2.12451 15.4385 2.33496C15.5292 2.43587 15.6211 2.53605 15.7129 2.63574C15.871 2.80797 16.0284 2.98125 16.1846 3.15527C16.2857 3.26731 16.3872 3.37916 16.4893 3.49023C16.6491 3.66416 16.8082 3.83873 16.9658 4.01465C17.0478 4.10542 17.1307 4.19552 17.2139 4.28516C17.6172 4.72143 17.8167 4.93802 17.9277 5.10547C18.0339 5.26555 18.0577 5.38009 18.1006 5.60547C17.5983 5.60901 17.096 5.61161 16.5938 5.61328C16.3568 5.6141 16.1198 5.61542 15.8828 5.61719C15.6543 5.61888 15.4258 5.61971 15.1973 5.62012H15.1963C15.1092 5.62041 15.0217 5.62123 14.9346 5.62207L14.5684 5.62305C14.5323 5.62361 14.4961 5.62442 14.459 5.625L14.3135 5.61719C14.2697 5.61212 14.2298 5.60411 14.1914 5.5918C14.1531 5.57951 14.1162 5.56251 14.0781 5.54004L13.958 5.4541C13.8995 5.38717 13.8617 5.32555 13.8379 5.25977C13.8138 5.19333 13.8036 5.12088 13.8037 5.03125V4.70312C13.8037 4.57586 13.8044 4.44859 13.8047 4.32129C13.8048 4.233 13.8046 4.14395 13.8047 4.05566C13.8048 3.82325 13.8052 3.59082 13.8057 3.3584C13.8061 3.12117 13.8064 2.8837 13.8066 2.64648C13.8071 2.18815 13.8068 1.72982 13.8076 1.27148L13.9541 1.28613Z" fill="currentColor" stroke="currentColor" stroke-width="0.0390625"/>
<path d="M5.99609 3.18652C6.23782 3.21398 6.43807 3.24677 6.66406 3.32422L6.75586 3.35547C7.22142 3.51973 7.61058 3.76855 7.99512 4.07812H7.99609C8.02579 4.10095 8.05535 4.12396 8.08594 4.14746C8.68767 4.6388 9.13225 5.42132 9.31641 6.17285V6.17383C9.33501 6.35991 9.33591 6.36689 9.35352 6.54297H5.99609V3.18652Z" fill="currentColor" stroke="currentColor" stroke-width="0.0390625"/>
</svg>
