<svg width="20" height="20" viewBox="0 0 20 20" fill="none" xmlns="http://www.w3.org/2000/svg">
<path d="M18.125 6.66771C18.125 7.00938 17.8417 7.29271 17.5 7.29271H2.5C2.15833 7.29271 1.875 7.00938 1.875 6.66771C1.875 6.32604 2.15833 6.04271 2.5 6.04271H3.35L3.66667 4.53437C3.96667 3.07604 4.59167 1.73438 7.075 1.73438H12.925C15.4083 1.73438 16.0333 3.07604 16.3333 4.53437L16.65 6.04271H17.5C17.8417 6.04271 18.125 6.32604 18.125 6.66771Z" fill="currentColor"/>
<path d="M18.4834 11.3846C18.3584 10.0096 17.9917 8.54297 15.3167 8.54297H4.68336C2.00836 8.54297 1.65003 10.0096 1.5167 11.3846L1.05003 16.4596C0.991697 17.093 1.20003 17.7263 1.63336 18.2013C2.07503 18.6846 2.70003 18.9596 3.3667 18.9596H4.93336C6.28336 18.9596 6.5417 18.1846 6.70836 17.6763L6.87503 17.1763C7.0667 16.6013 7.1167 16.4596 7.8667 16.4596H12.1334C12.8834 16.4596 12.9084 16.543 13.125 17.1763L13.2917 17.6763C13.4584 18.1846 13.7167 18.9596 15.0667 18.9596H16.6334C17.2917 18.9596 17.925 18.6846 18.3667 18.2013C18.8 17.7263 19.0084 17.093 18.95 16.4596L18.4834 11.3846ZM7.50003 13.1263H5.00003C4.65836 13.1263 4.37503 12.843 4.37503 12.5013C4.37503 12.1596 4.65836 11.8763 5.00003 11.8763H7.50003C7.8417 11.8763 8.12503 12.1596 8.12503 12.5013C8.12503 12.843 7.8417 13.1263 7.50003 13.1263ZM15 13.1263H12.5C12.1584 13.1263 11.875 12.843 11.875 12.5013C11.875 12.1596 12.1584 11.8763 12.5 11.8763H15C15.3417 11.8763 15.625 12.1596 15.625 12.5013C15.625 12.843 15.3417 13.1263 15 13.1263Z" fill="currentColor"/>
</svg>
