<svg width="20" height="20" viewBox="0 0 20 20" fill="none" xmlns="http://www.w3.org/2000/svg">
<path d="M15.5583 1.66797H13.975C12.1583 1.66797 11.2 2.6263 11.2 4.44297V6.0263C11.2 7.84297 12.1583 8.8013 13.975 8.8013H15.5583C17.375 8.8013 18.3333 7.84297 18.3333 6.0263V4.44297C18.3333 2.6263 17.375 1.66797 15.5583 1.66797Z" fill="currentColor"/>
<path d="M6.03329 11.1914H4.44996C2.62496 11.1914 1.66663 12.1497 1.66663 13.9664V15.5497C1.66663 17.3747 2.62496 18.3331 4.44163 18.3331H6.02496C7.84163 18.3331 8.79996 17.3747 8.79996 15.5581V13.9747C8.80829 12.1497 7.84996 11.1914 6.03329 11.1914Z" fill="currentColor"/>
<path d="M5.24163 8.81797C7.21604 8.81797 8.81663 7.21739 8.81663 5.24297C8.81663 3.26855 7.21604 1.66797 5.24163 1.66797C3.26721 1.66797 1.66663 3.26855 1.66663 5.24297C1.66663 7.21739 3.26721 8.81797 5.24163 8.81797Z" fill="currentColor"/>
<path d="M14.7583 18.3336C16.7328 18.3336 18.3333 16.733 18.3333 14.7586C18.3333 12.7842 16.7328 11.1836 14.7583 11.1836C12.7839 11.1836 11.1833 12.7842 11.1833 14.7586C11.1833 16.733 12.7839 18.3336 14.7583 18.3336Z" fill="currentColor"/>
</svg>
