<svg width="20" height="20" viewBox="0 0 20 20" fill="none" xmlns="http://www.w3.org/2000/svg">
<g clip-path="url(#clip0_19179_105508)">
<path d="M2.39135 -0.0141421C2.45967 -0.0143052 2.52799 -0.0145193 2.59631 -0.0147796C2.78336 -0.0153431 2.97041 -0.0151787 3.15746 -0.0148902C3.35946 -0.0147052 3.56146 -0.0151942 3.76346 -0.0155941C4.15893 -0.0162653 4.5544 -0.0162983 4.94987 -0.0160935C5.27135 -0.0159356 5.59284 -0.0159921 5.91432 -0.0162009C5.9601 -0.0162301 6.00588 -0.0162594 6.05305 -0.0162895C6.14605 -0.0163493 6.23905 -0.0164094 6.33206 -0.0164698C7.20397 -0.0170059 8.07588 -0.0167935 8.94779 -0.0163453C9.74515 -0.0159574 10.5425 -0.0164629 11.3399 -0.0173975C12.159 -0.0183503 12.9781 -0.0187255 13.7972 -0.0184657C14.2569 -0.0183293 14.7166 -0.0184164 15.1763 -0.0191005C15.5677 -0.0196757 15.959 -0.0197003 16.3504 -0.0190196C16.5499 -0.0186872 16.7495 -0.0186033 16.9491 -0.0192013C17.132 -0.0197425 17.3149 -0.0195558 17.4977 -0.0188014C17.5637 -0.0186546 17.6297 -0.0187684 17.6957 -0.0191768C18.3686 -0.0230447 18.9033 0.141746 19.4002 0.608607C21.9734 3.27996 20 8.01064 20 11.7198C13.4 11.7198 6.8 11.7198 0 11.7198C0 1.2343 0 1.2343 0.588379 0.596705C1.11396 0.103408 1.69368 -0.0168567 2.39135 -0.0141421ZM3.67188 1.99319C3.58646 2.11203 3.59163 2.20147 3.59375 2.34475C3.55181 2.34385 3.50986 2.34294 3.46664 2.34201C3.41054 2.34127 3.35444 2.34056 3.29834 2.33987C3.27082 2.33921 3.2433 2.33856 3.21495 2.33789C2.93689 2.33532 2.70588 2.37913 2.5 2.57913C2.39372 2.75365 2.39645 2.92729 2.42188 3.126C2.50756 3.30054 2.59715 3.39587 2.77344 3.47756C2.94588 3.52351 3.11637 3.52113 3.29346 3.51907C3.32239 3.51889 3.35131 3.51872 3.38112 3.51853C3.452 3.51808 3.52287 3.51738 3.59375 3.51663C3.60055 3.5809 3.60055 3.5809 3.60748 3.64648C3.63834 3.82137 3.69386 3.87349 3.82812 3.98538C3.99453 4.09631 4.1406 4.08815 4.33594 4.0635C4.50888 3.9786 4.60973 3.88909 4.6875 3.71194C4.68922 3.64686 4.68946 3.5817 4.6875 3.51663C4.72409 3.5168 4.76067 3.51697 4.79837 3.51715C5.14376 3.51874 5.48916 3.51991 5.83456 3.52067C6.01212 3.52108 6.18968 3.52163 6.36724 3.52252C6.5387 3.52337 6.71017 3.52384 6.88164 3.52404C6.94694 3.52418 7.01224 3.52446 7.07754 3.52489C7.16926 3.52546 7.26097 3.52553 7.35269 3.5255C7.37946 3.52578 7.40624 3.52606 7.43383 3.52635C7.66691 3.52536 7.86064 3.49834 8.03955 3.34329C8.19339 3.16307 8.22053 3.06388 8.21548 2.83334C8.19725 2.68881 8.14353 2.60811 8.04688 2.501C7.83367 2.34246 7.61924 2.33898 7.36156 2.34032C7.33257 2.34031 7.30359 2.34031 7.27372 2.3403C7.1784 2.34033 7.08308 2.34063 6.98776 2.34094C6.92148 2.34101 6.8552 2.34107 6.78892 2.3411C6.61483 2.34125 6.44073 2.34164 6.26664 2.34207C6.08885 2.34247 5.91105 2.34265 5.73326 2.34284C5.38467 2.34326 5.03609 2.34393 4.6875 2.34475C4.68297 2.3019 4.67844 2.25905 4.67377 2.2149C4.64291 2.04001 4.58739 1.98789 4.45312 1.876C4.18584 1.69781 3.88854 1.77337 3.67188 1.99319ZM13.0469 1.99319C12.8636 2.28454 12.9195 2.67939 12.9297 3.00881C12.862 3.01848 12.862 3.01848 12.793 3.02835C12.5661 3.07611 12.3718 3.18638 12.1713 3.29911C11.9762 3.40428 11.9762 3.40428 11.8681 3.38159C11.7385 3.27194 11.6252 3.14841 11.5091 3.02484C11.3619 2.89011 11.2339 2.82014 11.0352 2.79885C10.8325 2.82057 10.7123 2.87859 10.5737 3.02835C10.4632 3.19204 10.4525 3.32211 10.4688 3.51663C10.5858 3.80657 10.8323 4.00774 11.0547 4.21975C11.0098 4.33557 10.9616 4.44943 10.9105 4.56262C10.8986 4.58913 10.8867 4.61564 10.8744 4.64295C10.8498 4.69766 10.8249 4.75229 10.7999 4.80683C10.7303 4.96287 10.6837 5.10281 10.6641 5.27444C10.6193 5.27353 10.5745 5.27263 10.5284 5.27169C10.4686 5.27096 10.4089 5.27025 10.3491 5.26956C10.3197 5.2689 10.2904 5.26825 10.2601 5.26757C9.97672 5.26512 9.7417 5.30438 9.53125 5.50881C9.42497 5.68334 9.4277 5.85698 9.45312 6.05569C9.53881 6.23023 9.6284 6.32556 9.80469 6.40725C9.98393 6.45571 10.1601 6.45076 10.3442 6.44876C10.3904 6.44849 10.3904 6.44849 10.4375 6.44822C10.5131 6.44776 10.5886 6.44706 10.6641 6.44631C10.6737 6.51399 10.6737 6.51399 10.6836 6.58303C10.7314 6.80993 10.8416 7.00417 10.9544 7.20468C11.0595 7.39985 11.0595 7.39985 11.0368 7.50787C10.9272 7.6375 10.8037 7.75079 10.6801 7.86691C10.5454 8.01408 10.4754 8.14214 10.4541 8.34085C10.4758 8.54353 10.5338 8.66375 10.6836 8.80227C10.8473 8.91276 10.9774 8.92346 11.1719 8.90725C11.4618 8.79016 11.663 8.54368 11.875 8.32131C11.9908 8.36624 12.1047 8.41437 12.2179 8.46551C12.2576 8.48337 12.2576 8.48337 12.2982 8.5016C12.3529 8.52623 12.4075 8.55105 12.4621 8.57606C12.6181 8.64572 12.7581 8.69233 12.9297 8.71194C12.9288 8.7567 12.9279 8.80147 12.9269 8.84759C12.9262 8.90735 12.9255 8.96712 12.9248 9.02688C12.9238 9.07095 12.9238 9.07095 12.9228 9.11592C12.9207 9.35939 12.9376 9.56847 13.103 9.7593C13.2832 9.91314 13.3824 9.94028 13.613 9.93524C13.7575 9.917 13.8382 9.86328 13.9453 9.76663C14.1149 9.53858 14.107 9.30417 14.104 9.03176C14.1038 9.00097 14.1037 8.97018 14.1035 8.93846C14.103 8.86295 14.1023 8.78744 14.1016 8.71194C14.1467 8.70549 14.1918 8.69905 14.2383 8.69241C14.4652 8.64464 14.6594 8.53438 14.8599 8.42164C15.0551 8.31648 15.0551 8.31648 15.1631 8.33917C15.2927 8.44881 15.406 8.57234 15.5222 8.69592C15.6693 8.83064 15.7974 8.90061 15.9961 8.9219C16.1988 8.90018 16.319 8.84216 16.4575 8.69241C16.568 8.52871 16.5787 8.39864 16.5625 8.20413C16.4454 7.91418 16.1989 7.71301 15.9766 7.501C16.0215 7.38518 16.0696 7.27132 16.1208 7.15814C16.1327 7.13163 16.1446 7.10511 16.1568 7.0778C16.1815 7.02309 16.2063 6.96846 16.2313 6.91392C16.301 6.75788 16.3476 6.61794 16.3672 6.44631C16.412 6.44722 16.4567 6.44813 16.5028 6.44906C16.5626 6.44979 16.6224 6.45051 16.6821 6.4512C16.7115 6.45185 16.7409 6.45251 16.7712 6.45318C17.0146 6.45529 17.2237 6.43836 17.4146 6.27297C17.5684 6.09276 17.5955 5.99357 17.5905 5.76303C17.5722 5.61849 17.5185 5.53779 17.4219 5.43069C17.1938 5.26112 16.9594 5.26903 16.687 5.272C16.6408 5.27226 16.6408 5.27226 16.5937 5.27253C16.5182 5.27299 16.4427 5.27369 16.3672 5.27444C16.3607 5.22932 16.3543 5.18421 16.3477 5.13772C16.2999 4.91083 16.1896 4.71658 16.0769 4.51608C15.9717 4.32091 15.9717 4.32091 15.9944 4.21289C16.1041 4.08326 16.2276 3.96996 16.3512 3.85385C16.4859 3.70668 16.5559 3.57862 16.5771 3.37991C16.5554 3.17722 16.4974 3.057 16.3477 2.91848C16.184 2.80799 16.0539 2.79729 15.8594 2.8135C15.5694 2.93059 15.3683 3.17708 15.1562 3.39944C15.0404 3.35451 14.9266 3.30638 14.8134 3.25524C14.7869 3.24333 14.7604 3.23143 14.733 3.21916C14.6783 3.19452 14.6237 3.1697 14.5692 3.14469C14.4131 3.07503 14.2732 3.02842 14.1016 3.00881C14.1025 2.96405 14.1034 2.91928 14.1043 2.87316C14.105 2.8134 14.1058 2.75364 14.1064 2.69387C14.1074 2.6498 14.1074 2.6498 14.1084 2.60484C14.1105 2.36136 14.0936 2.15228 13.9282 1.96145C13.75 1.80928 13.6497 1.77752 13.4209 1.78353C13.2566 1.80697 13.1543 1.86751 13.0469 1.99319ZM6.01562 4.92288C5.93021 5.04171 5.93538 5.13116 5.9375 5.27444C5.90091 5.27427 5.86433 5.27409 5.82663 5.27391C5.48124 5.27233 5.13584 5.27116 4.79044 5.27039C4.61288 5.26998 4.43532 5.26943 4.25776 5.26855C4.0863 5.26769 3.91483 5.26723 3.74336 5.26703C3.67806 5.26688 3.61276 5.2666 3.54746 5.26618C3.45574 5.26561 3.36403 5.26553 3.27231 5.26557C3.24554 5.26529 3.21876 5.26501 3.19117 5.26472C2.91862 5.26587 2.69836 5.31612 2.5 5.50881C2.39372 5.68334 2.39645 5.85698 2.42188 6.05569C2.50756 6.23023 2.59715 6.32556 2.77344 6.40725C2.93661 6.44953 3.096 6.45162 3.26344 6.45075C3.29243 6.45075 3.32141 6.45076 3.35128 6.45077C3.4466 6.45074 3.54192 6.45044 3.63724 6.45013C3.70352 6.45006 3.7698 6.45 3.83608 6.44996C4.01017 6.44981 4.18427 6.44943 4.35836 6.449C4.53615 6.4486 4.71395 6.44842 4.89174 6.44822C5.24033 6.4478 5.58891 6.44714 5.9375 6.44631C5.94203 6.48917 5.94656 6.53202 5.95123 6.57617C5.98209 6.75106 6.03761 6.80317 6.17188 6.91506C6.33828 7.026 6.48435 7.01783 6.67969 6.99319C6.85263 6.90829 6.95348 6.81878 7.03125 6.64163C7.03297 6.57655 7.03321 6.51139 7.03125 6.44631C7.07319 6.44722 7.11514 6.44813 7.15836 6.44906C7.21446 6.44979 7.27056 6.45051 7.32666 6.4512C7.36794 6.45218 7.36794 6.45218 7.41005 6.45318C7.64853 6.45538 7.85307 6.43459 8.03955 6.27297C8.19339 6.09276 8.22053 5.99357 8.21548 5.76303C8.19725 5.61849 8.14353 5.53779 8.04688 5.43069C7.82463 5.26543 7.59988 5.26888 7.33154 5.272C7.30261 5.27217 7.27369 5.27235 7.24388 5.27253C7.173 5.27299 7.10213 5.27369 7.03125 5.27444C7.02672 5.23159 7.02219 5.18874 7.01752 5.14459C6.98666 4.9697 6.93114 4.91758 6.79688 4.80569C6.52959 4.6275 6.23229 4.70305 6.01562 4.92288ZM3.67188 7.85256C3.58646 7.9714 3.59163 8.06084 3.59375 8.20413C3.55271 8.20277 3.51167 8.20141 3.46939 8.20001C3.02812 8.18134 3.02812 8.18134 2.61719 8.32131C2.43783 8.50515 2.40801 8.63652 2.41089 8.88604C2.42702 9.03193 2.48081 9.11192 2.57812 9.21975C2.80037 9.38501 3.02512 9.38156 3.29346 9.37844C3.32239 9.37827 3.35131 9.37809 3.38112 9.37791C3.452 9.37745 3.52287 9.37675 3.59375 9.376C3.60055 9.44028 3.60055 9.44028 3.60748 9.50585C3.63834 9.68075 3.69386 9.73286 3.82812 9.84475C3.99453 9.95569 4.1406 9.94752 4.33594 9.92288C4.50888 9.83798 4.60973 9.74846 4.6875 9.57131C4.68922 9.50623 4.68946 9.44108 4.6875 9.376C4.72409 9.37618 4.76067 9.37635 4.79837 9.37653C5.14376 9.37811 5.48916 9.37928 5.83456 9.38005C6.01212 9.38046 6.18968 9.38101 6.36724 9.3819C6.5387 9.38275 6.71017 9.38321 6.88164 9.38341C6.94694 9.38356 7.01224 9.38384 7.07754 9.38426C7.16926 9.38483 7.26097 9.38491 7.35269 9.38487C7.37946 9.38515 7.40624 9.38543 7.43383 9.38572C7.66691 9.38474 7.86064 9.35772 8.03955 9.20266C8.19339 9.02245 8.22053 8.92326 8.21548 8.69271C8.19725 8.54818 8.14353 8.46748 8.04688 8.36038C7.83367 8.20184 7.61924 8.19835 7.36156 8.19969C7.33257 8.19969 7.30359 8.19968 7.27372 8.19967C7.1784 8.1997 7.08308 8.20001 6.98776 8.20031C6.92148 8.20039 6.8552 8.20044 6.78892 8.20048C6.61483 8.20063 6.44073 8.20101 6.26664 8.20144C6.08885 8.20185 5.91105 8.20202 5.73326 8.20222C5.38467 8.20264 5.03609 8.2033 4.6875 8.20413C4.68297 8.16128 4.67844 8.11842 4.67377 8.07428C4.64291 7.89938 4.58739 7.84727 4.45312 7.73538C4.18584 7.55719 3.88854 7.63274 3.67188 7.85256Z" fill="currentColor"/>
<path d="M0 12.8906C6.6 12.8906 13.2 12.8906 20 12.8906C20 13.5968 19.8938 14.1161 19.4116 14.6387C18.9417 15.0798 18.4018 15.252 17.7672 15.2513C17.7172 15.2517 17.6672 15.2521 17.6157 15.2525C17.4799 15.2535 17.3441 15.2539 17.2083 15.2541C17.066 15.2545 16.9236 15.2555 16.7812 15.2565C16.5121 15.2582 16.2431 15.2593 15.974 15.2602C15.6675 15.2613 15.3609 15.263 15.0544 15.2648C14.4243 15.2684 13.7942 15.2712 13.1641 15.2734C13.1735 15.306 13.183 15.3385 13.1927 15.372C13.2278 15.4927 13.2627 15.6135 13.2976 15.7343C13.3127 15.7866 13.3278 15.8388 13.343 15.891C13.3649 15.9662 13.3866 16.0413 13.4082 16.1165C13.4213 16.1617 13.4344 16.2069 13.4479 16.2535C13.4766 16.3672 13.4766 16.3672 13.4766 16.4844C11.182 16.4844 8.8875 16.4844 6.52344 16.4844C6.61133 16.0449 6.61133 16.0449 6.66046 15.8762C6.67595 15.8225 6.67595 15.8225 6.69174 15.7678C6.70753 15.714 6.70753 15.714 6.72363 15.6592C6.73446 15.6218 6.74529 15.5845 6.75644 15.546C6.7828 15.4551 6.8093 15.3642 6.83594 15.2734C6.81 15.2734 6.78406 15.2733 6.75733 15.2733C6.12442 15.2718 5.49153 15.2695 4.85863 15.2663C4.55256 15.2647 4.24649 15.2634 3.94041 15.2629C3.67345 15.2623 3.4065 15.2613 3.13955 15.2596C2.99836 15.2587 2.85718 15.2581 2.71599 15.2581C2.55789 15.2582 2.39981 15.257 2.24171 15.2557C2.17246 15.256 2.17246 15.256 2.10182 15.2563C1.533 15.2492 1.01477 15.0327 0.595703 14.646C0.10857 14.127 0 13.5995 0 12.8906Z" fill="currentColor"/>
<path d="M7.04423 17.6341C7.11595 17.6339 7.18767 17.6336 7.25939 17.6333C7.45309 17.6326 7.64677 17.6328 7.84047 17.6333C8.0438 17.6337 8.24713 17.6334 8.45046 17.6331C8.79182 17.6328 9.13318 17.6332 9.47454 17.6339C9.86842 17.6348 10.2623 17.6345 10.6562 17.6337C10.9952 17.6329 11.3342 17.6328 11.6732 17.6333C11.8753 17.6335 12.0774 17.6335 12.2796 17.633C12.4696 17.6326 12.6597 17.6329 12.8498 17.6338C12.9192 17.634 12.9887 17.6339 13.0582 17.6336C13.6049 17.6311 14.0427 17.6922 14.4531 18.084C14.7896 18.4365 14.8955 18.7894 14.9024 19.2681C14.9034 19.3185 14.9034 19.3185 14.9046 19.3699C14.9024 19.5842 14.8736 19.7144 14.7266 19.8809C14.5478 20.0231 14.3837 20.0147 14.1653 20.0132C14.1283 20.0134 14.0913 20.0136 14.0532 20.0138C13.9291 20.0144 13.805 20.0141 13.6809 20.0138C13.592 20.0141 13.503 20.0143 13.4141 20.0147C13.1725 20.0154 12.9308 20.0153 12.6892 20.0151C12.4876 20.015 12.2859 20.0152 12.0843 20.0154C11.5815 20.016 11.0787 20.0159 10.5759 20.0154C10.1393 20.015 9.70274 20.0155 9.26616 20.0165C8.81777 20.0174 8.36938 20.0178 7.92098 20.0175C7.66929 20.0174 7.4176 20.0175 7.16591 20.0182C6.92926 20.0188 6.69262 20.0186 6.45596 20.0179C6.36907 20.0177 6.28218 20.0179 6.19529 20.0183C6.07674 20.0188 5.95823 20.0183 5.83968 20.0176C5.80524 20.018 5.77079 20.0184 5.7353 20.0188C5.5233 20.0162 5.40294 19.9824 5.23439 19.8418C5.08643 19.6698 5.09756 19.4869 5.10011 19.2705C5.10044 19.2356 5.10076 19.2006 5.10109 19.1646C5.1134 18.6818 5.27848 18.3402 5.62761 18.0069C6.05506 17.6468 6.51057 17.6314 7.04423 17.6341Z" fill="currentColor"/>
<path d="M14.5148 4.361C14.8849 4.63245 15.1769 5.01115 15.2734 5.46863C15.3241 6.0158 15.2798 6.49583 14.9463 6.95057C14.6631 7.28288 14.2749 7.58295 13.8248 7.62461C13.2567 7.64518 12.7918 7.60314 12.3407 7.21867C12.0231 6.92107 11.7633 6.52845 11.7471 6.08158C11.7308 5.50149 11.8166 5.04675 12.2266 4.60926C12.8132 3.9893 13.8081 3.91023 14.5148 4.361ZM13.0469 5.5077C12.9391 5.6805 12.9435 5.857 12.9687 6.05457C13.0532 6.22669 13.1405 6.33577 13.3203 6.40613C13.5173 6.43286 13.6653 6.42856 13.8452 6.34022C13.9764 6.2218 14.0505 6.1428 14.0748 5.96348C14.0852 5.74014 14.0613 5.60135 13.9062 5.42957C13.7578 5.29863 13.6093 5.2902 13.4183 5.29591C13.2633 5.32197 13.153 5.39316 13.0469 5.5077Z" fill="currentColor"/>
</g>
<defs>
<clipPath id="clip0_19179_105508">
<rect width="20" height="20" fill="white"/>
</clipPath>
</defs>
</svg>
