<svg width="20" height="20" viewBox="0 0 20 20" fill="none" xmlns="http://www.w3.org/2000/svg">
<path d="M3.39566 6.61587C3.46754 6.61557 3.53943 6.61523 3.61132 6.61486C3.76149 6.61428 3.91166 6.6143 4.06184 6.61471C4.25316 6.61516 4.44443 6.61384 4.63574 6.61203C4.78408 6.61087 4.9324 6.61081 5.08073 6.61105C5.15121 6.61101 5.2217 6.61061 5.29217 6.60981C5.75063 6.60529 6.13381 6.63012 6.49398 6.95224C6.77496 7.24094 6.84093 7.5911 6.8406 7.98375C6.84068 8.05819 6.84068 8.05819 6.84077 8.13412C6.84063 8.18862 6.84049 8.24311 6.84034 8.2976C6.84033 8.35536 6.84034 8.41312 6.84036 8.47089C6.84037 8.62728 6.84014 8.78367 6.83987 8.94006C6.83962 9.10366 6.8396 9.26725 6.83955 9.43085C6.83943 9.74045 6.83911 10.0501 6.83872 10.3597C6.83828 10.7122 6.83807 11.0648 6.83787 11.4173C6.83746 12.1424 6.83675 12.8674 6.83591 13.5925C7.23552 13.5925 7.63513 13.5925 8.04684 13.5925C8.04594 13.4508 8.04503 13.3092 8.0441 13.1633C8.04349 13.0249 8.04301 12.8866 8.04255 12.7483C8.04216 12.6527 8.04163 12.5571 8.04095 12.4615C8.03999 12.3235 8.03956 12.1855 8.03921 12.0475C8.03881 12.0053 8.03841 11.9631 8.03799 11.9196C8.03791 11.3511 8.14842 10.8922 8.5452 10.4692C8.92196 10.1259 9.33132 10.0498 9.82358 10.0625C10.259 10.0881 10.5952 10.324 10.8984 10.6237C11.2221 11.0009 11.2677 11.4093 11.2614 11.8911C11.2612 11.94 11.2611 11.9889 11.2609 12.0392C11.2604 12.1678 11.2593 12.2963 11.258 12.4249C11.2568 12.5566 11.2563 12.6884 11.2557 12.8201C11.2544 13.0776 11.2524 13.335 11.25 13.5925C11.2883 13.5924 11.3266 13.5922 11.366 13.5921C12.2985 13.5886 13.2309 13.586 14.1634 13.5844C14.6143 13.5836 15.0652 13.5825 15.5162 13.5807C15.9093 13.5791 16.3024 13.5781 16.6955 13.5778C16.9035 13.5776 17.1116 13.5771 17.3197 13.576C17.5157 13.5749 17.7117 13.5746 17.9078 13.5748C17.9795 13.5748 18.0513 13.5745 18.1231 13.5739C18.5393 13.5706 18.901 13.5742 19.2502 13.8285C19.2768 13.8562 19.3035 13.8838 19.331 13.9123C19.3583 13.9395 19.3856 13.9666 19.4137 13.9946C19.6087 14.2575 19.6723 14.508 19.6692 14.8314C19.6693 14.8663 19.6695 14.9013 19.6696 14.9374C19.6697 15.0109 19.6694 15.0844 19.6688 15.1579C19.6679 15.2693 19.6688 15.3807 19.6698 15.4921C19.6705 15.9059 19.664 16.2473 19.4124 16.5927C19.0851 16.9086 18.8125 17.0131 18.3593 17.03C18.3569 17.0606 18.3545 17.0912 18.352 17.1228C18.2564 17.5492 18.0017 17.8753 17.644 18.1164C17.1988 18.38 16.708 18.4347 16.201 18.3325C15.7037 18.1684 15.3373 17.8283 15.1001 17.3694C15 17.1652 15 17.1652 15 17.03C14.7293 17.03 14.4586 17.03 14.1797 17.03C14.1216 17.2234 14.1216 17.2234 14.0625 17.4206C13.9544 17.6299 13.8094 17.8119 13.6328 17.9675C13.6005 17.9963 13.6005 17.9963 13.5676 18.0258C13.1645 18.3599 12.6976 18.4002 12.1934 18.3668C11.7245 18.3182 11.3821 18.016 11.0856 17.671C10.9491 17.4875 10.8534 17.2855 10.7812 17.0691C9.10544 17.0691 7.42966 17.0691 5.70309 17.0691C5.65153 17.2109 5.59997 17.3527 5.54684 17.4987C5.47093 17.6135 5.40202 17.7096 5.31247 17.8112C5.29197 17.8354 5.27148 17.8595 5.25037 17.8843C4.98125 18.1788 4.59961 18.3512 4.20102 18.3712C3.68392 18.381 3.28998 18.3192 2.89059 17.9675C2.86451 17.9459 2.83843 17.9244 2.81155 17.9022C2.56528 17.6814 2.43103 17.409 2.30466 17.1081C2.30466 17.0823 2.30466 17.0566 2.30466 17.03C2.28185 17.0306 2.25905 17.0312 2.23555 17.0319C2.13001 17.0343 2.02447 17.0358 1.91891 17.0373C1.86514 17.0388 1.86514 17.0388 1.81027 17.0403C1.45235 17.0441 1.1348 16.9788 0.852325 16.7489C0.533332 16.4327 0.457457 16.1005 0.451171 15.6658C0.450281 15.6232 0.449391 15.5805 0.448474 15.5365C0.440775 15.1384 0.436815 14.7402 0.433967 14.342C0.432034 14.0759 0.429092 13.81 0.423171 13.5439C0.395478 12.2518 0.45942 11.1495 0.944628 9.94497C1.04515 9.69353 1.12635 9.43618 1.2081 9.17817C1.24833 9.05203 1.29014 8.92644 1.33183 8.80078C1.38088 8.65266 1.42987 8.50453 1.47836 8.35623C1.52721 8.20689 1.57663 8.05774 1.6261 7.9086C1.64046 7.86441 1.65483 7.82023 1.66963 7.77471C1.80384 7.37312 1.96456 6.98078 2.33959 6.75011C2.67786 6.59411 3.031 6.61523 3.39566 6.61587ZM2.73434 8.5925C2.64462 8.8168 2.55818 9.03311 2.48271 9.26103C2.47443 9.28592 2.46615 9.31081 2.45762 9.33645C2.43083 9.41705 2.40421 9.49771 2.37759 9.57837C2.35875 9.63515 2.33989 9.69192 2.32102 9.74869C2.27176 9.89699 2.22263 10.0453 2.17355 10.1937C2.09475 10.4318 2.0158 10.6698 1.93677 10.9078C1.90932 10.9905 1.88195 11.0733 1.85459 11.1561C1.83773 11.2069 1.82086 11.2578 1.804 11.3086C1.78937 11.3528 1.77475 11.397 1.75969 11.4425C1.73354 11.5183 1.70527 11.5934 1.67433 11.6674C1.63368 11.7589 1.63368 11.7589 1.64059 11.8737C2.85231 11.8737 4.06403 11.8737 5.31247 11.8737C5.31247 10.7909 5.31247 9.70812 5.31247 8.5925C4.46169 8.5925 3.61091 8.5925 2.73434 8.5925ZM9.37497 11.4831C9.27719 11.6298 9.27916 11.6998 9.29684 11.8737C9.36057 11.9944 9.41696 12.0795 9.52389 12.1643C9.65873 12.1989 9.74897 12.1847 9.88278 12.1472C10.022 12.0258 10.0895 11.9397 10.1049 11.7541C10.091 11.5944 10.091 11.5944 9.97555 11.4856C9.74308 11.3435 9.60736 11.3352 9.37497 11.4831ZM4.14792 13.1164C4.08508 13.2322 4.08559 13.3061 4.10153 13.4362C4.1532 13.5559 4.18709 13.6153 4.30371 13.6754C4.43576 13.7164 4.54925 13.7214 4.68747 13.7219C4.7342 13.7225 4.78093 13.7232 4.82907 13.7239C5.01286 13.7041 5.11388 13.6447 5.22946 13.5022C5.28639 13.3662 5.28087 13.3024 5.23434 13.1628C5.14879 13.0641 5.07808 12.987 4.96091 12.9284C4.87233 12.9226 4.78355 12.9198 4.69479 12.9187C4.64701 12.9177 4.59922 12.9167 4.54999 12.9156C4.37189 12.9324 4.27279 12.9916 4.14792 13.1164ZM3.32028 16.0144C3.16409 16.2313 3.07092 16.4473 3.08591 16.7175C3.13086 16.9914 3.26374 17.2047 3.47653 17.3816C3.70596 17.5162 3.95415 17.5888 4.21872 17.5378C4.54701 17.4282 4.7616 17.2302 4.93893 16.9372C5.00201 16.6429 4.976 16.4091 4.82892 16.1445C4.67832 15.9279 4.48359 15.7505 4.21872 15.7019C3.87395 15.6671 3.55676 15.7458 3.32028 16.0144ZM15.9561 16.0899C15.7876 16.3258 15.7412 16.5511 15.7812 16.8347C15.887 17.1611 16.1101 17.3452 16.4062 17.4987C16.6516 17.5805 16.8834 17.5659 17.1191 17.4597C17.3741 17.3186 17.525 17.1086 17.6172 16.8347C17.6544 16.5491 17.6215 16.2957 17.4609 16.0534C17.2872 15.8569 17.0766 15.7216 16.8123 15.6895C16.4272 15.673 16.1964 15.792 15.9561 16.0899ZM11.7039 16.0801C11.5429 16.3081 11.4941 16.5335 11.5381 16.8095C11.6117 17.0771 11.7655 17.2944 12.0063 17.4357C12.2818 17.5578 12.5353 17.5862 12.8222 17.489C13.0844 17.3763 13.235 17.2048 13.3593 16.9519C13.4436 16.6675 13.3489 16.4136 13.2129 16.1609C13.0258 15.9322 12.8395 15.7637 12.5354 15.7325C12.2039 15.7184 11.9182 15.8185 11.7039 16.0801Z" fill="currentColor"/>
<path d="M17.8516 1.83469C18.1253 2.01025 18.307 2.27161 18.394 2.58405C18.4644 2.96446 18.4385 3.27957 18.217 3.60242C18.1146 3.73431 18.01 3.84125 17.8665 3.9271C17.748 4.04815 17.75 4.11363 17.7474 4.27775C17.7481 4.32913 17.7481 4.32913 17.7488 4.38155C17.7485 4.41791 17.7482 4.45426 17.7479 4.49171C17.7473 4.61202 17.748 4.73227 17.7489 4.85257C17.7488 4.93637 17.7487 5.02016 17.7486 5.10395C17.7485 5.27977 17.749 5.45557 17.7501 5.63138C17.7514 5.85599 17.7512 6.08056 17.7505 6.30517C17.7501 6.47836 17.7504 6.65155 17.751 6.82474C17.7512 6.9075 17.7512 6.99025 17.7509 7.07301C17.7507 7.18921 17.7515 7.30537 17.7526 7.42156C17.7523 7.45534 17.7521 7.48912 17.7518 7.52393C17.7581 7.93323 17.9179 8.22968 18.2031 8.51438C18.232 8.54202 18.2609 8.56967 18.2907 8.59815C18.6644 8.95738 18.8969 9.34876 18.9233 9.87668C18.9052 10.3715 18.696 10.732 18.3472 11.0632C17.9669 11.3902 17.5596 11.4328 17.0755 11.4118C16.6358 11.3758 16.3041 11.1388 16.0229 10.8142C15.8149 10.5302 15.7067 10.1622 15.7251 9.80985C15.7573 9.65042 15.8087 9.59347 15.9375 9.49094C16.1194 9.42907 16.2381 9.42695 16.4122 9.51215C16.5471 9.62851 16.5752 9.73036 16.6064 9.89865C16.6459 10.0972 16.6897 10.2419 16.8359 10.3894C17.031 10.5152 17.2287 10.5757 17.4609 10.5456C17.6865 10.4717 17.8483 10.3676 17.973 10.1616C18.0501 9.97386 18.0457 9.74858 17.975 9.5593C17.8723 9.38229 17.736 9.265 17.5801 9.13556C17.247 8.82654 16.9867 8.33724 16.9455 7.88291C16.9421 7.79164 16.9409 7.70063 16.9407 7.6093C16.9401 7.5578 16.9401 7.5578 16.9395 7.50526C16.9383 7.39282 16.9376 7.28038 16.937 7.16794C16.9362 7.08957 16.9355 7.01119 16.9347 6.93282C16.9327 6.72733 16.9311 6.52183 16.9297 6.31633C16.9281 6.10633 16.9261 5.89632 16.9241 5.68631C16.9204 5.27484 16.9171 4.86336 16.9141 4.45188C16.8959 4.47272 16.8778 4.49357 16.8591 4.51504C16.8349 4.54272 16.8108 4.57039 16.7859 4.5989C16.7621 4.62619 16.7383 4.65348 16.7138 4.68159C16.6009 4.80933 16.4841 4.9333 16.3672 5.05735C16.2055 5.22971 16.0457 5.40286 15.8914 5.58194C15.7352 5.75962 15.5727 5.9318 15.412 6.10534C15.1593 6.3784 14.9089 6.65339 14.6603 6.93021C14.4701 7.14109 14.2775 7.34982 14.0853 7.55895C13.9019 7.75864 13.7186 7.95847 13.5376 8.16037C13.3815 8.33438 13.223 8.50614 13.0642 8.6777C12.9173 8.8366 12.7722 8.99702 12.6277 9.15815C12.5288 9.26799 12.4291 9.37712 12.3291 9.48606C12.3113 9.50544 12.2936 9.52483 12.2752 9.5448C12.1801 9.64846 12.0848 9.75191 11.9893 9.85517C11.9697 9.87635 11.9502 9.89753 11.9301 9.91935C11.8926 9.95994 11.8551 10.0005 11.8175 10.0409C11.7371 10.1282 11.6676 10.2122 11.6016 10.3113C11.5758 10.3113 11.55 10.3113 11.5234 10.3113C11.4833 10.2673 11.4455 10.2213 11.4087 10.1745C11.0592 9.76566 10.5707 9.49314 10.0391 9.41282C9.89478 9.40441 9.75139 9.40532 9.60693 9.40793C9.56939 9.40828 9.53186 9.40864 9.49318 9.409C9.40169 9.40991 9.31023 9.41119 9.21875 9.41282C9.30759 8.89769 9.53002 8.65573 9.92188 8.31907C10.0006 8.24805 10.0784 8.17614 10.1562 8.10422C10.2979 7.97397 10.4402 7.84448 10.5835 7.71604C10.7353 7.57983 10.8855 7.44198 11.0352 7.30344C11.2158 7.13626 11.3977 6.97072 11.581 6.80646C11.6926 6.70586 11.8034 6.60434 11.9141 6.50266C12.0566 6.37169 12.1997 6.24133 12.3438 6.11203C12.5667 5.91191 12.7872 5.70925 13.0078 5.50657C13.2598 5.27501 13.5124 5.04422 13.7671 4.81565C13.8791 4.71453 13.9904 4.61259 14.1016 4.51047C14.2441 4.3795 14.3872 4.24914 14.5312 4.11985C14.6736 3.99206 14.8151 3.86342 14.9561 3.7341C14.9755 3.71628 14.9949 3.69845 15.015 3.68008C15.1176 3.58589 15.2201 3.49154 15.3224 3.39704C15.3432 3.37785 15.3641 3.35866 15.3855 3.33888C15.4434 3.28558 15.5012 3.23221 15.5589 3.17884C15.6641 3.08469 15.6641 3.08469 15.7718 3.00931C15.8841 2.90563 15.8925 2.83618 15.9155 2.68674C15.998 2.27574 16.2146 2.01434 16.5579 1.78571C16.9399 1.57728 17.4836 1.61626 17.8516 1.83469Z" fill="#314158"/>
</svg>
