<svg width="20" height="20" viewBox="0 0 20 20" fill="none" xmlns="http://www.w3.org/2000/svg">
<path d="M1.92989 14.6659C1.97254 14.6656 1.97254 14.6656 2.01604 14.6653C2.11135 14.6647 2.20662 14.6652 2.30192 14.6658C2.37092 14.6656 2.43992 14.6653 2.50891 14.665C2.69856 14.6644 2.88819 14.6647 3.07783 14.6652C3.28233 14.6655 3.48683 14.665 3.69133 14.6646C4.09197 14.6639 4.4926 14.664 4.89323 14.6645C5.21878 14.6648 5.54433 14.6649 5.86989 14.6647C5.91619 14.6647 5.96249 14.6647 6.01019 14.6646C6.10425 14.6646 6.1983 14.6645 6.29235 14.6645C7.17469 14.664 8.05702 14.6645 8.93936 14.6654C9.69675 14.6661 10.4541 14.666 11.2115 14.6652C12.0907 14.6644 12.9698 14.6641 13.8489 14.6646C13.9427 14.6646 14.0364 14.6647 14.1301 14.6647C14.1992 14.6647 14.1992 14.6647 14.2698 14.6648C14.595 14.6649 14.9203 14.6647 15.2455 14.6643C15.6417 14.6639 16.038 14.664 16.4342 14.6648C16.6365 14.6652 16.8387 14.6654 17.041 14.6649C17.226 14.6644 17.411 14.6647 17.5961 14.6655C17.6631 14.6657 17.7301 14.6656 17.7972 14.6652C17.8882 14.6647 17.9791 14.6652 18.0701 14.6659C18.1206 14.666 18.1712 14.666 18.2233 14.666C18.428 14.6955 18.5468 14.7914 18.6852 14.9401C18.7795 15.1382 18.7723 15.3184 18.7707 15.5352C18.7709 15.5794 18.771 15.6236 18.7712 15.6692C18.7713 15.7624 18.771 15.8556 18.7704 15.9489C18.7695 16.0914 18.7703 16.2338 18.7713 16.3763C18.7712 16.467 18.771 16.5578 18.7707 16.6485C18.771 16.691 18.7714 16.7335 18.7717 16.7772C18.7688 17.0098 18.7593 17.1639 18.5937 17.3419C18.4145 17.4838 18.2975 17.5177 18.0701 17.5178C18.0274 17.5181 18.0274 17.5181 17.9839 17.5185C17.8886 17.519 17.7933 17.5185 17.698 17.5179C17.629 17.5181 17.56 17.5184 17.4911 17.5187C17.3014 17.5193 17.1118 17.519 16.9221 17.5185C16.7176 17.5182 16.5131 17.5187 16.3086 17.5192C15.908 17.5199 15.5074 17.5197 15.1067 17.5192C14.7812 17.5189 14.4556 17.5188 14.1301 17.519C14.0838 17.519 14.0375 17.5191 13.9898 17.5191C13.8957 17.5191 13.8017 17.5192 13.7076 17.5192C12.8253 17.5197 11.9429 17.5192 11.0606 17.5183C10.3032 17.5176 9.54583 17.5178 8.78843 17.5185C7.9093 17.5193 7.03016 17.5196 6.15102 17.5192C6.05731 17.5191 5.9636 17.5191 5.86989 17.519C5.80072 17.519 5.80072 17.519 5.73016 17.5189C5.40493 17.5188 5.0797 17.519 4.75447 17.5194C4.35822 17.5198 3.96198 17.5197 3.56573 17.5189C3.36349 17.5185 3.16126 17.5183 2.95901 17.5188C2.77396 17.5193 2.58893 17.519 2.40388 17.5182C2.33685 17.518 2.26982 17.5181 2.20279 17.5185C2.11181 17.519 2.02088 17.5185 1.92989 17.5178C1.87932 17.5177 1.82875 17.5177 1.77665 17.5177C1.57201 17.4882 1.45317 17.3923 1.31476 17.2436C1.22047 17.0455 1.22762 16.8653 1.22923 16.6485C1.22908 16.6043 1.22893 16.5601 1.22878 16.5146C1.22867 16.4213 1.22896 16.3281 1.22961 16.2348C1.23045 16.0923 1.22962 15.9499 1.22862 15.8074C1.22872 15.7167 1.22892 15.626 1.22923 15.5352C1.22891 15.4927 1.2286 15.4502 1.22827 15.4065C1.23114 15.1739 1.24062 15.0198 1.40623 14.8419C1.58546 14.6999 1.70245 14.6661 1.92989 14.6659Z" fill="currentColor"/>
<path d="M14.3558 5.93652C14.4068 5.93637 14.4577 5.9357 14.5101 5.93555C14.618 5.93532 14.7264 5.93579 14.8344 5.93652H15.6449C15.7184 5.93605 15.7187 5.93603 15.7933 5.93555C15.902 5.93671 15.9839 5.9371 16.0472 5.94043C16.1104 5.94377 16.1548 5.95047 16.1908 5.96094C16.2611 5.98143 16.3017 6.02053 16.39 6.10645H16.391C16.4637 6.19673 16.5068 6.27601 16.5316 6.36035C16.5565 6.44486 16.5636 6.53552 16.5619 6.64941C16.562 6.68105 16.5618 6.71351 16.5619 6.74609C16.5621 6.85204 16.5618 6.95838 16.5609 7.06445C16.5609 7.1407 16.5608 7.2177 16.5609 7.29395C16.561 7.50055 16.5601 7.70742 16.559 7.91406C16.558 8.13017 16.5582 8.34645 16.558 8.5625C16.5575 8.97163 16.5556 9.3809 16.5541 9.79004C16.5523 10.2559 16.5519 10.7217 16.5511 11.1875C16.5495 12.1393 16.5467 13.0912 16.5433 14.043H13.4574C13.4539 13.0452 13.4503 12.0475 13.4486 11.0498C13.4478 10.5834 13.4475 10.1168 13.4457 9.65039C13.4441 9.24414 13.4431 8.83789 13.4427 8.43164C13.4425 8.21639 13.4419 8.00043 13.4408 7.78516C13.4397 7.58271 13.4396 7.38019 13.4398 7.17773C13.4398 7.10335 13.4394 7.02849 13.4388 6.9541C13.4381 6.85289 13.4374 6.7517 13.4379 6.65039V6.64941C13.4374 6.62041 13.4374 6.59139 13.4369 6.56152C13.438 6.46294 13.4508 6.38694 13.4779 6.31738C13.5049 6.24834 13.5468 6.18427 13.6078 6.1084C13.8183 5.90354 14.0668 5.93467 14.3558 5.93652Z" fill="currentColor" stroke="currentColor" stroke-width="0.0390625"/>
<path d="M14.8486 2.48145C15.2252 2.4655 15.5549 2.54482 15.8467 2.78516C16.0012 2.94343 16.1014 3.09518 16.1631 3.26074C16.2095 3.38526 16.2343 3.51849 16.2432 3.66992L16.2471 3.82812C16.2392 4.05097 16.1948 4.21374 16.0771 4.40039V4.40137C16.0636 4.42538 16.0501 4.44989 16.0361 4.47461C15.8729 4.73639 15.607 4.89776 15.3105 4.97754C15.2074 4.98673 15.1105 4.99238 15.0078 4.99219C14.9668 4.99222 14.9661 4.99215 14.9248 4.99219C14.6993 4.98743 14.5392 4.93498 14.3457 4.82422L14.3359 4.84082L14.3457 4.82324L14.3418 4.82227L14.2158 4.78027L14.208 4.78613C14.1159 4.85021 14.0324 4.91504 13.9473 4.9873C13.8945 5.03088 13.8419 5.07473 13.7891 5.11816H13.7881C13.7472 5.15191 13.7469 5.15203 13.7051 5.18652C13.569 5.29701 13.4292 5.40279 13.2891 5.50879C13.0502 5.69022 12.8146 5.8754 12.5811 6.06348C12.3869 6.21962 12.1894 6.37219 11.9912 6.52344C11.8973 6.59535 11.8042 6.66844 11.7119 6.74219C11.687 6.76203 11.6624 6.78229 11.6367 6.80273C11.5882 6.84145 11.5395 6.87991 11.4912 6.91895C11.4071 6.98592 11.3675 7.01765 11.3379 7.0332C11.3109 7.04734 11.2935 7.04785 11.25 7.04785H11.2295L11.2305 7.06836L11.2363 7.18457C11.2424 7.40587 11.2296 7.58627 11.1777 7.75195C11.126 7.9173 11.0343 8.0693 10.8818 8.2334C10.6203 8.47628 10.3482 8.56789 10.0127 8.58203L9.86523 8.58301C9.53672 8.55403 9.29045 8.40731 9.07129 8.18066L8.97852 8.07812C8.84701 7.90463 8.76681 7.74346 8.77344 7.52441L8.75391 7.52344L8.77441 7.52441L8.77246 7.51758C8.74762 7.43474 8.72838 7.38687 8.69531 7.34961C8.66267 7.31284 8.61721 7.28728 8.5459 7.24707L8.31348 7.13477H8.3125L8.06543 7.0127L7.93945 6.95215C7.77457 6.87155 7.61244 6.78481 7.4502 6.69824C7.39079 6.66689 7.33093 6.63576 7.27148 6.60449C7.24112 6.58851 7.21097 6.57213 7.17969 6.55566C6.98629 6.45407 6.79226 6.35305 6.59863 6.25195C6.56063 6.2321 6.52255 6.21186 6.4834 6.19141C6.30523 6.09845 6.12663 6.00611 5.94629 5.91699L5.93457 5.91113L5.9248 5.91992C5.90606 5.93533 5.88747 5.95093 5.86816 5.9668C5.68457 6.1119 5.51719 6.197 5.33789 6.24121C5.15836 6.28546 4.96437 6.28866 4.72754 6.2666C4.40784 6.19359 4.16671 6.00383 3.9668 5.75488L3.88379 5.64453C3.72108 5.34053 3.72095 4.95045 3.79395 4.61426C3.93362 4.22819 4.1767 4.02246 4.54297 3.84766L4.54395 3.84863C4.88216 3.71554 5.20606 3.74513 5.53906 3.88184C5.86284 4.04944 6.08496 4.29041 6.21387 4.63379C6.22231 4.68039 6.22593 4.70276 6.22656 4.72949L6.21875 4.8584C6.20723 5.032 6.20858 5.14998 6.27051 5.31641L6.28906 5.30957L6.26855 5.31738L6.27637 5.32422C6.46875 5.49434 6.72599 5.5798 6.95508 5.67285C7.03573 5.70695 7.1147 5.74453 7.19238 5.78418L7.4248 5.9082C7.48526 5.94026 7.54592 5.97197 7.60645 6.00391C7.6377 6.02046 7.66897 6.03764 7.70117 6.05469C7.89609 6.15774 8.09183 6.26 8.28711 6.3623C8.32534 6.38243 8.36393 6.40211 8.40332 6.42285C8.43939 6.44173 8.47553 6.46102 8.5127 6.48047L8.60938 6.53125C8.70455 6.57808 8.80094 6.61834 8.89941 6.65625L8.91309 6.66113L8.92188 6.65039C8.93799 6.6301 8.95312 6.6088 8.96973 6.58789C9.21077 6.29689 9.47384 6.09786 9.85645 6.05859C10.0935 6.05599 10.2782 6.08487 10.4492 6.14941C10.6207 6.21413 10.78 6.31489 10.9648 6.45801L10.9766 6.46777L10.9893 6.45801C11.0284 6.42596 11.0671 6.39337 11.1074 6.36035C11.4183 6.10639 11.7318 5.85674 12.0508 5.61328H12.0518C12.1888 5.50824 12.3248 5.40188 12.4609 5.2959C12.505 5.26164 12.505 5.26145 12.5498 5.22656C12.7053 5.10554 12.8613 4.9846 13.0166 4.86328C13.0635 4.82672 13.0635 4.8264 13.1113 4.78906C13.1707 4.74271 13.2297 4.69586 13.2891 4.64941C13.4565 4.51882 13.6271 4.39274 13.8008 4.27051L13.8115 4.26367L13.8076 4.25L13.7891 4.17188C13.7152 3.74715 13.7369 3.34216 13.9707 2.97754C14.185 2.69775 14.5012 2.52872 14.8486 2.48145Z" fill="currentColor" stroke="currentColor" stroke-width="0.0390625"/>
<path d="M5.77014 10.6777C6.04959 10.5733 6.35915 10.6484 6.63245 10.7588V10.7598C7.13964 10.9973 7.50992 11.3362 7.73206 11.8545V11.8555C7.82563 12.1311 7.8773 12.3862 7.88049 12.6768C7.88081 12.7046 7.88114 12.733 7.88147 12.7617C7.88201 12.8203 7.88214 12.8789 7.88245 12.9375C7.8829 12.9974 7.88423 13.0573 7.88538 13.1172C7.88704 13.2039 7.88693 13.2911 7.88733 13.3779L7.88928 13.459C7.88879 13.55 7.87887 13.6166 7.85315 13.6758C7.82765 13.7344 7.78545 13.7863 7.72229 13.8496C7.62601 13.897 7.55545 13.8921 7.44006 13.8926C7.37162 13.893 7.37143 13.8931 7.30139 13.8936C7.2509 13.8937 7.2001 13.8934 7.14807 13.8936C7.09469 13.8938 7.0413 13.8943 6.98792 13.8945C6.84219 13.8952 6.69615 13.8952 6.55042 13.8955C6.45936 13.8957 6.36802 13.8962 6.27698 13.8965C5.99227 13.8972 5.7072 13.8981 5.42249 13.8984C5.09371 13.8988 4.76493 13.8998 4.43616 13.9014C4.18208 13.9025 3.92755 13.9032 3.67346 13.9033C3.52178 13.9034 3.37009 13.9033 3.21838 13.9043C3.07561 13.9052 2.93246 13.9057 2.78967 13.9053C2.71248 13.9052 2.6353 13.9055 2.55823 13.9062C2.5122 13.906 2.46599 13.9056 2.41858 13.9053C2.37944 13.9054 2.33971 13.9052 2.29944 13.9053C2.23285 13.8934 2.18401 13.8749 2.14026 13.8477C2.09654 13.8204 2.05684 13.7844 2.00745 13.7373C1.96725 13.6546 1.95579 13.5556 1.95471 13.4521C1.95418 13.3999 1.95635 13.3464 1.95862 13.2939C1.96088 13.2417 1.96363 13.1897 1.9635 13.1406C1.96313 13.053 1.96181 12.9654 1.96057 12.8779C1.95563 12.2069 2.1172 11.6379 2.59143 11.1455C3.10185 10.7216 3.67122 10.4968 4.30334 10.7607L4.30432 10.7617C4.76713 10.9321 5.32671 10.8675 5.77112 10.6787L5.77014 10.6777Z" fill="currentColor" stroke="currentColor" stroke-width="0.0390625"/>
<path d="M9.35559 9.68652C9.40671 9.68637 9.45819 9.6857 9.51086 9.68555C9.61861 9.68532 9.72634 9.68579 9.83411 9.68652H10.6447L10.7941 9.68555C10.9026 9.68671 10.9837 9.6871 11.047 9.69043C11.1102 9.69376 11.1545 9.70046 11.1906 9.71094C11.2259 9.72121 11.2541 9.7356 11.2843 9.75879L11.3927 9.8584C11.4771 9.95904 11.5198 10.048 11.5411 10.1426C11.5627 10.2384 11.5627 10.3413 11.5607 10.4707V10.5889C11.5606 10.7168 11.5599 10.8447 11.5587 10.9727L11.5577 11.2402C11.5571 11.4739 11.5556 11.7077 11.5538 11.9414C11.552 12.2222 11.5508 12.5034 11.5499 12.7842C11.5484 13.2038 11.5458 13.6233 11.5431 14.043H8.45715C8.45101 13.0779 8.45069 13.0748 8.44934 12.6582C8.44841 12.3717 8.44755 12.0844 8.44543 11.7979C8.44374 11.5671 8.44291 11.3363 8.4425 11.1055C8.44222 11.0173 8.4414 10.929 8.44055 10.8408L8.43958 10.4707L8.43762 10.3604L8.44543 10.2139C8.45045 10.1699 8.45757 10.1294 8.46985 10.0908C8.49422 10.0143 8.53661 9.94288 8.60754 9.8584C8.81804 9.65354 9.06658 9.68467 9.35559 9.68652Z" fill="currentColor" stroke="currentColor" stroke-width="0.0390625"/>
<path d="M5.79178 7.20067C5.87106 7.25721 5.94321 7.31705 6.01563 7.3821C6.03969 7.40259 6.06376 7.42308 6.08856 7.4442C6.37996 7.70996 6.541 8.07661 6.57562 8.46791C6.58085 8.99707 6.46162 9.4129 6.09375 9.81023C5.71222 10.1747 5.30378 10.2863 4.78775 10.281C4.349 10.255 3.95223 10.0422 3.65341 9.72234C3.54751 9.5899 3.46979 9.44958 3.39844 9.29616C3.3859 9.27023 3.37336 9.24429 3.36044 9.21758C3.19979 8.82529 3.23841 8.34136 3.38821 7.95293C3.46404 7.79587 3.55562 7.66776 3.67188 7.53835C3.70262 7.50224 3.70262 7.50224 3.73398 7.46541C4.24227 6.90808 5.15402 6.81977 5.79178 7.20067Z" fill="currentColor"/>
</svg>
