<svg width="20" height="20" viewBox="0 0 20 20" fill="none" xmlns="http://www.w3.org/2000/svg">
<path d="M11.6077 15.2522C12.1482 15.7082 12.5067 16.3207 12.5781 17.0318C12.6317 17.7873 12.3987 18.4756 11.9057 19.046C11.4197 19.5627 10.8257 19.8416 10.1222 19.8674C9.36427 19.876 8.77308 19.678 8.21518 19.1514C8.17054 19.1077 8.17054 19.1077 8.125 19.0631C8.10048 19.04 8.07596 19.0169 8.05069 18.993C7.60955 18.5399 7.42665 17.9005 7.40723 17.2833C7.4285 16.5286 7.72898 15.8655 8.27408 15.3459C9.22439 14.5452 10.62 14.4882 11.6077 15.2522ZM8.48129 15.9981C8.1218 16.4158 7.96717 16.9534 8.00781 17.5006C8.05097 17.7307 8.11281 17.9487 8.20312 18.1646C8.33258 18.107 8.428 18.0322 8.53516 17.94C9.02358 17.5466 9.60725 17.3649 10.2344 17.4225C10.7531 17.4932 11.1603 17.6781 11.5564 18.0188C11.6342 18.0813 11.7061 18.1242 11.7969 18.1646C12.0195 17.5827 12.0606 17.092 11.8361 16.4995C11.6212 16.0244 11.1966 15.6159 10.7121 15.4216C9.88623 15.1337 9.07242 15.3691 8.48129 15.9981Z" fill="currentColor"/>
<path d="M3.6842 11.0977L3.80237 11.0986C4.50227 11.1141 5.09999 11.4041 5.58655 11.9082C6.03429 12.4244 6.23074 13.0001 6.24377 13.6504L6.23889 13.9336C6.1837 14.5478 5.88816 15.0662 5.45471 15.4951V15.4961C5.43184 15.5203 5.40893 15.5444 5.38538 15.5693C4.91596 16.0284 4.24421 16.2129 3.60217 16.209C2.99467 16.1904 2.43648 15.9672 1.98401 15.5771L1.79651 15.3994C1.35973 14.8967 1.12928 14.3191 1.13733 13.6543V13.6533C1.13688 13.6163 1.13682 13.5792 1.13635 13.541C1.13859 12.9905 1.34464 12.4551 1.68713 12.0264L1.84143 11.8496C2.34094 11.355 2.98298 11.0902 3.6842 11.0977ZM4.36975 11.7383C3.57961 11.4392 2.70479 11.7544 2.14709 12.335L2.14612 12.3359C1.84498 12.7127 1.68337 13.1602 1.6842 13.6416C1.68421 13.6741 1.6842 13.7068 1.6842 13.7402L1.69592 13.9629C1.71696 14.1897 1.77482 14.4216 1.93909 14.5859L1.95569 14.6016L1.96936 14.583C1.99341 14.5501 2.01685 14.5163 2.04163 14.4824C2.3648 14.0995 2.90711 13.8536 3.40295 13.8008C3.9356 13.7718 4.42669 13.8471 4.87659 14.1113L5.06702 14.2363C5.15466 14.3162 5.23677 14.3973 5.31604 14.4854V14.4863C5.32949 14.503 5.34054 14.5162 5.35022 14.5264C5.36006 14.5366 5.36949 14.5456 5.38147 14.5508C5.39358 14.556 5.40659 14.5569 5.42053 14.5566C5.43412 14.5564 5.45103 14.555 5.47131 14.5527L5.48206 14.5508L5.48694 14.54C5.51231 14.4793 5.53716 14.4183 5.56213 14.3574L5.6051 14.2539C5.75809 13.833 5.72026 13.3368 5.56506 12.9248C5.55317 12.893 5.54119 12.8609 5.52893 12.8281V12.8271L5.44202 12.6533C5.22051 12.262 4.86978 11.971 4.46155 11.7812C4.43174 11.7673 4.40144 11.7527 4.37073 11.7383H4.36975Z" fill="currentColor" stroke="currentColor" stroke-width="0.0390625"/>
<path d="M9.98743 0.15625C10.0283 0.156473 10.0694 0.156996 10.1115 0.157227C10.7192 0.171201 11.2417 0.380915 11.6896 0.765625L11.8771 0.941406C12.362 1.4627 12.5738 2.12384 12.5665 2.83105H12.5675C12.5244 3.53429 12.2264 4.15069 11.7189 4.63672C11.1086 5.13825 10.4265 5.31805 9.65051 5.25391H9.65149C9.05362 5.17438 8.53539 4.89905 8.12903 4.47168L7.96204 4.2793C7.52634 3.6993 7.37877 3.03702 7.45715 2.32227L7.45618 2.32129C7.54932 1.75251 7.79982 1.27318 8.21692 0.874023V0.873047L8.29797 0.790039C8.75278 0.347866 9.36097 0.152274 9.98743 0.15625ZM10.6075 0.762695C9.7927 0.560682 8.94651 0.798319 8.40833 1.45703H8.40735V1.45801C8.10129 1.90718 7.93844 2.38283 7.9884 2.93164V2.93359C8.03231 3.16471 8.09374 3.38407 8.18469 3.60156L8.1925 3.62012L8.21106 3.61133C8.32985 3.55812 8.40847 3.49917 8.49915 3.4082C9.00394 2.95645 9.60805 2.83715 10.2667 2.86523C10.8003 2.90115 11.2515 3.16932 11.629 3.53906V3.54004C11.6457 3.55869 11.6596 3.57289 11.671 3.58398C11.6826 3.59523 11.6935 3.60383 11.7062 3.60938C11.7189 3.61497 11.7317 3.61719 11.7462 3.61719C11.7605 3.61715 11.778 3.61541 11.799 3.61328L11.8116 3.6123L11.8156 3.60059L11.8907 3.37793L11.9337 3.25293C12.0922 2.74558 12.0087 2.2584 11.7902 1.78418V1.7832L11.6857 1.60742C11.4273 1.21432 11.0607 0.934097 10.6095 0.762695H10.6075Z" fill="currentColor" stroke="currentColor" stroke-width="0.0390625"/>
<path d="M16.3007 11.0977H16.3016L16.4198 11.0986C17.0143 11.1121 17.5342 11.3183 17.9784 11.6895L18.1639 11.8584C18.6281 12.3516 18.8723 12.9708 18.8651 13.6465L18.8641 13.7656C18.8495 14.4201 18.5976 14.9766 18.1503 15.4561C17.6108 15.9697 16.955 16.2199 16.2137 16.2109L15.9618 16.1895C15.3844 16.1115 14.8879 15.8437 14.4667 15.418V15.417C14.4423 15.394 14.4175 15.3714 14.3925 15.3477H14.3934C13.9895 14.9346 13.7994 14.3689 13.7626 13.8018L13.7557 13.5596C13.7771 12.8386 14.0751 12.226 14.5956 11.7266L14.5946 11.7256C15.08 11.3104 15.6643 11.0909 16.3007 11.0977ZM16.9598 11.7412C16.1761 11.469 15.3395 11.7337 14.7821 12.3252L14.7811 12.3262C14.4073 12.7804 14.2811 13.2915 14.3085 13.8701V13.8711C14.3317 14.1019 14.4105 14.3359 14.5135 14.542L14.5223 14.5586L14.5389 14.5508C14.6703 14.4933 14.756 14.4203 14.8563 14.3223L14.8573 14.3232C15.3207 13.9053 15.8923 13.7774 16.5038 13.7969C17.1397 13.8348 17.6311 14.1449 18.0721 14.5859L18.0927 14.6064L18.1044 14.5791C18.1297 14.5174 18.1545 14.4553 18.1796 14.3936L18.2225 14.2891C18.3807 13.8697 18.3568 13.3199 18.1923 12.9092L18.1913 12.9082C17.9196 12.3369 17.5449 11.9778 16.9608 11.7412H16.9598Z" fill="currentColor" stroke="currentColor" stroke-width="0.0390625"/>
<path d="M17.9468 4.33239C18.439 4.75392 18.8211 5.34213 18.8757 6.00019C18.9172 6.76251 18.7979 7.44125 18.2848 8.03879C17.8584 8.51103 17.289 8.84796 16.6478 8.91699C16.5369 8.92215 16.4269 8.92342 16.3159 8.92223C16.2572 8.92179 16.2572 8.92179 16.1972 8.92133C15.4916 8.90575 14.889 8.61319 14.3993 8.10573C13.8833 7.51119 13.6981 6.83803 13.7419 6.06563C13.7975 5.44567 14.0952 4.92255 14.5313 4.49108C14.5658 4.45452 14.5658 4.45452 14.6011 4.41723C15.5003 3.53791 16.9923 3.59774 17.9468 4.33239ZM14.8047 5.03795C14.4286 5.53788 14.2998 6.02142 14.3359 6.63952C14.3764 6.85814 14.4472 7.05923 14.5313 7.26452C14.5683 7.23148 14.6054 7.19845 14.6436 7.16442C15.1688 6.71816 15.7261 6.45726 16.4237 6.47121C17.0677 6.52712 17.6166 6.77424 18.0469 7.26452C18.3371 6.90115 18.3226 6.41909 18.2813 5.97545C18.1851 5.46137 17.8671 5.00742 17.4503 4.69875C16.5973 4.14528 15.4955 4.28831 14.8047 5.03795Z" fill="currentColor"/>
<path d="M5.26508 4.30172C5.36298 4.38736 5.45544 4.47601 5.54691 4.56844C5.57128 4.59151 5.59565 4.61457 5.62076 4.63833C6.08838 5.11648 6.26928 5.79352 6.26387 6.44327C6.25652 6.70341 6.21899 6.93912 6.13285 7.18563C6.11427 7.24243 6.11427 7.24243 6.09531 7.30038C5.84971 7.96924 5.34244 8.417 4.71683 8.72829C4.38408 8.87094 4.05922 8.92535 3.69877 8.92147C3.65955 8.92115 3.62033 8.92082 3.57992 8.92049C2.89528 8.905 2.30881 8.63572 1.8227 8.15533C1.35465 7.65842 1.10848 7.03426 1.11576 6.35311C1.11605 6.31395 1.11635 6.27479 1.11665 6.23444C1.13215 5.53291 1.42129 4.95076 1.91166 4.45248C2.82885 3.60925 4.27899 3.53276 5.26508 4.30172ZM2.38285 4.84188C2.35812 4.86227 2.3334 4.88267 2.30793 4.90368C1.95729 5.2218 1.73411 5.67764 1.70658 6.14758C1.6936 6.51317 1.70864 6.85103 1.87503 7.18563C1.90082 7.21141 1.9266 7.23719 1.95316 7.26376C1.97174 7.242 1.99032 7.22025 2.00946 7.19784C2.43042 6.7389 2.94785 6.52968 3.56266 6.47045C4.19392 6.4448 4.77736 6.65846 5.24173 7.08309C5.3048 7.14289 5.36761 7.20297 5.42972 7.26376C5.64459 7.04889 5.67575 6.63499 5.68363 6.34335C5.66657 5.79515 5.44848 5.31737 5.07969 4.91528C4.64168 4.51167 4.11394 4.34767 3.52909 4.35986C3.09837 4.38303 2.71022 4.56598 2.38285 4.84188Z" fill="currentColor"/>
<path d="M11.6577 7.99906C12.2209 8.48665 12.5302 9.12126 12.589 9.8617C12.6084 10.5585 12.3783 11.2188 11.9208 11.7472C11.3938 12.2894 10.7569 12.566 10 12.5913C9.25146 12.5653 8.59456 12.2764 8.0719 11.7399C7.60992 11.2159 7.391 10.5588 7.41119 9.86154C7.4693 9.11937 7.80436 8.47101 8.36181 7.97952C9.34947 7.20877 10.672 7.25747 11.6577 7.99906ZM8.47656 8.7095C8.13474 9.13513 7.95788 9.64707 8.00781 10.1939C8.09231 10.7634 8.34726 11.2299 8.79928 11.593C9.25745 11.912 9.7619 12.0551 10.3177 11.9726C10.8679 11.8627 11.3318 11.5763 11.6553 11.1118C11.9571 10.6199 12.0619 10.1206 11.9482 9.55179C11.8142 9.02292 11.4923 8.57582 11.0252 8.28928C10.1388 7.79906 9.17258 7.97189 8.47656 8.7095Z" fill="currentColor"/>
<path d="M9.92188 8.67188C10.0146 8.68128 10.0146 8.68128 10.1172 8.71094C10.1634 8.78164 10.1634 8.78164 10.1956 8.87299C10.3267 9.24008 10.3267 9.24008 10.5964 9.49898C10.7862 9.55335 10.9779 9.56703 11.1748 9.5669C11.25 9.57031 11.25 9.57031 11.3672 9.60938C11.3844 9.69116 11.3844 9.69116 11.3672 9.80469C11.2843 9.8992 11.1866 9.97686 11.0913 10.0586C10.8906 10.2407 10.8906 10.2407 10.7913 10.4851C10.8034 10.6145 10.828 10.7334 10.8594 10.8594C10.868 10.9414 10.8755 11.0236 10.8813 11.106C10.887 11.167 10.8927 11.228 10.8984 11.2891C10.7979 11.329 10.7293 11.3387 10.6279 11.2978C10.5109 11.235 10.397 11.1677 10.2827 11.1C10.12 11.0047 10.12 11.0047 9.93774 10.975C9.78225 11.0422 9.64123 11.1315 9.4989 11.2224C9.38464 11.2917 9.31745 11.3299 9.18213 11.3181C9.14225 11.3037 9.14225 11.3037 9.10156 11.2891C9.10724 11.2142 9.11294 11.1393 9.11865 11.0645C9.12177 11.0182 9.1249 10.972 9.12811 10.9244C9.14062 10.7812 9.14062 10.7812 9.1629 10.6528C9.20432 10.43 9.20432 10.43 9.12079 10.2307C9.0396 10.1603 8.95582 10.0997 8.86719 10.0391C8.63819 9.84592 8.63819 9.84592 8.61816 9.69238C8.623 9.66499 8.62783 9.6376 8.63281 9.60938C8.9424 9.53334 9.25444 9.49225 9.57031 9.45312C9.58481 9.40398 9.59932 9.35483 9.61426 9.3042C9.68875 9.07821 9.80325 8.87727 9.92188 8.67188Z" fill="currentColor"/>
<path d="M10.5078 1.09424C10.7307 1.30728 10.8546 1.49513 10.8764 1.80714C10.8692 2.05983 10.7675 2.28205 10.587 2.45869C10.3374 2.65371 10.1176 2.68335 9.80466 2.65674C9.57376 2.58363 9.37787 2.47319 9.24756 2.26581C9.1172 2.00328 9.09564 1.76043 9.1821 1.47999C9.27125 1.27225 9.4146 1.11815 9.61346 1.01078C9.90939 0.895027 10.2429 0.911769 10.5078 1.09424Z" fill="currentColor"/>
<path d="M16.8481 12.0558C17.0293 12.2055 17.1478 12.3897 17.1801 12.6229C17.2035 12.8755 17.1311 13.0945 17.0092 13.3139C16.7706 13.528 16.5166 13.628 16.1955 13.6108C15.9297 13.5686 15.7639 13.442 15.5947 13.2383C15.4426 13.0054 15.4413 12.7711 15.4687 12.5009C15.5293 12.2702 15.662 12.1321 15.8567 12.0005C16.1858 11.8108 16.542 11.8416 16.8481 12.0558Z" fill="currentColor"/>
<path d="M4.17474 12.0176C4.35646 12.1512 4.45918 12.2825 4.53119 12.4986C4.55736 12.7882 4.55637 13.0421 4.37494 13.2798C4.21155 13.4533 4.04752 13.5717 3.80685 13.6068C3.49888 13.6145 3.25338 13.5484 3.02087 13.3382C2.85399 13.1357 2.79817 12.8633 2.81991 12.6051C2.86713 12.383 2.97385 12.22 3.13226 12.0615C3.46934 11.8443 3.82606 11.8004 4.17474 12.0176Z" fill="currentColor"/>
<path d="M10.4053 15.6064C10.6023 15.7225 10.737 15.8824 10.835 16.0873C10.8894 16.3592 10.8916 16.631 10.7422 16.8735C10.574 17.0549 10.4008 17.2101 10.1496 17.2395C9.80352 17.246 9.60469 17.2125 9.35476 16.9728C9.17305 16.7743 9.12112 16.564 9.12862 16.3019C9.16395 16.0309 9.28798 15.8402 9.49697 15.67C9.76396 15.5007 10.1152 15.4761 10.4053 15.6064Z" fill="currentColor"/>
<path d="M4.07712 4.66978C4.29982 4.80061 4.45023 4.98967 4.53122 5.23374C4.57641 5.5434 4.51963 5.79978 4.33591 6.05405C4.10168 6.27701 3.87762 6.30238 3.56641 6.29926C3.3294 6.27935 3.16867 6.19264 3.01267 6.01499C2.84931 5.78437 2.78207 5.57211 2.82941 5.28852C2.90339 5.01141 3.01239 4.82264 3.26413 4.67222C3.51787 4.55806 3.82254 4.55712 4.07712 4.66978Z" fill="currentColor"/>
<path d="M16.7334 4.66671C16.9376 4.7888 17.0696 4.95605 17.1439 5.1817C17.2079 5.47408 17.1847 5.6768 17.0435 5.94357C16.9097 6.1063 16.763 6.22096 16.5625 6.28781C16.2234 6.31135 15.9856 6.30837 15.7178 6.08517C15.5192 5.85006 15.4406 5.6485 15.454 5.33764C15.4918 5.07023 15.6212 4.90351 15.825 4.73416C16.0894 4.56162 16.4435 4.54049 16.7334 4.66671Z" fill="currentColor"/>
<path d="M7.4219 11.2875C7.51712 11.351 7.51712 11.351 7.57815 11.4438C7.60012 11.5585 7.60012 11.5585 7.57815 11.6781C7.42077 11.8665 7.22507 11.9789 7.01419 12.1005C6.98163 12.1201 6.94908 12.1397 6.91554 12.1599C6.60818 12.3385 6.60818 12.3385 6.40628 12.3031C6.29153 12.2226 6.29153 12.2226 6.21096 12.1078C6.19632 11.9735 6.19632 11.9735 6.25003 11.8344C6.35516 11.7357 6.4765 11.6706 6.60159 11.6C6.64679 11.5721 6.6919 11.5441 6.73693 11.5159C6.78455 11.4869 6.83221 11.458 6.87991 11.4291C6.9023 11.4151 6.92469 11.4011 6.94776 11.3867C7.11143 11.2909 7.2339 11.2684 7.4219 11.2875Z" fill="currentColor"/>
<path d="M13.5938 7.69422C13.7085 7.77479 13.7085 7.77479 13.7891 7.88953C13.8037 8.02381 13.8037 8.02381 13.75 8.16297C13.6449 8.26168 13.5235 8.32672 13.3984 8.39734C13.3532 8.42523 13.3081 8.45327 13.2631 8.48142C13.2155 8.51043 13.1678 8.53937 13.1201 8.56824C13.0977 8.58224 13.0753 8.59623 13.0523 8.61065C12.8886 8.70649 12.7661 8.72899 12.5781 8.70984C12.4829 8.64637 12.4829 8.64637 12.4219 8.55359C12.3999 8.43885 12.3999 8.43885 12.4219 8.31922C12.5793 8.13087 12.775 8.01845 12.9858 7.89686C13.0184 7.87724 13.0509 7.85763 13.0845 7.83742C13.3918 7.65884 13.3918 7.65884 13.5938 7.69422Z" fill="currentColor"/>
<path d="M12.8515 11.2882C12.9987 11.3513 13.1341 11.4309 13.2715 11.5128C13.3084 11.5338 13.3453 11.5549 13.3833 11.5766C13.6984 11.7604 13.6984 11.7604 13.789 11.9132C13.7865 12.0598 13.7818 12.15 13.6841 12.2623C13.567 12.3161 13.4877 12.3134 13.3593 12.3038C13.2551 12.2591 13.2551 12.2591 13.1512 12.1968C13.1135 12.1745 13.0759 12.1521 13.0371 12.129C12.9984 12.1053 12.9597 12.0816 12.9199 12.0572C12.8806 12.034 12.8413 12.0108 12.8009 11.9868C12.5109 11.8124 12.5109 11.8124 12.4218 11.6788C12.404 11.5391 12.4047 11.4704 12.4829 11.3517C12.6092 11.2675 12.706 11.2601 12.8515 11.2882Z" fill="currentColor"/>
<path d="M6.64062 7.69686C6.74488 7.74161 6.74488 7.74161 6.84875 7.80382C6.88642 7.82621 6.92408 7.84859 6.96289 7.87165C7.00156 7.89534 7.04023 7.91903 7.08008 7.94344C7.11935 7.96668 7.15863 7.98992 7.1991 8.01386C7.48907 8.18827 7.48907 8.18827 7.57812 8.32186C7.59596 8.46159 7.59523 8.53024 7.51709 8.64901C7.39078 8.73321 7.29398 8.74059 7.14844 8.71248C7.00131 8.64941 6.86585 8.56978 6.72852 8.48787C6.69161 8.46683 6.6547 8.44578 6.61667 8.42409C6.30155 8.24031 6.30155 8.24031 6.21094 8.08748C6.21351 7.9409 6.21813 7.85064 6.31592 7.73836C6.433 7.68457 6.51229 7.6873 6.64062 7.69686Z" fill="currentColor"/>
<path d="M10.1172 12.8526C10.2015 12.8951 10.2015 12.8951 10.2735 12.9698C10.2931 13.0924 10.2931 13.0924 10.2929 13.242C10.2929 13.2684 10.293 13.2949 10.293 13.3221C10.293 13.3779 10.2925 13.4338 10.2917 13.4896C10.2906 13.575 10.2909 13.6603 10.2914 13.7457C10.2912 13.8 10.2908 13.8542 10.2904 13.9085C10.29 13.9579 10.2897 14.0073 10.2893 14.0581C10.2735 14.1807 10.2735 14.1807 10.221 14.2544C10.123 14.3203 10.0388 14.3298 9.92192 14.337C9.81452 14.2992 9.77778 14.2831 9.72661 14.1807C9.71654 14.0086 9.71603 13.8363 9.71508 13.6639C9.71441 13.5782 9.71269 13.4925 9.71097 13.4067C9.71057 13.3523 9.71024 13.2978 9.70998 13.2434C9.70941 13.1938 9.70884 13.1441 9.70825 13.093C9.72661 12.9698 9.72661 12.9698 9.79845 12.895C9.91314 12.8374 9.99043 12.8368 10.1172 12.8526Z" fill="currentColor"/>
<path d="M10.1563 5.70162C10.2213 5.74504 10.2213 5.74504 10.2735 5.81881C10.2892 5.94142 10.2892 5.94142 10.2904 6.09103C10.2906 6.11746 10.2908 6.1439 10.291 6.17113C10.2913 6.22695 10.2912 6.28277 10.2909 6.33858C10.2905 6.424 10.2917 6.50932 10.2929 6.59472C10.293 6.64899 10.293 6.70326 10.2928 6.75753C10.2929 6.80691 10.293 6.85628 10.2931 6.90715C10.2735 7.02975 10.2735 7.02975 10.2014 7.10444C10.0869 7.16225 10.0096 7.16279 9.88283 7.14694C9.79859 7.10444 9.79859 7.10444 9.72658 7.02975C9.70698 6.90715 9.70698 6.90715 9.7072 6.75753C9.70715 6.7311 9.70709 6.70466 9.70703 6.67743C9.7071 6.62161 9.70755 6.56579 9.70836 6.50998C9.70949 6.42457 9.70916 6.33925 9.70865 6.25384C9.7089 6.19957 9.70922 6.1453 9.70964 6.09103C9.71003 6.04166 9.71041 5.99228 9.7108 5.94142C9.72658 5.81881 9.72658 5.81881 9.78135 5.74565C9.91826 5.64909 9.99438 5.66198 10.1563 5.70162Z" fill="currentColor"/>
</svg>
