<svg width="20" height="20" viewBox="0 0 20 20" fill="none" xmlns="http://www.w3.org/2000/svg">
<path d="M9.37501 5.00064C10.5156 4.99707 11.6561 4.99431 12.7967 4.99266C12.9314 4.99246 13.066 4.99226 13.2007 4.99205C13.2275 4.99201 13.2543 4.99197 13.2819 4.99193C13.716 4.99125 14.15 4.99002 14.5841 4.98858C15.0295 4.98712 15.4749 4.98627 15.9202 4.98594C16.1704 4.98573 16.4206 4.98525 16.6707 4.98412C16.9061 4.98306 17.1415 4.98273 17.3769 4.98296C17.4634 4.98292 17.5498 4.98261 17.6363 4.98201C17.7542 4.98124 17.8722 4.98142 17.9901 4.98185C18.0244 4.98139 18.0587 4.98094 18.094 4.98047C18.3051 4.98254 18.4295 5.01202 18.5938 5.15689C18.804 5.37396 18.7719 5.62603 18.7699 5.91021C18.77 5.96374 18.7703 6.01727 18.7706 6.0708C18.7712 6.21769 18.7709 6.36456 18.7704 6.51145C18.7701 6.66994 18.7706 6.82842 18.7711 6.98691C18.7718 7.29731 18.7716 7.6077 18.7712 7.9181C18.7708 8.17035 18.7708 8.42261 18.7709 8.67486C18.7709 8.71075 18.771 8.74665 18.771 8.78363C18.771 8.85654 18.7711 8.92946 18.7711 9.00237C18.7716 9.6862 18.7711 10.37 18.7702 11.0539C18.7695 11.6407 18.7697 12.2275 18.7704 12.8144C18.7712 13.4957 18.7715 14.1771 18.7711 14.8585C18.771 14.9311 18.771 15.0038 18.7709 15.0764C18.7709 15.13 18.7709 15.13 18.7708 15.1847C18.7707 15.4367 18.7709 15.6887 18.7713 15.9406C18.7717 16.2477 18.7716 16.5547 18.7708 16.8617C18.7704 17.0184 18.7702 17.1751 18.7707 17.3318C18.7712 17.4752 18.771 17.6186 18.7701 17.762C18.7699 17.8385 18.7704 17.9149 18.7709 17.9914C18.7671 18.4154 18.7671 18.4154 18.5938 18.5944C18.4143 18.7361 18.2976 18.7702 18.0701 18.7703C18.0417 18.7705 18.0132 18.7708 17.984 18.771C17.8886 18.7716 17.7934 18.771 17.6981 18.7705C17.6291 18.7707 17.5601 18.7709 17.4911 18.7712C17.3014 18.7719 17.1118 18.7715 16.9222 18.7711C16.7177 18.7707 16.5132 18.7713 16.3087 18.7717C15.908 18.7724 15.5074 18.7722 15.1068 18.7718C14.7812 18.7714 14.4557 18.7714 14.1301 18.7715C14.0838 18.7716 14.0375 18.7716 13.9898 18.7716C13.8957 18.7717 13.8017 18.7717 13.7076 18.7718C12.8253 18.7722 11.943 18.7717 11.0606 18.7709C10.3032 18.7702 9.54586 18.7703 8.78846 18.771C7.90933 18.7718 7.03019 18.7722 6.15105 18.7717C6.05734 18.7716 5.96363 18.7716 5.86992 18.7715C5.80075 18.7715 5.80075 18.7715 5.73019 18.7715C5.40496 18.7713 5.07973 18.7716 4.7545 18.7719C4.35825 18.7724 3.96201 18.7723 3.56576 18.7714C3.36352 18.771 3.16129 18.7709 2.95904 18.7714C2.77399 18.7718 2.58896 18.7716 2.40391 18.7707C2.33688 18.7706 2.26985 18.7707 2.20282 18.771C2.11184 18.7715 2.02091 18.771 1.92992 18.7703C1.87935 18.7703 1.82878 18.7703 1.77668 18.7702C1.57048 18.7405 1.45153 18.6448 1.31466 18.4925C1.22604 18.3109 1.2288 18.1591 1.23122 17.9596C1.23109 17.9194 1.23096 17.8791 1.23082 17.8377C1.23056 17.7029 1.23142 17.5681 1.23227 17.4334C1.23232 17.3367 1.23229 17.2401 1.2322 17.1435C1.23217 16.9355 1.23261 16.7275 1.23349 16.5194C1.23476 16.2187 1.23517 15.918 1.23537 15.6172C1.23571 15.1292 1.23675 14.6413 1.23822 14.1533C1.23966 13.6794 1.24077 13.2054 1.24143 12.7315C1.24147 12.7022 1.24151 12.673 1.24155 12.6429C1.24176 12.4963 1.24196 12.3497 1.24215 12.2031C1.24377 10.9871 1.24653 9.77123 1.25001 8.55533C1.33672 8.6046 1.42339 8.65393 1.51004 8.70329C1.54647 8.72398 1.54647 8.72398 1.58363 8.74509C1.80029 8.8686 2.01128 9.00009 2.22169 9.13394C2.98697 9.61613 3.76399 10.0834 4.55858 10.5158C4.68751 10.5866 4.68751 10.5866 4.78837 10.6549C4.90866 10.7171 4.98255 10.7141 5.1172 10.7038C5.22597 10.662 5.22597 10.662 5.33235 10.5989C5.37354 10.5759 5.41473 10.5529 5.45718 10.5292C5.50128 10.5038 5.54539 10.4784 5.59083 10.4523C5.63769 10.4257 5.68455 10.3992 5.73143 10.3727C6.20369 10.1043 6.66771 9.82215 7.1301 9.53721C7.26551 9.45377 7.40121 9.37081 7.53694 9.2879C7.74803 9.15881 7.95858 9.0289 8.16879 8.89838C8.2736 8.83351 8.37879 8.76931 8.48405 8.70517C8.54344 8.66829 8.6028 8.63136 8.66212 8.59439C8.68794 8.57891 8.71375 8.56343 8.74035 8.54749C9.02352 8.36839 9.21484 8.09933 9.29689 7.77408C9.32591 7.59487 9.34146 7.42155 9.34397 7.2401C9.34475 7.19007 9.34553 7.14004 9.34633 7.08849C9.34699 7.03468 9.34765 6.98087 9.34831 6.92706C9.34911 6.8714 9.34993 6.81574 9.35077 6.76008C9.35291 6.61437 9.35485 6.46867 9.35674 6.32296C9.35871 6.17396 9.36088 6.02496 9.36303 5.87596C9.36722 5.58419 9.37119 5.29241 9.37501 5.00064ZM11.7188 7.18814C11.6941 7.20964 11.6694 7.23114 11.644 7.25329C11.0575 7.79556 10.6912 8.63036 10.6479 9.41958C10.6151 10.4235 10.875 11.2856 11.5625 12.0319C11.5947 12.0687 11.5947 12.0687 11.6275 12.1064C12.2116 12.7393 13.1124 13.0884 13.9601 13.1269C14.8853 13.1189 15.7193 12.8124 16.4063 12.1881C16.4309 12.1666 16.4556 12.1451 16.481 12.123C17.0675 11.5807 17.4338 10.7459 17.4771 9.95669C17.5099 8.95278 17.2501 8.09072 16.5625 7.34439C16.5411 7.31981 16.5196 7.29524 16.4975 7.26992C15.9135 6.63697 15.0126 6.28791 14.1649 6.24942C13.2398 6.2574 12.4058 6.56391 11.7188 7.18814ZM8.20314 10.7428C8.12032 10.8997 8.11536 11.0352 8.11562 11.2108C8.11555 11.2377 8.11548 11.2647 8.11542 11.2925C8.11529 11.3826 8.11572 11.4726 8.11614 11.5627C8.11617 11.6274 8.11615 11.6921 8.11611 11.7568C8.11609 11.9322 8.11655 12.1077 8.11709 12.2831C8.11758 12.4665 8.11763 12.6499 8.11772 12.8333C8.11796 13.1806 8.1186 13.5278 8.11939 13.875C8.12026 14.2704 8.12069 14.6657 8.12108 15.0611C8.1219 15.8743 8.12333 16.6874 8.12501 17.5006C8.53751 17.5006 8.95001 17.5006 9.37501 17.5006C9.37766 16.649 9.37982 15.7974 9.38108 14.9458C9.38169 14.5504 9.38251 14.155 9.38385 13.7596C9.38502 13.415 9.38578 13.0704 9.38604 12.7257C9.38619 12.5432 9.38655 12.3608 9.3874 12.1783C9.3882 12.0065 9.38844 11.8347 9.38827 11.6629C9.3883 11.5999 9.38853 11.5369 9.38898 11.4739C9.38957 11.3877 9.38942 11.3016 9.3891 11.2155C9.38927 11.1432 9.38927 11.1432 9.38943 11.0695C9.37336 10.9231 9.33432 10.8289 9.25782 10.7038C9.10118 10.6069 8.93188 10.6126 8.75245 10.6134C8.72549 10.6128 8.69852 10.6122 8.67074 10.6115C8.48613 10.6113 8.35606 10.6382 8.20314 10.7428ZM6.32814 11.9928C6.25508 12.136 6.24032 12.2538 6.24062 12.4133C6.24051 12.4583 6.2404 12.5032 6.24029 12.5496C6.24057 12.5986 6.24085 12.6475 6.24114 12.698C6.24117 12.7503 6.24115 12.8027 6.24111 12.8551C6.24109 12.997 6.24155 13.1388 6.24209 13.2807C6.24258 13.4291 6.24263 13.5774 6.24272 13.7258C6.24296 14.0066 6.2436 14.2875 6.24439 14.5683C6.24526 14.8881 6.24569 15.2078 6.24608 15.5276C6.2469 16.1853 6.24833 16.843 6.25001 17.5006C6.66251 17.5006 7.07501 17.5006 7.50001 17.5006C7.50266 16.812 7.50482 16.1234 7.50608 15.4348C7.50669 15.115 7.50751 14.7953 7.50885 14.4756C7.51002 14.1969 7.51078 13.9181 7.51104 13.6394C7.51119 13.4919 7.51155 13.3443 7.5124 13.1968C7.5132 13.0578 7.51344 12.9189 7.51327 12.7799C7.51331 12.7047 7.51394 12.6296 7.51459 12.5544C7.51658 12.2367 7.51658 12.2367 7.38282 11.9538C7.22618 11.8569 7.05688 11.8626 6.87745 11.8634C6.85049 11.8628 6.82352 11.8622 6.79574 11.8615C6.61113 11.8613 6.48106 11.8882 6.32814 11.9928ZM4.45314 13.2428C4.34606 13.4272 4.36459 13.6267 4.36614 13.8332C4.36613 13.8729 4.36612 13.9125 4.36611 13.9534C4.36616 14.0842 4.36677 14.2151 4.36738 14.3459C4.36753 14.4367 4.36764 14.5275 4.36772 14.6183C4.36802 14.8571 4.36878 15.0959 4.36965 15.3348C4.37045 15.5785 4.3708 15.8223 4.3712 16.0661C4.37204 16.5443 4.37341 17.0225 4.37501 17.5006C4.78751 17.5006 5.20001 17.5006 5.62501 17.5006C5.62766 16.975 5.62981 16.4494 5.63108 15.9237C5.6317 15.6797 5.63252 15.4356 5.63385 15.1915C5.63513 14.956 5.63583 14.7204 5.63613 14.4849C5.63635 14.395 5.63677 14.3051 5.6374 14.2153C5.63825 14.0894 5.63837 13.9635 5.63832 13.8377C5.63874 13.8005 5.63916 13.7634 5.63959 13.7251C5.63865 13.5222 5.62326 13.3785 5.50782 13.2038C5.35118 13.1069 5.18188 13.1126 5.00245 13.1134C4.97549 13.1128 4.94852 13.1122 4.92074 13.1115C4.73613 13.1113 4.60607 13.1382 4.45314 13.2428ZM10.0781 13.2428C9.97106 13.4272 9.98959 13.6267 9.99114 13.8332C9.99113 13.8729 9.99112 13.9125 9.99111 13.9534C9.99116 14.0842 9.99177 14.2151 9.99238 14.3459C9.99253 14.4367 9.99264 14.5275 9.99272 14.6183C9.99302 14.8571 9.99378 15.0959 9.99465 15.3348C9.99545 15.5785 9.9958 15.8223 9.9962 16.0661C9.99704 16.5443 9.99841 17.0225 10 17.5006C10.4125 17.5006 10.825 17.5006 11.25 17.5006C11.2527 16.975 11.2548 16.4494 11.2561 15.9237C11.2567 15.6797 11.2575 15.4356 11.2589 15.1915C11.2601 14.956 11.2608 14.7204 11.2611 14.4849C11.2613 14.395 11.2618 14.3051 11.2624 14.2153C11.2633 14.0894 11.2634 13.9635 11.2633 13.8377C11.2637 13.8005 11.2642 13.7634 11.2646 13.7251C11.2636 13.5222 11.2483 13.3785 11.1328 13.2038C10.9762 13.1069 10.8069 13.1126 10.6275 13.1134C10.6005 13.1128 10.5735 13.1122 10.5457 13.1115C10.3611 13.1113 10.2311 13.1382 10.0781 13.2428ZM2.57814 14.4928C2.49367 14.6518 2.49052 14.7905 2.49114 14.9685C2.49113 14.9959 2.49112 15.0234 2.49111 15.0517C2.49116 15.142 2.49177 15.2322 2.49238 15.3224C2.49253 15.3852 2.49264 15.448 2.49272 15.5108C2.49302 15.6756 2.49378 15.8405 2.49465 16.0053C2.49559 16.2033 2.49595 16.4013 2.4964 16.5993C2.49716 16.8997 2.49866 17.2002 2.50001 17.5006C2.91251 17.5006 3.32501 17.5006 3.75001 17.5006C3.75342 17.0065 3.75342 17.0065 3.75573 16.5123C3.75643 16.3107 3.75726 16.1091 3.75885 15.9074C3.76013 15.7448 3.76083 15.5822 3.76113 15.4196C3.76135 15.3577 3.76177 15.2957 3.7624 15.2338C3.76326 15.1468 3.76337 15.0599 3.76332 14.9729C3.76358 14.9235 3.76384 14.874 3.7641 14.8231C3.74859 14.6745 3.71072 14.5805 3.63282 14.4538C3.47618 14.3569 3.30688 14.3626 3.12745 14.3634C3.10049 14.3628 3.07352 14.3622 3.04574 14.3615C2.86113 14.3613 2.73106 14.3882 2.57814 14.4928ZM11.9531 14.4928C11.8687 14.6518 11.8655 14.7905 11.8661 14.9685C11.8661 14.9959 11.8661 15.0234 11.8661 15.0517C11.8662 15.142 11.8668 15.2322 11.8674 15.3224C11.8675 15.3852 11.8676 15.448 11.8677 15.5108C11.868 15.6756 11.8688 15.8405 11.8696 16.0053C11.8706 16.2033 11.8709 16.4013 11.8714 16.5993C11.8722 16.8997 11.8737 17.2002 11.875 17.5006C12.2875 17.5006 12.7 17.5006 13.125 17.5006C13.1284 17.0065 13.1284 17.0065 13.1307 16.5123C13.1314 16.3107 13.1323 16.1091 13.1339 15.9074C13.1351 15.7448 13.1358 15.5822 13.1361 15.4196C13.1363 15.3577 13.1368 15.2957 13.1374 15.2338C13.1383 15.1468 13.1384 15.0599 13.1383 14.9729C13.1386 14.9235 13.1388 14.874 13.1391 14.8231C13.1236 14.6745 13.0857 14.5805 13.0078 14.4538C12.8512 14.3569 12.6819 14.3626 12.5025 14.3634C12.4755 14.3628 12.4485 14.3622 12.4207 14.3615C12.2361 14.3613 12.1061 14.3882 11.9531 14.4928Z" fill="currentColor"/>
<path d="M13.75 6.875C13.7503 6.9098 13.7506 6.9446 13.751 6.98046C13.754 7.30864 13.7574 7.63682 13.7612 7.96499C13.7632 8.13371 13.765 8.30242 13.7665 8.47114C13.7679 8.634 13.7697 8.79685 13.7718 8.95971C13.7725 9.0218 13.7731 9.08389 13.7736 9.14599C13.7742 9.23305 13.7754 9.32009 13.7766 9.40715C13.7771 9.45668 13.7777 9.50621 13.7782 9.55724C13.789 9.68626 13.8011 9.77159 13.8672 9.88281C14.02 9.97353 14.1682 9.97156 14.3429 9.97339C14.3703 9.97378 14.3978 9.97418 14.4261 9.97458C14.5163 9.97578 14.6066 9.97645 14.6968 9.97711C14.7596 9.97784 14.8224 9.97861 14.8852 9.9794C15.05 9.98141 15.2148 9.98296 15.3797 9.98441C15.5481 9.98598 15.7164 9.98797 15.8848 9.98993C16.2149 9.99371 16.5449 9.997 16.875 10C16.8632 10.0748 16.8511 10.1496 16.839 10.2244C16.8323 10.266 16.8257 10.3077 16.8188 10.3506C16.7436 10.756 16.5476 11.1276 16.2891 11.4453C16.2634 11.4777 16.2378 11.5102 16.2114 11.5436C15.8881 11.929 15.4713 12.2086 15 12.3828C14.9677 12.3952 14.9354 12.4077 14.902 12.4205C14.1929 12.6448 13.3604 12.5361 12.7075 12.2046C12.0027 11.821 11.5301 11.1696 11.2915 10.4126C11.1196 9.61976 11.245 8.80686 11.6797 8.125C12.1208 7.48761 12.7414 7.0591 13.5034 6.90186C13.5879 6.88678 13.6643 6.875 13.75 6.875Z" fill="currentColor"/>
<path d="M5.23438 1.24962C5.40368 1.32553 5.55704 1.41673 5.71239 1.51769C5.82203 1.58843 5.93444 1.65452 6.04645 1.72142C6.1355 1.77567 6.22451 1.83 6.31348 1.88438C6.40964 1.94302 6.50583 2.00159 6.60202 2.06017C6.62556 2.07451 6.64909 2.08884 6.67334 2.10362C6.84465 2.20792 7.01648 2.3113 7.18866 2.41414C7.31206 2.48785 7.43522 2.56194 7.55835 2.63609C7.62848 2.67824 7.69869 2.72025 7.76896 2.76217C7.88464 2.8313 7.99996 2.901 8.11523 2.97081C8.15136 2.99225 8.18749 3.01369 8.22471 3.03577C8.25767 3.05588 8.29063 3.07598 8.32458 3.0967C8.35398 3.11437 8.38337 3.13205 8.41366 3.15026C8.43442 3.16758 8.45517 3.1849 8.47656 3.20274C8.47656 3.24142 8.47656 3.28009 8.47656 3.31993C8.406 3.37476 8.406 3.37476 8.30582 3.43178C8.26855 3.45325 8.23129 3.47473 8.1929 3.49686C8.15196 3.51984 8.11103 3.54283 8.06885 3.56651C8.02665 3.59066 7.98445 3.6148 7.94098 3.63968C7.80731 3.71594 7.67326 3.79149 7.53906 3.86681C7.49777 3.88999 7.45647 3.91317 7.41392 3.93705C7.25243 4.02756 7.09087 4.11792 6.92913 4.20798C6.6398 4.36936 6.35284 4.53447 6.06689 4.70177C6.02788 4.72451 5.98886 4.74724 5.94866 4.77067C5.78255 4.86761 5.61692 4.96504 5.45303 5.06569C5.42797 5.0808 5.4029 5.09591 5.37707 5.11149C5.31366 5.14978 5.25065 5.18872 5.18768 5.22774C5.05105 5.28426 4.98643 5.26764 4.84375 5.23399C4.74658 5.18804 4.74658 5.18804 4.65012 5.12978C4.59536 5.09719 4.59536 5.09719 4.53949 5.06394C4.50052 5.04029 4.46154 5.01665 4.42139 4.9923C4.33695 4.94202 4.25247 4.89182 4.16794 4.84169C4.1246 4.81594 4.08127 4.79019 4.03662 4.76366C3.83225 4.64367 3.62519 4.52865 3.41797 4.41368C2.97611 4.16779 2.5382 3.91546 2.10302 3.65793C2.02283 3.61122 1.94198 3.56562 1.86075 3.52072C1.81777 3.49671 1.77479 3.47269 1.7305 3.44795C1.69094 3.42625 1.65137 3.40454 1.61061 3.38218C1.56746 3.35137 1.56746 3.35137 1.52344 3.31993C1.52344 3.28126 1.52344 3.24259 1.52344 3.20274C1.60648 3.13902 1.60648 3.13902 1.72424 3.06938C1.76795 3.04322 1.81166 3.01706 1.8567 2.9901C1.90511 2.9617 1.95353 2.93329 2.00195 2.90489C2.0518 2.87524 2.10161 2.84554 2.1514 2.81579C2.25506 2.75391 2.35883 2.69223 2.46267 2.63067C2.65335 2.51742 2.84263 2.40193 3.03188 2.28631C3.12173 2.23144 3.21172 2.17683 3.30189 2.12249C3.34714 2.09521 3.3924 2.06792 3.43765 2.04063C3.47117 2.02042 3.47117 2.02042 3.50537 1.9998C3.64649 1.91443 3.78644 1.82741 3.92582 1.73924C4.02 1.67986 4.11469 1.62131 4.20946 1.56288C4.27512 1.522 4.34011 1.48004 4.40507 1.43806C4.6806 1.26924 4.91093 1.17233 5.23438 1.24962Z" fill="currentColor"/>
<path d="M8.67188 3.82812C8.69767 3.82812 8.72345 3.82812 8.75001 3.82812C8.75363 4.33339 8.75641 4.83864 8.75811 5.34392C8.75892 5.57854 8.76003 5.81315 8.7618 6.04776C8.7635 6.27419 8.76443 6.50062 8.76483 6.72705C8.76512 6.81343 8.76569 6.8998 8.76653 6.98617C8.76766 7.10719 8.76782 7.22817 8.76775 7.34919C8.76831 7.38487 8.76887 7.42055 8.76945 7.45732C8.76805 7.6736 8.73839 7.79729 8.59376 7.96875C8.5067 8.04296 8.5067 8.04296 8.41294 8.10501C8.37855 8.12795 8.34415 8.1509 8.30871 8.17453C8.14512 8.27937 7.98083 8.38271 7.81495 8.48389C7.7424 8.52847 7.66987 8.57307 7.59736 8.61771C7.56129 8.63989 7.52523 8.66208 7.48807 8.68494C7.33103 8.78202 7.17498 8.88064 7.01905 8.97949C6.61537 9.23522 6.21026 9.48869 5.80455 9.74119C5.73909 9.78218 5.67385 9.82352 5.60889 9.86528C5.39866 10 5.39866 10 5.31251 10C5.30429 9.454 5.29812 8.90802 5.29429 8.36197C5.29246 8.10842 5.28997 7.85491 5.28599 7.60138C5.28217 7.35671 5.28007 7.11208 5.27915 6.86738C5.2785 6.77402 5.27724 6.68067 5.27534 6.58733C5.27279 6.45654 5.27244 6.32593 5.2726 6.19513C5.27133 6.15652 5.27007 6.11791 5.26877 6.07814C5.27224 5.82068 5.27224 5.82068 5.38918 5.70618C5.47856 5.64579 5.56768 5.5951 5.66407 5.54688C5.70428 5.52321 5.74449 5.49954 5.78592 5.47516C5.8223 5.45532 5.85868 5.43548 5.89616 5.41504C5.93778 5.39218 5.97941 5.36931 6.02229 5.34575C6.06602 5.32189 6.10974 5.29803 6.15479 5.27344C6.24922 5.22155 6.34356 5.16948 6.43785 5.11734C6.47338 5.09769 6.47338 5.09769 6.50963 5.07764C6.77762 4.92899 7.04166 4.77373 7.30578 4.61835C7.64441 4.41966 7.98656 4.22765 8.32988 4.03724C8.38852 4.00465 8.38852 4.00465 8.44834 3.97141C8.50046 3.94257 8.50046 3.94257 8.55362 3.91315C8.62999 3.87336 8.62999 3.87336 8.67188 3.82812Z" fill="currentColor"/>
<path d="M1.25 3.82812C1.38792 3.8822 1.51577 3.94179 1.64505 4.01428C1.68365 4.03588 1.72224 4.05749 1.76201 4.07974C1.80333 4.10306 1.84464 4.12637 1.88721 4.15039C1.93049 4.17471 1.97377 4.19903 2.01836 4.22409C2.34941 4.41074 2.67793 4.60156 3.00558 4.79412C3.33603 4.98781 3.6699 5.17505 4.00551 5.35965C4.06265 5.3913 4.06265 5.3913 4.12094 5.42358C4.15405 5.44179 4.18715 5.45999 4.22126 5.47874C4.2591 5.50123 4.29695 5.52371 4.33594 5.54688C4.36455 5.56119 4.39316 5.5755 4.42264 5.59025C4.66788 5.72681 4.66788 5.72681 4.71948 5.87C4.73083 5.9798 4.73103 6.08479 4.72741 6.19513C4.72749 6.2569 4.72749 6.2569 4.72757 6.31992C4.72732 6.45568 4.72459 6.59126 4.72183 6.72699C4.72118 6.82124 4.72068 6.91549 4.72033 7.00974C4.71899 7.25753 4.71553 7.50524 4.71164 7.753C4.70804 8.00592 4.70644 8.25886 4.70467 8.51181C4.7009 9.0079 4.69497 9.50395 4.6875 10C4.54197 9.94347 4.41412 9.87896 4.28116 9.79675C4.24039 9.77162 4.19962 9.74649 4.15762 9.7206C4.09241 9.68005 4.09241 9.68005 4.02588 9.63867C3.98014 9.61036 3.9344 9.58206 3.88865 9.55377C3.57031 9.35655 3.25376 9.15657 2.93838 8.95466C2.74846 8.83314 2.55791 8.71279 2.36633 8.5939C2.3243 8.5678 2.28226 8.54169 2.23894 8.5148C2.15829 8.46479 2.07756 8.41491 1.99675 8.36516C1.36147 7.97114 1.36147 7.97114 1.25 7.73438C1.23328 7.6074 1.23519 7.48152 1.2367 7.35362C1.23668 7.31549 1.23666 7.27736 1.23665 7.23808C1.23673 7.11231 1.23764 6.98657 1.23856 6.86081C1.23878 6.77351 1.23894 6.68621 1.23906 6.59891C1.23951 6.36933 1.24066 6.13975 1.24196 5.91017C1.24315 5.67583 1.24369 5.44148 1.24428 5.20714C1.24554 4.74746 1.24754 4.28779 1.25 3.82812Z" fill="currentColor"/>
<path d="M14.375 6.875C15.1902 7.03804 15.8548 7.31142 16.3599 8.00293C16.6154 8.39661 16.875 8.88998 16.875 9.375C16.05 9.375 15.225 9.375 14.375 9.375C14.375 8.55 14.375 7.725 14.375 6.875Z" fill="currentColor"/>
</svg>
