<svg width="20" height="20" viewBox="0 0 20 20" fill="none" xmlns="http://www.w3.org/2000/svg">
<path d="M6.63193 12.1578C6.6764 12.1586 6.6764 12.1586 6.72176 12.1594C7.05313 12.1742 7.33629 12.2848 7.63916 12.4113C7.70104 12.436 7.76297 12.4606 7.82495 12.4851C7.95872 12.5381 8.09223 12.5918 8.22559 12.6459C8.44381 12.734 8.66313 12.8192 8.88275 12.9038C8.92091 12.9185 8.95907 12.9332 8.99839 12.9484C9.07687 12.9786 9.15535 13.0088 9.23384 13.0391C9.43507 13.1168 9.63604 13.1951 9.83704 13.2734C10.1533 13.3965 10.4698 13.5189 10.7865 13.6407C10.9809 13.7154 11.1752 13.7904 11.3696 13.8654C11.4634 13.9016 11.5573 13.9377 11.6512 13.9736C11.7822 14.0238 11.9131 14.0744 12.0439 14.125C12.0828 14.1397 12.1216 14.1545 12.1616 14.1698C12.5014 14.3019 12.7821 14.4464 12.9419 14.7965C13.0101 15.1064 12.9656 15.3452 12.8125 15.6217C12.6653 15.8162 12.5032 15.9461 12.2656 16.0123C11.8808 16.0563 11.5299 15.9586 11.1625 15.8592C11.058 15.831 10.9533 15.8034 10.8486 15.7761C10.6266 15.7179 10.4048 15.6589 10.1831 15.5997C9.92528 15.531 9.66736 15.4627 9.40921 15.3952C9.30638 15.3681 9.20373 15.3404 9.10107 15.3127C9.03785 15.296 8.97463 15.2794 8.91139 15.2629C8.86904 15.2512 8.86904 15.2512 8.82584 15.2392C8.63944 15.1913 8.50529 15.1932 8.32031 15.2311C8.31145 15.2794 8.30259 15.3278 8.29346 15.3776C8.28847 15.4048 8.28349 15.4319 8.27835 15.46C8.28241 15.5769 8.31787 15.6154 8.39844 15.6998C8.51492 15.7481 8.51492 15.7481 8.65283 15.7796C8.67851 15.7863 8.7042 15.7929 8.73066 15.7997C8.81566 15.8215 8.90084 15.8425 8.98605 15.8634C9.04571 15.8785 9.10535 15.8937 9.16498 15.9089C9.32239 15.9489 9.47998 15.9882 9.63761 16.0274C9.79572 16.0668 9.95366 16.1069 10.1116 16.1469C10.372 16.2128 10.6323 16.2784 10.893 16.3431C11.0297 16.377 11.1662 16.4115 11.3025 16.4472C11.3303 16.4544 11.3582 16.4616 11.3868 16.469C11.4633 16.4888 11.5398 16.5088 11.6162 16.5289C12.0466 16.6211 12.4437 16.5784 12.8221 16.35C13.1335 16.1304 13.3491 15.8492 13.4692 15.4871C13.5221 15.3735 13.5618 15.3405 13.6673 15.2756C13.6989 15.2559 13.7305 15.2361 13.763 15.2157C13.7974 15.195 13.8318 15.1743 13.8672 15.153C13.9025 15.1312 13.9378 15.1095 13.9741 15.0871C14.0928 15.0142 14.212 14.942 14.3311 14.8698C14.7508 14.6135 15.1612 14.3456 15.5692 14.0712C15.8256 13.8988 16.0835 13.7299 16.3467 13.5679C16.5073 13.4691 16.6659 13.3676 16.8239 13.2644C16.9344 13.1923 17.0454 13.1207 17.1565 13.0495C17.2154 13.0117 17.2741 12.9736 17.3328 12.9354C17.5644 12.7939 17.793 12.7353 18.0634 12.7889C18.3555 12.8776 18.5563 13.0088 18.7109 13.278C18.7849 13.4998 18.7948 13.7126 18.75 13.942C18.6444 14.1284 18.4772 14.2683 18.3203 14.4108C18.272 14.4602 18.224 14.5098 18.1763 14.5597C18.061 14.6734 17.9391 14.7785 17.8165 14.8841C17.7271 14.9642 17.6429 15.048 17.5586 15.1334C17.4319 15.2616 17.3019 15.3816 17.1652 15.4989C17.0334 15.6152 16.9056 15.7357 16.7773 15.8561C16.6024 16.0201 16.427 16.1829 16.2451 16.3393C16.1567 16.4161 16.0704 16.495 15.9839 16.5739C15.8486 16.6961 15.7107 16.8133 15.5688 16.9279C15.4203 17.048 15.2773 17.172 15.1367 17.3014C14.9655 17.4585 14.7905 17.6085 14.6092 17.7538C14.5239 17.8227 14.4402 17.8923 14.3568 17.9635C13.7207 18.4998 12.9987 18.8424 12.1484 18.7858C11.6608 18.7153 11.1926 18.5819 10.7205 18.4446C10.6442 18.4226 10.5678 18.4007 10.4914 18.3787C10.2915 18.3213 10.0917 18.2635 9.8919 18.2057C9.2512 18.0202 8.61014 17.836 7.96875 17.653C7.94052 17.6449 7.91229 17.6368 7.8832 17.6285C7.72057 17.582 7.55773 17.5363 7.39471 17.4912C7.3594 17.4811 7.32409 17.4711 7.2877 17.4607C6.32873 17.1998 5.36935 17.2265 4.375 17.1842C4.375 15.792 4.375 14.3998 4.375 12.9655C6.33427 12.1491 6.33427 12.1491 6.63193 12.1578Z" fill="currentColor"/>
<path d="M7.29111 5.61667C7.32866 5.6165 7.36621 5.61632 7.40489 5.61614C7.4669 5.61615 7.4669 5.61615 7.53017 5.61616C7.57402 5.61602 7.61787 5.61588 7.66305 5.61573C7.81077 5.6153 7.95848 5.61515 8.1062 5.615C8.2118 5.61478 8.3174 5.6145 8.423 5.61422C8.7405 5.61345 9.05799 5.61306 9.37549 5.61271C9.52504 5.61254 9.6746 5.61233 9.82415 5.61212C10.3214 5.61146 10.8186 5.61089 11.3159 5.61061C11.4449 5.61054 11.574 5.61046 11.703 5.61038C11.7351 5.61036 11.7672 5.61035 11.8002 5.61033C12.3196 5.61 12.8389 5.60901 13.3582 5.60774C13.8915 5.60645 14.4248 5.60575 14.9582 5.60562C15.2575 5.60554 15.5569 5.6052 15.8563 5.6042C16.1113 5.60335 16.3663 5.60304 16.6214 5.60342C16.7514 5.60359 16.8814 5.60344 17.0115 5.60276C17.1527 5.60207 17.2939 5.60235 17.4352 5.60286C17.4759 5.60243 17.5166 5.602 17.5586 5.60156C17.9829 5.60528 18.2793 5.74314 18.5837 6.03512C19.1963 6.69227 19.1109 7.50432 19.0986 8.3441C19.0973 8.44053 19.0965 8.53697 19.0961 8.63341C19.0955 8.77411 19.0937 8.91476 19.0915 9.05545C19.0916 9.09826 19.0916 9.14107 19.0916 9.18518C19.0859 9.44177 19.0573 9.65454 18.8672 9.84066C18.6191 10.0232 18.4018 10.0191 18.1003 10.017C18.0505 10.0173 18.0008 10.0176 17.9495 10.0178C17.8117 10.0186 17.674 10.0183 17.5363 10.0179C17.3875 10.0176 17.2388 10.0183 17.0901 10.0188C16.7989 10.0196 16.5078 10.0196 16.2166 10.0193C15.9799 10.019 15.7432 10.0191 15.5065 10.0193C15.4728 10.0194 15.4391 10.0194 15.4044 10.0194C15.336 10.0195 15.2675 10.0196 15.1991 10.0197C14.5572 10.0203 13.9154 10.02 13.2735 10.0193C12.6865 10.0187 12.0994 10.0193 11.5123 10.0204C10.9094 10.0216 10.3064 10.022 9.7034 10.0216C9.63519 10.0216 9.56697 10.0216 9.49875 10.0215C9.46519 10.0215 9.43163 10.0215 9.39705 10.0215C9.16071 10.0214 8.92438 10.0218 8.68804 10.0223C8.39993 10.023 8.11183 10.023 7.82372 10.0221C7.67676 10.0217 7.52982 10.0216 7.38287 10.0223C7.22347 10.0231 7.06411 10.0223 6.90471 10.0215C6.85838 10.0219 6.81206 10.0224 6.76433 10.0229C6.49239 10.0198 6.30145 9.9851 6.09378 9.8016C5.89468 9.56069 5.91281 9.30652 5.91098 9.00387C5.91015 8.95326 5.90932 8.90264 5.90846 8.85049C5.90676 8.74359 5.90556 8.63669 5.90476 8.52978C5.90373 8.39393 5.90166 8.25813 5.89924 8.1223C5.89699 7.99136 5.89546 7.86041 5.89389 7.72946C5.89312 7.68127 5.89236 7.63307 5.89157 7.58342C5.88789 6.98762 5.99919 6.4569 6.41849 6.0101C6.65794 5.78954 6.96036 5.61738 7.29111 5.61667ZM10.3907 6.9891C10.3352 7.10007 10.3393 7.17874 10.3516 7.3016C10.4388 7.41284 10.4903 7.45199 10.625 7.49691C10.7433 7.5011 10.8606 7.50306 10.9789 7.50321C11.0332 7.5035 11.0332 7.5035 11.0886 7.5038C11.2086 7.50437 11.3286 7.50463 11.4485 7.50485C11.5319 7.50507 11.6152 7.5053 11.6986 7.50552C11.8735 7.50593 12.0483 7.50616 12.2232 7.5063C12.4471 7.50651 12.6711 7.50745 12.895 7.50856C13.0673 7.50929 13.2395 7.50949 13.4117 7.50955C13.4942 7.50967 13.5768 7.50998 13.6593 7.5105C13.7749 7.51116 13.8905 7.51109 14.006 7.51084C14.0401 7.5112 14.0741 7.51156 14.1092 7.51193C14.3046 7.51059 14.4405 7.48926 14.6094 7.37973C14.6649 7.26876 14.6608 7.19009 14.6485 7.06723C14.5613 6.95598 14.5098 6.91684 14.375 6.87191C14.2568 6.86773 14.1395 6.86577 14.0212 6.86562C13.9669 6.86533 13.9669 6.86533 13.9115 6.86503C13.7915 6.86446 13.6715 6.86419 13.5515 6.86398C13.4682 6.86375 13.3848 6.86353 13.3015 6.8633C13.1266 6.86289 12.9518 6.86267 12.7769 6.86253C12.5529 6.86231 12.329 6.86138 12.105 6.86026C11.9328 6.85954 11.7606 6.85933 11.5884 6.85927C11.5058 6.85916 11.4233 6.85884 11.3407 6.85833C11.2251 6.85766 11.1096 6.85774 10.994 6.85799C10.96 6.85763 10.9259 6.85727 10.8909 6.8569C10.6955 6.85824 10.5596 6.87957 10.3907 6.9891ZM7.67368 7.29779C7.51254 7.53165 7.51112 7.76837 7.5391 8.04379C7.60837 8.30335 7.79092 8.48026 8.00785 8.62973C8.24136 8.74419 8.51619 8.75508 8.76499 8.67962C9.01301 8.56316 9.19218 8.38526 9.30744 8.13641C9.38045 7.89941 9.3768 7.63516 9.27738 7.40658C9.14126 7.17455 8.92837 6.99237 8.67191 6.91098C8.22525 6.85799 7.96182 6.96072 7.67368 7.29779ZM15.7987 7.29779C15.6375 7.53165 15.6361 7.76837 15.6641 8.04379C15.7334 8.30335 15.9159 8.48026 16.1328 8.62973C16.3664 8.74419 16.6412 8.75508 16.89 8.67962C17.138 8.56316 17.3172 8.38526 17.4324 8.13641C17.5055 7.89941 17.5018 7.63516 17.4024 7.40658C17.2663 7.17455 17.0534 6.99237 16.7969 6.91098C16.3502 6.85799 16.0868 6.96072 15.7987 7.29779ZM10.3907 8.2391C10.3352 8.35007 10.3393 8.42874 10.3516 8.5516C10.4388 8.66284 10.4903 8.70199 10.625 8.74691C10.7433 8.7511 10.8606 8.75306 10.9789 8.75321C11.0332 8.7535 11.0332 8.7535 11.0886 8.7538C11.2086 8.75437 11.3286 8.75463 11.4485 8.75485C11.5319 8.75507 11.6152 8.7553 11.6986 8.75552C11.8735 8.75593 12.0483 8.75616 12.2232 8.7563C12.4471 8.75651 12.6711 8.75745 12.895 8.75856C13.0673 8.75929 13.2395 8.75949 13.4117 8.75955C13.4942 8.75967 13.5768 8.75998 13.6593 8.7605C13.7749 8.76116 13.8905 8.76109 14.006 8.76084C14.0401 8.7612 14.0741 8.76156 14.1092 8.76193C14.3046 8.76059 14.4405 8.73926 14.6094 8.62973C14.6649 8.51876 14.6608 8.44009 14.6485 8.31723C14.5613 8.20598 14.5098 8.16684 14.375 8.12191C14.2568 8.11773 14.1395 8.11577 14.0212 8.11562C13.9669 8.11533 13.9669 8.11533 13.9115 8.11503C13.7915 8.11446 13.6715 8.11419 13.5515 8.11398C13.4682 8.11375 13.3848 8.11353 13.3015 8.1133C13.1266 8.11289 12.9518 8.11267 12.7769 8.11253C12.5529 8.11231 12.329 8.11138 12.105 8.11026C11.9328 8.10954 11.7606 8.10933 11.5884 8.10927C11.5058 8.10916 11.4233 8.10884 11.3407 8.10833C11.2251 8.10766 11.1096 8.10774 10.994 8.10799C10.96 8.10763 10.9259 8.10727 10.8909 8.1069C10.6955 8.10824 10.5596 8.12957 10.3907 8.2391Z" fill="currentColor"/>
<path d="M10.66 0.915238C10.7038 0.914965 10.7477 0.914691 10.7928 0.914409C10.9362 0.913727 11.0796 0.914174 11.223 0.914704C11.3236 0.914599 11.4242 0.914447 11.5247 0.914251C11.735 0.914022 11.9452 0.914338 12.1554 0.915086C12.3972 0.915935 12.6389 0.915661 12.8806 0.9148C13.1148 0.914001 13.349 0.914092 13.5831 0.914548C13.6821 0.914651 13.781 0.914526 13.8799 0.91416C14.782 0.911555 15.3917 1.02421 16.0547 1.67764C16.9627 2.58413 17.1208 3.79292 17.3828 4.99796C14.1602 4.99796 10.9375 4.99796 7.61719 4.99796C8.30169 1.98615 8.30169 1.98615 9.47021 1.23087C9.84181 1.00178 10.2264 0.911832 10.66 0.915238Z" fill="currentColor"/>
<path d="M1.25 11.875C2.075 11.875 2.9 11.875 3.75 11.875C3.75 13.9375 3.75 16 3.75 18.125C2.925 18.125 2.1 18.125 1.25 18.125C1.25 16.0625 1.25 14 1.25 11.875Z" fill="currentColor"/>
<path d="M15.625 10.625C16.3469 10.625 17.0687 10.625 17.8125 10.625C17.8125 11.25 17.8125 11.25 17.6953 11.4453C17.5254 11.5885 17.3577 11.5796 17.146 11.5781C17.0951 11.5782 17.0951 11.5782 17.0431 11.5784C16.9716 11.5785 16.9 11.5783 16.8284 11.5778C16.7191 11.5772 16.6099 11.5778 16.5005 11.5785C16.4309 11.5784 16.3612 11.5783 16.2915 11.5781C16.2589 11.5783 16.2264 11.5785 16.1928 11.5788C16.0116 11.5766 15.8864 11.5668 15.7422 11.4453C15.625 11.25 15.625 11.25 15.625 10.625Z" fill="currentColor"/>
<path d="M7.1875 10.625C7.90937 10.625 8.63125 10.625 9.375 10.625C9.375 11.25 9.375 11.25 9.25781 11.4453C9.08792 11.5885 8.92021 11.5796 8.7085 11.5781C8.65758 11.5782 8.65758 11.5782 8.60564 11.5784C8.53407 11.5785 8.46249 11.5783 8.39092 11.5778C8.28161 11.5772 8.17236 11.5778 8.06305 11.5785C7.99337 11.5784 7.92369 11.5783 7.854 11.5781C7.82145 11.5783 7.78889 11.5785 7.75535 11.5788C7.57415 11.5766 7.44887 11.5668 7.30469 11.4453C7.1875 11.25 7.1875 11.25 7.1875 10.625Z" fill="currentColor"/>
<path d="M17.4219 2.81084C17.5212 2.80659 17.6203 2.80351 17.7197 2.80108C17.7476 2.79977 17.7754 2.79846 17.8041 2.79711C18.0084 2.79336 18.1182 2.83413 18.2812 2.96709C18.423 3.11628 18.4496 3.23595 18.457 3.43584C18.4496 3.63573 18.423 3.7554 18.2812 3.90459C18.0903 4.06951 17.9739 4.06725 17.7344 4.06084C17.7277 4.03269 17.721 4.00454 17.7141 3.97553C17.6835 3.84689 17.6528 3.71827 17.6221 3.58965C17.6115 3.54536 17.601 3.50108 17.5902 3.45545C17.5385 3.2391 17.4856 3.02398 17.4219 2.81084Z" fill="currentColor"/>
<path d="M7.28027 2.79945C7.3234 2.80051 7.3234 2.80051 7.3674 2.80158C7.43766 2.80341 7.5079 2.80621 7.57812 2.80921C7.56539 2.8569 7.55265 2.90458 7.53952 2.95371C7.44187 3.32095 7.34758 3.6881 7.26562 4.05921C7.02853 4.07556 6.90616 4.06482 6.71875 3.90296C6.57702 3.75377 6.55039 3.6341 6.54297 3.43421C6.55039 3.23432 6.57702 3.11465 6.71875 2.96546C6.91148 2.8083 7.04244 2.78827 7.28027 2.79945Z" fill="currentColor"/>
</svg>
