<svg width="20" height="20" viewBox="0 0 20 20" fill="none" xmlns="http://www.w3.org/2000/svg">
<path d="M9.14062 8.4375C9.70781 8.4375 10.275 8.4375 10.8594 8.4375C10.8594 8.72109 10.8594 9.00469 10.8594 9.29688C10.9625 9.30977 11.0656 9.32266 11.1719 9.33594C11.2693 9.36175 11.2693 9.36175 11.351 9.39133C11.3815 9.40235 11.412 9.41338 11.4435 9.42474C11.4747 9.43653 11.5059 9.44831 11.5381 9.46045C11.5869 9.4785 11.5869 9.4785 11.6367 9.49692C11.8506 9.5784 12.0428 9.67267 12.2301 9.80591C12.3022 9.85142 12.3022 9.85142 12.3805 9.83332C12.5381 9.77724 12.6464 9.61956 12.757 9.49722C12.8174 9.43329 12.8174 9.43329 12.9297 9.33594C13.056 9.3468 13.1204 9.39501 13.2077 9.48342C13.2303 9.5061 13.253 9.52878 13.2764 9.55214C13.3123 9.58901 13.3123 9.58901 13.349 9.62662C13.3739 9.65171 13.3988 9.67679 13.4245 9.70264C13.504 9.78277 13.5831 9.8633 13.6621 9.94385C13.7159 9.99827 13.7698 10.0527 13.8237 10.107C13.9557 10.2403 14.0873 10.374 14.2188 10.5078C14.1687 10.6179 14.1168 10.6974 14.0305 10.7819C14.0096 10.8025 13.9887 10.8232 13.9671 10.8444C13.9454 10.8655 13.9237 10.8865 13.9014 10.9082C13.8794 10.9299 13.8574 10.9515 13.8347 10.9738C13.7806 11.027 13.7263 11.0799 13.6719 11.1328C13.6922 11.1716 13.7125 11.2104 13.7334 11.2503C13.9704 11.7096 14.1449 12.1482 14.2578 12.6562C14.5414 12.6562 14.825 12.6562 15.1172 12.6562C15.1172 13.2363 15.1172 13.8164 15.1172 14.4141C14.8336 14.4141 14.55 14.4141 14.2578 14.4141C14.2393 14.5019 14.2208 14.5897 14.2017 14.6802C14.1102 15.0733 13.9321 15.4234 13.75 15.7812C13.7242 15.8328 13.6984 15.8844 13.6719 15.9375C13.8523 16.118 14.0328 16.2984 14.2188 16.4844C14.1556 16.6107 14.1222 16.6688 14.0278 16.7624C13.9938 16.7964 13.9938 16.7964 13.9591 16.831C13.9347 16.855 13.9103 16.879 13.8852 16.9037C13.8602 16.9286 13.8351 16.9535 13.8093 16.9792C13.7295 17.0586 13.6494 17.1377 13.5693 17.2168C13.5151 17.2706 13.4609 17.3245 13.4067 17.3784C13.2739 17.5103 13.1409 17.6419 13.0078 17.7734C12.9642 17.7363 12.9206 17.6991 12.877 17.662C12.8528 17.6413 12.8285 17.6206 12.8035 17.5992C12.719 17.5256 12.6396 17.4481 12.561 17.3682C12.5345 17.3413 12.508 17.3144 12.4806 17.2867C12.4612 17.2668 12.4418 17.247 12.4219 17.2266C12.2485 17.2795 12.096 17.3491 11.936 17.4341C11.6023 17.6061 11.2387 17.7734 10.8594 17.7734C10.8594 18.057 10.8594 18.3406 10.8594 18.6328C10.2922 18.6328 9.725 18.6328 9.14062 18.6328C9.14062 18.3492 9.14062 18.0656 9.14062 17.7734C9.0375 17.7605 8.93437 17.7477 8.82812 17.7344C8.51456 17.6581 8.23091 17.5211 7.94655 17.3723C7.77022 17.2751 7.77022 17.2751 7.57812 17.2266C7.50622 17.2715 7.50622 17.2715 7.44324 17.3424C7.40698 17.3796 7.40698 17.3796 7.37 17.4175C7.34522 17.4439 7.32045 17.4703 7.29492 17.4976C7.26954 17.5238 7.24416 17.5501 7.21802 17.5771C7.1553 17.6422 7.09309 17.7076 7.03125 17.7734C6.75316 17.5466 6.50493 17.2905 6.25244 17.0361C6.20665 16.9901 6.16085 16.9442 6.11504 16.8982C6.00367 16.7864 5.89243 16.6745 5.78125 16.5625C5.83132 16.4524 5.88321 16.373 5.96954 16.2885C5.99044 16.2678 6.01134 16.2472 6.03287 16.2259C6.05457 16.2048 6.07627 16.1838 6.09863 16.1621C6.12064 16.1405 6.14264 16.1188 6.16531 16.0965C6.21941 16.0433 6.27374 15.9904 6.32812 15.9375C6.30783 15.8983 6.28754 15.859 6.26663 15.8186C6.03028 15.3572 5.84474 14.9268 5.74219 14.4141C5.45859 14.4141 5.175 14.4141 4.88281 14.4141C4.88281 13.834 4.88281 13.2539 4.88281 12.6562C5.16641 12.6562 5.45 12.6562 5.74219 12.6562C5.76072 12.5684 5.77925 12.4806 5.79834 12.3901C5.88977 11.997 6.06785 11.6469 6.25 11.2891C6.27578 11.2375 6.30156 11.1859 6.32812 11.1328C6.14766 10.9523 5.96719 10.7719 5.78125 10.5859C5.8427 10.463 5.87582 10.4033 5.96617 10.3109C5.98755 10.2889 6.00894 10.2669 6.03098 10.2442C6.05401 10.221 6.07704 10.1977 6.10077 10.1738C6.12456 10.1496 6.14836 10.1255 6.17288 10.1006C6.22314 10.0498 6.27351 9.99907 6.32399 9.94845C6.4013 9.87067 6.47786 9.79219 6.55441 9.71367C6.60335 9.66436 6.65233 9.6151 6.70135 9.56589C6.72423 9.54225 6.7471 9.51862 6.77067 9.49426C6.83622 9.42943 6.83622 9.42943 6.95312 9.33594C7.15854 9.35416 7.27542 9.53865 7.4054 9.68246C7.47176 9.7548 7.47176 9.7548 7.57812 9.84375C7.71212 9.82746 7.82032 9.76273 7.93865 9.70001C8.18659 9.56867 8.43287 9.45797 8.70117 9.375C8.72722 9.36691 8.75326 9.35881 8.7801 9.35047C8.90741 9.313 9.00636 9.29688 9.14062 9.29688C9.14062 9.01328 9.14062 8.72969 9.14062 8.4375ZM7.78809 11.5869C7.21923 12.2452 7.01082 13.049 7.07031 13.9062C7.14535 14.5182 7.43904 15.0947 7.85156 15.5469C7.87175 15.5706 7.89195 15.5944 7.91275 15.6189C8.38512 16.1398 9.11666 16.4267 9.80469 16.4844C9.85235 16.4885 9.85235 16.4885 9.90097 16.4928C10.6575 16.5242 11.3959 16.2179 11.9604 15.73C12.5524 15.1727 12.9162 14.4467 12.948 13.6299C12.958 12.8496 12.6898 12.0948 12.1484 11.5234C11.567 10.928 10.8336 10.6065 10 10.5826C9.12885 10.6075 8.38822 10.959 7.78809 11.5869Z" fill="currentColor"/>
<path d="M5.82324 2.52246C5.93195 2.57266 6.00939 2.62924 6.0957 2.71484C6.12128 2.74003 6.14747 2.76506 6.17383 2.79102C6.20124 2.8184 6.22861 2.84582 6.25684 2.87402C6.28626 2.90312 6.31637 2.93291 6.34668 2.96289C6.44378 3.05905 6.54091 3.15543 6.6377 3.25195C6.70493 3.31884 6.77163 3.38625 6.83887 3.45312C6.97978 3.59339 7.12107 3.73349 7.26172 3.87402C7.44244 4.05454 7.62418 4.23436 7.80566 4.41406C7.94471 4.55195 8.08317 4.69063 8.22168 4.8291C8.2884 4.89566 8.3558 4.96209 8.42285 5.02832C8.51613 5.12056 8.60861 5.21359 8.70117 5.30664V5.30762C8.72917 5.33504 8.75728 5.36237 8.78613 5.39062C8.82346 5.42852 8.82413 5.42804 8.8623 5.4668V5.46777C8.88362 5.48902 8.90483 5.51038 8.92676 5.53223C8.94754 5.56509 8.95605 5.57878 8.95996 5.59277C8.96362 5.60612 8.96294 5.62061 8.96191 5.65527C8.93803 5.70727 8.91065 5.74954 8.87793 5.78906L8.76367 5.91016L8.6543 6.02051C8.61386 6.06053 8.57267 6.10061 8.53223 6.14062C8.48994 6.18288 8.44751 6.22527 8.40527 6.26758C8.29036 6.38252 8.17493 6.49776 8.05957 6.6123C7.93924 6.7319 7.81922 6.85181 7.69922 6.97168C7.47148 7.19906 7.2428 7.42634 7.01465 7.65332C6.75496 7.9117 6.49565 8.17095 6.23633 8.42969C5.70626 8.95854 5.17529 9.48648 4.64453 10.0146C4.53557 9.9643 4.45742 9.90887 4.37109 9.82227C4.34527 9.79655 4.31957 9.77063 4.29297 9.74414C4.26509 9.71598 4.23771 9.68722 4.20898 9.6582C4.17924 9.62847 4.14881 9.59899 4.11816 9.56836C4.02006 9.4702 3.92207 9.3719 3.82422 9.27344C3.75616 9.20523 3.68821 9.13653 3.62012 9.06836C3.44092 8.88887 3.26193 8.70908 3.08301 8.5293C2.90038 8.34587 2.717 8.16271 2.53418 7.97949C2.17978 7.62426 1.82568 7.26872 1.47168 6.91309C1.66809 6.67704 1.88233 6.46059 2.10059 6.24316C2.14128 6.20248 2.18198 6.16179 2.22266 6.12109C2.33278 6.01096 2.44344 5.90102 2.55371 5.79102C2.66921 5.67576 2.78402 5.55968 2.89941 5.44434C3.11757 5.2263 3.33639 5.00892 3.55469 4.79102C3.8034 4.54274 4.05219 4.29429 4.30078 4.0459C4.80862 3.53846 5.31517 3.02967 5.82324 2.52246Z" fill="currentColor" stroke="currentColor" stroke-width="0.0390625"/>
<path d="M19.6416 10.8867L19.6426 10.9932C19.6427 11.2012 19.6141 11.3465 19.5244 11.5273C19.3948 11.4004 19.2813 11.2704 19.1709 11.124V11.123C19.1365 11.0778 19.1018 11.0325 19.0674 10.9873C19.0498 10.9642 19.0318 10.9408 19.0137 10.917C18.5864 10.3568 18.1383 9.81217 17.6777 9.2793C17.5646 9.14823 17.4547 9.0153 17.3467 8.87988V8.87891C17.1717 8.66298 16.9819 8.46231 16.791 8.26172C16.6472 8.11043 16.508 7.95551 16.3711 7.79785C16.2623 7.6737 16.1498 7.55282 16.0371 7.43262C16.0126 7.40648 15.9881 7.38043 15.9629 7.35352H15.9619C15.7323 7.10985 15.4963 6.87228 15.2578 6.6377H15.2568C15.0982 6.48091 14.9492 6.31941 14.8037 6.15039H14.8027C14.7182 6.0555 14.6267 5.97179 14.5322 5.88867C14.2862 5.66875 14.0542 5.43494 13.8223 5.19922C13.6637 5.03888 13.5012 4.88542 13.3301 4.73828C13.2047 4.62922 13.0843 4.5148 12.9629 4.40039V4.39941C12.8637 4.30641 12.7637 4.21439 12.6631 4.12305L12.3564 3.85254C12.3161 3.81791 12.2757 3.78269 12.2354 3.74805C12.1422 3.66802 12.0484 3.58863 11.9551 3.50879C11.8589 3.42646 11.7629 3.34349 11.667 3.26074H11.666C11.4052 3.03586 11.1422 2.81432 10.8711 2.60156C10.8315 2.57029 10.7918 2.53905 10.751 2.50684C10.5477 2.34659 10.3436 2.1865 10.1387 2.02832C10.1072 2.00399 10.0754 1.98014 10.043 1.95508C9.98116 1.90732 9.91939 1.85909 9.85742 1.81152C9.72604 1.70996 9.60189 1.60976 9.48828 1.49121C9.70625 1.40085 9.88906 1.36537 10.1289 1.36719L10.2314 1.36816C11.0334 1.38931 11.7897 1.75591 12.4912 2.12695C12.5169 2.14054 12.5428 2.15397 12.5693 2.16797C13.3684 2.59417 14.0984 3.14372 14.792 3.72559C14.8311 3.75791 14.8708 3.79091 14.9111 3.82422C15.3958 4.22672 15.8482 4.66148 16.2949 5.10645C16.3275 5.13888 16.36 5.17166 16.3936 5.20508C16.5831 5.39514 16.7642 5.58993 16.9385 5.79395C16.9751 5.8358 17.0121 5.87814 17.0488 5.91992C17.622 6.5777 18.2715 7.36078 18.7773 8.20898C19.2833 9.05742 19.6448 9.96962 19.6416 10.8857V10.8867Z" fill="currentColor" stroke="currentColor" stroke-width="0.0390625"/>
<path d="M13.5977 5.88086C13.8003 5.93883 13.9218 6.08191 14.0723 6.23438C14.1003 6.26235 14.1284 6.29052 14.1573 6.31934C14.2163 6.37846 14.2753 6.43767 14.334 6.49707C14.424 6.588 14.5149 6.67826 14.6055 6.76855C14.663 6.82627 14.7199 6.8846 14.7774 6.94238C14.8178 6.98273 14.8183 6.98241 14.8594 7.02344C14.9832 7.14905 15.0883 7.26436 15.17 7.41797C15.1514 7.43613 15.1334 7.45494 15.1143 7.47363C14.9492 7.63677 14.7901 7.80216 14.6387 7.97852C14.5251 8.10734 14.4078 8.23277 14.2901 8.3584C14.0682 8.59512 13.8483 8.83342 13.6309 9.07422C13.4305 8.90615 13.2438 8.72852 13.0606 8.54102L13.0518 8.53125L13.0391 8.53711C12.9177 8.59129 12.8338 8.65284 12.7412 8.74707L12.7393 8.74902L12.7383 8.75L12.7373 8.75098L12.7364 8.75195L12.7354 8.75293L12.7276 8.76074L12.7266 8.76172L12.7237 8.76465L12.7227 8.76562L12.7217 8.7666L12.7207 8.76758V8.76855H12.7198V8.76953H12.7188V8.77051H12.7178V8.77148H12.7168V8.77246H12.7159V8.77344H12.7149V8.77441H12.7139V8.77539H12.7129V8.77637H12.7119V8.77734H12.711V8.77832H12.71V8.7793H12.709V8.78027H12.708V8.78125H12.7071V8.78223H12.7061V8.7832H12.7051V8.78418H12.7041V8.78516H12.7032V8.78613H12.7022V8.78711H12.7012V8.78809H12.7002V8.78906H12.6992V8.79004H12.6983V8.79102H12.6973V8.79199H12.6963V8.79297H12.6953V8.79395H12.6944V8.79492H12.6934V8.7959H12.6924V8.79688H12.6914V8.79785H12.6905V8.79883H12.6895V8.7998H12.6885V8.80078H12.6875V8.80176H12.6866V8.80273H12.6856V8.80371H12.6846V8.80469H12.6836V8.80566H12.6826V8.80664H12.6817V8.80762H12.6807V8.80859H12.6797V8.80957H12.6787V8.81055H12.6778V8.81152L12.6768 8.8125H12.6758V8.81348H12.6748V8.81445H12.6739V8.81543L12.6729 8.81641H12.6719V8.81738H12.6709V8.81836H12.67V8.81934H12.669V8.82031L12.5938 8.89746C12.5684 8.92319 12.5428 8.94908 12.5166 8.97559C12.457 9.03609 12.3972 9.09641 12.3379 9.15723C12.132 9.08967 11.9278 9.01912 11.7256 8.94141C11.6824 8.92492 11.6392 8.90858 11.5948 8.8916C11.5428 8.87011 11.5183 8.85997 11.502 8.85059C11.4881 8.84257 11.4805 8.83487 11.4639 8.81836C11.406 8.37497 11.3772 8.15562 11.3877 8.01367C11.393 7.94344 11.4082 7.89276 11.4336 7.84375C11.4593 7.79429 11.4952 7.74529 11.5459 7.67871C11.6462 7.59016 11.7441 7.51663 11.8565 7.44531H11.8575C11.9171 7.40489 11.9718 7.35906 12.0244 7.31152L12.1787 7.16504C12.2213 7.12561 12.264 7.08613 12.3067 7.04688C12.3495 7.00734 12.3928 6.96824 12.4356 6.92871C12.5838 6.79179 12.7316 6.65433 12.8799 6.51758C12.9225 6.47832 12.9653 6.43872 13.0078 6.39941C13.0707 6.34127 13.1343 6.28364 13.1973 6.22559C13.2338 6.19187 13.27 6.15778 13.3076 6.12305C13.4018 6.03883 13.4982 5.95892 13.5977 5.88086Z" fill="currentColor" stroke="currentColor" stroke-width="0.0390625"/>
<path d="M7.01315 1.41895C7.13095 1.3766 7.26039 1.37315 7.41159 1.4248C7.7209 1.63986 7.98319 1.95063 8.25241 2.21973L8.72409 2.69141C8.86024 2.82756 8.9968 2.9638 9.13327 3.09961C9.23846 3.20436 9.34373 3.30907 9.4487 3.41406C9.49895 3.46427 9.54969 3.51437 9.60007 3.56445L9.87253 3.83691C9.96081 3.92596 10.0181 3.99604 10.0551 4.07422C10.0917 4.15143 10.1098 4.23828 10.1157 4.36133C10.063 4.62245 9.8749 4.80171 9.68405 4.98438V4.98535C9.64883 5.01978 9.64861 5.01965 9.61276 5.05469C9.55879 5.10738 9.50409 5.1596 9.44968 5.21191C9.34147 5.16184 9.26326 5.1068 9.17722 5.02148C9.15164 4.99629 9.12544 4.97029 9.09909 4.94434C9.07169 4.91696 9.04432 4.88953 9.01608 4.86133C8.98678 4.83234 8.9574 4.80329 8.92722 4.77344C8.83004 4.6772 8.73306 4.58 8.6362 4.4834C8.56897 4.41652 8.50129 4.35008 8.43405 4.2832C8.29308 4.14288 8.15191 4.00192 8.0112 3.86133C7.83058 3.68092 7.64961 3.50089 7.46823 3.32129C7.3291 3.18332 7.18983 3.0448 7.05124 2.90625C6.98459 2.83976 6.91802 2.77319 6.85104 2.70703C6.75766 2.61469 6.66441 2.52187 6.57175 2.42871C6.54377 2.40131 6.51561 2.37393 6.48679 2.3457C6.4494 2.30774 6.44972 2.30726 6.41159 2.26855C6.3902 2.24724 6.36817 2.22603 6.34616 2.2041C6.32522 2.17098 6.318 2.1577 6.31491 2.14355C6.31184 2.12939 6.31224 2.11316 6.31686 2.07324C6.34468 2.00405 6.38842 1.94565 6.43893 1.89062C6.49022 1.83477 6.54713 1.78472 6.603 1.72949V1.72852C6.62692 1.70382 6.65062 1.67877 6.67526 1.65332C6.78373 1.54499 6.89369 1.46199 7.01315 1.41895Z" fill="currentColor" stroke="currentColor" stroke-width="0.0390625"/>
<path d="M1.01562 7.30469C1.21517 7.47173 1.402 7.64657 1.58545 7.83102C1.61369 7.85925 1.64192 7.88748 1.67101 7.91656C1.76346 8.00904 1.85578 8.10166 1.94809 8.19427C2.0125 8.25876 2.07692 8.32323 2.14134 8.3877C2.31026 8.55676 2.47905 8.72594 2.64782 8.89514C2.82031 9.06803 2.99292 9.24081 3.16551 9.4136C3.50368 9.75219 3.84172 10.0909 4.17969 10.4297C4.04497 10.7187 3.73463 11.0312 3.43597 11.1537C3.28141 11.1904 3.15834 11.1822 3.00781 11.1328C2.69882 10.9203 2.43669 10.6072 2.17194 10.3426C2.12178 10.2925 2.07161 10.2425 2.02145 10.1925C1.91691 10.0882 1.81246 9.98378 1.70805 9.87935C1.57427 9.74557 1.44023 9.61206 1.30612 9.47862C1.2027 9.37564 1.09947 9.27248 0.996281 9.16928C0.946911 9.11995 0.897478 9.07069 0.84798 9.0215C0.778992 8.95289 0.710255 8.88404 0.641575 8.81513C0.621161 8.79493 0.600748 8.77474 0.579716 8.75393C0.418838 8.59165 0.340489 8.47657 0.336914 8.24707C0.335806 8.21494 0.334698 8.18282 0.333557 8.14972C0.378293 7.8942 0.592894 7.71743 0.771484 7.54395C0.795 7.52078 0.818515 7.49762 0.842743 7.47375C0.900192 7.41722 0.957884 7.36093 1.01562 7.30469Z" fill="currentColor"/>
<path d="M8.0951 7.427C8.18179 7.47172 8.23687 7.52545 8.30322 7.59685C8.38589 7.68505 8.45274 7.74617 8.55469 7.81414C8.56799 7.91624 8.56799 7.91624 8.56613 8.04394C8.56557 8.11229 8.56557 8.11229 8.56499 8.18203C8.56401 8.22981 8.56302 8.2776 8.56201 8.32683C8.56122 8.39897 8.56122 8.39897 8.56041 8.47255C8.55902 8.59164 8.55709 8.71069 8.55469 8.82976C8.52312 8.84276 8.49154 8.85575 8.45901 8.86914C8.41727 8.88641 8.37553 8.90368 8.33252 8.92147C8.27066 8.947 8.27066 8.947 8.20755 8.97305C8.07224 9.03094 7.94094 9.09446 7.81006 9.16164C7.73438 9.18133 7.73438 9.18133 7.66048 9.15198C7.57108 9.09903 7.50748 9.04144 7.43469 8.9674C7.40876 8.94121 7.38283 8.91503 7.35611 8.88805C7.32947 8.86076 7.30284 8.83347 7.27539 8.80535C7.24815 8.77775 7.22091 8.75016 7.19284 8.72173C7.12578 8.65375 7.0589 8.58559 6.99219 8.51726C7.055 8.36267 7.16209 8.25597 7.27753 8.1393C7.29785 8.11862 7.31818 8.09794 7.33913 8.07664C7.38203 8.03316 7.42505 7.9898 7.46817 7.94654C7.53417 7.88007 7.5994 7.81291 7.66464 7.7457C7.70646 7.70352 7.74832 7.66138 7.79022 7.61928C7.80968 7.59907 7.82913 7.57885 7.84918 7.55802C7.9863 7.42265 7.9863 7.42265 8.0951 7.427Z" fill="currentColor"/>
<path d="M16.5234 3.47716C16.6177 3.54066 16.6929 3.61822 16.7709 3.7004C16.793 3.7227 16.8151 3.745 16.8378 3.76798C16.9077 3.83897 16.9768 3.91073 17.0459 3.98253C17.0932 4.03067 17.1406 4.07877 17.188 4.1268C17.5671 4.5132 17.5671 4.5132 17.5977 4.67345C17.5685 4.87045 17.4499 4.98671 17.3047 5.11779C17.2531 5.14477 17.2011 5.17096 17.1484 5.19591C17.1331 5.17943 17.1178 5.16296 17.1021 5.14598C16.4898 4.4774 16.4898 4.4774 15.8203 3.86779C15.8772 3.73211 15.9485 3.65539 16.062 3.56261C16.0908 3.53819 16.1195 3.51377 16.1491 3.48861C16.2922 3.41696 16.3692 3.43843 16.5234 3.47716Z" fill="currentColor"/>
<path d="M3.55469 3.24188C3.6748 3.31818 3.77932 3.40303 3.86719 3.51532C3.86719 3.67157 3.86719 3.67157 3.81825 3.73929C3.79535 3.76185 3.77245 3.7844 3.74886 3.80764C3.72305 3.83343 3.69724 3.85923 3.67065 3.88581C3.64245 3.9132 3.61426 3.94059 3.58521 3.96881C3.54229 4.01139 3.54229 4.01139 3.4985 4.05484C3.40691 4.14555 3.3148 4.23571 3.22266 4.32586C3.16052 4.38722 3.09841 4.44861 3.03635 4.51004C2.88401 4.66065 2.73124 4.81081 2.57812 4.96063C2.4024 4.87641 2.29256 4.7742 2.1875 4.60907C2.15576 4.47479 2.15576 4.47479 2.1875 4.33563C2.37365 4.07846 2.61993 3.85821 2.84424 3.63494C2.87775 3.60128 2.91126 3.56762 2.94579 3.53294C2.97779 3.50099 3.00979 3.46904 3.04276 3.43612C3.0717 3.40722 3.10064 3.37832 3.13046 3.34855C3.26682 3.22167 3.37106 3.21818 3.55469 3.24188Z" fill="currentColor"/>
</svg>
