<svg width="20" height="20" viewBox="0 0 20 20" fill="none" xmlns="http://www.w3.org/2000/svg">
<g clip-path="url(#clip0_19179_105332)">
<path d="M9.05349 0.148686C9.09977 0.148311 9.14606 0.147935 9.19374 0.147549C9.24379 0.147383 9.29384 0.147217 9.34541 0.147046C9.3968 0.146823 9.44819 0.1466 9.50114 0.146371C9.60997 0.145961 9.71878 0.145732 9.82761 0.145596C9.96679 0.145382 10.106 0.144443 10.2452 0.143331C10.3782 0.142427 10.5112 0.142352 10.6442 0.142163C10.6941 0.141681 10.744 0.141198 10.7954 0.140701C10.842 0.140819 10.8885 0.140936 10.9364 0.141057C10.9773 0.140914 11.0181 0.140772 11.0602 0.140625C11.1903 0.157353 11.2622 0.194435 11.3672 0.272168C11.4538 0.40208 11.4549 0.441545 11.4542 0.592707C11.4542 0.634148 11.4542 0.675588 11.4542 0.718284C11.4538 0.762965 11.4534 0.807645 11.453 0.85368C11.4528 0.922361 11.4528 0.922361 11.4526 0.992428C11.4522 1.1389 11.4512 1.28537 11.4502 1.43184C11.4498 1.53104 11.4495 1.63025 11.4491 1.72946C11.4483 1.97286 11.447 2.21627 11.4453 2.45967C11.4886 2.46719 11.4886 2.46719 11.5328 2.47487C11.571 2.48164 11.6092 2.4884 11.6486 2.49537C11.6863 2.502 11.724 2.50863 11.7629 2.51546C11.9283 2.54841 12.0849 2.59862 12.2437 2.65498C12.2765 2.66655 12.3094 2.67812 12.3433 2.69004C12.7567 2.84085 13.183 3.02819 13.5475 3.27693C13.5757 3.29083 13.6038 3.30472 13.6328 3.31904C13.7539 3.2732 13.8312 3.20727 13.9196 3.11434C13.9566 3.07582 13.9566 3.07582 13.9943 3.03653C14.0206 3.00886 14.0469 2.98119 14.074 2.95268C14.1306 2.89433 14.1872 2.83602 14.2439 2.77774C14.3328 2.68593 14.4214 2.59392 14.5094 2.50126C14.5947 2.41175 14.6809 2.32328 14.7673 2.23491C14.8062 2.19328 14.8062 2.19328 14.8458 2.15082C14.9976 1.99729 15.1216 1.9041 15.3429 1.89721C15.5124 1.92764 15.6199 2.03179 15.7422 2.14717C15.7814 2.18335 15.7814 2.18335 15.8213 2.22027C15.9053 2.30003 15.9873 2.38148 16.069 2.46363C16.1136 2.5081 16.1136 2.5081 16.1591 2.55347C16.2214 2.61568 16.2835 2.67799 16.3456 2.74039C16.4407 2.83591 16.5362 2.93101 16.6318 3.02607C16.6924 3.08678 16.7531 3.14751 16.8137 3.20826C16.8422 3.23663 16.8707 3.26499 16.9001 3.29421C16.9265 3.32082 16.9528 3.34742 16.98 3.37483C17.0031 3.39807 17.0263 3.4213 17.0502 3.44524C17.147 3.55831 17.1841 3.65092 17.2095 3.79756C17.1501 4.1934 16.6074 4.56743 16.3306 4.84248C16.2772 4.89562 16.2239 4.94877 16.1706 5.00193C16.0409 5.13118 15.9111 5.2603 15.7813 5.38936C15.8403 5.57596 15.9198 5.73281 16.0205 5.89961C16.3092 6.39504 16.6406 7.07252 16.6406 7.65498C16.6782 7.65459 16.6782 7.65459 16.7164 7.65419C16.9769 7.6516 17.2373 7.64983 17.4978 7.64854C17.5949 7.64795 17.6921 7.64715 17.7893 7.64614C17.929 7.64472 18.0687 7.64405 18.2085 7.64354C18.2519 7.64293 18.2953 7.64233 18.3401 7.6417C18.3807 7.64169 18.4214 7.64169 18.4633 7.64168C18.4989 7.64142 18.5346 7.64116 18.5713 7.64089C18.6948 7.65819 18.7668 7.69915 18.8672 7.77217C18.9577 7.90785 18.9555 7.96166 18.9567 8.12188C18.9572 8.16973 18.9577 8.21758 18.9582 8.26688C18.9583 8.31916 18.9584 8.37144 18.9584 8.42372C18.9587 8.47738 18.959 8.53104 18.9592 8.58471C18.9597 8.69721 18.9598 8.8097 18.9598 8.9222C18.9598 9.06613 18.9609 9.21002 18.9622 9.35394C18.9631 9.4648 18.9632 9.57565 18.9632 9.68651C18.9633 9.73955 18.9636 9.7926 18.9642 9.84564C18.965 9.91996 18.9647 9.99428 18.9643 10.0686C18.9644 10.1108 18.9645 10.1531 18.9646 10.1966C18.9407 10.3387 18.8881 10.4038 18.7891 10.5065C18.6598 10.5712 18.516 10.5495 18.374 10.548C18.3427 10.5479 18.3114 10.5477 18.2791 10.5475C18.2017 10.5471 18.1243 10.5464 18.0469 10.5456C18.0256 10.4996 18.0256 10.4996 18.0039 10.4527C17.8847 10.2037 17.7638 10.0068 17.5781 9.80342C17.5781 9.77764 17.5781 9.75185 17.5781 9.72529C17.5558 9.71507 17.5335 9.70485 17.5105 9.69432C17.4156 9.64383 17.3382 9.58381 17.2534 9.51777C16.7836 9.19039 16.2633 9.11228 15.7031 9.17842C15.5269 9.21649 15.3631 9.26963 15.1953 9.33467C15.1173 9.36101 15.0392 9.38713 14.9609 9.41279C14.9606 9.38967 14.9602 9.36654 14.9598 9.34272C14.9293 7.7862 14.4427 6.49472 13.3127 5.40706C13.1101 5.21871 12.8915 5.06638 12.6563 4.92061C12.621 4.89719 12.5857 4.87378 12.5493 4.84965C12.0342 4.52398 11.4211 4.31188 10.8203 4.21748C10.7611 4.20691 10.7611 4.20691 10.7007 4.19612C9.34378 4.03996 8.04039 4.36212 6.95314 5.19404C6.8177 5.30622 6.6895 5.42401 6.56251 5.54561C6.53089 5.57431 6.49927 5.60301 6.46668 5.63258C5.50508 6.53673 5.09233 7.83883 5.04696 9.12512C5.04402 9.221 5.04135 9.31689 5.03907 9.41279C4.98402 9.39469 4.92899 9.37652 4.87397 9.35832C4.84333 9.34821 4.81268 9.3381 4.7811 9.32768C4.71917 9.30645 4.65762 9.28407 4.59654 9.26051C4.12294 9.07787 3.56338 9.13666 3.09846 9.31239C2.93802 9.38827 2.79809 9.47766 2.65824 9.58659C2.57813 9.64717 2.57813 9.64717 2.49436 9.68455C2.40122 9.73691 2.38664 9.78484 2.34376 9.88154C2.27708 9.97746 2.20808 10.0714 2.13883 10.1655C2.05972 10.2887 2.00771 10.4099 1.95313 10.5456C1.84648 10.5498 1.74 10.5529 1.63331 10.5554C1.60327 10.5567 1.57324 10.558 1.54229 10.5593C1.38507 10.562 1.30868 10.558 1.17234 10.4718C1.04691 10.3402 1.04941 10.2615 1.04778 10.0831C1.04728 10.0353 1.04678 9.98744 1.04626 9.93814C1.04594 9.88565 1.04565 9.83317 1.04539 9.78068C1.04523 9.75428 1.04507 9.72787 1.04491 9.70067C1.04409 9.56089 1.04353 9.42111 1.04317 9.28133C1.04274 9.1371 1.04139 8.99289 1.03984 8.84867C1.03882 8.73764 1.03849 8.62663 1.03835 8.5156C1.03816 8.46244 1.03771 8.40929 1.03698 8.35614C1.03603 8.28163 1.03616 8.20712 1.03634 8.13261C1.03611 8.09025 1.03588 8.0479 1.03564 8.00426C1.05941 7.86093 1.10943 7.79627 1.21095 7.69404C1.32828 7.65493 1.40538 7.65025 1.5279 7.65055C1.56856 7.65055 1.60922 7.65055 1.65111 7.65055C1.69493 7.65076 1.73876 7.65096 1.78391 7.65117C1.82883 7.65122 1.87375 7.65128 1.92004 7.65133C2.06372 7.65155 2.2074 7.65204 2.35108 7.65254C2.44841 7.65273 2.54574 7.65291 2.64306 7.65307C2.88184 7.6535 3.12061 7.65416 3.35938 7.65498C3.3651 7.6127 3.37081 7.57041 3.37669 7.52684C3.47865 6.84583 3.79996 6.15181 4.16902 5.57628C4.23127 5.47385 4.23127 5.47385 4.19072 5.39098C4.13852 5.30786 4.08386 5.2453 4.01405 5.1764C3.98838 5.15086 3.9627 5.12531 3.93625 5.09899C3.89474 5.05828 3.89474 5.05828 3.8524 5.01674C3.82399 4.98853 3.79558 4.96032 3.76631 4.93126C3.67561 4.84126 3.58465 4.75152 3.49366 4.66182C3.40257 4.5718 3.31153 4.48172 3.2206 4.39153C3.16402 4.33543 3.10733 4.27943 3.05053 4.22355C3.0122 4.1856 3.0122 4.1856 2.9731 4.14689C2.95052 4.12463 2.92794 4.10238 2.90468 4.07945C2.8062 3.97323 2.78674 3.86537 2.7901 3.72135C2.81925 3.60451 2.86905 3.55201 2.95136 3.46415C2.99926 3.41297 2.99926 3.41297 3.04812 3.36076C3.08668 3.32072 3.12534 3.28078 3.16407 3.24092C3.1974 3.20659 3.1974 3.20659 3.2314 3.17157C3.38555 3.01342 3.54106 2.85667 3.69723 2.70052C3.77989 2.61778 3.86223 2.53472 3.94456 2.45166C3.99749 2.39861 4.05044 2.34559 4.1034 2.29258C4.12778 2.26793 4.15216 2.24327 4.17727 2.21786C4.47309 1.92358 4.47309 1.92358 4.64879 1.90409C4.88482 1.90936 5.00709 2.00152 5.17017 2.16473C5.2123 2.20929 5.2123 2.20929 5.25529 2.25474C5.28514 2.28503 5.31499 2.31532 5.34574 2.34653C5.44041 2.44294 5.53392 2.54038 5.62745 2.63789C5.69164 2.70365 5.75591 2.76934 5.82025 2.83496C5.97737 2.99551 6.13356 3.15693 6.28907 3.31904C6.45056 3.26738 6.58092 3.21044 6.72364 3.11885C7.22082 2.82313 7.96572 2.45967 8.5547 2.45967C8.55435 2.43416 8.554 2.40866 8.55365 2.38238C8.55019 2.11688 8.54783 1.85138 8.54611 1.58586C8.54533 1.48678 8.54426 1.3877 8.54291 1.28862C8.54101 1.14618 8.54013 1.00376 8.53944 0.86131C8.53863 0.817032 8.53783 0.772755 8.537 0.727135C8.53691 0.420275 8.53691 0.420275 8.62645 0.264643C8.76428 0.149481 8.88015 0.149819 9.05349 0.148686Z" fill="currentColor"/>
<path d="M9.03886 12.2884C9.11546 12.2882 9.19206 12.288 9.26865 12.2878C9.42851 12.2875 9.58836 12.2875 9.74821 12.2879C9.95137 12.2884 10.1545 12.2876 10.3577 12.2865C10.5157 12.2857 10.6737 12.2858 10.8317 12.286C10.9065 12.286 10.9814 12.2857 11.0562 12.2853C11.9034 12.2805 12.6326 12.4387 13.2555 13.0544C13.9084 13.7476 13.9638 14.5317 13.9623 15.4359C13.9624 15.5271 13.9626 15.6184 13.9629 15.7097C13.9632 15.9001 13.9631 16.0905 13.9627 16.2809C13.9623 16.5244 13.9631 16.7678 13.9642 17.0113C13.9649 17.1994 13.9649 17.3876 13.9647 17.5757C13.9647 17.6655 13.9649 17.7552 13.9654 17.845C13.966 17.9705 13.9656 18.096 13.9649 18.2215C13.9653 18.2582 13.9657 18.2949 13.9661 18.3326C13.9621 18.6931 13.8351 18.9671 13.591 19.2301C13.2695 19.5178 12.9258 19.4929 12.5 19.4929C12.5 17.8429 12.5 16.1929 12.5 14.4929C12.268 14.4929 12.0359 14.4929 11.7969 14.4929C11.7969 16.1429 11.7969 17.7929 11.7969 19.4929C10.6109 19.4929 9.42501 19.4929 8.20314 19.4929C8.20314 17.8429 8.20314 16.1929 8.20314 14.4929C7.97111 14.4929 7.73907 14.4929 7.50001 14.4929C7.50001 16.1429 7.50001 17.7929 7.50001 19.4929C6.68394 19.4929 6.68394 19.4929 6.32478 19.1489C6.15605 18.9554 6.05041 18.7248 6.04895 18.4664C6.04867 18.4323 6.04839 18.3982 6.0481 18.3631C6.048 18.3258 6.04789 18.2885 6.04778 18.25C6.04753 18.2106 6.04727 18.1712 6.04701 18.1306C6.04624 17.9998 6.04578 17.869 6.04539 17.7383C6.04523 17.6935 6.04507 17.6487 6.04491 17.6025C6.04409 17.365 6.04353 17.1274 6.04317 16.8899C6.04274 16.6458 6.0414 16.4018 6.03984 16.1577C6.03881 15.9691 6.03849 15.7804 6.03835 15.5918C6.03816 15.5019 6.03771 15.4121 6.03698 15.3222C6.0304 14.4561 6.12704 13.7095 6.74769 13.0519C7.39518 12.3969 8.16234 12.2866 9.03886 12.2884Z" fill="currentColor"/>
<path d="M12.7734 5.78045C12.8232 5.82063 12.8232 5.82063 12.874 5.86163C13.6759 6.54145 14.1767 7.55466 14.2969 8.59295C14.3076 8.75917 14.3099 8.92447 14.3091 9.091C14.3089 9.13543 14.3086 9.17986 14.3084 9.22564C14.3016 9.70119 14.2681 10.5358 13.9062 10.8976C13.8415 10.9013 13.7766 10.9022 13.7118 10.9021C13.6703 10.9021 13.6289 10.9021 13.5862 10.9021C13.5411 10.9019 13.496 10.9017 13.4495 10.9015C13.4037 10.9014 13.3578 10.9013 13.3105 10.9013C13.1632 10.9011 13.0159 10.9006 12.8686 10.9001C12.7691 10.8999 12.6695 10.8997 12.57 10.8995C12.3253 10.8991 12.0806 10.8985 11.8359 10.8976C11.873 10.7847 11.9098 10.6735 11.9559 10.5639C12.1455 10.0884 12.1369 9.53599 11.9633 9.05621C11.7255 8.51721 11.3625 8.12043 10.82 7.87594C10.2716 7.66897 9.70101 7.67613 9.15557 7.89105C8.63124 8.1328 8.26005 8.52218 8.04931 9.05926C7.85877 9.59085 7.86606 10.1409 8.08593 10.6633C8.11171 10.7406 8.13749 10.818 8.16406 10.8976C7.48085 10.8976 6.79765 10.8976 6.09374 10.8976C5.91788 10.5459 5.91788 10.5459 5.88088 10.4005C5.87275 10.3691 5.86462 10.3377 5.85624 10.3053C5.8445 10.2577 5.8445 10.2577 5.83251 10.2092C5.82423 10.1771 5.81595 10.1451 5.80741 10.1121C5.53506 9.04333 5.7053 7.89156 6.24511 6.93279C6.39418 6.68521 6.56838 6.46676 6.75781 6.2492C6.77734 6.22448 6.79688 6.19975 6.81701 6.17428C7.42494 5.41087 8.47164 4.93911 9.42611 4.81487C10.6516 4.7215 11.8133 4.98377 12.7734 5.78045Z" fill="currentColor"/>
<path d="M2.42935 13.7423C2.46331 13.7423 2.49727 13.7423 2.53226 13.7423C2.64322 13.7423 2.75418 13.7429 2.86513 13.7435C2.94258 13.7437 3.02002 13.7438 3.09746 13.7439C3.30033 13.7442 3.50319 13.7449 3.70605 13.7458C3.91344 13.7466 4.12083 13.7469 4.32822 13.7473C4.73444 13.7482 5.14065 13.7495 5.54687 13.7512C5.52663 13.9063 5.50094 14.0573 5.46701 14.21C5.42371 14.4233 5.41813 14.6295 5.41833 14.8466C5.41807 14.8878 5.41781 14.929 5.41754 14.9715C5.4168 15.1066 5.41664 15.2417 5.41656 15.3768C5.41631 15.4715 5.41604 15.5661 5.41577 15.6608C5.4153 15.8588 5.41516 16.0568 5.4152 16.2548C5.41521 16.5076 5.41414 16.7603 5.4128 17.0131C5.41193 17.2085 5.41177 17.4039 5.41181 17.5992C5.41172 17.6924 5.41138 17.7856 5.41077 17.8787C5.39992 18.6934 5.39992 18.6934 5.74218 19.4152C5.74218 19.441 5.74218 19.4668 5.74218 19.4933C4.54335 19.4933 3.34452 19.4933 2.10937 19.4933C2.10937 18.1914 2.10937 16.8894 2.10937 15.548C1.89023 15.548 1.67109 15.548 1.4453 15.548C1.4453 16.8371 1.4453 18.1262 1.4453 19.4543C0.935319 19.341 0.583187 19.1374 0.27343 18.7121C0.0380977 18.3256 -0.0122972 17.9897 -0.0131304 17.5436C-0.0133905 17.4949 -0.0136505 17.4462 -0.0139184 17.396C-0.0143131 17.2931 -0.0144972 17.1902 -0.0144846 17.0873C-0.0144752 16.9312 -0.0160729 16.7751 -0.0175555 16.619C-0.0177849 16.5187 -0.0179398 16.4183 -0.0180132 16.318C-0.0188553 16.2489 -0.0188553 16.2489 -0.0197144 16.1784C-0.0160184 15.495 0.268806 14.884 0.746452 14.4019C1.21381 13.9719 1.79757 13.7366 2.42935 13.7423Z" fill="currentColor"/>
<path d="M14.4531 13.7509C14.8983 13.7481 15.3435 13.7461 15.7887 13.7448C15.9955 13.7442 16.2022 13.7434 16.409 13.742C16.6088 13.7408 16.8086 13.7401 17.0085 13.7398C17.0844 13.7395 17.1604 13.7391 17.2363 13.7385C18.0366 13.732 18.6997 13.8785 19.2964 14.4431C19.8183 14.9658 20.0117 15.6079 20.0131 16.3261C20.0135 16.3978 20.0135 16.3978 20.0139 16.471C20.0143 16.5717 20.0145 16.6725 20.0145 16.7732C20.0146 16.9263 20.0161 17.0792 20.0175 17.2322C20.0178 17.3306 20.0179 17.4289 20.018 17.5273C20.0186 17.5725 20.0191 17.6176 20.0197 17.6642C20.0169 18.1676 19.8669 18.5701 19.5312 18.9462C19.2389 19.2263 18.9533 19.3876 18.5547 19.454C18.5547 18.1649 18.5547 16.8759 18.5547 15.5477C18.3355 15.5477 18.1164 15.5477 17.8906 15.5477C17.8906 16.8497 17.8906 18.1517 17.8906 19.4931C16.6918 19.4931 15.493 19.4931 14.2578 19.4931C14.3168 19.3456 14.3787 19.2124 14.4531 19.0734C14.569 18.8118 14.5818 18.5778 14.581 18.295C14.5812 18.2539 14.5814 18.2129 14.5816 18.1705C14.5822 18.0352 14.5822 17.8998 14.5821 17.7644C14.5822 17.6698 14.5824 17.5751 14.5826 17.4805C14.5829 17.2821 14.5828 17.0838 14.5826 16.8854C14.5824 16.6324 14.5831 16.3794 14.584 16.1264C14.5846 15.9309 14.5846 15.7353 14.5845 15.5398C14.5845 15.4466 14.5847 15.3534 14.5851 15.2602C14.5895 14.6063 14.5895 14.6063 14.4783 13.9645C14.4531 13.8681 14.4531 13.8681 14.4531 13.7509Z" fill="currentColor"/>
<path d="M16.9849 10.0824C17.2445 10.3014 17.4711 10.6343 17.5085 10.9784C17.5281 11.3369 17.5324 11.6773 17.3438 11.994C17.3276 12.0214 17.3115 12.0489 17.2949 12.0771C17.0933 12.379 16.7849 12.592 16.4333 12.68C15.9742 12.7546 15.5435 12.6913 15.1611 12.4163C14.8399 12.144 14.6653 11.7921 14.6143 11.3788C14.5899 10.9663 14.7121 10.6033 14.9609 10.2752C15.4779 9.69876 16.3635 9.64498 16.9849 10.0824Z" fill="currentColor"/>
<path d="M4.77539 10.0472C5.10337 10.293 5.29427 10.6097 5.37384 11.0119C5.42385 11.4194 5.33637 11.7927 5.11123 12.1368C4.83821 12.4796 4.48607 12.6606 4.05349 12.7108C3.63433 12.7268 3.25467 12.6223 2.93121 12.3495C2.5945 11.9986 2.4839 11.6376 2.48571 11.1661C2.49116 10.9203 2.52888 10.7224 2.65625 10.5086C2.67236 10.4812 2.68847 10.4538 2.70507 10.4255C2.9068 10.1235 3.21492 9.9113 3.56643 9.82246C4.00813 9.75151 4.39949 9.80186 4.77539 10.0472Z" fill="currentColor"/>
<path d="M11.0141 8.75071C11.3189 9.04617 11.4469 9.40027 11.4624 9.81913C11.4506 10.2352 11.3193 10.6068 11.0156 10.8982C10.578 11.2303 10.1843 11.2994 9.64843 11.2498C9.28661 11.17 8.97271 10.9398 8.76251 10.6372C8.53773 10.2428 8.48613 9.80701 8.59618 9.36747C8.71618 9.02264 8.94067 8.73611 9.25781 8.55448C9.86551 8.26146 10.4887 8.3144 11.0141 8.75071Z" fill="currentColor"/>
</g>
<defs>
<clipPath id="clip0_19179_105332">
<rect width="20" height="20" fill="white"/>
</clipPath>
</defs>
</svg>
