<svg width="20" height="20" viewBox="0 0 20 20" fill="currentColor" xmlns="http://www.w3.org/2000/svg">
<path d="M14.0677 3.62135C12.3417 4.31183 10.4931 4.76116 8.5633 4.92767C8.00706 4.97566 7.44397 5.00017 6.875 5.00017H6.25C3.83375 5.00017 1.875 6.95892 1.875 9.37517C1.875 11.5415 3.44954 13.3401 5.51664 13.689C5.7952 14.8298 6.18171 15.9283 6.6647 16.973C7.05142 17.8095 8.05984 18.073 8.81691 17.6359L9.36384 17.3202C10.0972 16.8967 10.3352 15.9929 10.0072 15.2634C9.81152 14.8281 9.63685 14.3813 9.48452 13.9243C11.0823 14.1394 12.6182 14.5491 14.0677 15.129C14.6724 13.3212 15 11.3864 15 9.37515C15 7.36389 14.6724 5.42914 14.0677 3.62135Z" fill="currentColor"/>
<path d="M15.2172 3.11742C15.8867 5.0805 16.25 7.1854 16.25 9.37515C16.25 11.5649 15.8867 13.6698 15.2172 15.6329C15.1712 15.7677 15.1239 15.9019 15.0751 16.0353C14.9564 16.3595 15.123 16.7184 15.4472 16.8371C15.7713 16.9557 16.1303 16.7892 16.2489 16.465C16.3656 16.1463 16.4747 15.8238 16.5758 15.4979C17.0122 14.0923 17.3023 12.6225 17.4283 11.1066C17.8591 10.6579 18.125 10.0474 18.125 9.37517C18.125 8.70296 17.8591 8.09243 17.4283 7.64372C17.3023 6.12781 17.0122 4.65805 16.5758 3.25243C16.4747 2.92653 16.3656 2.60409 16.2489 2.28533C16.1303 1.96119 15.7713 1.7946 15.4472 1.91325C15.123 2.03191 14.9564 2.39086 15.0751 2.71501C15.1239 2.84844 15.1712 2.98263 15.2172 3.11742Z" fill="currentColor"/>
</svg>
