<svg width="20" height="20" viewBox="0 0 20 20" fill="currentColor" xmlns="http://www.w3.org/2000/svg">
<path d="M8.53538 0.384086C8.56457 0.38397 8.59375 0.383854 8.62382 0.383734C8.72145 0.383396 8.81908 0.383336 8.91671 0.383278C8.98679 0.383097 9.05687 0.382901 9.12695 0.38269C9.31727 0.382178 9.50759 0.381926 9.69791 0.381752C9.81695 0.381638 9.93598 0.381477 10.055 0.381303C10.4278 0.380769 10.8006 0.380391 11.1734 0.38024C11.603 0.380066 12.0327 0.379381 12.4623 0.378248C12.7948 0.377402 13.1273 0.37701 13.4598 0.376958C13.6582 0.376917 13.8566 0.376688 14.055 0.375988C14.2418 0.375341 14.4286 0.375261 14.6155 0.375603C14.6837 0.375633 14.752 0.375465 14.8203 0.375077C15.5628 0.371106 16.2042 0.519597 16.7554 1.04615C17.314 1.60195 17.5578 2.25883 17.56 3.04334C17.5596 3.09941 17.5593 3.15548 17.5589 3.21155C17.5591 3.27287 17.5593 3.33419 17.5596 3.39552C17.5603 3.56214 17.56 3.72876 17.5595 3.89539C17.5591 4.07582 17.5597 4.25625 17.5601 4.43668C17.5608 4.7894 17.5606 5.14212 17.5602 5.49484C17.5598 5.78168 17.5598 6.06852 17.56 6.35536C17.56 6.39629 17.56 6.43722 17.56 6.4794C17.5601 6.56257 17.5601 6.64573 17.5602 6.7289C17.5606 7.50753 17.5601 8.28615 17.5593 9.06478C17.5586 9.73188 17.5587 10.399 17.5594 11.0661C17.5603 11.842 17.5606 12.618 17.5601 13.394C17.5601 13.4768 17.56 13.5597 17.56 13.6425C17.5599 13.7037 17.5599 13.7037 17.5599 13.766C17.5598 14.0523 17.56 14.3386 17.5604 14.6248C17.5608 14.974 17.5607 15.3232 17.5598 15.6724C17.5594 15.8503 17.5593 16.0283 17.5598 16.2062C17.5603 16.3695 17.56 16.5327 17.5592 16.696C17.559 16.7547 17.5591 16.8133 17.5595 16.872C17.5638 17.5972 17.3949 18.2326 16.9141 18.788C16.8912 18.8145 16.8684 18.8411 16.8449 18.8684C16.4654 19.2783 15.9017 19.5831 15.3363 19.6133C15.2873 19.6134 15.2873 19.6134 15.2374 19.6135C15.1994 19.6136 15.1615 19.6138 15.1224 19.6139C15.0604 19.6139 15.0604 19.6139 14.9971 19.6138C14.9308 19.614 14.9308 19.614 14.8632 19.6142C14.7148 19.6145 14.5665 19.6146 14.4181 19.6146C14.3118 19.6148 14.2056 19.615 14.0993 19.6152C13.8104 19.6157 13.5214 19.616 13.2325 19.6161C13.0519 19.6163 12.8714 19.6164 12.6909 19.6166C12.1907 19.6171 11.6905 19.6175 11.1903 19.6176C11.1423 19.6176 11.1423 19.6176 11.0933 19.6176C11.0612 19.6176 11.0291 19.6176 10.9961 19.6177C10.9311 19.6177 10.8661 19.6177 10.8011 19.6177C10.7527 19.6177 10.7527 19.6177 10.7034 19.6177C10.1813 19.6179 9.65928 19.6186 9.13723 19.6195C8.60082 19.6204 8.06441 19.6209 7.528 19.6209C7.227 19.621 6.92601 19.6212 6.62501 19.6219C6.36861 19.6225 6.11222 19.6227 5.85582 19.6224C5.72515 19.6222 5.59448 19.6223 5.4638 19.6228C5.32174 19.6233 5.17969 19.6231 5.03763 19.6227C4.99687 19.623 4.95612 19.6233 4.91413 19.6236C4.24283 19.6192 3.6606 19.3664 3.18832 18.8954C2.65759 18.3386 2.44153 17.6989 2.44579 16.9339C2.44558 16.8876 2.44537 16.8414 2.44515 16.7937C2.44469 16.6669 2.44475 16.5401 2.44504 16.4133C2.44523 16.276 2.44473 16.1386 2.44434 16.0012C2.44367 15.7327 2.44363 15.4641 2.44384 15.1956C2.444 14.9772 2.44394 14.7587 2.44373 14.5402C2.4437 14.509 2.44367 14.4778 2.44364 14.4457C2.44358 14.3823 2.44352 14.319 2.44346 14.2556C2.44293 13.6623 2.44314 13.069 2.44359 12.4757C2.44397 11.934 2.44347 11.3924 2.44253 10.8508C2.44158 10.2934 2.44121 9.73592 2.44146 9.17849C2.4416 8.86605 2.44152 8.55362 2.44083 8.24118C2.44025 7.97519 2.44023 7.7092 2.44091 7.44321C2.44124 7.30776 2.44133 7.17233 2.44073 7.03688C2.43769 6.17303 2.47077 5.41782 3.09341 4.75633C3.25567 4.5952 3.42229 4.43894 3.59006 4.28358C3.75773 4.12829 3.9216 3.97028 4.08203 3.80754C4.19972 3.68829 4.31778 3.57158 4.4458 3.4633C4.60691 3.32651 4.75373 3.17634 4.90234 3.02629C5.07038 2.85662 5.2384 2.6919 5.42114 2.53801C5.58026 2.39457 5.72856 2.23983 5.87927 2.08766C6.02236 1.94371 6.16728 1.80627 6.32278 1.67574C6.41889 1.58911 6.50841 1.49738 6.59871 1.40476C7.13374 0.857761 7.7365 0.383088 8.53538 0.384086ZM11.0937 5.93645C10.9629 6.10599 10.9596 6.2629 10.9608 6.46935C10.9604 6.51969 10.9604 6.51969 10.96 6.57105C10.9592 6.68174 10.9594 6.7924 10.9596 6.90309C10.9594 6.9802 10.9592 7.0573 10.959 7.13441C10.9587 7.29593 10.9587 7.45744 10.9591 7.61897C10.9596 7.82576 10.9588 8.03254 10.9577 8.23933C10.9569 8.39854 10.9569 8.55775 10.9572 8.71696C10.9572 8.7932 10.9569 8.86943 10.9565 8.94567C10.9559 9.05235 10.9563 9.15899 10.957 9.26568C10.9566 9.29704 10.9562 9.32839 10.9558 9.3607C10.9585 9.56518 10.9995 9.67934 11.1328 9.8427C11.3231 10.0151 11.5212 10.0048 11.7677 10.0046C11.8001 10.0048 11.8325 10.0049 11.8659 10.005C11.973 10.0054 12.0801 10.0055 12.1872 10.0055C12.2617 10.0056 12.3363 10.0058 12.4108 10.0059C12.567 10.0061 12.7233 10.0062 12.8795 10.0062C13.0795 10.0062 13.2795 10.0067 13.4795 10.0074C13.6335 10.0078 13.7874 10.0079 13.9414 10.0079C14.0151 10.0079 14.0888 10.0081 14.1625 10.0084C14.2658 10.0088 14.369 10.0087 14.4722 10.0084C14.5177 10.0088 14.5177 10.0088 14.5641 10.0091C14.7664 10.0079 14.9393 9.984 15.1123 9.87444C15.2204 9.70019 15.1506 9.48594 15.1099 9.29826C14.8135 8.09894 14.2362 7.04651 13.1642 6.37319C12.6848 6.09063 11.5786 5.464 11.0937 5.93645ZM8.479 7.46233C8.43051 7.47533 8.43051 7.47533 8.38104 7.48859C7.28831 7.79461 6.35136 8.5072 5.77617 9.48829C5.40572 10.1502 5.21838 10.8488 5.22216 11.6078C5.22238 11.6543 5.2226 11.7007 5.22283 11.7486C5.23673 12.7587 5.60259 13.7053 6.28906 14.4521C6.30737 14.4723 6.32569 14.4924 6.34456 14.5132C7.14083 15.3816 8.16378 15.7899 9.33166 15.8656C10.4485 15.8924 11.5148 15.4618 12.3437 14.7255C12.3785 14.6947 12.4132 14.6639 12.449 14.6321C13.1255 13.9917 13.616 13.0945 13.7492 12.1681C13.7504 12.0164 13.6976 11.9415 13.5937 11.8349C13.3988 11.6583 13.1925 11.6729 12.9403 11.6731C12.8887 11.6729 12.8887 11.6729 12.8361 11.6727C12.7615 11.6724 12.687 11.6722 12.6124 11.672C12.4943 11.6718 12.3763 11.6712 12.2582 11.6704C11.9226 11.6684 11.587 11.6665 11.2514 11.6659C11.0461 11.6655 10.8408 11.6644 10.6354 11.6627C10.5572 11.6622 10.479 11.662 10.4007 11.6621C10.2913 11.6622 10.182 11.6614 10.0726 11.6603C10.0403 11.6605 10.008 11.6608 9.97471 11.6611C9.82334 11.6586 9.74417 11.6503 9.61216 11.5699C9.43895 11.3845 9.44194 11.2272 9.44314 10.9796C9.443 10.9445 9.44286 10.9094 9.44272 10.8733C9.44245 10.7972 9.44235 10.721 9.4424 10.6449C9.44244 10.5244 9.44193 10.4039 9.44127 10.2834C9.43946 9.94074 9.4385 9.59811 9.43824 9.25546C9.43805 9.04582 9.4371 8.83618 9.43569 8.62654C9.43531 8.54671 9.43522 8.46688 9.43542 8.38705C9.4357 8.2753 9.43502 8.16361 9.43414 8.05187C9.43446 8.01899 9.43478 7.98611 9.43511 7.95223C9.43218 7.74389 9.39518 7.62582 9.25781 7.45988C9.03722 7.29254 8.72326 7.3965 8.479 7.46233Z" fill="currentColor"/>
</svg>
