<svg width="20" height="20" viewBox="0 0 20 20" fill="currentColor" xmlns="http://www.w3.org/2000/svg">
<g clip-path="url(#clip0_19179_101376)">
<path d="M3.04688 14.3359C7.63594 14.3359 12.225 14.3359 16.9531 14.3359C16.9531 19.4922 16.9531 19.4922 16.7969 19.6875C16.6934 19.7392 16.6158 19.7317 16.4999 19.7319C16.4531 19.7321 16.4063 19.7323 16.3581 19.7325C16.3056 19.7325 16.2532 19.7326 16.2008 19.7326C16.1455 19.7327 16.0901 19.7329 16.0348 19.7331C15.8822 19.7336 15.7297 19.7338 15.5771 19.734C15.4127 19.7342 15.2484 19.7346 15.084 19.7351C14.6869 19.736 14.2897 19.7366 13.8925 19.7371C13.7804 19.7372 13.6682 19.7374 13.5561 19.7376C12.8602 19.7385 12.1643 19.7394 11.4684 19.7399C11.3071 19.74 11.1459 19.7401 10.9846 19.7402C10.9445 19.7403 10.9044 19.7403 10.8632 19.7403C10.2136 19.7408 9.56411 19.7421 8.91459 19.7437C8.24815 19.7454 7.5817 19.7463 6.91525 19.7465C6.5409 19.7467 6.16656 19.7471 5.79221 19.7484C5.47345 19.7495 5.15469 19.7499 4.83592 19.7495C4.67323 19.7493 4.51056 19.7494 4.34787 19.7504C4.19895 19.7512 4.05006 19.7512 3.90114 19.7505C3.8217 19.7503 3.74227 19.7511 3.66284 19.752C3.61561 19.7515 3.56839 19.7511 3.51973 19.7507C3.47904 19.7508 3.43835 19.7508 3.39643 19.7509C3.28125 19.7266 3.28125 19.7266 3.04688 19.5312C3.04688 17.8168 3.04688 16.1023 3.04688 14.3359ZM4.80469 15.4297C4.77571 15.5234 4.77571 15.5234 4.78065 15.6312C4.78029 15.6722 4.77993 15.7133 4.77955 15.7556C4.78019 15.7999 4.78083 15.8442 4.78149 15.8899C4.78149 15.9354 4.78149 15.9809 4.78149 16.0278C4.7817 16.1241 4.78239 16.2204 4.78352 16.3166C4.78515 16.4643 4.78512 16.6118 4.78485 16.7595C4.78526 16.8529 4.78577 16.9464 4.78638 17.0398C4.78638 17.0841 4.78639 17.1284 4.7864 17.1741C4.78702 17.2151 4.78764 17.2562 4.78828 17.2985C4.78861 17.3347 4.78894 17.3708 4.78928 17.4081C4.80803 17.5199 4.83372 17.5479 4.92188 17.6172C5.00321 17.6346 5.00321 17.6346 5.09458 17.6318C5.14789 17.6322 5.14789 17.6322 5.20228 17.6327C5.24137 17.6324 5.28047 17.6321 5.32075 17.6318C5.36224 17.632 5.40373 17.6321 5.44648 17.6323C5.5862 17.6327 5.72591 17.6322 5.86563 17.6317C5.96552 17.6318 6.06541 17.632 6.16529 17.6322C6.40885 17.6325 6.6524 17.6323 6.89596 17.6318C7.17944 17.6313 7.46291 17.6313 7.74639 17.6314C8.25209 17.6315 8.75779 17.6311 9.2635 17.6303C9.7545 17.6296 10.2455 17.6293 10.7365 17.6295C11.2708 17.6298 11.8052 17.6297 12.3395 17.6293C12.3964 17.6293 12.4534 17.6292 12.5103 17.6292C12.5384 17.6291 12.5664 17.6291 12.5953 17.6291C12.793 17.6289 12.9907 17.629 13.1884 17.629C13.4544 17.6291 13.7204 17.6288 13.9864 17.6282C14.0842 17.628 14.1821 17.628 14.2799 17.6281C14.413 17.6282 14.5461 17.6279 14.6793 17.6274C14.7183 17.6275 14.7574 17.6277 14.7977 17.6278C14.8333 17.6276 14.8688 17.6274 14.9054 17.6271C14.9362 17.6271 14.9669 17.6271 14.9986 17.627C15.0903 17.6217 15.0903 17.6217 15.1953 17.5391C15.2138 17.447 15.2138 17.447 15.2117 17.3384C15.2126 17.2756 15.2126 17.2756 15.2136 17.2116C15.2136 17.1662 15.2136 17.1209 15.2136 17.0741C15.2141 17.0045 15.2141 17.0045 15.2145 16.9334C15.2149 16.8351 15.2151 16.7367 15.2149 16.6384C15.2148 16.4876 15.2165 16.3368 15.2182 16.186C15.2184 16.0906 15.2185 15.9952 15.2185 15.8998C15.2195 15.8319 15.2195 15.8319 15.2204 15.7626C15.2199 15.6996 15.2199 15.6996 15.2193 15.6354C15.2195 15.5799 15.2195 15.5799 15.2196 15.5233C15.2035 15.4244 15.2035 15.4244 15.1213 15.3662C14.9464 15.2888 14.7874 15.2963 14.5982 15.2976C14.5369 15.2973 14.5369 15.2973 14.4744 15.2971C14.3372 15.2966 14.2001 15.297 14.063 15.2973C13.9647 15.2972 13.8665 15.297 13.7683 15.2967C13.529 15.2962 13.2898 15.2963 13.0505 15.2966C12.8561 15.2969 12.6617 15.2969 12.4673 15.2968C12.4396 15.2968 12.4119 15.2968 12.3834 15.2968C12.3272 15.2967 12.271 15.2967 12.2148 15.2967C11.6876 15.2963 11.1605 15.2967 10.6334 15.2973C10.1811 15.2979 9.72878 15.2978 9.27647 15.2972C8.75123 15.2966 8.226 15.2963 7.70076 15.2967C7.64476 15.2967 7.58875 15.2968 7.53275 15.2968C7.49141 15.2968 7.49141 15.2968 7.44924 15.2969C7.25504 15.297 7.06084 15.2968 6.86664 15.2965C6.60527 15.2962 6.3439 15.2964 6.08253 15.2971C5.98649 15.2973 5.89045 15.2972 5.79441 15.297C5.66353 15.2966 5.53268 15.297 5.40181 15.2976C5.3636 15.2974 5.3254 15.2971 5.28603 15.2968C5.09596 15.2985 4.95601 15.3001 4.80469 15.4297Z" fill="currentColor"/>
<path d="M3.56818 11.4318C3.62574 11.4311 3.68329 11.4303 3.74085 11.4292C3.89872 11.4269 4.0565 11.427 4.21439 11.4276C4.38477 11.4277 4.55512 11.4257 4.72549 11.4239C5.05919 11.4208 5.39287 11.4199 5.72658 11.4198C5.99792 11.4197 6.26925 11.419 6.54059 11.4178C7.31027 11.4146 8.07992 11.413 8.84961 11.4135C8.91183 11.4135 8.91183 11.4135 8.97532 11.4136C9.03762 11.4136 9.03762 11.4136 9.10118 11.4136C9.77402 11.414 10.4468 11.4105 11.1196 11.4054C11.8108 11.4001 12.502 11.3977 13.1933 11.3981C13.5812 11.3983 13.9691 11.3973 14.357 11.3934C14.6874 11.3901 15.0177 11.3893 15.348 11.3919C15.5165 11.3932 15.6848 11.3933 15.8533 11.3901C16.8362 11.3726 16.8362 11.3726 17.0949 11.557C17.2607 11.7289 17.3667 11.9201 17.4603 12.1382C17.5159 12.261 17.5881 12.3609 17.6685 12.4689C17.6924 12.5033 17.7164 12.5377 17.7412 12.5731C17.7765 12.6236 17.7765 12.6236 17.8125 12.6752C18.014 12.9646 18.2154 13.254 18.4155 13.5443C18.437 13.5753 18.4585 13.6062 18.4806 13.6381C18.5002 13.6666 18.5197 13.6951 18.5399 13.7244C18.5655 13.7615 18.5655 13.7615 18.5917 13.7994C18.6328 13.8666 18.6328 13.8666 18.6719 13.9838C12.9484 13.9838 7.225 13.9838 1.32812 13.9838C1.39069 13.8274 1.433 13.7431 1.53076 13.6151C1.69472 13.3945 1.85 13.1687 2.00439 12.9413C2.02976 12.904 2.05512 12.8667 2.08125 12.8282C2.13187 12.7537 2.18247 12.6792 2.23307 12.6047C2.33463 12.4554 2.43674 12.3064 2.53906 12.1576C2.55499 12.1344 2.57092 12.1112 2.58733 12.0873C2.61789 12.0429 2.64894 11.9988 2.68051 11.955C2.73719 11.8736 2.73719 11.8736 2.78426 11.7767C2.97894 11.4301 3.19572 11.4272 3.56818 11.4318Z" fill="currentColor"/>
<path d="M4.94257 0.253983C5.01787 0.253945 5.01787 0.253945 5.0947 0.253906C5.13387 0.254515 5.13387 0.254515 5.17383 0.255136C5.25359 0.256268 5.33324 0.255942 5.41299 0.255432C5.79583 0.257928 5.79583 0.257928 5.89408 0.320015C5.95356 0.416774 5.95076 0.485362 5.94888 0.598526C5.94851 0.638683 5.94813 0.678841 5.94774 0.720215C5.94676 0.762084 5.94578 0.803954 5.94476 0.847092C5.94397 0.910576 5.94397 0.910576 5.94316 0.975342C5.94178 1.07991 5.93985 1.18444 5.93744 1.28899C5.99844 1.30782 6.05948 1.32651 6.12054 1.34514C6.15453 1.35556 6.18852 1.36599 6.22354 1.37672C6.25803 1.38644 6.29253 1.39616 6.32806 1.40617C6.36185 1.41624 6.39564 1.4263 6.43045 1.43667C6.52407 1.45499 6.52407 1.45499 6.59265 1.40009C6.6133 1.37722 6.63394 1.35436 6.65521 1.3308C6.67838 1.30617 6.70154 1.28155 6.7254 1.25618C6.74897 1.22995 6.77253 1.20371 6.79681 1.17668C7.03764 0.911667 7.03764 0.911667 7.17645 0.855026C7.35578 0.863624 7.45616 1.01295 7.57806 1.13274C7.6228 1.17341 7.66762 1.21399 7.71249 1.2545C7.7597 1.29849 7.80685 1.34253 7.85394 1.38664C7.87726 1.40747 7.90057 1.4283 7.92459 1.44976C8.0399 1.56083 8.08321 1.61115 8.09808 1.77498C8.02826 1.96429 7.9172 2.0694 7.77094 2.20451C7.74503 2.22936 7.71912 2.25421 7.69243 2.27982C7.62879 2.34071 7.56443 2.40086 7.49994 2.46086C7.56439 2.62844 7.62885 2.79602 7.69525 2.96867C7.75875 2.96968 7.82224 2.97069 7.88766 2.97173C7.97083 2.97392 8.05399 2.97616 8.13715 2.97844C8.17902 2.97899 8.22088 2.97955 8.26402 2.98012C8.30418 2.98138 8.34434 2.98264 8.38571 2.98393C8.42274 2.98475 8.45976 2.98557 8.49791 2.98641C8.59369 3.00774 8.59369 3.00774 8.66422 3.07232C8.76045 3.2614 8.72916 3.48373 8.72797 3.69133C8.72875 3.73962 8.72953 3.78791 8.73033 3.83766C8.73029 3.90723 8.73029 3.90723 8.73026 3.9782C8.73033 4.02057 8.7304 4.06294 8.73047 4.1066C8.70595 4.24682 8.66939 4.29222 8.55463 4.37492C8.458 4.39625 8.458 4.39625 8.35138 4.39873C8.31311 4.39999 8.27484 4.40125 8.23541 4.40254C8.17589 4.40337 8.17589 4.40337 8.11517 4.40422C8.05475 4.40596 8.05475 4.40596 7.9931 4.40773C7.89384 4.41049 7.79454 4.41233 7.69525 4.41399C7.59857 4.66535 7.59857 4.66535 7.49994 4.9218C7.54224 4.96138 7.58453 5.00096 7.62811 5.04173C7.68307 5.0945 7.738 5.14729 7.79291 5.20012C7.82085 5.2261 7.8488 5.25208 7.87759 5.27885C8.07512 5.47074 8.07512 5.47074 8.12051 5.62691C8.068 5.80156 7.95649 5.89642 7.82465 6.01799C7.8002 6.04138 7.77575 6.06477 7.75056 6.08887C7.70265 6.13468 7.6545 6.18024 7.60609 6.22554C7.54547 6.28287 7.48662 6.34141 7.42822 6.40099C7.34369 6.4843 7.34369 6.4843 7.26801 6.5258C7.05239 6.51927 6.8649 6.28882 6.72357 6.1425C6.70413 6.12271 6.6847 6.10292 6.66467 6.08253C6.61739 6.03434 6.57036 5.98591 6.52338 5.93742C6.48871 5.94943 6.48871 5.94943 6.45334 5.96169C6.42247 5.97221 6.3916 5.98273 6.3598 5.99358C6.32944 6.004 6.29908 6.01442 6.26779 6.02516C6.17127 6.05478 6.07556 6.07455 5.9765 6.09367C5.97691 6.12028 5.97732 6.14688 5.97774 6.17429C5.97936 6.29471 5.98038 6.41514 5.98138 6.53557C5.98204 6.57744 5.98269 6.61931 5.98337 6.66245C5.98362 6.7026 5.98387 6.74276 5.98413 6.78413C5.98454 6.82116 5.98495 6.85819 5.98537 6.89633C5.9765 6.99211 5.9765 6.99211 5.89838 7.1093C5.77959 7.12446 5.77959 7.12446 5.6286 7.12486C5.60202 7.12497 5.57544 7.12509 5.54805 7.1252C5.49183 7.12528 5.43562 7.12507 5.37941 7.12458C5.29323 7.12395 5.20712 7.12457 5.12094 7.12532C5.06637 7.12524 5.01179 7.12509 4.95721 7.12486C4.90739 7.12473 4.85756 7.1246 4.80623 7.12446C4.76703 7.11946 4.72783 7.11445 4.68744 7.1093C4.60017 6.97839 4.6 6.93673 4.60168 6.78413C4.60194 6.74398 4.60219 6.70382 4.60245 6.66245C4.60343 6.59964 4.60343 6.59964 4.60443 6.53557C4.60478 6.49325 4.60514 6.45092 4.6055 6.40732C4.60642 6.30276 4.60771 6.19822 4.60931 6.09367C4.5862 6.08894 4.56309 6.08421 4.53928 6.07933C4.37345 6.04416 4.21774 6.00756 4.06244 5.93742C4.0473 5.95379 4.03217 5.97015 4.01658 5.98701C3.94705 6.06143 3.87659 6.13492 3.80609 6.20842C3.7704 6.24705 3.7704 6.24705 3.73399 6.28647C3.62266 6.40134 3.53168 6.47702 3.3848 6.54335C3.14504 6.50976 3.01758 6.33748 2.85638 6.16692C2.82255 6.13298 2.78871 6.09904 2.75385 6.06407C2.4755 5.77788 2.4755 5.77788 2.46088 5.58586C2.50589 5.50941 2.50589 5.50941 2.57562 5.43694C2.6006 5.4105 2.62557 5.38406 2.65131 5.35683C2.6787 5.32928 2.70609 5.30174 2.73431 5.27336C2.77782 5.22902 2.77782 5.22902 2.8222 5.18379C2.89648 5.10885 2.97133 5.03458 3.04681 4.96086C3.03881 4.9382 3.0308 4.91554 3.02255 4.8922C3.01203 4.86168 3.0015 4.83117 2.99066 4.79973C2.98024 4.76982 2.96982 4.73991 2.95908 4.70909C2.92643 4.59847 2.90758 4.4889 2.89056 4.37492C2.86257 4.37533 2.83458 4.37574 2.80574 4.37616C2.6794 4.37778 2.55305 4.3788 2.4267 4.37981C2.38264 4.38046 2.33858 4.38112 2.29318 4.38179C2.23011 4.38217 2.23011 4.38217 2.16577 4.38255C2.1269 4.38296 2.08804 4.38337 2.04799 4.38379C1.95306 4.37492 1.95306 4.37492 1.87494 4.2968C1.86483 4.18159 1.86483 4.18159 1.86456 4.03557C1.86449 4.00985 1.86441 3.98414 1.86434 3.95764C1.86428 3.90327 1.86443 3.84889 1.86475 3.79452C1.86517 3.71118 1.86476 3.62788 1.86426 3.54454C1.86431 3.49174 1.86441 3.43895 1.86456 3.38615C1.86465 3.33797 1.86474 3.28978 1.86483 3.24013C1.87494 3.12492 1.87494 3.12492 1.95306 3.0468C2.04441 3.03434 2.04441 3.03434 2.15723 3.03062C2.19751 3.02911 2.23779 3.0276 2.2793 3.02605C2.32149 3.02484 2.36369 3.02363 2.40717 3.02238C2.44966 3.02087 2.49216 3.01936 2.53595 3.01781C2.64113 3.01412 2.7463 3.01077 2.8515 3.00774C2.88642 2.93321 2.92043 2.85825 2.95404 2.78313C2.97307 2.74143 2.99211 2.69974 3.01172 2.65678C3.05799 2.54482 3.05799 2.54482 3.01745 2.46079C2.96773 2.3812 2.91862 2.32807 2.8486 2.26601C2.82577 2.24483 2.80293 2.22366 2.7794 2.20184C2.73142 2.15803 2.68299 2.11469 2.63414 2.07184C2.5176 1.96229 2.46511 1.90712 2.44379 1.74492C2.52844 1.52868 2.67458 1.3929 2.83929 1.23283C2.87069 1.20053 2.90209 1.16823 2.93443 1.13495C2.96522 1.10446 2.99602 1.07397 3.02774 1.04256C3.06971 1.00098 3.06971 1.00098 3.11253 0.958567C3.22891 0.881176 3.30026 0.881954 3.43744 0.898361C3.52899 0.968399 3.52899 0.968399 3.61322 1.06194C3.65824 1.10975 3.65824 1.10975 3.70416 1.15852C3.74616 1.20377 3.74616 1.20377 3.789 1.24992C3.86559 1.32703 3.93273 1.38343 4.02338 1.44524C4.11999 1.45074 4.11999 1.45074 4.21869 1.40617C4.2729 1.3858 4.32712 1.36546 4.38135 1.34514C4.40943 1.33461 4.43751 1.32409 4.46643 1.31325C4.4878 1.30524 4.50917 1.29724 4.53119 1.28899C4.53176 1.26377 4.53233 1.23856 4.53292 1.21258C4.53583 1.09805 4.5396 0.983566 4.5434 0.869064C4.54428 0.829385 4.54516 0.789706 4.54607 0.748825C4.54814 0.691422 4.54814 0.691422 4.55026 0.632858C4.55129 0.597673 4.55231 0.562489 4.55336 0.526237C4.59597 0.282499 4.71055 0.253618 4.94257 0.253983ZM4.08441 2.67326C3.77535 3.07139 3.70131 3.52952 3.74994 4.02336C3.8366 4.4442 4.09232 4.77046 4.43643 5.01915C4.82539 5.26092 5.26676 5.30391 5.71039 5.20714C6.11434 5.07361 6.45653 4.79789 6.66055 4.42253C6.87057 3.97482 6.8869 3.59991 6.72876 3.12935C6.56511 2.72428 6.29361 2.44375 5.89349 2.27043C5.25897 2.01629 4.55062 2.16266 4.08441 2.67326Z" fill="currentColor"/>
<path d="M5.19531 15.7422C8.36641 15.7422 11.5375 15.7422 14.8047 15.7422C14.8047 16.232 14.8047 16.7219 14.8047 17.2266C11.6336 17.2266 8.4625 17.2266 5.19531 17.2266C5.19531 16.7367 5.19531 16.2469 5.19531 15.7422Z" fill="currentColor"/>
<path d="M7.18744 7.89062C7.3459 8.2597 7.50416 8.62885 7.66212 8.99814C7.73497 9.16839 7.8082 9.33846 7.88187 9.50836C7.91 9.57377 7.93813 9.63918 7.96625 9.70459C7.98517 9.7477 7.98517 9.7477 8.00447 9.79169C8.06144 9.92507 8.08588 10.0083 8.08588 10.1562C7.93039 10.2219 7.77478 10.2872 7.61905 10.3522C7.56621 10.3744 7.5134 10.3966 7.46063 10.4188C6.93896 10.639 6.49505 10.8076 5.93744 10.5859C5.59852 10.3835 5.39361 10.128 5.29306 9.74762C5.22871 9.42339 5.27478 9.10931 5.43954 8.82034C5.68555 8.46843 6.03212 8.30311 6.41973 8.14142C6.4947 8.11009 6.56932 8.078 6.64392 8.04581C7.01029 7.89062 7.01029 7.89062 7.18744 7.89062ZM6.09369 9.25781C6.04247 9.41717 6.04338 9.49752 6.09613 9.65576C6.18836 9.78965 6.25872 9.85231 6.40619 9.92188C6.51908 9.93294 6.61203 9.92144 6.71869 9.88281C6.86915 9.75796 6.94649 9.67778 6.96527 9.48242C6.95091 9.31014 6.90491 9.23436 6.79681 9.10156C6.67371 9.0195 6.59755 9.00212 6.45059 9.0062C6.29279 9.03879 6.18972 9.13189 6.09369 9.25781Z" fill="currentColor"/>
<path d="M15.625 3.63281C15.7422 3.67188 15.7422 3.67188 15.8017 3.78654C15.8235 3.83842 15.8447 3.8905 15.8656 3.94272C15.8775 3.97119 15.8893 3.99965 15.9014 4.02899C15.9407 4.12382 15.9794 4.21889 16.0181 4.31396C16.0594 4.41413 16.1008 4.51422 16.1423 4.61431C16.1714 4.68463 16.2005 4.75497 16.2295 4.82533C16.3389 5.08988 16.4512 5.3531 16.5648 5.61584C16.581 5.6533 16.5972 5.69076 16.6138 5.72935C16.6776 5.87677 16.7414 6.02418 16.8055 6.17144C16.85 6.27379 16.8943 6.37625 16.9385 6.47873C16.9586 6.52459 16.9586 6.52459 16.9791 6.57138C17.0703 6.78356 17.0703 6.78356 17.0703 6.91406C16.9906 6.93287 16.9108 6.95157 16.8311 6.97021C16.7867 6.98064 16.7422 6.99106 16.6965 7.0018C16.5023 7.04448 16.3122 7.07753 16.1133 7.08496C16.0782 7.08687 16.0432 7.08879 16.0071 7.09076C15.8552 7.06217 15.7643 6.98811 15.6641 6.875C15.5885 6.74494 15.5324 6.60857 15.4758 6.46942C15.4508 6.41024 15.4508 6.41024 15.4254 6.34986C15.3725 6.22404 15.3205 6.09787 15.2686 5.97168C15.2334 5.88773 15.1981 5.80381 15.1628 5.71991C15.0359 5.41686 14.9095 5.11385 14.7936 4.80639C14.7807 4.7722 14.7678 4.73802 14.7545 4.7028C14.7137 4.56629 14.7225 4.47076 14.7656 4.33594C14.8979 4.13565 15.0837 4.01005 15.2759 3.87207C15.3237 3.83657 15.3237 3.83657 15.3724 3.80035C15.403 3.7782 15.4337 3.75604 15.4653 3.73322C15.4931 3.71298 15.521 3.69274 15.5496 3.67189C15.5745 3.659 15.5994 3.6461 15.625 3.63281Z" fill="currentColor"/>
<path d="M16.9531 3.43596C17.1276 3.56692 17.2237 3.66964 17.3183 3.87038C17.3294 3.8938 17.3406 3.91723 17.3521 3.94136C17.3891 4.01996 17.4251 4.09899 17.4609 4.17815C17.474 4.2066 17.487 4.23505 17.5004 4.26436C17.5855 4.45049 17.6679 4.63763 17.7486 4.82571C17.7767 4.89066 17.8051 4.95545 17.8339 5.02006C18.188 5.81439 18.188 5.81439 18.0591 6.26372C17.9706 6.49008 17.7727 6.65799 17.5781 6.79534C17.5264 6.80979 17.4744 6.82306 17.4219 6.8344C17.1516 6.23473 16.889 5.63259 16.6362 5.02536C16.5286 4.76685 16.42 4.50879 16.3091 4.2517C16.2981 4.22621 16.2871 4.20072 16.2757 4.17446C16.2232 4.05262 16.1704 3.93087 16.1174 3.8092C16.0989 3.76635 16.0803 3.72349 16.0612 3.67934C16.0366 3.62278 16.0366 3.62278 16.0115 3.56508C15.9766 3.47503 15.9766 3.47503 15.9766 3.3969C16.3123 3.29923 16.6364 3.25649 16.9531 3.43596Z" fill="currentColor"/>
<path d="M10.3906 6.01472C10.5378 6.17345 10.633 6.32786 10.7153 6.52848C10.7267 6.55523 10.738 6.58198 10.7498 6.60954C10.7867 6.69674 10.8231 6.78418 10.8594 6.87165C10.8849 6.93256 10.9104 6.99347 10.936 7.05436C10.9754 7.14807 11.0147 7.24179 11.0538 7.3356C11.1298 7.51758 11.2075 7.6987 11.2872 7.87908C11.3355 7.98836 11.3831 8.09788 11.4308 8.20745C11.4533 8.2588 11.476 8.31005 11.499 8.36117C11.6301 8.65258 11.7189 8.86252 11.6406 9.17878C11.5744 9.28916 11.5269 9.32275 11.4041 9.35822C11.2442 9.38623 11.1664 9.39198 11.0186 9.31326C10.878 9.20166 10.8218 9.09099 10.7567 8.92899C10.7445 8.90039 10.7323 8.8718 10.7198 8.84233C10.6801 8.74886 10.6416 8.65501 10.603 8.5611C10.5758 8.49615 10.5485 8.43121 10.5212 8.3663C10.4655 8.23362 10.4101 8.10078 10.355 7.96784C10.2785 7.78388 10.1995 7.60112 10.1198 7.41853C10.0845 7.337 10.0492 7.25545 10.0141 7.17388C9.99186 7.1226 9.96948 7.07139 9.94693 7.02026C9.70554 6.47132 9.70554 6.47132 9.79002 6.15876C9.93896 5.97597 10.1769 5.91877 10.3906 6.01472Z" fill="currentColor"/>
<path d="M8.71094 6.67874C8.94393 6.80593 9.0131 7.04184 9.11133 7.27445C9.13075 7.31951 9.15018 7.36457 9.17019 7.41099C9.21398 7.51262 9.25741 7.61439 9.30069 7.71623C9.36824 7.87463 9.43752 8.03225 9.50704 8.18979C9.56871 8.32982 9.6298 8.4701 9.69078 8.61043C9.72098 8.67969 9.75139 8.74887 9.782 8.81796C9.82538 8.91609 9.86791 9.01455 9.91028 9.11313C9.92332 9.14215 9.93636 9.17117 9.94979 9.20107C10.0341 9.40044 10.0733 9.58715 10.0391 9.80374C9.98685 9.91524 9.94187 9.95462 9.84375 10.0381C9.68287 10.0878 9.60155 10.0886 9.44336 10.0308C9.26271 9.91173 9.19659 9.76591 9.11545 9.56891C9.0957 9.52136 9.07595 9.4738 9.0556 9.4248C9.03429 9.3729 9.01299 9.32099 8.9917 9.26908C8.94657 9.15979 8.90132 9.05055 8.85605 8.94132C8.84436 8.91304 8.83266 8.88477 8.82062 8.85564C8.73476 8.64856 8.64653 8.4426 8.55728 8.23697C8.53211 8.17872 8.50695 8.12047 8.4818 8.06221C8.44534 7.97778 8.40877 7.8934 8.37177 7.8092C8.33736 7.73084 8.30347 7.65228 8.26965 7.57367C8.25018 7.52901 8.23071 7.48435 8.21064 7.43834C8.14605 7.25171 8.09182 7.06982 8.17139 6.88138C8.32247 6.69904 8.46829 6.62136 8.71094 6.67874Z" fill="currentColor"/>
<path d="M13.4521 4.61158C13.496 4.61346 13.496 4.61346 13.5409 4.61539C13.7249 4.68111 13.801 4.82674 13.8823 4.99452C13.9438 5.13616 14.0023 5.27887 14.06 5.42212C14.093 5.50274 14.1261 5.58331 14.1592 5.66387C14.1822 5.72001 14.2053 5.77616 14.2282 5.83234C14.3131 6.03974 14.4006 6.24596 14.4892 6.45178C14.5018 6.48098 14.5143 6.51018 14.5272 6.54026C14.5764 6.65458 14.6255 6.7689 14.6751 6.88303C14.7093 6.96201 14.7433 7.04113 14.7772 7.12027C14.7966 7.16534 14.8161 7.21041 14.8362 7.25685C14.9055 7.44402 14.9361 7.56742 14.8803 7.76099C14.7908 7.914 14.7387 7.95574 14.5703 8.00757C14.4129 8.00757 14.3288 7.99324 14.2037 7.89653C14.0515 7.73562 13.9792 7.52431 13.8941 7.32321C13.875 7.27902 13.8559 7.23483 13.8362 7.18929C13.7959 7.09571 13.7557 7.00203 13.7158 6.90826C13.6555 6.7667 13.5946 6.62544 13.5335 6.48421C13.4216 6.2245 13.3115 5.96406 13.2031 5.70288C13.1889 5.66875 13.1746 5.63462 13.16 5.59945C13.1243 5.5128 13.0895 5.42586 13.0552 5.33866C13.0371 5.29295 13.0189 5.24724 13.0003 5.20015C12.9649 5.06308 12.9706 4.97931 13.0078 4.84351C13.1327 4.65602 13.2276 4.59664 13.4521 4.61158Z" fill="currentColor"/>
<path d="M11.77 5.3013C11.7997 5.29984 11.8293 5.29838 11.8599 5.29688C11.9986 5.32162 12.0504 5.36714 12.1484 5.46976C12.2215 5.59851 12.2772 5.73353 12.334 5.87015C12.3604 5.93198 12.3604 5.93198 12.3873 5.99506C12.4277 6.08978 12.4679 6.18457 12.5078 6.2795C12.5885 6.47145 12.6705 6.66288 12.7524 6.85434C12.8713 7.13274 12.99 7.4112 13.1082 7.68991C13.1212 7.72039 13.1341 7.75087 13.1475 7.78227C13.2415 8.00432 13.317 8.19398 13.2812 8.43851C13.2112 8.54827 13.1633 8.61466 13.0469 8.67288C12.9692 8.68219 12.9692 8.68219 12.8784 8.68509C12.8339 8.68728 12.8339 8.68728 12.7885 8.68951C12.6579 8.66622 12.5973 8.60557 12.5 8.51663C12.444 8.42171 12.444 8.42171 12.399 8.31456C12.3818 8.27423 12.3646 8.2339 12.3469 8.19235C12.329 8.14886 12.3111 8.10536 12.2926 8.06055C12.2735 8.01534 12.2544 7.97013 12.2347 7.92355C12.184 7.80327 12.1338 7.68281 12.0837 7.56223C12.0336 7.44162 11.9827 7.3213 11.932 7.20094C11.8371 6.97549 11.7431 6.74965 11.6498 6.52356C11.6073 6.42125 11.5644 6.3192 11.5211 6.21723C11.4994 6.16527 11.4778 6.11331 11.4561 6.06134C11.4384 6.01944 11.4208 5.97753 11.4026 5.93436C11.3637 5.81034 11.3553 5.71614 11.3672 5.58694C11.4805 5.38678 11.5413 5.3086 11.77 5.3013Z" fill="currentColor"/>
<path d="M19.0796 3.57987C19.2939 3.7621 19.4361 3.98809 19.461 4.27018C19.4671 4.5877 19.4114 4.81517 19.2011 5.0603C19.0922 5.16407 18.9633 5.22319 18.8281 5.28642C18.7872 5.3067 18.7872 5.3067 18.7454 5.32739C18.6031 5.39624 18.4769 5.44198 18.3203 5.46952C18.2515 5.30565 18.1828 5.14178 18.1141 4.9779C18.0908 4.92237 18.0675 4.86684 18.0442 4.81132C18.0329 4.78456 18.0217 4.7578 18.0101 4.73023C17.999 4.70359 17.9878 4.67694 17.9763 4.64948C17.9539 4.59608 17.9315 4.54266 17.9093 4.48922C17.8575 4.36512 17.805 4.24154 17.7509 4.11843C17.7327 4.07666 17.7145 4.0349 17.6957 3.99186C17.6796 3.95544 17.6634 3.91902 17.6467 3.8815C17.6172 3.78984 17.6172 3.78984 17.6562 3.67265C17.7434 3.62624 17.8264 3.58751 17.9175 3.55058C17.9534 3.53509 17.9534 3.53509 17.99 3.5193C18.3491 3.36926 18.7477 3.34874 19.0796 3.57987ZM18.2641 4.10234C18.1535 4.21184 18.1535 4.21184 18.1396 4.35624C18.168 4.51504 18.2003 4.58093 18.3203 4.68827C18.4317 4.73723 18.4317 4.73723 18.5547 4.72733C18.7204 4.63955 18.7204 4.63955 18.8281 4.49296C18.844 4.34945 18.8378 4.27605 18.7671 4.14872C18.595 3.99434 18.4618 3.98732 18.2641 4.10234Z" fill="currentColor"/>
<path d="M8.12499 7.9706C8.18077 8.07471 8.22546 8.1727 8.26843 8.28203C8.2876 8.32877 8.2876 8.32877 8.30717 8.37645C8.34792 8.47613 8.38783 8.57613 8.42773 8.67616C8.45519 8.74376 8.48271 8.81133 8.51028 8.87888C8.57779 9.04462 8.64456 9.21065 8.71093 9.37685C8.62035 9.4815 8.54225 9.51989 8.41064 9.55995C8.37907 9.56977 8.3475 9.57959 8.31497 9.58971C8.29095 9.59681 8.26693 9.60391 8.24218 9.61122C8.15745 9.41405 8.07331 9.21664 7.9897 9.01899C7.96117 8.95178 7.93248 8.88464 7.90364 8.81757C7.86221 8.72117 7.82135 8.62454 7.7806 8.52785C7.76108 8.48292 7.76108 8.48292 7.74115 8.43708C7.65393 8.22789 7.65393 8.22789 7.6646 8.12209C7.69531 8.04872 7.69531 8.04872 7.8247 7.97792C8.00425 7.9201 8.00425 7.9201 8.12499 7.9706Z" fill="currentColor"/>
<path d="M17.5781 11.7188C17.8705 11.8005 18.151 11.9028 18.4328 12.0155C18.4755 12.0325 18.5182 12.0495 18.5622 12.067C18.6517 12.1027 18.7411 12.1384 18.8305 12.1743C18.968 12.2293 19.1056 12.2838 19.2432 12.3383C19.3304 12.3731 19.4175 12.4079 19.5045 12.4428C19.5458 12.4591 19.5871 12.4754 19.6297 12.4922C19.6675 12.5075 19.7054 12.5227 19.7443 12.5385C19.7778 12.5518 19.8112 12.5652 19.8457 12.5789C19.9219 12.6172 19.9219 12.6172 19.9609 12.6953C19.6082 12.6535 19.2591 12.5954 18.9098 12.531C18.8312 12.5169 18.7523 12.5036 18.6734 12.4911C17.9452 12.3749 17.9452 12.3749 17.7452 12.1128C17.5781 11.8542 17.5781 11.8542 17.5781 11.7188Z" fill="currentColor"/>
<path d="M2.42188 11.7188C2.33075 11.9621 2.21489 12.2299 1.97446 12.3543C1.86296 12.3875 1.75364 12.4102 1.63895 12.4297C1.59809 12.4379 1.55723 12.4461 1.51513 12.4545C1.38549 12.4802 1.25555 12.5035 1.12549 12.5269C1.0377 12.5441 0.949933 12.5615 0.862198 12.579C0.701886 12.6101 0.541589 12.6413 0.380831 12.6701C0.348693 12.6759 0.316556 12.6818 0.283445 12.6878C0.191685 12.6956 0.126325 12.6839 0.0390625 12.6562C0.442805 12.4617 0.861531 12.3049 1.2793 12.1436C1.38785 12.1015 1.49639 12.0595 1.60491 12.0174C1.67198 11.9914 1.73906 11.9654 1.80617 11.9395C1.94694 11.885 2.08662 11.8294 2.22477 11.7685C2.34375 11.7188 2.34375 11.7188 2.42188 11.7188Z" fill="currentColor"/>
<path d="M14.6094 5.15625C14.6932 5.34794 14.7766 5.53979 14.8597 5.73179C14.888 5.79708 14.9165 5.86233 14.945 5.92752C14.986 6.02127 15.0266 6.11517 15.0671 6.20911C15.08 6.23821 15.0928 6.2673 15.106 6.29729C15.1653 6.43575 15.1953 6.52675 15.1953 6.67969C15.118 6.70547 15.0406 6.73125 14.9609 6.75781C14.794 6.41329 14.64 6.0646 14.4946 5.71045C14.4711 5.65345 14.4711 5.65345 14.4471 5.5953C14.4254 5.54195 14.4254 5.54195 14.4032 5.48752C14.3902 5.45565 14.3773 5.42379 14.3639 5.39096C14.3359 5.3125 14.3359 5.3125 14.3359 5.23438C14.4394 5.17732 14.4881 5.15625 14.6094 5.15625Z" fill="currentColor"/>
<path d="M9.64844 7.22656C9.78136 7.33341 9.83287 7.48005 9.8967 7.63306C9.90867 7.66122 9.92064 7.68939 9.93298 7.71842C9.95816 7.77785 9.98321 7.83735 10.0081 7.8969C10.0463 7.9881 10.085 8.07907 10.1238 8.17001C10.1482 8.22783 10.1726 8.28566 10.197 8.34351C10.2086 8.37073 10.2202 8.39795 10.2321 8.426C10.2797 8.54045 10.3125 8.62474 10.3125 8.75C10.248 8.77578 10.1836 8.80156 10.1172 8.82812C9.96197 8.52881 9.826 8.2231 9.69482 7.9126C9.6654 7.84405 9.6654 7.84405 9.63539 7.77412C9.61689 7.73044 9.59838 7.68676 9.57932 7.64175C9.55418 7.58258 9.55418 7.58258 9.52853 7.52221C9.49219 7.42188 9.49219 7.42188 9.49219 7.30469C9.54375 7.27891 9.59531 7.25313 9.64844 7.22656Z" fill="currentColor"/>
<path d="M12.8516 5.85938C12.9688 5.89844 12.9688 5.89844 13.0359 6.02652C13.0605 6.08322 13.0847 6.14013 13.1084 6.1972C13.1213 6.22722 13.1341 6.25723 13.1473 6.28815C13.1744 6.35171 13.2013 6.41535 13.228 6.47907C13.2689 6.57668 13.3105 6.67397 13.3522 6.77124C13.3784 6.83297 13.4046 6.89472 13.4307 6.95648C13.4494 7.00025 13.4494 7.00025 13.4684 7.0449C13.5178 7.1634 13.5547 7.2531 13.5547 7.38281C13.4387 7.40215 13.4387 7.40215 13.3204 7.42188C13.2356 7.23027 13.1515 7.03843 13.0679 6.84633C13.0393 6.78102 13.0107 6.71577 12.9818 6.6506C12.9404 6.55692 12.8995 6.463 12.8588 6.36902C12.8458 6.33992 12.8327 6.31082 12.8193 6.28084C12.7177 6.04379 12.7177 6.04379 12.7735 5.89844C12.7993 5.88555 12.825 5.87266 12.8516 5.85938Z" fill="currentColor"/>
<path d="M11.3281 6.5625C11.3922 6.70475 11.4561 6.84709 11.5198 6.98951C11.5519 7.06122 11.5842 7.13287 11.6165 7.20451C11.7404 7.48176 11.8545 7.75964 11.9531 8.04688C11.8758 8.07266 11.7984 8.09844 11.7188 8.125C11.6548 7.98199 11.5909 7.83894 11.5271 7.69585C11.4949 7.62373 11.4626 7.55164 11.4304 7.47955C11.0938 6.72424 11.0938 6.72424 11.0938 6.60156C11.2109 6.5625 11.2109 6.5625 11.3281 6.5625Z" fill="currentColor"/>
</g>
<defs>
<clipPath id="clip0_19179_101376">
<rect width="20" height="20" fill="currentColor"/>
</clipPath>
</defs>
</svg>
