<svg width="20" height="20" viewBox="0 0 20 20" fill="none" xmlns="http://www.w3.org/2000/svg">
<path d="M3.52295 7.10948C3.59667 7.11069 3.59667 7.11069 3.67188 7.11192C3.67209 7.14979 3.67209 7.14979 3.67231 7.18842C3.67394 7.45206 3.67666 7.71567 3.67998 7.97929C3.68108 8.07757 3.68191 8.17585 3.68246 8.27413C3.6833 8.41572 3.68512 8.55726 3.68713 8.69884C3.68718 8.74251 3.68723 8.78618 3.68728 8.83118C3.69278 9.12703 3.73159 9.34991 3.94119 9.57378C3.96592 9.5912 3.99064 9.60862 4.01611 9.62657C4.05275 9.65361 4.05275 9.65361 4.09012 9.6812C4.3235 9.80604 4.56323 9.82165 4.82178 9.83165C4.85408 9.83316 4.88638 9.83467 4.91966 9.83623C4.99851 9.83987 5.07738 9.84313 5.15625 9.8463C5.15625 9.91075 5.15625 9.97521 5.15625 10.0416C5.20376 10.0445 5.20376 10.0445 5.25223 10.0474C5.3897 10.0567 5.52681 10.0686 5.66406 10.0807C5.70495 10.0827 5.74584 10.0848 5.78796 10.0869C5.90189 10.0979 5.98976 10.1107 6.09375 10.1588C6.16078 10.2521 6.19039 10.3333 6.22086 10.444C6.24511 10.5495 6.24511 10.5495 6.2999 10.6341C6.35615 10.7351 6.37604 10.7846 6.36719 10.901C6.26862 11.0817 6.12663 11.235 5.98767 11.3855C5.92521 11.4586 5.92521 11.4586 5.85938 11.6041C6.34922 12.094 6.83906 12.5838 7.34375 13.0885C7.53556 12.9606 7.70061 12.83 7.87247 12.6788C7.96875 12.6197 7.96875 12.6197 8.06503 12.6243C8.17315 12.662 8.27541 12.705 8.37891 12.754C8.48635 12.8046 8.58863 12.8525 8.70178 12.8887C8.78906 12.9322 8.78906 12.9322 8.82385 13.0088C8.86283 13.2707 8.88414 13.5263 8.90625 13.7916C9.62813 13.7916 10.35 13.7916 11.0938 13.7916C11.1217 13.4489 11.1217 13.4489 11.1353 13.1056C11.1719 12.9713 11.1719 12.9713 11.2288 12.9246C11.3122 12.8815 11.3968 12.8487 11.4844 12.815C11.5593 12.7785 11.6342 12.7419 11.709 12.7052C11.8914 12.6163 11.8914 12.6163 11.9899 12.6311C12.0777 12.6614 12.133 12.6985 12.2052 12.7566C12.2294 12.7759 12.2535 12.7951 12.2784 12.815C12.3156 12.8452 12.3156 12.8452 12.3535 12.8761C12.3789 12.8964 12.4043 12.9167 12.4304 12.9377C12.4929 12.9877 12.555 13.0381 12.6172 13.0885C12.8183 12.9203 13.0062 12.7438 13.1908 12.5578C13.2181 12.5304 13.2455 12.503 13.2737 12.4747C13.3601 12.3881 13.4464 12.3013 13.5327 12.2145C13.5917 12.1553 13.6507 12.0961 13.7096 12.037C13.8534 11.8928 13.9971 11.7485 14.1406 11.6041C14.0606 11.4659 13.9734 11.3493 13.8682 11.2289C13.6355 10.9556 13.6355 10.9556 13.6279 10.8035C13.6594 10.7114 13.7022 10.6341 13.75 10.5494C13.7596 10.5146 13.7691 10.4797 13.779 10.4438C13.8096 10.3334 13.8393 10.252 13.9062 10.1588C14.0463 10.094 14.1832 10.0884 14.3359 10.0807C14.4057 10.0746 14.4057 10.0746 14.4769 10.0683C14.5992 10.0578 14.7213 10.049 14.8438 10.0416C14.8438 9.97716 14.8438 9.91271 14.8438 9.8463C14.8904 9.84484 14.9371 9.84338 14.9852 9.84187C15.6162 9.82692 15.6162 9.82692 16.1328 9.49474C16.3086 9.24431 16.3125 8.99652 16.3129 8.69884C16.3135 8.65333 16.3142 8.60782 16.3148 8.56093C16.3167 8.41647 16.3176 8.27202 16.3184 8.12755C16.3195 8.02923 16.3206 7.93091 16.3219 7.8326C16.3247 7.59238 16.3268 7.35216 16.3281 7.11192C16.7113 7.10799 16.9893 7.19504 17.2751 7.46349C18.9354 9.35259 17.5781 12.4875 17.5781 15.0025C12.5766 15.0025 7.575 15.0025 2.42188 15.0025C2.42188 7.78794 2.42188 7.78794 2.77069 7.41496C2.97662 7.24012 3.25022 7.10501 3.52295 7.10948Z" fill="currentColor"/>
<path d="M9.52611 4.67969C9.575 4.67989 9.62389 4.6801 9.67426 4.68031C9.7132 4.68039 9.7132 4.68039 9.75292 4.68047C9.83611 4.68069 9.91929 4.68118 10.0025 4.68168C10.0588 4.68188 10.115 4.68205 10.1713 4.68221C10.3095 4.68265 10.4478 4.68332 10.586 4.68412C10.6377 4.92108 10.6753 5.1499 10.6885 5.39213C10.6929 5.46842 10.6929 5.46842 10.6974 5.54624C10.6993 5.58401 10.7012 5.62177 10.7032 5.66068C10.7713 5.66688 10.7713 5.66688 10.8408 5.6732C11.0112 5.69458 11.1562 5.74514 11.3135 5.81205C11.3381 5.82207 11.3627 5.83209 11.388 5.84242C11.5408 5.90553 11.6889 5.97575 11.836 6.05131C11.8541 6.03752 11.8722 6.02373 11.8909 6.00952C11.9734 5.94682 12.056 5.88432 12.1387 5.82182C12.1815 5.78926 12.1815 5.78926 12.2251 5.75605C12.2666 5.72471 12.2666 5.72471 12.309 5.69273C12.3344 5.6735 12.3597 5.65427 12.3859 5.63446C12.461 5.58256 12.461 5.58256 12.6172 5.50443C12.8879 5.77514 13.1586 6.04584 13.4375 6.32475C13.3065 6.54307 13.3065 6.54307 13.2221 6.64472C13.2047 6.6663 13.1872 6.68788 13.1693 6.71011C13.133 6.7547 13.0963 6.79905 13.0594 6.84316C13 6.91525 13 6.91525 12.9297 7.02787C12.9558 7.21992 13.0718 7.39114 13.1618 7.56025C13.2685 7.76685 13.3379 7.97549 13.3985 8.19975C13.4231 8.20309 13.4478 8.20644 13.4732 8.20988C13.5842 8.22505 13.6952 8.24047 13.8062 8.2559C13.8644 8.26379 13.8644 8.26379 13.9238 8.27184C13.9791 8.27959 13.9791 8.27959 14.0355 8.28749C14.0697 8.29219 14.1039 8.2969 14.1391 8.30174C14.2188 8.31693 14.2188 8.31693 14.2579 8.356C14.2613 8.44266 14.262 8.52943 14.2617 8.61616C14.2616 8.65509 14.2616 8.65509 14.2615 8.69481C14.2613 8.778 14.2608 8.86119 14.2603 8.94438C14.2601 9.00066 14.2599 9.05693 14.2598 9.11321C14.2593 9.25143 14.2587 9.38965 14.2579 9.52787C13.8055 9.61306 13.8055 9.61306 13.606 9.63041C13.5736 9.63333 13.5412 9.63625 13.5079 9.63926C13.4847 9.64117 13.4615 9.64309 13.4375 9.64506C13.4346 9.66928 13.4317 9.6935 13.4287 9.71845C13.3939 9.95267 13.3327 10.1636 13.2447 10.3824C13.2348 10.407 13.2249 10.4316 13.2147 10.4569C13.1689 10.5673 13.1221 10.6649 13.0541 10.7635C12.997 10.8537 12.997 10.8537 13.0283 10.9517C13.0976 11.0713 13.1775 11.1727 13.2666 11.2784C13.2986 11.3165 13.3305 11.3546 13.3634 11.3939C13.3879 11.4226 13.4123 11.4514 13.4375 11.481C13.3784 11.6204 13.2967 11.709 13.1894 11.8149C13.1562 11.8478 13.123 11.8808 13.0887 11.9148C13.054 11.9489 13.0192 11.983 12.9834 12.0181C12.9484 12.0528 12.9133 12.0875 12.8772 12.1232C12.7907 12.2088 12.7041 12.2942 12.6172 12.3794C12.4733 12.2948 12.3441 12.2041 12.2144 12.0987C12.1799 12.0707 12.1454 12.0428 12.1099 12.014C12.0839 11.9928 12.058 11.9716 12.0313 11.9497C11.9953 11.97 11.9594 11.9903 11.9223 12.0112C11.5231 12.2327 11.1215 12.4313 10.6641 12.4966C10.6617 12.5408 10.6594 12.585 10.6569 12.6306C10.6536 12.6885 10.6503 12.7464 10.647 12.8042C10.6455 12.8334 10.6439 12.8625 10.6424 12.8926C10.6295 13.1128 10.6295 13.1128 10.586 13.1997C10.1993 13.1997 9.81254 13.1997 9.4141 13.1997C9.36369 12.9729 9.32185 12.7643 9.29691 12.5357C9.2518 12.522 9.20668 12.5083 9.1602 12.4942C8.74774 12.3565 8.34119 12.1742 7.96879 11.9497C7.93631 11.9775 7.90383 12.0052 7.87037 12.0338C7.8275 12.0701 7.78462 12.1064 7.74174 12.1426C7.72036 12.1609 7.69899 12.1792 7.67697 12.1981C7.57925 12.2804 7.50523 12.3386 7.38285 12.3794C6.9768 11.9734 6.9768 11.9734 6.56254 11.5591C6.64777 11.3887 6.75455 11.255 6.87794 11.1103C6.93323 11.0439 6.93323 11.0439 6.99223 10.9341C6.9739 10.8307 6.9739 10.8307 6.9141 10.7388C6.8993 10.7078 6.88449 10.6769 6.86924 10.645C6.85343 10.6123 6.83762 10.5796 6.82133 10.5459C6.69529 10.271 6.56254 9.95078 6.56254 9.64506C6.51314 9.63987 6.46375 9.63469 6.41285 9.62934C6.348 9.62238 6.28315 9.61541 6.2183 9.60844C6.18575 9.60504 6.15319 9.60164 6.11965 9.59814C6.08831 9.59474 6.05696 9.59134 6.02467 9.58784C5.99582 9.58477 5.96698 9.5817 5.93726 9.57854C5.85942 9.56693 5.85942 9.56693 5.74223 9.52787C5.74126 9.36169 5.74055 9.19552 5.74008 9.02934C5.73988 8.97277 5.73962 8.91619 5.73928 8.85962C5.73881 8.77847 5.73859 8.69732 5.73841 8.61616C5.73821 8.56727 5.738 8.51838 5.73779 8.46801C5.74223 8.356 5.74223 8.356 5.78129 8.31693C5.84207 8.30536 5.90326 8.29593 5.96455 8.28749C6.00143 8.28232 6.03832 8.27716 6.07632 8.27184C6.11512 8.26658 6.15391 8.26132 6.19389 8.2559C6.23284 8.25049 6.27179 8.24507 6.31191 8.2395C6.40846 8.2261 6.50502 8.21286 6.6016 8.19975C6.61298 8.16243 6.62436 8.12512 6.63609 8.08668C6.72693 7.79738 6.82688 7.53485 6.98307 7.27278C7.03025 7.18604 7.05783 7.12543 7.07035 7.02787C7.03366 6.95488 7.03366 6.95488 6.973 6.88856C6.94135 6.85045 6.94135 6.85045 6.90907 6.81158C6.88656 6.78547 6.86405 6.75936 6.84086 6.73246C6.79687 6.68045 6.75303 6.62832 6.70933 6.57606C6.68965 6.55312 6.66997 6.53018 6.64969 6.50655C6.6016 6.44193 6.6016 6.44193 6.56254 6.32475C6.83324 6.05404 7.10395 5.78334 7.38285 5.50443C7.50036 5.56319 7.58847 5.61494 7.69108 5.69273C7.71877 5.71362 7.74647 5.73452 7.775 5.75605C7.8035 5.77775 7.832 5.79946 7.86137 5.82182C7.90503 5.85482 7.90503 5.85482 7.94956 5.8885C8.02116 5.94266 8.09267 5.99693 8.1641 6.05131C8.18397 6.04225 8.20384 6.03319 8.22431 6.02386C8.31564 5.98236 8.40711 5.94115 8.49857 5.89994C8.52982 5.88569 8.56106 5.87144 8.59326 5.85676C8.8268 5.7519 9.03713 5.66068 9.29691 5.66068C9.29928 5.61919 9.30165 5.5777 9.30409 5.53495C9.35381 4.68651 9.35381 4.68651 9.52611 4.67969ZM8.67191 7.88725C8.3287 8.29515 8.18807 8.72361 8.20774 9.26267C8.26906 9.73945 8.51011 10.1483 8.86723 10.4654C9.25768 10.7516 9.70879 10.9094 10.1954 10.856C10.6924 10.7767 11.1345 10.5348 11.4432 10.1318C11.747 9.68063 11.812 9.24233 11.7579 8.70756C11.6682 8.28092 11.3982 7.88007 11.0547 7.61381C10.2649 7.13377 9.31058 7.16228 8.67191 7.88725Z" fill="currentColor"/>
<path d="M2.42183 15.5859C7.42339 15.5859 12.425 15.5859 17.5781 15.5859C17.5781 16.7345 17.5781 16.7345 17.2184 17.1202C16.8406 17.4832 16.3799 17.4668 15.8895 17.4662C15.8367 17.4662 15.7839 17.4663 15.7311 17.4664C15.5864 17.4667 15.4417 17.4667 15.297 17.4666C15.1408 17.4666 14.9845 17.4668 14.8283 17.467C14.5224 17.4673 14.2164 17.4674 13.9105 17.4675C13.6618 17.4675 13.4131 17.4676 13.1644 17.4677C12.459 17.468 11.7536 17.4682 11.0481 17.4682C11.0101 17.4682 10.9721 17.4682 10.9329 17.4682C10.8759 17.4682 10.8759 17.4682 10.8176 17.4682C10.2008 17.4682 9.58397 17.4685 8.96715 17.4691C8.33354 17.4696 7.69993 17.4699 7.06632 17.4699C6.7107 17.4699 6.35509 17.47 5.99947 17.4704C5.6967 17.4707 5.39392 17.4708 5.09115 17.4706C4.93675 17.4704 4.78236 17.4704 4.62796 17.4708C4.48644 17.4711 4.34493 17.471 4.20342 17.4707C4.12834 17.4706 4.05327 17.4709 3.97819 17.4712C3.51737 17.4694 3.09316 17.425 2.74409 17.0996C2.323 16.6535 2.42183 16.2199 2.42183 15.5859Z" fill="currentColor"/>
<path d="M7.26557 18.0078C9.07026 18.0078 10.8749 18.0078 12.7343 18.0078C12.7343 18.3043 12.7343 18.6008 12.7343 18.9062C12.8256 18.9053 12.9168 18.9044 13.0108 18.9035C13.0994 18.9029 13.1879 18.9024 13.2765 18.902C13.3379 18.9016 13.3994 18.901 13.4608 18.9004C13.5493 18.8994 13.6377 18.899 13.7261 18.8986C13.7535 18.8982 13.7809 18.8978 13.8091 18.8974C13.9517 18.8974 14.0615 18.9002 14.1796 18.9844C14.2763 19.1293 14.2728 19.2035 14.2578 19.375C14.189 19.4994 14.1601 19.5247 14.0234 19.5703C13.917 19.5742 13.8115 19.5759 13.7051 19.5758C13.6723 19.5759 13.6395 19.576 13.6057 19.5762C13.4953 19.5765 13.3849 19.5765 13.2745 19.5766C13.1955 19.5768 13.1165 19.577 13.0376 19.5772C12.8227 19.5777 12.6079 19.578 12.393 19.5781C12.2589 19.5782 12.1247 19.5784 11.9906 19.5786C11.5711 19.5791 11.1516 19.5795 10.7321 19.5796C10.2474 19.5798 9.76278 19.5805 9.27811 19.5816C8.90374 19.5825 8.52937 19.5829 8.15499 19.5829C7.93127 19.583 7.70755 19.5832 7.48382 19.5839C7.27343 19.5845 7.06305 19.5846 6.85265 19.5843C6.77538 19.5843 6.69811 19.5844 6.62084 19.5848C6.51545 19.5853 6.41009 19.5851 6.3047 19.5847C6.27404 19.585 6.24337 19.5853 6.21178 19.5856C6.03563 19.584 5.92095 19.563 5.7812 19.4531C5.72081 19.3324 5.73066 19.2346 5.74213 19.1016C5.81507 19.0092 5.87184 18.9586 5.97651 18.9062C6.07342 18.9029 6.16922 18.9017 6.26612 18.9024C6.30887 18.9025 6.30887 18.9025 6.35249 18.9026C6.44363 18.9028 6.53478 18.9033 6.62592 18.9038C6.68767 18.904 6.74942 18.9042 6.81116 18.9043C6.96264 18.9047 7.1141 18.9055 7.26557 18.9062C7.26557 18.6098 7.26557 18.3133 7.26557 18.0078Z" fill="currentColor"/>
<path d="M2.92964 4.49082C3.02577 4.5713 3.105 4.63898 3.15453 4.75601C3.19935 4.85013 3.23537 4.89757 3.32027 4.95957C3.52887 4.99313 3.73518 4.98176 3.94527 4.97178C4.0311 4.96874 4.11693 4.96609 4.20279 4.96385C4.2807 4.96166 4.35858 4.95838 4.43645 4.95504C4.57112 4.9596 4.64996 4.96949 4.76558 5.03769C4.89777 5.20497 4.89885 5.36237 4.89607 5.56715C4.8961 5.61691 4.8961 5.61691 4.89612 5.66768C4.89604 5.77696 4.89513 5.88621 4.89421 5.99549C4.89399 6.0714 4.89383 6.14732 4.89371 6.22323C4.89326 6.42276 4.89211 6.62228 4.89081 6.8218C4.88961 7.02552 4.88908 7.22923 4.88849 7.43294C4.88723 7.83245 4.88524 8.23195 4.88277 8.63144C4.973 8.63144 5.06324 8.63144 5.15621 8.63144C5.15621 8.83769 5.15621 9.04394 5.15621 9.25644C5.03574 9.25961 4.91536 9.26193 4.79488 9.26377C4.76079 9.26475 4.7267 9.26573 4.69158 9.26674C4.43938 9.26963 4.43938 9.26963 4.31453 9.20472C4.18725 9.05794 4.21345 8.87962 4.21427 8.6968C4.21427 8.66364 4.21426 8.63047 4.21425 8.5963C4.21428 8.48661 4.21459 8.37691 4.21489 8.26722C4.21496 8.19119 4.21502 8.11516 4.21506 8.03914C4.21521 7.83897 4.21559 7.6388 4.21602 7.43864C4.21642 7.23441 4.2166 7.03018 4.2168 6.82595C4.21722 6.42518 4.2179 6.0244 4.21871 5.62363C3.90933 5.62363 3.59996 5.62363 3.28121 5.62363C3.25542 5.70098 3.22964 5.77832 3.20308 5.85801C3.13396 5.93796 3.13396 5.93796 3.05415 6.00449C3.02812 6.02685 3.00209 6.04921 2.97527 6.07224C2.72101 6.24999 2.44811 6.23638 2.14839 6.20957C1.90608 6.14584 1.73365 5.9894 1.60152 5.77988C1.47966 5.52006 1.43799 5.27227 1.53316 4.99619C1.65111 4.71463 1.7963 4.547 2.07027 4.41269C2.35399 4.32247 2.66955 4.34561 2.92964 4.49082Z" fill="currentColor"/>
<path d="M18.0859 4.49153C18.3322 4.68734 18.4687 4.89232 18.5107 5.20686C18.5294 5.50592 18.4598 5.7187 18.2715 5.95149C18.0814 6.15153 17.8649 6.23023 17.5934 6.25148C17.2958 6.24467 17.079 6.13056 16.8591 5.9373C16.7969 5.85872 16.7969 5.85872 16.7187 5.62434C16.4094 5.62434 16.1 5.62434 15.7812 5.62434C15.7823 5.72745 15.7833 5.83056 15.7843 5.93679C15.7876 6.27746 15.7897 6.61813 15.7914 6.95881C15.7924 7.16536 15.7938 7.3719 15.796 7.57845C15.7981 7.77778 15.7993 7.97709 15.7998 8.17644C15.8001 8.25249 15.8008 8.32854 15.8019 8.40458C15.8033 8.51111 15.8035 8.61758 15.8034 8.72412C15.8041 8.75556 15.8048 8.787 15.8056 8.81939C15.8041 8.97951 15.7889 9.05228 15.6879 9.17922C15.5793 9.26224 15.5383 9.28078 15.4045 9.27623C15.3717 9.2756 15.3388 9.27497 15.3049 9.27432C15.2712 9.27268 15.2374 9.27105 15.2026 9.26936C15.1681 9.26848 15.1336 9.2676 15.098 9.26669C15.0132 9.2644 14.9285 9.2609 14.8438 9.25715C14.8438 9.0509 14.8438 8.84465 14.8438 8.63215C14.934 8.63215 15.0242 8.63215 15.1172 8.63215C15.1169 8.59001 15.1167 8.54787 15.1164 8.50445C15.114 8.10729 15.1123 7.71013 15.1111 7.31297C15.1105 7.10878 15.1097 6.9046 15.1083 6.70042C15.1071 6.50337 15.1064 6.30633 15.1061 6.10927C15.1059 6.0341 15.1054 5.95892 15.1048 5.88374C15.1039 5.77844 15.1038 5.67316 15.1039 5.56786C15.1035 5.53678 15.103 5.5057 15.1026 5.47369C15.1037 5.27786 15.1322 5.14054 15.2734 4.99934C15.3804 4.99588 15.4864 4.99484 15.5934 4.99553C15.6254 4.99558 15.6575 4.99564 15.6905 4.99569C15.7932 4.99591 15.8958 4.9964 15.9985 4.9969C16.068 4.9971 16.1374 4.99727 16.2069 4.99743C16.3775 4.99787 16.5481 4.99854 16.7187 4.99934C16.7354 4.94451 16.7354 4.94451 16.7523 4.88856C16.8352 4.65853 17.022 4.53527 17.2266 4.4134C17.5075 4.32501 17.8305 4.34104 18.0859 4.49153Z" fill="currentColor"/>
<path d="M16.2828 2.09024C16.4816 2.22683 16.6227 2.41915 16.6797 2.65604C16.7129 2.94955 16.6977 3.19293 16.5234 3.43729C16.3496 3.64404 16.1652 3.76388 15.9033 3.82303C15.6249 3.84453 15.3909 3.76417 15.1532 3.62497C15.0781 3.55447 15.0781 3.55447 14.8828 3.24197C14.4832 3.22908 14.0836 3.21619 13.6719 3.20291C13.6719 4.0408 13.6719 4.87869 13.6719 5.74198C13.3916 5.60185 13.1492 5.44416 13.0078 5.15604C12.9243 4.78871 12.9506 4.40225 12.9638 4.02797C12.9671 3.91698 12.9679 3.80603 12.9687 3.695C12.9696 3.56187 12.9721 3.42879 12.9747 3.29569C12.9755 3.24617 12.9763 3.19665 12.9771 3.14563C12.9787 3.09957 12.9803 3.05352 12.982 3.00607C12.9832 2.96571 12.9844 2.92534 12.9856 2.88376C13.0136 2.74426 13.0636 2.67752 13.164 2.57791C13.2705 2.53477 13.371 2.53406 13.4851 2.53442C13.5171 2.53442 13.5492 2.53442 13.5822 2.53442C13.6164 2.53463 13.6506 2.53483 13.6859 2.53504C13.7389 2.53512 13.7389 2.53512 13.7929 2.5352C13.9056 2.53542 14.0182 2.53591 14.1308 2.53641C14.2073 2.5366 14.2837 2.53678 14.3602 2.53694C14.5474 2.53737 14.7346 2.53805 14.9219 2.53885C14.9302 2.50233 14.9302 2.50233 14.9387 2.46507C14.9866 2.28722 15.1237 2.15687 15.2739 2.05682C15.6175 1.88347 15.9505 1.90276 16.2828 2.09024Z" fill="currentColor"/>
<path d="M4.72334 2.05276C4.86727 2.15024 4.98457 2.27387 5.07811 2.42035C5.07811 2.45902 5.07811 2.49769 5.07811 2.53754C5.1256 2.53713 5.1731 2.53672 5.22203 2.5363C5.39857 2.53488 5.5751 2.53398 5.75164 2.53324C5.82799 2.53285 5.90433 2.53232 5.98068 2.53164C6.09054 2.53069 6.20039 2.53025 6.31026 2.52991C6.34428 2.5295 6.37831 2.5291 6.41336 2.52868C6.72758 2.52863 6.72758 2.52863 6.87499 2.61566C6.99103 2.74037 7.00847 2.83088 7.01478 2.99909C7.01666 3.04489 7.01854 3.09069 7.02048 3.13788C7.02573 3.34844 7.03056 3.55895 7.0332 3.76956C7.03475 3.88018 7.038 3.99053 7.04281 4.10106C7.08606 5.11465 7.08606 5.11465 6.78323 5.44739C6.46905 5.74066 6.46905 5.74066 6.32811 5.74066C6.32811 4.90277 6.32811 4.06488 6.32811 3.2016C5.7287 3.22093 5.7287 3.22093 5.11717 3.24066C5.05272 3.34379 4.98827 3.44691 4.92186 3.55316C4.83855 3.62503 4.83855 3.62503 4.76073 3.66791C4.7219 3.69019 4.7219 3.69019 4.6823 3.71292C4.4443 3.82893 4.14527 3.82888 3.89113 3.76358C3.65359 3.65764 3.46628 3.45744 3.35265 3.22525C3.26372 2.94546 3.29093 2.64 3.42467 2.38006C3.71765 1.94577 4.25961 1.81964 4.72334 2.05276Z" fill="currentColor"/>
<path d="M10.5537 0.608639C10.7528 0.773122 10.8988 0.949255 10.9375 1.21228C10.9602 1.4752 10.9154 1.68581 10.7812 1.9154C10.6394 2.0759 10.5219 2.17555 10.3125 2.2279C10.3125 2.84665 10.3125 3.4654 10.3125 4.1029C10.1062 4.1029 9.9 4.1029 9.6875 4.1029C9.6875 3.48415 9.6875 2.8654 9.6875 2.2279C9.61016 2.20212 9.53281 2.17634 9.45312 2.14978C9.20195 1.94201 9.08134 1.69169 9.04541 1.37341C9.06042 1.07898 9.17385 0.846849 9.38721 0.645871C9.73922 0.360576 10.1863 0.347416 10.5537 0.608639Z" fill="currentColor"/>
</svg>
