<svg width="20" height="20" viewBox="0 0 20 20" fill="none" xmlns="http://www.w3.org/2000/svg">
<g clip-path="url(#clip0_19179_133234)">
<path d="M2.45229 0.853544C2.49168 0.853424 2.49168 0.853424 2.53186 0.853301C2.62 0.85308 2.70815 0.853137 2.79629 0.853192C2.86007 0.853091 2.92384 0.852974 2.98761 0.852841C3.16301 0.852525 3.3384 0.852455 3.51379 0.852427C3.70291 0.852354 3.89202 0.852059 4.08114 0.851796C4.49477 0.851266 4.90841 0.85103 5.32205 0.850858C5.58038 0.85075 5.83871 0.850585 6.09704 0.850409C6.8124 0.849933 7.52776 0.84953 8.24312 0.849398C8.28891 0.84939 8.3347 0.849381 8.38188 0.849372C8.45072 0.849359 8.45072 0.849359 8.52096 0.849346C8.61397 0.849329 8.70697 0.849312 8.79998 0.849294C8.84611 0.849285 8.89225 0.849277 8.93978 0.849268C9.68699 0.849114 10.4342 0.848432 11.1814 0.847522C11.9487 0.846595 12.716 0.846109 13.4834 0.846064C13.9141 0.846028 14.3448 0.845804 14.7756 0.845094C15.1425 0.844492 15.5093 0.844293 15.8762 0.844615C16.0633 0.844767 16.2504 0.844733 16.4375 0.844183C16.609 0.843684 16.7805 0.843734 16.952 0.844206C17.0138 0.844282 17.0756 0.844164 17.1374 0.843822C17.8809 0.839972 18.4718 0.990302 19.0179 1.51618C19.0593 1.5581 19.0593 1.5581 19.1016 1.60087C19.1235 1.62196 19.1455 1.64306 19.1681 1.6648C19.5842 2.09957 19.6997 2.66338 19.6977 3.24219C19.6978 3.28844 19.698 3.3347 19.6981 3.38236C19.6985 3.50989 19.6984 3.63742 19.6983 3.76496C19.6982 3.90284 19.6985 4.04072 19.6988 4.1786C19.6993 4.44839 19.6994 4.71818 19.6993 4.98798C19.6992 5.20736 19.6993 5.42673 19.6995 5.64611C19.6995 5.67738 19.6995 5.70865 19.6995 5.74087C19.6996 5.80439 19.6996 5.86792 19.6997 5.93145C19.7001 6.52673 19.7 7.122 19.6998 7.71727C19.6996 8.26131 19.7 8.80535 19.7008 9.34939C19.7015 9.90862 19.7018 10.4679 19.7017 11.0271C19.7016 11.3408 19.7017 11.6545 19.7023 11.9683C19.7027 12.2353 19.7028 12.5024 19.7023 12.7695C19.7021 12.9056 19.702 13.0417 19.7025 13.1779C19.7029 13.3257 19.7026 13.4736 19.7021 13.6215C19.7024 13.6641 19.7027 13.7067 19.703 13.7505C19.6988 14.3481 19.4737 14.9135 19.0625 15.3509C18.5501 15.8347 17.9506 16.0353 17.2544 16.0282C17.209 16.0282 17.1636 16.0283 17.1168 16.0283C16.9685 16.0282 16.8201 16.0273 16.6717 16.0264C16.5682 16.0262 16.4646 16.026 16.3611 16.0259C16.1175 16.0255 15.8739 16.0245 15.6303 16.0234C15.3526 16.0221 15.075 16.0214 14.7973 16.0208C14.2269 16.0196 13.6564 16.0175 13.0859 16.0149C13.0966 16.0567 13.1072 16.0985 13.1182 16.1415C13.1577 16.2967 13.1969 16.4519 13.2361 16.6072C13.2531 16.6743 13.2702 16.7415 13.2873 16.8086C13.3119 16.9051 13.3363 17.0017 13.3606 17.0983C13.3683 17.1283 13.376 17.1582 13.3839 17.1891C13.4176 17.3239 13.4375 17.4374 13.4375 17.5774C13.4603 17.5772 13.4831 17.5769 13.5066 17.5766C13.7448 17.574 13.9831 17.5723 14.2214 17.571C14.3102 17.5704 14.399 17.5696 14.4878 17.5686C14.6158 17.5672 14.7438 17.5665 14.8718 17.566C14.9112 17.5654 14.9506 17.5648 14.9912 17.5642C15.2551 17.5641 15.4913 17.5857 15.704 17.759C15.7215 17.7813 15.7389 17.8035 15.7568 17.8265C15.7749 17.8485 15.7929 17.8706 15.8115 17.8933C15.955 18.1173 15.9663 18.3336 15.9375 18.5931C15.8685 18.8343 15.7159 19.0041 15.5078 19.1399C15.3744 19.201 15.2698 19.2279 15.1234 19.2281C15.0676 19.2285 15.0676 19.2285 15.0106 19.2289C14.9498 19.2287 14.9498 19.2287 14.8877 19.2285C14.8444 19.2287 14.8011 19.2289 14.7564 19.229C14.6109 19.2295 14.4654 19.2295 14.3199 19.2294C14.2157 19.2296 14.1115 19.2299 14.0073 19.2302C13.7535 19.2308 13.4996 19.2311 13.2458 19.2311C13.0394 19.2311 12.8331 19.2313 12.6267 19.2315C12.0415 19.2322 11.4562 19.2326 10.871 19.2325C10.8395 19.2325 10.8079 19.2325 10.7754 19.2325C10.7438 19.2325 10.7123 19.2325 10.6797 19.2325C10.1679 19.2325 9.65614 19.2332 9.14434 19.2343C8.6187 19.2355 8.09306 19.236 7.56742 19.2359C7.27237 19.2359 6.97732 19.2361 6.68227 19.237C6.43104 19.2377 6.17982 19.2378 5.92859 19.2373C5.80046 19.2371 5.67235 19.2371 5.54423 19.2377C5.40518 19.2383 5.26617 19.238 5.12712 19.2374C5.08682 19.2378 5.04652 19.2382 5.005 19.2386C4.72299 19.2359 4.51202 19.1801 4.29595 18.9936C4.27853 18.9718 4.2611 18.95 4.24315 18.9275C4.22513 18.9058 4.2071 18.8841 4.18853 18.8618C4.04362 18.6398 4.03355 18.4213 4.06249 18.1634C4.13119 17.9319 4.25601 17.7896 4.45311 17.6556C4.67632 17.5545 4.89761 17.5675 5.13762 17.5698C5.18064 17.5699 5.22366 17.57 5.26799 17.5701C5.40489 17.5706 5.54179 17.5716 5.6787 17.5725C5.77173 17.5729 5.86475 17.5733 5.95778 17.5736C6.1854 17.5745 6.413 17.5758 6.64061 17.5774C6.64557 17.5321 6.65053 17.4868 6.65563 17.4402C6.67606 17.2773 6.7109 17.1198 6.75185 16.961C6.75873 16.9337 6.76561 16.9064 6.7727 16.8782C6.79441 16.7922 6.81639 16.7063 6.83837 16.6204C6.85326 16.5616 6.86814 16.5028 6.883 16.444C6.9192 16.3009 6.95562 16.1579 6.99218 16.0149C6.96845 16.015 6.94472 16.0151 6.92028 16.0153C6.34117 16.0179 5.76206 16.0198 5.18294 16.021C4.90288 16.0216 4.62282 16.0224 4.34275 16.0238C4.09846 16.0249 3.85417 16.0257 3.60987 16.026C3.48069 16.0261 3.35152 16.0265 3.22234 16.0273C3.07762 16.0282 2.93291 16.0283 2.78819 16.0282C2.74604 16.0287 2.7039 16.0291 2.66047 16.0295C2.02766 16.027 1.48206 15.805 1.02401 15.3655C0.55109 14.8584 0.378094 14.2698 0.38043 13.5909C0.38028 13.5445 0.380131 13.498 0.379977 13.4502C0.379645 13.3222 0.37966 13.1943 0.379828 13.0663C0.379924 12.9279 0.379571 12.7896 0.379279 12.6512C0.378782 12.3805 0.378711 12.1097 0.378803 11.839C0.378872 11.6189 0.378804 11.3987 0.378638 11.1786C0.378614 11.1472 0.378591 11.1158 0.378567 11.0835C0.37852 11.0198 0.378472 10.956 0.378425 10.8923C0.378 10.2949 0.378084 9.69757 0.378323 9.10023C0.378525 8.55429 0.378085 8.00836 0.377342 7.46243C0.376585 6.90125 0.376263 6.34007 0.37641 5.77889C0.376484 5.46408 0.376388 5.14927 0.375835 4.83446C0.375369 4.56646 0.375315 4.29846 0.375788 4.03046C0.376017 3.89385 0.376062 3.75725 0.375592 3.62065C0.375183 3.47225 0.3755 3.32386 0.375995 3.17546C0.375707 3.13273 0.375419 3.08999 0.375122 3.04596C0.379523 2.4169 0.61688 1.87755 1.05742 1.43287C1.44872 1.07235 1.91888 0.8541 2.45229 0.853544ZM2.13497 2.67804C2.01573 2.85615 2.00942 3.02812 2.01245 3.2372C2.01231 3.27117 2.01218 3.30514 2.01204 3.34013C2.01179 3.45382 2.01265 3.56748 2.0135 3.68116C2.01355 3.76411 2.01353 3.84706 2.01344 3.93001C2.01341 4.15191 2.01431 4.3738 2.01541 4.59571C2.0163 4.80402 2.01634 5.01232 2.01646 5.22064C2.01728 5.82964 2.01946 6.43864 2.02147 7.04764C2.0247 8.40841 2.02792 9.76918 2.03124 11.1712C7.29061 11.1712 12.55 11.1712 17.9687 11.1712C17.9728 9.81122 17.9768 8.45126 17.9809 7.05008C17.9827 6.62059 17.9845 6.1911 17.9863 5.74859C17.987 5.36377 17.987 5.36377 17.9874 4.97895C17.9876 4.80747 17.9883 4.63601 17.9894 4.46454C17.9907 4.24576 17.9911 4.027 17.9908 3.80822C17.9909 3.72797 17.9913 3.64771 17.992 3.56745C17.993 3.45891 17.9928 3.35044 17.9922 3.2419C17.9928 3.21059 17.9934 3.17929 17.9939 3.14704C17.9909 2.91414 17.9265 2.75409 17.7734 2.57743C17.5227 2.36048 17.2142 2.39923 16.8997 2.40107C16.8379 2.40087 16.776 2.40059 16.7141 2.40025C16.5443 2.39952 16.3745 2.39977 16.2047 2.40018C16.0215 2.40045 15.8382 2.39983 15.655 2.39932C15.2962 2.39848 14.9373 2.39848 14.5785 2.3988C14.2868 2.39904 13.9951 2.399 13.7035 2.39875C13.662 2.39871 13.6205 2.39868 13.5777 2.39864C13.4934 2.39857 13.4091 2.3985 13.3248 2.39842C12.5341 2.39778 11.7433 2.39812 10.9526 2.39877C10.2291 2.39935 9.50568 2.39878 8.78221 2.39765C8.0394 2.3965 7.29658 2.39607 6.55376 2.39645C6.46975 2.39649 6.38574 2.39653 6.30172 2.39656C6.26038 2.39658 6.21905 2.3966 6.17646 2.39662C5.88517 2.3967 5.59389 2.39632 5.30261 2.39575C4.9476 2.39507 4.59259 2.39507 4.23757 2.39596C4.05644 2.3964 3.87532 2.39652 3.69419 2.39579C3.52834 2.39514 3.36251 2.39538 3.19666 2.39635C3.1367 2.39654 3.07674 2.3964 3.01678 2.3959C2.66528 2.39317 2.37659 2.39487 2.13497 2.67804Z" fill="currentColor"/>
<path d="M9.86735 3.89749C9.92126 3.89704 9.97516 3.89624 10.0291 3.89508C10.5936 3.88296 10.5936 3.88296 10.8594 4.06527C10.9398 4.14477 10.9398 4.14477 10.9937 4.22396C11.0121 4.25019 11.0306 4.27643 11.0497 4.30346C11.1396 4.45499 11.1462 4.60585 11.1646 4.77816C11.1979 5.05009 11.236 5.24797 11.4575 5.42757C11.5862 5.48142 11.6969 5.4988 11.8359 5.51058C11.8749 5.51436 11.8749 5.51436 11.9147 5.51821C12.1206 5.53 12.227 5.4859 12.3828 5.35433C12.4142 5.31566 12.4457 5.27699 12.478 5.23714C12.6288 5.06067 12.745 4.97555 12.9738 4.95013C13.3887 4.93927 13.5895 5.06398 13.8882 5.34121C13.92 5.37132 13.9517 5.40143 13.9844 5.43246C14.0105 5.45693 14.0365 5.4814 14.0634 5.50661C14.3011 5.73598 14.4952 5.9554 14.5044 6.29915C14.4998 6.6457 14.3484 6.83207 14.1231 7.08102C13.9856 7.24026 13.9643 7.40186 13.9697 7.60668C14.0035 7.81718 14.1334 7.98318 14.292 8.12044C14.4531 8.22704 14.6343 8.24568 14.8217 8.27791C15.1494 8.33741 15.3588 8.48165 15.5469 8.75277C15.625 8.98714 15.625 8.98714 15.625 9.61214C14.5551 9.61214 13.4852 9.61214 12.3828 9.61214C12.3441 9.35433 12.3055 9.09652 12.2656 8.83089C12.1407 8.48165 12.0056 8.20669 11.7578 7.93246C11.7384 7.90899 11.7189 7.88553 11.6989 7.86135C11.3311 7.44912 10.7431 7.20949 10.2017 7.17562C9.5322 7.15125 8.94419 7.3029 8.42773 7.74935C7.86896 8.27979 7.69276 8.85642 7.61719 9.61214C6.54727 9.61214 5.47734 9.61214 4.375 9.61214C4.375 8.79817 4.375 8.79817 4.53125 8.59652C4.74393 8.3872 4.95192 8.32019 5.2417 8.27914C5.52 8.23777 5.70133 8.20329 5.88211 7.96984C6.00166 7.76147 6.06412 7.58717 6.01562 7.34652C5.92378 7.16649 5.78534 7.02559 5.64789 6.87884C5.53079 6.72914 5.49534 6.58467 5.49072 6.39681C5.48916 6.36232 5.4876 6.32783 5.48599 6.29229C5.54933 5.95081 5.83729 5.71006 6.07422 5.4764C6.1071 5.44307 6.13998 5.40973 6.17386 5.37539C6.20583 5.34356 6.23781 5.31174 6.27075 5.27895C6.29958 5.25026 6.32841 5.22156 6.35811 5.192C6.56082 5.02453 6.768 5.02298 7.02179 5.02672C7.20093 5.04809 7.33298 5.10953 7.46094 5.23714C7.47398 5.26373 7.48702 5.29032 7.50046 5.31771C7.55345 5.42161 7.62861 5.44943 7.73483 5.48968C7.96304 5.5511 8.21988 5.52165 8.4375 5.43246C8.6183 5.29585 8.69907 5.14083 8.75 4.92464C8.75698 4.85314 8.76262 4.7815 8.76709 4.7098C8.78531 4.46581 8.83759 4.28193 9.021 4.11257C9.29797 3.89771 9.52266 3.89948 9.86735 3.89749Z" fill="currentColor"/>
</g>
<defs>
<clipPath id="clip0_19179_133234">
<rect width="20" height="20" fill="white"/>
</clipPath>
</defs>
</svg>
