<svg width="20" height="20" viewBox="0 0 20 20" fill="currentColor" xmlns="http://www.w3.org/2000/svg">
<g clip-path="url(#clip0_19184_144724)">
<path d="M4.72656 1.79688C8.20702 1.79688 11.6875 1.79688 15.2734 1.79688C15.2734 2.37695 15.2734 2.95703 15.2734 3.55469C15.8185 3.54703 15.8185 3.54703 16.3636 3.53709C17.2769 3.52601 18.0973 3.76099 18.7891 4.375C18.8152 4.39565 18.8414 4.41629 18.8684 4.43756C19.4866 4.93557 19.8949 5.74339 20 6.52344C20.0831 7.48663 19.9434 8.4227 19.3335 9.19922C19.2826 9.25815 19.2314 9.31677 19.1797 9.375C19.1487 9.41428 19.1487 9.41428 19.1171 9.45435C18.6104 10.0834 17.8168 10.4585 17.0312 10.5859C16.7233 10.6137 16.4147 10.6046 16.1059 10.5981C15.8312 10.5941 15.5565 10.5901 15.2734 10.5859C15.2734 11.166 15.2734 11.7461 15.2734 12.3438C11.793 12.3438 8.31249 12.3438 4.72656 12.3438C4.72656 11.7637 4.72656 11.1836 4.72656 10.5859C4.53159 10.5908 4.33661 10.5956 4.13574 10.6006C4.07546 10.6019 4.01518 10.6032 3.95307 10.6046C3.21195 10.6255 2.57877 10.7226 1.99218 11.2109C1.96695 11.2317 1.94173 11.2525 1.91573 11.274C1.51708 11.6366 1.26743 12.1608 1.23534 12.6952C1.21146 13.3846 1.35306 13.9326 1.81152 14.4629C2.36038 15.0484 3.00898 15.221 3.78814 15.2467C3.90075 15.2501 4.01336 15.2533 4.12597 15.2563C4.32416 15.262 4.52236 15.2676 4.72656 15.2734C4.72656 14.6934 4.72656 14.1133 4.72656 13.5156C8.20702 13.5156 11.6875 13.5156 15.2734 13.5156C15.2734 14.0957 15.2734 14.6758 15.2734 15.2734C15.6601 15.2734 16.0469 15.2734 16.4453 15.2734C16.4453 15.6602 16.4453 16.0469 16.4453 16.4453C16.0586 16.4453 15.6719 16.4453 15.2734 16.4453C15.2734 17.0254 15.2734 17.6055 15.2734 18.2031C11.793 18.2031 8.31249 18.2031 4.72656 18.2031C4.72656 17.623 4.72656 17.043 4.72656 16.4453C4.18147 16.453 4.18147 16.453 3.63642 16.4629C2.72314 16.474 1.90264 16.239 1.21093 15.625C1.17165 15.594 1.17165 15.594 1.13159 15.5624C0.513371 15.0644 0.105051 14.2566 -6.61612e-06 13.4766C-0.0831003 12.5134 0.0566301 11.5773 0.666497 10.8008C0.717376 10.7418 0.768619 10.6832 0.820306 10.625C0.851274 10.5857 0.851274 10.5857 0.882867 10.5457C1.38957 9.91665 2.18322 9.54151 2.96874 9.41406C3.27668 9.38631 3.58531 9.3954 3.89404 9.40186C4.16877 9.40588 4.4435 9.40991 4.72656 9.41406C4.72656 8.83398 4.72656 8.25391 4.72656 7.65625C8.20702 7.65625 11.6875 7.65625 15.2734 7.65625C15.2734 8.23633 15.2734 8.81641 15.2734 9.41406C15.4684 9.40923 15.6634 9.40439 15.8643 9.39941C15.9547 9.39742 15.9547 9.39742 16.0469 9.39539C16.888 9.3717 17.6161 9.22888 18.2179 8.59238C18.6912 8.01869 18.8017 7.40198 18.75 6.67969C18.667 6.08862 18.3163 5.58735 17.854 5.22217C17.2382 4.79049 16.6006 4.76348 15.874 4.74365C15.6758 4.73801 15.4776 4.73237 15.2734 4.72656C15.2734 5.30664 15.2734 5.88672 15.2734 6.48438C11.793 6.48438 8.31249 6.48438 4.72656 6.48438C4.72656 5.9043 4.72656 5.32422 4.72656 4.72656C4.33984 4.72656 3.95312 4.72656 3.55468 4.72656C3.55468 4.33984 3.55468 3.95312 3.55468 3.55469C3.9414 3.55469 4.32812 3.55469 4.72656 3.55469C4.72656 2.97461 4.72656 2.39453 4.72656 1.79688Z" fill="currentColor"/>
<path opacity="0.5" d="M17.8906 13.8281C18.2419 14.1284 18.5799 14.4366 18.905 14.7652C19.0186 14.8795 19.1321 14.9912 19.2554 15.0952C19.3619 15.187 19.4637 15.2815 19.5631 15.3809C19.6034 15.421 19.6034 15.421 19.6444 15.462C19.7632 15.5812 19.8818 15.7006 20 15.8203C19.9433 15.9506 19.8719 16.0361 19.7714 16.136C19.7414 16.166 19.7113 16.196 19.6803 16.2269C19.6331 16.2734 19.6331 16.2734 19.585 16.3208C19.5544 16.3513 19.5238 16.3819 19.4923 16.4133C19.3273 16.5771 19.1586 16.7336 18.9825 16.8853C18.8468 17.006 18.7208 17.1361 18.5938 17.2656C18.4368 17.4256 18.2787 17.5836 18.1128 17.7344C18.088 17.7569 18.0631 17.7795 18.0376 17.8027C17.9688 17.8516 17.9688 17.8516 17.8516 17.8516C17.7665 17.7798 17.7665 17.7798 17.6692 17.6807C17.6343 17.6454 17.5995 17.6102 17.5636 17.5739C17.5269 17.5362 17.4903 17.4986 17.4536 17.4609C17.4165 17.4233 17.3794 17.3856 17.3423 17.348C17.2514 17.2557 17.1607 17.1631 17.0703 17.0703C17.1343 16.9064 17.2552 16.7974 17.3782 16.6766C17.4007 16.6543 17.4231 16.632 17.4462 16.609C17.5177 16.538 17.5894 16.4672 17.6611 16.3965C17.7097 16.3483 17.7583 16.3001 17.8069 16.2518C17.9257 16.1338 18.0448 16.0161 18.1641 15.8984C18.1001 15.7345 17.9792 15.6255 17.8561 15.5048C17.8337 15.4824 17.8113 15.4601 17.7882 15.4371C17.7167 15.3661 17.645 15.2954 17.5732 15.2246C17.5247 15.1764 17.4761 15.1282 17.4275 15.08C17.3087 14.962 17.1895 14.8442 17.0703 14.7266C17.1294 14.5872 17.2111 14.4986 17.3184 14.3927C17.3517 14.3597 17.3849 14.3267 17.4191 14.2928C17.4539 14.2587 17.4886 14.2246 17.5244 14.1895C17.5595 14.1548 17.5945 14.1201 17.6306 14.0843C17.7171 13.9987 17.8038 13.9134 17.8906 13.8281Z" fill="currentColor"/>
<path opacity="0.5" d="M0.820312 2.10938C0.96813 2.23398 1.11309 2.35838 1.24756 2.49756C1.34365 2.59511 1.4408 2.68757 1.54541 2.77588C1.73726 2.94037 1.91195 3.12191 2.08963 3.30133C2.2374 3.44999 2.3872 3.59278 2.54745 3.72803C2.68162 3.84546 2.80517 3.97407 2.92969 4.10156C2.86653 4.26099 2.75223 4.36742 2.63184 4.48486C2.61055 4.5059 2.58927 4.52693 2.56734 4.5486C2.45911 4.65478 2.34959 4.75788 2.23389 4.85596C2.04478 5.01652 1.87381 5.19556 1.69939 5.37169C1.55164 5.52033 1.40185 5.6631 1.24161 5.79834C1.10745 5.91577 0.98389 6.04438 0.859375 6.17188C0.654229 6.00061 0.463585 5.81998 0.275879 5.62988C0.249166 5.60299 0.222453 5.5761 0.194931 5.5484C0.129863 5.48288 0.0648882 5.41726 0 5.35156C0.0639758 5.18765 0.184892 5.07864 0.307922 4.95789C0.330355 4.93556 0.352787 4.91324 0.375899 4.89024C0.447358 4.81922 0.519084 4.74848 0.59082 4.67773C0.639412 4.62953 0.687986 4.58132 0.736542 4.53308C0.855407 4.41508 0.974513 4.29732 1.09375 4.17969C1.02977 4.01577 0.908858 3.90677 0.785828 3.78601C0.763395 3.76369 0.740963 3.74137 0.717851 3.71837C0.646392 3.64735 0.574666 3.5766 0.50293 3.50586C0.454338 3.45766 0.405764 3.40944 0.357208 3.36121C0.238343 3.2432 0.119237 3.12544 0 3.00781C0.0591313 2.86845 0.140825 2.7798 0.248108 2.67395C0.281342 2.64097 0.314575 2.60799 0.348816 2.57401C0.38356 2.53992 0.418304 2.50583 0.454102 2.4707C0.489148 2.43601 0.524194 2.40132 0.560303 2.36557C0.6468 2.27999 0.733474 2.1946 0.820312 2.10938Z" fill="currentColor"/>
</g>
<defs>
<clipPath id="clip0_19184_144724">
<rect width="20" height="20" fill="currentColor"/>
</clipPath>
</defs>
</svg>
