<svg width="20" height="20" viewBox="0 0 20 20" fill="currentColor" xmlns="http://www.w3.org/2000/svg">
<path d="M11.6666 2.43073V9.35573C11.6666 10.2057 10.975 10.8974 10.125 10.8974H2.49996C2.04163 10.8974 1.66663 10.5224 1.66663 10.0641V4.73906C1.66663 3.03906 3.04163 1.66406 4.74163 1.66406H10.8916C11.325 1.66406 11.6666 2.00573 11.6666 2.43073Z" fill="currentColor"/>
<path d="M17.9166 12.9141C18.15 12.9141 18.3333 13.0974 18.3333 13.3307V14.1641C18.3333 15.5474 17.2166 16.6641 15.8333 16.6641C15.8333 15.2891 14.7083 14.1641 13.3333 14.1641C11.9583 14.1641 10.8333 15.2891 10.8333 16.6641H9.16663C9.16663 15.2891 8.04163 14.1641 6.66663 14.1641C5.29163 14.1641 4.16663 15.2891 4.16663 16.6641C2.78329 16.6641 1.66663 15.5474 1.66663 14.1641V12.4974C1.66663 12.0391 2.04163 11.6641 2.49996 11.6641H10.4166C11.5666 11.6641 12.5 10.7307 12.5 9.58073V4.9974C12.5 4.53906 12.875 4.16406 13.3333 4.16406H14.0333C14.6333 4.16406 15.1833 4.48906 15.4833 5.00573L16.0166 5.93906C16.0916 6.0724 15.9916 6.2474 15.8333 6.2474C14.6833 6.2474 13.75 7.18073 13.75 8.33073V10.8307C13.75 11.9807 14.6833 12.9141 15.8333 12.9141H17.9166Z" fill="currentColor"/>
<path d="M6.66667 18.3333C7.58714 18.3333 8.33333 17.5871 8.33333 16.6667C8.33333 15.7462 7.58714 15 6.66667 15C5.74619 15 5 15.7462 5 16.6667C5 17.5871 5.74619 18.3333 6.66667 18.3333Z" fill="currentColor"/>
<path d="M13.3333 18.3333C14.2538 18.3333 15 17.5871 15 16.6667C15 15.7462 14.2538 15 13.3333 15C12.4128 15 11.6666 15.7462 11.6666 16.6667C11.6666 17.5871 12.4128 18.3333 13.3333 18.3333Z" fill="currentColor"/>
<path d="M18.3333 10.4417V11.6667H15.8333C15.375 11.6667 15 11.2917 15 10.8333V8.33333C15 7.875 15.375 7.5 15.8333 7.5H16.9083L18.1167 9.61667C18.2583 9.86667 18.3333 10.15 18.3333 10.4417Z" fill="currentColor"/>
</svg>
