<svg width="24" height="24" viewBox="0 0 24 24" fill="none" xmlns="http://www.w3.org/2000/svg">
<path d="M15.7574 1.97656H7.87859C5.16041 1.97656 2.95435 4.18262 2.95435 6.9008V16.7493C2.95435 19.4675 5.16041 21.6735 7.87859 21.6735H15.7574C18.4756 21.6735 20.6816 19.4675 20.6816 16.7493V6.9008C20.6816 4.18262 18.4756 1.97656 15.7574 1.97656ZM8.72556 18.3546C8.53844 18.5417 8.29222 18.6402 8.03616 18.6402C7.77025 18.6402 7.52404 18.5417 7.33692 18.3546C7.1498 18.1675 7.04147 17.9213 7.04147 17.6554C7.04147 17.3993 7.1498 17.1432 7.33692 16.9561C7.42556 16.8675 7.53389 16.7985 7.65207 16.7493C7.89828 16.6508 8.16419 16.6508 8.41041 16.7493C8.4695 16.769 8.52859 16.7985 8.57783 16.8379C8.63692 16.8675 8.68616 16.9167 8.72556 16.9561C8.91268 17.1432 9.02101 17.3993 9.02101 17.6554C9.02101 17.9213 8.91268 18.1675 8.72556 18.3546ZM7.04147 13.716C7.04147 13.5879 7.07101 13.4599 7.12025 13.3417C7.1695 13.2137 7.23844 13.1152 7.33692 13.0167C7.56344 12.7902 7.90813 12.6819 8.22329 12.7508C8.28238 12.7607 8.35132 12.7804 8.41041 12.8099C8.4695 12.8296 8.52859 12.8591 8.57783 12.8985C8.63692 12.9281 8.68616 12.9773 8.72556 13.0167C8.81419 13.1152 8.89298 13.2137 8.94222 13.3417C8.99147 13.4599 9.01116 13.5879 9.01116 13.716C9.01116 13.9819 8.91268 14.2281 8.72556 14.4152C8.53844 14.6023 8.29222 14.7008 8.03616 14.7008C7.89828 14.7008 7.77025 14.6713 7.65207 14.622C7.53389 14.5728 7.42556 14.5038 7.33692 14.4152C7.1498 14.2281 7.04147 13.9819 7.04147 13.716ZM12.665 18.3546C12.5763 18.4432 12.468 18.5122 12.3498 18.5614C12.2316 18.6107 12.1036 18.6402 11.9657 18.6402C11.7096 18.6402 11.4634 18.5417 11.2763 18.3546C11.0892 18.1675 10.9809 17.9213 10.9809 17.6554C10.9809 17.5864 10.9907 17.5273 11.0006 17.4584C11.0203 17.3993 11.04 17.3402 11.0596 17.2811C11.0892 17.222 11.1187 17.1629 11.1483 17.1038C11.1877 17.0546 11.2271 17.0054 11.2763 16.9561C11.365 16.8675 11.4733 16.7985 11.5915 16.7493C11.9559 16.6016 12.3892 16.6803 12.665 16.9561C12.8521 17.1432 12.9506 17.3993 12.9506 17.6554C12.9506 17.9213 12.8521 18.1675 12.665 18.3546ZM12.665 14.4152C12.4778 14.6023 12.2316 14.7008 11.9657 14.7008C11.7096 14.7008 11.4634 14.6023 11.2763 14.4152C11.0892 14.2281 10.9809 13.9819 10.9809 13.716C10.9809 13.4599 11.0892 13.2038 11.2763 13.0167C11.6407 12.6523 12.3006 12.6523 12.665 13.0167C12.7536 13.1152 12.8324 13.2137 12.8816 13.3417C12.9309 13.4599 12.9506 13.5879 12.9506 13.716C12.9506 13.9819 12.8521 14.2281 12.665 14.4152ZM8.86344 10.3084C7.84904 10.3084 7.01192 9.48111 7.01192 8.45687V7.47202C7.01192 6.45762 7.83919 5.6205 8.86344 5.6205H14.7725C15.7869 5.6205 16.624 6.44777 16.624 7.47202V8.45687C16.624 9.47126 15.7968 10.3084 14.7725 10.3084H8.86344ZM16.6043 18.3546C16.4172 18.5417 16.171 18.6402 15.9051 18.6402C15.7771 18.6402 15.649 18.6107 15.5309 18.5614C15.4127 18.5122 15.3043 18.4432 15.2157 18.3546C15.0286 18.1675 14.9301 17.9213 14.9301 17.6554C14.9301 17.3993 15.0286 17.1432 15.2157 16.9561C15.4816 16.6803 15.9248 16.6016 16.2892 16.7493C16.4074 16.7985 16.5157 16.8675 16.6043 16.9561C16.7915 17.1432 16.89 17.3993 16.89 17.6554C16.89 17.9213 16.7915 18.1675 16.6043 18.3546ZM16.821 14.0902C16.7718 14.2084 16.7028 14.3167 16.6043 14.4152C16.4172 14.6023 16.171 14.7008 15.9051 14.7008C15.649 14.7008 15.4028 14.6023 15.2157 14.4152C15.0286 14.2281 14.9203 13.9819 14.9203 13.716C14.9203 13.4599 15.0286 13.2038 15.2157 13.0167C15.5801 12.6523 16.24 12.6523 16.6043 13.0167C16.7915 13.2038 16.8998 13.4599 16.8998 13.716C16.8998 13.844 16.8703 13.972 16.821 14.0902Z" fill="white"/>
</svg>
