<svg width="56" height="56" viewBox="0 0 56 56" fill="none" xmlns="http://www.w3.org/2000/svg">
<g filter="url(#filter0_dd_45593_35603)">
<path d="M12 18C12 9.16344 19.1634 2 28 2C36.8366 2 44 9.16344 44 18C44 26.8366 36.8366 34 28 34C19.1634 34 12 26.8366 12 18Z" fill="#FF6B00" shape-rendering="crispEdges"/>
<path d="M29.3313 12.667C29.5718 12.667 29.8078 12.7321 30.0144 12.8553C30.221 12.9785 30.3903 13.1553 30.5046 13.367L30.8286 13.967C30.9428 14.1787 31.1122 14.3555 31.3188 14.4787C31.5253 14.6019 31.7614 14.667 32.0019 14.667H33.3333C33.6869 14.667 34.026 14.8075 34.2761 15.0575C34.5261 15.3076 34.6666 15.6467 34.6666 16.0003V22.0003C34.6666 22.3539 34.5261 22.6931 34.2761 22.9431C34.026 23.1932 33.6869 23.3337 33.3333 23.3337H22.6666C22.313 23.3337 21.9738 23.1932 21.7238 22.9431C21.4737 22.6931 21.3333 22.3539 21.3333 22.0003V16.0003C21.3333 15.6467 21.4737 15.3076 21.7238 15.0575C21.9738 14.8075 22.313 14.667 22.6666 14.667H23.9979C24.2382 14.667 24.474 14.6021 24.6804 14.4791C24.8869 14.3561 25.0562 14.1796 25.1706 13.9683L25.4966 13.3657C25.611 13.1543 25.7803 12.9779 25.9867 12.8549C26.1932 12.7319 26.429 12.667 26.6693 12.667H29.3313Z" stroke="white" stroke-width="1.33333" stroke-linecap="round" stroke-linejoin="round"/>
<path d="M28 20.667C29.1046 20.667 30 19.7716 30 18.667C30 17.5624 29.1046 16.667 28 16.667C26.8954 16.667 26 17.5624 26 18.667C26 19.7716 26.8954 20.667 28 20.667Z" stroke="white" stroke-width="1.33333" stroke-linecap="round" stroke-linejoin="round"/>
</g>
<defs>
<filter id="filter0_dd_45593_35603" x="0" y="0" width="56" height="56" filterUnits="userSpaceOnUse" color-interpolation-filters="sRGB">
<feFlood flood-opacity="0" result="BackgroundImageFix"/>
<feColorMatrix in="SourceAlpha" type="matrix" values="0 0 0 0 0 0 0 0 0 0 0 0 0 0 0 0 0 0 127 0" result="hardAlpha"/>
<feMorphology radius="4" operator="erode" in="SourceAlpha" result="effect1_dropShadow_45593_35603"/>
<feOffset dy="4"/>
<feGaussianBlur stdDeviation="3"/>
<feComposite in2="hardAlpha" operator="out"/>
<feColorMatrix type="matrix" values="0 0 0 0 0 0 0 0 0 0 0 0 0 0 0 0 0 0 0.1 0"/>
<feBlend mode="normal" in2="BackgroundImageFix" result="effect1_dropShadow_45593_35603"/>
<feColorMatrix in="SourceAlpha" type="matrix" values="0 0 0 0 0 0 0 0 0 0 0 0 0 0 0 0 0 0 127 0" result="hardAlpha"/>
<feMorphology radius="3" operator="erode" in="SourceAlpha" result="effect2_dropShadow_45593_35603"/>
<feOffset dy="10"/>
<feGaussianBlur stdDeviation="7.5"/>
<feComposite in2="hardAlpha" operator="out"/>
<feColorMatrix type="matrix" values="0 0 0 0 0 0 0 0 0 0 0 0 0 0 0 0 0 0 0.1 0"/>
<feBlend mode="normal" in2="effect1_dropShadow_45593_35603" result="effect2_dropShadow_45593_35603"/>
<feBlend mode="normal" in="SourceGraphic" in2="effect2_dropShadow_45593_35603" result="shape"/>
</filter>
</defs>
</svg>
