<svg width="24" height="24" viewBox="0 0 24 24" fill="none" xmlns="http://www.w3.org/2000/svg">
<path d="M21.6667 20.9261C21.6667 21.3299 21.3318 21.6648 20.9281 21.6648H2.70836C2.30458 21.6648 1.96973 21.3299 1.96973 20.9261C1.96973 20.5223 2.30458 20.1875 2.70836 20.1875H20.9281C21.3318 20.1875 21.6667 20.5223 21.6667 20.9261Z" fill="white"/>
<path d="M15.1568 4.44853L4.57949 15.0258C4.17571 15.4296 3.52571 15.4296 3.13177 15.0258H3.12192C1.75298 13.647 1.75298 11.4213 3.12192 10.0523L10.1636 3.01065C11.5424 1.63187 13.7681 1.63187 15.1469 3.01065C15.5507 3.39474 15.5507 4.05459 15.1568 4.44853Z" fill="white"/>
<path d="M20.5045 8.36132L17.5007 5.35753C17.0969 4.95374 16.4469 4.95374 16.053 5.35753L5.47569 15.9348C5.0719 16.3287 5.0719 16.9787 5.47569 17.3825L8.47948 20.3962C9.85827 21.7651 12.084 21.7651 13.4628 20.3962L20.4946 13.3545C21.8931 11.9757 21.8931 9.7401 20.5045 8.36132ZM12.5666 17.2545L11.3749 18.456C11.1287 18.7022 10.7249 18.7022 10.4689 18.456C10.2227 18.2098 10.2227 17.806 10.4689 17.55L11.6704 16.3484C11.9068 16.1121 12.3204 16.1121 12.5666 16.3484C12.8128 16.5946 12.8128 17.0181 12.5666 17.2545ZM16.4764 13.3446L14.0734 15.7575C13.8272 15.9939 13.4234 15.9939 13.1674 15.7575C12.9211 15.5113 12.9211 15.1075 13.1674 14.8515L15.5802 12.4386C15.8166 12.2022 16.2302 12.2022 16.4764 12.4386C16.7227 12.6946 16.7227 13.0984 16.4764 13.3446Z" fill="white"/>
</svg>
