<svg width="20" height="20" viewBox="0 0 20 20" fill="none" xmlns="http://www.w3.org/2000/svg">
<path d="M18.3333 18.3359H1.66663C1.32496 18.3359 1.04163 18.0526 1.04163 17.7109C1.04163 17.3693 1.32496 17.0859 1.66663 17.0859H18.3333C18.675 17.0859 18.9583 17.3693 18.9583 17.7109C18.9583 18.0526 18.675 18.3359 18.3333 18.3359Z" fill="white"/>
<path d="M8.125 3.33073V18.3307H11.875V3.33073C11.875 2.41406 11.5 1.66406 10.375 1.66406H9.625C8.5 1.66406 8.125 2.41406 8.125 3.33073Z" fill="white"/>
<path d="M2.5 8.33073V18.3307H5.83333V8.33073C5.83333 7.41406 5.5 6.66406 4.5 6.66406H3.83333C2.83333 6.66406 2.5 7.41406 2.5 8.33073Z" fill="white"/>
<path d="M14.1666 12.5026V18.3359H17.5V12.5026C17.5 11.5859 17.1666 10.8359 16.1666 10.8359H15.5C14.5 10.8359 14.1666 11.5859 14.1666 12.5026Z" fill="white"/>
</svg>
