<svg width="20" height="20" viewBox="0 0 20 20" fill="none" xmlns="http://www.w3.org/2000/svg">
<g clip-path="url(#clip0_45410_67050)">
<path d="M18.3291 14.1642C18.3291 14.6061 18.1535 15.0299 17.8411 15.3424C17.5286 15.6549 17.1047 15.8305 16.6628 15.8305H5.68848C5.24659 15.8306 4.82283 16.0062 4.5104 16.3187L2.6758 18.1533C2.59307 18.236 2.48768 18.2923 2.37294 18.3152C2.2582 18.338 2.13927 18.3263 2.03119 18.2815C1.92311 18.2367 1.83073 18.1609 1.76573 18.0637C1.70073 17.9664 1.66603 17.852 1.66602 17.7351V4.16631C1.66602 3.72438 1.84157 3.30054 2.15407 2.98805C2.46656 2.67556 2.89039 2.5 3.33232 2.5H16.6628C17.1047 2.5 17.5286 2.67556 17.8411 2.98805C18.1535 3.30054 18.3291 3.72438 18.3291 4.16631V14.1642Z" stroke="#0F172B" stroke-width="1.66631" stroke-linecap="round" stroke-linejoin="round"/>
</g>
<defs>
<clipPath id="clip0_45410_67050">
<rect width="19.9957" height="19.9957" fill="white"/>
</clipPath>
</defs>
</svg>
