<svg width="20" height="20" viewBox="0 0 20 20" fill="none" xmlns="http://www.w3.org/2000/svg">
<path d="M12.4977 1.66602H4.99932C4.55738 1.66602 4.13355 1.84157 3.82106 2.15407C3.50856 2.46656 3.33301 2.89039 3.33301 3.33232V16.6628C3.33301 17.1047 3.50856 17.5286 3.82106 17.8411C4.13355 18.1535 4.55738 18.3291 4.99932 18.3291H14.9972C15.4391 18.3291 15.8629 18.1535 16.1754 17.8411C16.4879 17.5286 16.6635 17.1047 16.6635 16.6628V5.83179L12.4977 1.66602Z" stroke="#0F172B" stroke-width="1.66631" stroke-linecap="round" stroke-linejoin="round"/>
<path d="M11.6641 1.66602V4.99863C11.6641 5.44057 11.8396 5.8644 12.1521 6.17689C12.4646 6.48938 12.8884 6.66494 13.3304 6.66494H16.663" stroke="#0F172B" stroke-width="1.66631" stroke-linecap="round" stroke-linejoin="round"/>
<path d="M8.33135 7.49805H6.66504" stroke="#0F172B" stroke-width="1.66631" stroke-linecap="round" stroke-linejoin="round"/>
<path d="M13.3303 10.8301H6.66504" stroke="#0F172B" stroke-width="1.66631" stroke-linecap="round" stroke-linejoin="round"/>
<path d="M13.3303 14.1641H6.66504" stroke="#0F172B" stroke-width="1.66631" stroke-linecap="round" stroke-linejoin="round"/>
</svg>
