<svg width="20" height="20" viewBox="0 0 20 20" fill="none" xmlns="http://www.w3.org/2000/svg">
<path d="M1.92989 14.6659C1.97254 14.6656 1.97254 14.6656 2.01604 14.6653C2.11135 14.6647 2.20662 14.6652 2.30192 14.6658C2.37092 14.6656 2.43992 14.6653 2.50891 14.665C2.69856 14.6644 2.88819 14.6647 3.07783 14.6652C3.28233 14.6655 3.48683 14.665 3.69133 14.6646C4.09197 14.6639 4.4926 14.664 4.89323 14.6645C5.21878 14.6648 5.54433 14.6649 5.86989 14.6647C5.91619 14.6647 5.96249 14.6647 6.01019 14.6646C6.10425 14.6646 6.1983 14.6645 6.29235 14.6645C7.17469 14.664 8.05702 14.6645 8.93936 14.6654C9.69675 14.6661 10.4541 14.666 11.2115 14.6652C12.0907 14.6644 12.9698 14.6641 13.8489 14.6646C13.9427 14.6646 14.0364 14.6647 14.1301 14.6647C14.1992 14.6647 14.1992 14.6647 14.2698 14.6648C14.595 14.6649 14.9203 14.6647 15.2455 14.6643C15.6417 14.6639 16.038 14.664 16.4342 14.6648C16.6365 14.6652 16.8387 14.6654 17.041 14.6649C17.226 14.6644 17.411 14.6647 17.5961 14.6655C17.6631 14.6657 17.7301 14.6656 17.7972 14.6652C17.8882 14.6647 17.9791 14.6652 18.0701 14.6659C18.1206 14.666 18.1712 14.666 18.2233 14.666C18.428 14.6955 18.5468 14.7914 18.6852 14.9401C18.7795 15.1382 18.7723 15.3184 18.7707 15.5352C18.7709 15.5794 18.771 15.6236 18.7712 15.6692C18.7713 15.7624 18.771 15.8556 18.7704 15.9489C18.7695 16.0914 18.7703 16.2338 18.7713 16.3763C18.7712 16.467 18.771 16.5578 18.7707 16.6485C18.771 16.691 18.7714 16.7335 18.7717 16.7772C18.7688 17.0098 18.7593 17.1639 18.5937 17.3419C18.4145 17.4838 18.2975 17.5177 18.0701 17.5178C18.0274 17.5181 18.0274 17.5181 17.9839 17.5185C17.8886 17.519 17.7933 17.5185 17.698 17.5179C17.629 17.5181 17.56 17.5184 17.4911 17.5187C17.3014 17.5193 17.1118 17.519 16.9221 17.5185C16.7176 17.5182 16.5131 17.5187 16.3086 17.5192C15.908 17.5199 15.5074 17.5197 15.1067 17.5192C14.7812 17.5189 14.4556 17.5188 14.1301 17.519C14.0838 17.519 14.0375 17.5191 13.9898 17.5191C13.8957 17.5191 13.8017 17.5192 13.7076 17.5192C12.8253 17.5197 11.9429 17.5192 11.0606 17.5183C10.3032 17.5176 9.54583 17.5178 8.78843 17.5185C7.9093 17.5193 7.03016 17.5196 6.15102 17.5192C6.05731 17.5191 5.9636 17.5191 5.86989 17.519C5.80072 17.519 5.80072 17.519 5.73016 17.5189C5.40493 17.5188 5.0797 17.519 4.75447 17.5194C4.35822 17.5198 3.96198 17.5197 3.56573 17.5189C3.36349 17.5185 3.16126 17.5183 2.95901 17.5188C2.77396 17.5193 2.58893 17.519 2.40388 17.5182C2.33685 17.518 2.26982 17.5181 2.20279 17.5185C2.11181 17.519 2.02088 17.5185 1.92989 17.5178C1.87932 17.5177 1.82875 17.5177 1.77665 17.5177C1.57201 17.4882 1.45317 17.3923 1.31476 17.2436C1.22047 17.0455 1.22762 16.8653 1.22923 16.6485C1.22908 16.6043 1.22893 16.5601 1.22878 16.5146C1.22867 16.4213 1.22896 16.3281 1.22961 16.2348C1.23045 16.0923 1.22962 15.9499 1.22862 15.8074C1.22872 15.7167 1.22892 15.626 1.22923 15.5352C1.22891 15.4927 1.2286 15.4502 1.22827 15.4065C1.23114 15.1739 1.24062 15.0198 1.40623 14.8419C1.58546 14.6999 1.70245 14.6661 1.92989 14.6659Z" fill="#0F172B"/>
<path d="M14.3555 5.91696C14.4066 5.91681 14.4578 5.91666 14.5104 5.9165C14.6184 5.91627 14.7264 5.9166 14.8343 5.91734C14.9722 5.91823 15.1101 5.91771 15.248 5.91678C15.3802 5.91608 15.5124 5.91657 15.6446 5.91696C15.7185 5.91648 15.7185 5.91648 15.794 5.916C16.2282 5.92063 16.2282 5.92063 16.4063 6.09396C16.5543 6.27763 16.5849 6.42034 16.5813 6.65014C16.5815 6.68193 16.5816 6.71371 16.5817 6.74646C16.582 6.85263 16.5811 6.95876 16.5803 7.06493C16.5802 7.14117 16.5802 7.2174 16.5803 7.29363C16.5804 7.50039 16.5795 7.70714 16.5784 7.91389C16.5774 8.13004 16.5773 8.34618 16.5771 8.56233C16.5766 8.97155 16.5753 9.38075 16.5738 9.78997C16.572 10.2559 16.5712 10.7218 16.5704 11.1877C16.5688 12.146 16.5659 13.1044 16.5625 14.0627C15.5313 14.0627 14.5 14.0627 13.4375 14.0627C13.434 13.0583 13.4311 12.0539 13.4294 11.0495C13.4286 10.5832 13.4275 10.1168 13.4257 9.6505C13.4242 9.24406 13.4232 8.83763 13.4228 8.43119C13.4226 8.21595 13.4221 8.00072 13.421 7.78549C13.4199 7.58292 13.4196 7.38036 13.4199 7.17779C13.4198 7.10343 13.4195 7.02908 13.4189 6.95472C13.4181 6.85318 13.4183 6.75169 13.4187 6.65014C13.4183 6.62073 13.4178 6.59132 13.4174 6.56102C13.4196 6.36059 13.4688 6.249 13.5938 6.09396C13.8114 5.88221 14.0701 5.91513 14.3555 5.91696Z" fill="#0F172B"/>
<path d="M15.8594 2.7706C16.1726 3.09093 16.2693 3.386 16.2666 3.8278C16.2587 4.05426 16.2138 4.2209 16.0938 4.41122C16.0801 4.43549 16.0664 4.45976 16.0523 4.48477C15.8852 4.75272 15.6136 4.91675 15.3125 4.99716C15.2087 5.00641 15.111 5.01202 15.0073 5.01181C14.9661 5.01184 14.9661 5.01184 14.9241 5.01187C14.6947 5.00704 14.5319 4.95306 14.336 4.84091C14.2973 4.82802 14.2586 4.81513 14.2188 4.80185C14.1272 4.86551 14.0447 4.93011 13.96 5.00204C13.907 5.04575 13.854 5.08939 13.801 5.13296C13.7596 5.16712 13.7596 5.16712 13.7173 5.20197C13.5809 5.31273 13.4409 5.41852 13.3008 5.5245C13.0621 5.70584 12.8267 5.89075 12.5932 6.07877C12.3988 6.23505 12.2018 6.38746 12.0035 6.53875C11.9097 6.61064 11.8169 6.68378 11.7246 6.75756C11.6996 6.77748 11.6746 6.79739 11.6488 6.8179C11.6003 6.85664 11.5519 6.89552 11.5036 6.93458C11.3368 7.06747 11.3368 7.06747 11.25 7.06747C11.2518 7.10569 11.2536 7.14391 11.2555 7.18328C11.2678 7.62845 11.2046 7.91542 10.8956 8.24759C10.5919 8.52969 10.2737 8.61028 9.86482 8.60296C9.4817 8.56956 9.20882 8.3782 8.96348 8.09103C8.83008 7.91524 8.74708 7.74935 8.75398 7.52356C8.70411 7.35715 8.68173 7.34624 8.5367 7.26446C8.46018 7.22628 8.38313 7.18916 8.30568 7.15292C8.22276 7.112 8.13985 7.07105 8.05696 7.03009C8.01548 7.01001 7.974 6.98994 7.93127 6.96926C7.76598 6.88848 7.60371 6.80249 7.44142 6.71591C7.38188 6.68448 7.32232 6.6531 7.26274 6.62176C7.23221 6.60569 7.20167 6.58962 7.17021 6.57307C6.97676 6.47145 6.78308 6.37026 6.58937 6.26913C6.55135 6.24927 6.51334 6.2294 6.47417 6.20893C6.29601 6.11599 6.11767 6.02368 5.93751 5.93466C5.91858 5.95022 5.89965 5.96578 5.88014 5.98181C5.50949 6.27476 5.20241 6.33053 4.72658 6.28622C4.35305 6.20199 4.0855 5.96184 3.86751 5.65618C3.7 5.34519 3.70119 4.94708 3.7755 4.60714C3.91765 4.21424 4.16644 4.00668 4.53645 3.83032C4.88065 3.6948 5.21008 3.72597 5.54689 3.86435C5.87552 4.03422 6.10185 4.27879 6.23262 4.62774C6.25001 4.72372 6.25001 4.72372 6.23811 4.85998C6.22667 5.03242 6.22849 5.14688 6.28908 5.30966C6.47845 5.47716 6.73181 5.56097 6.96308 5.65495C7.12555 5.72363 7.27917 5.80666 7.4341 5.89071C7.49464 5.92282 7.55522 5.95486 7.61583 5.98684C7.64709 6.0034 7.67836 6.01995 7.71057 6.03701C7.90545 6.14005 8.10064 6.24251 8.29591 6.34481C8.33425 6.365 8.37258 6.38519 8.41208 6.40598C8.44817 6.42487 8.48426 6.44376 8.52144 6.46322C8.55333 6.47996 8.58522 6.49671 8.61808 6.51396C8.71253 6.56043 8.80807 6.59998 8.90626 6.63778C8.92238 6.61749 8.93849 6.5972 8.95509 6.57629C9.19819 6.28273 9.46509 6.07849 9.85536 6.03872C10.3341 6.03331 10.6055 6.15517 10.9766 6.44247C11.0158 6.41034 11.055 6.37822 11.0954 6.34512C11.4065 6.09097 11.7201 5.84139 12.0394 5.59769C12.1764 5.49264 12.3125 5.38643 12.4487 5.28036C12.4929 5.246 12.4929 5.246 12.538 5.21095C12.6935 5.08994 12.8489 4.96878 13.0042 4.84747C13.0511 4.81086 13.0511 4.81086 13.099 4.7735C13.1585 4.72709 13.2179 4.68063 13.2773 4.63411C13.445 4.50332 13.6151 4.37738 13.7891 4.25497C13.7829 4.22894 13.7767 4.2029 13.7703 4.17608C13.6958 3.74836 13.7175 3.33843 13.9551 2.96789C14.173 2.68256 14.4939 2.51083 14.8468 2.46298C15.2275 2.44669 15.5626 2.52597 15.8594 2.7706Z" fill="#0F172B"/>
<path d="M4.31086 10.7431C4.76787 10.9115 5.32227 10.8482 5.7635 10.6607C6.05063 10.5533 6.36594 10.631 6.64057 10.7421C7.15212 10.9816 7.52671 11.3243 7.75096 11.8489C7.84513 12.1263 7.8967 12.3838 7.89988 12.6769C7.9002 12.7048 7.90051 12.7326 7.90084 12.7613C7.90137 12.82 7.90179 12.8787 7.9021 12.9374C7.90255 12.9973 7.90336 13.0572 7.90451 13.117C7.90617 13.2039 7.90681 13.2907 7.90721 13.3776C7.90789 13.4041 7.90857 13.4307 7.90928 13.4581C7.90843 13.644 7.86532 13.7365 7.73432 13.8671C7.63173 13.9184 7.55544 13.9114 7.4405 13.9119C7.37174 13.9123 7.37174 13.9123 7.30159 13.9127C7.25104 13.9128 7.2005 13.9129 7.14841 13.913C7.09484 13.9133 7.04127 13.9135 6.98769 13.9138C6.84193 13.9145 6.69617 13.9149 6.55041 13.9152C6.45936 13.9154 6.36832 13.9157 6.27727 13.9159C5.99247 13.9167 5.70767 13.9172 5.42287 13.9175C5.094 13.9179 4.76514 13.919 4.43627 13.9205C4.18215 13.9217 3.92804 13.9223 3.67392 13.9224C3.52211 13.9225 3.37031 13.9229 3.2185 13.9238C3.07566 13.9248 2.93284 13.9249 2.78999 13.9245C2.71264 13.9245 2.63529 13.9252 2.55794 13.926C2.51176 13.9257 2.46559 13.9255 2.41802 13.9252C2.37798 13.9253 2.33793 13.9254 2.29667 13.9255C2.15833 13.901 2.09272 13.8459 1.99214 13.7499C1.90458 13.5748 1.94419 13.3356 1.94369 13.1409C1.94331 13.0533 1.94211 12.9658 1.94087 12.8783C1.93586 12.2034 2.09939 11.6298 2.57807 11.1327C3.09163 10.7057 3.66843 10.4748 4.31086 10.7431Z" fill="#0F172B"/>
<path d="M9.3555 9.66696C9.40663 9.66681 9.45777 9.66666 9.51045 9.6665C9.61842 9.66627 9.72636 9.6666 9.83432 9.66734C9.97224 9.66823 10.1101 9.66771 10.248 9.66678C10.3802 9.66608 10.5124 9.66657 10.6446 9.66696C10.7185 9.66648 10.7185 9.66648 10.794 9.666C11.2282 9.67063 11.2282 9.67063 11.4063 9.84396C11.5806 10.0509 11.5843 10.2124 11.5803 10.4707C11.5803 10.5096 11.5803 10.5485 11.5803 10.5886C11.5802 10.7167 11.579 10.8447 11.5778 10.9728C11.5775 11.0618 11.5773 11.1508 11.5771 11.2398C11.5765 11.4737 11.575 11.7075 11.5733 11.9414C11.5714 12.2222 11.5707 12.503 11.5698 12.7839C11.5682 13.2102 11.5652 13.6364 11.5625 14.0627C10.5313 14.0627 9.50003 14.0627 8.43753 14.0627C8.43126 13.0777 8.43126 13.0777 8.4299 12.6578C8.42897 12.3713 8.42786 12.0848 8.42574 11.7983C8.42405 11.5673 8.42311 11.3364 8.42271 11.1054C8.42242 11.0172 8.42185 10.9291 8.42101 10.841C8.41988 10.7176 8.41972 10.5941 8.41979 10.4707C8.41923 10.4343 8.41867 10.3979 8.41809 10.3603C8.41948 10.1419 8.44782 10.0172 8.59378 9.84396C8.81136 9.63221 9.07012 9.66513 9.3555 9.66696Z" fill="#0F172B"/>
<path d="M5.79178 7.20067C5.87106 7.25721 5.94321 7.31705 6.01563 7.3821C6.03969 7.40259 6.06376 7.42308 6.08856 7.4442C6.37996 7.70996 6.541 8.07661 6.57562 8.46791C6.58085 8.99707 6.46162 9.4129 6.09375 9.81023C5.71222 10.1747 5.30378 10.2863 4.78775 10.281C4.349 10.255 3.95223 10.0422 3.65341 9.72234C3.54751 9.5899 3.46979 9.44958 3.39844 9.29616C3.3859 9.27023 3.37336 9.24429 3.36044 9.21758C3.19979 8.82529 3.23841 8.34136 3.38821 7.95293C3.46404 7.79587 3.55562 7.66776 3.67188 7.53835C3.70262 7.50224 3.70262 7.50224 3.73398 7.46541C4.24227 6.90808 5.15402 6.81977 5.79178 7.20067Z" fill="#0F172B"/>
</svg>
