<svg width="18" height="18" viewBox="0 0 18 18" fill="none" xmlns="http://www.w3.org/2000/svg">
<path d="M13.5 14.1462C13.8551 14.1462 14.1429 14.434 14.1429 14.7891C14.1429 15.1441 13.8551 15.4319 13.5 15.4319H4.50003C4.14499 15.4319 3.85718 15.1441 3.85718 14.7891C3.85718 14.434 4.14499 14.1462 4.50003 14.1462H13.5ZM9.00003 1.28906C9.35507 1.28906 9.64289 1.57688 9.64289 1.93192V10.6651L13.0455 7.26307C13.2965 7.01201 13.7036 7.01201 13.9546 7.26307C14.2057 7.51412 14.2057 7.92115 13.9546 8.1722L9.4546 12.6722C9.20355 12.9233 8.79652 12.9233 8.54547 12.6722L4.04547 8.1722C3.79442 7.92115 3.79442 7.51412 4.04547 7.26307C4.29652 7.01201 4.70355 7.01201 4.9546 7.26307L8.35718 10.6651V1.93192C8.35718 1.57688 8.64499 1.28906 9.00003 1.28906Z" fill="#2B7FFF"/>
</svg>
