<svg width="24" height="24" viewBox="0 0 24 24" fill="none" xmlns="http://www.w3.org/2000/svg">
<path d="M11.9931 2.99805H4.99696C4.46681 2.99805 3.95838 3.20865 3.58351 3.58351C3.20865 3.95838 2.99805 4.46681 2.99805 4.99696V18.9893C2.99805 19.5195 3.20865 20.0279 3.58351 20.4028C3.95838 20.7777 4.46681 20.9883 4.99696 20.9883H18.9893C19.5195 20.9883 20.0279 20.7777 20.4028 20.4028C20.7777 20.0279 20.9883 19.5195 20.9883 18.9893V11.9931" stroke="#8200DB" stroke-width="1.99891" stroke-linecap="round" stroke-linejoin="round"/>
<path d="M18.3646 2.62294C18.7622 2.22533 19.3014 2.00195 19.8637 2.00195C20.426 2.00195 20.9653 2.22533 21.3629 2.62294C21.7605 3.02054 21.9839 3.55982 21.9839 4.12212C21.9839 4.68442 21.7605 5.22369 21.3629 5.6213L12.3548 14.6304C12.1175 14.8675 11.8243 15.0411 11.5023 15.1351L8.63086 15.9747C8.54486 15.9997 8.4537 16.0013 8.36692 15.979C8.28013 15.9568 8.20092 15.9116 8.13758 15.8483C8.07423 15.7849 8.02908 15.7057 8.00685 15.6189C7.98461 15.5322 7.98612 15.441 8.0112 15.355L8.85074 12.4836C8.94522 12.1618 9.11913 11.869 9.35647 11.632L18.3646 2.62294Z" stroke="#8200DB" stroke-width="1.99891" stroke-linecap="round" stroke-linejoin="round"/>
</svg>
