<svg width="20" height="20" viewBox="0 0 20 20" fill="none" xmlns="http://www.w3.org/2000/svg">
<g clip-path="url(#clip0_45410_73281)">
<path d="M11.6639 14.9962V4.99834C11.6639 4.55641 11.4883 4.13258 11.1758 3.82008C10.8633 3.50759 10.4395 3.33203 9.99756 3.33203H3.33232C2.89039 3.33203 2.46656 3.50759 2.15407 3.82008C1.84157 4.13258 1.66602 4.55641 1.66602 4.99834V14.163C1.66602 14.384 1.75379 14.5959 1.91004 14.7522C2.06629 14.9084 2.2782 14.9962 2.49917 14.9962H4.16548" stroke="#FF6B00" stroke-width="1.66631" stroke-linecap="round" stroke-linejoin="round"/>
<path d="M12.4975 14.9961H7.49854" stroke="#FF6B00" stroke-width="1.66631" stroke-linecap="round" stroke-linejoin="round"/>
<path d="M15.8298 14.9976H17.4961C17.7171 14.9976 17.929 14.9098 18.0853 14.7535C18.2415 14.5973 18.3293 14.3854 18.3293 14.1644V11.1234C18.329 10.9343 18.2643 10.751 18.146 10.6035L15.2466 6.97928C15.1687 6.8817 15.0698 6.80289 14.9574 6.74866C14.8449 6.69444 14.7216 6.66619 14.5968 6.66602H11.6641" stroke="#FF6B00" stroke-width="1.66631" stroke-linecap="round" stroke-linejoin="round"/>
<path d="M14.1634 16.6627C15.0837 16.6627 15.8297 15.9167 15.8297 14.9964C15.8297 14.0761 15.0837 13.3301 14.1634 13.3301C13.2431 13.3301 12.4971 14.0761 12.4971 14.9964C12.4971 15.9167 13.2431 16.6627 14.1634 16.6627Z" stroke="#FF6B00" stroke-width="1.66631" stroke-linecap="round" stroke-linejoin="round"/>
<path d="M5.83232 16.6627C6.7526 16.6627 7.49863 15.9167 7.49863 14.9964C7.49863 14.0761 6.7526 13.3301 5.83232 13.3301C4.91205 13.3301 4.16602 14.0761 4.16602 14.9964C4.16602 15.9167 4.91205 16.6627 5.83232 16.6627Z" stroke="#FF6B00" stroke-width="1.66631" stroke-linecap="round" stroke-linejoin="round"/>
</g>
<defs>
<clipPath id="clip0_45410_73281">
<rect width="19.9957" height="19.9957" fill="white"/>
</clipPath>
</defs>
</svg>
