<svg width="20" height="20" viewBox="0 0 20 20" fill="none" xmlns="http://www.w3.org/2000/svg">
<g clip-path="url(#clip0_45410_67045)">
<path d="M5.83203 8.33203V18.3299" stroke="#0F172B" stroke-width="1.66631" stroke-linecap="round" stroke-linejoin="round"/>
<path d="M12.497 4.90061L11.6639 8.3332H16.5212C16.7798 8.3332 17.035 8.39343 17.2664 8.50912C17.4977 8.62481 17.699 8.79278 17.8542 8.99973C18.0094 9.20668 18.1143 9.44692 18.1606 9.70143C18.2069 9.95595 18.1932 10.2177 18.1208 10.4661L16.1796 17.1313C16.0786 17.4774 15.8681 17.7815 15.5797 17.9978C15.2913 18.2141 14.9404 18.3311 14.5799 18.3311H3.33232C2.89039 18.3311 2.46656 18.1555 2.15407 17.843C1.84157 17.5305 1.66602 17.1067 1.66602 16.6647V9.99951C1.66602 9.55758 1.84157 9.13375 2.15407 8.82125C2.46656 8.50876 2.89039 8.3332 3.33232 8.3332H5.63183C5.94183 8.33304 6.24564 8.2464 6.5091 8.08302C6.77256 7.91965 6.98523 7.68602 7.12318 7.4084L9.99756 1.66797C10.3905 1.67283 10.7772 1.76642 11.1288 1.94174C11.4805 2.11706 11.7879 2.36957 12.0283 2.68042C12.2686 2.99127 12.4356 3.35241 12.5168 3.73686C12.598 4.12131 12.5912 4.51914 12.497 4.90061Z" stroke="#0F172B" stroke-width="1.66631" stroke-linecap="round" stroke-linejoin="round"/>
</g>
<defs>
<clipPath id="clip0_45410_67045">
<rect width="19.9957" height="19.9957" fill="white"/>
</clipPath>
</defs>
</svg>
