<svg width="24" height="24" viewBox="0 0 24 24" fill="none" xmlns="http://www.w3.org/2000/svg">
<path d="M16.6255 4.28261C14.5856 5.09864 12.401 5.62966 10.1203 5.82645C9.46292 5.88317 8.79745 5.91213 8.12503 5.91213H7.3864C4.53083 5.91213 2.21594 8.22702 2.21594 11.0826C2.21594 13.6428 4.07676 15.7684 6.5197 16.1807C6.84891 17.529 7.30569 18.8272 7.8765 20.0618C8.33353 21.0504 9.5253 21.3619 10.42 20.8453L11.0664 20.4721C11.9331 19.9717 12.2144 18.9036 11.8268 18.0414C11.5955 17.527 11.389 16.9989 11.209 16.4589C13.0974 16.713 14.9125 17.1973 16.6254 17.8826C17.3401 15.7461 17.7273 13.4595 17.7273 11.0826C17.7273 8.70562 17.3401 6.41909 16.6255 4.28261Z" fill="white"/>
<path d="M17.984 3.68706C18.7753 6.00707 19.2046 8.49468 19.2046 11.0826C19.2046 13.6705 18.7753 16.1581 17.984 18.4781C17.9296 18.6374 17.8738 18.796 17.8161 18.9537C17.6758 19.3368 17.8727 19.761 18.2558 19.9012C18.6389 20.0414 19.0631 19.8446 19.2033 19.4615C19.3412 19.0848 19.4701 18.7037 19.5897 18.3185C20.1054 16.6574 20.4482 14.9204 20.5971 13.1289C21.1063 12.5986 21.4205 11.877 21.4205 11.0826C21.4205 10.2882 21.1063 9.56662 20.5971 9.03632C20.4482 7.2448 20.1054 5.50781 19.5897 3.84662C19.4701 3.46147 19.3412 3.0804 19.2033 2.70369C19.0631 2.32061 18.6389 2.12374 18.2558 2.26396C17.8727 2.40419 17.6758 2.82841 17.8161 3.21149C17.8738 3.36918 17.9296 3.52777 17.984 3.68706Z" fill="white"/>
</svg>
