<svg width="18" height="18" viewBox="0 0 18 18" fill="none" xmlns="http://www.w3.org/2000/svg">
<path d="M5.25 3.75C5.25 2.505 6.255 1.5 7.5 1.5H10.5C11.745 1.5 12.75 2.505 12.75 3.75C12.75 4.1625 12.4125 4.5 12 4.5H6C5.5875 4.5 5.25 4.1625 5.25 3.75Z" fill="#2B7FFF"/>
<path d="M13.3125 11.25C13.3125 11.5575 13.0575 11.8125 12.75 11.8125H12V14.25C12 15.495 10.995 16.5 9.75 16.5H8.25C7.005 16.5 6 15.495 6 14.25V11.8125H5.25C4.9425 11.8125 4.6875 11.5575 4.6875 11.25C4.6875 10.9425 4.9425 10.6875 5.25 10.6875H12.75C13.0575 10.6875 13.3125 10.9425 13.3125 11.25Z" fill="#2B7FFF"/>
<path d="M13.5 5.25H4.5C3 5.25 2.25 6 2.25 7.5V11.25C2.25 12.75 3 13.5 4.5 13.5H4.78125C5.04013 13.5 5.25 13.2901 5.25 13.0312C5.25 12.7724 5.03348 12.5703 4.79131 12.4788C4.29464 12.2911 3.9375 11.809 3.9375 11.25C3.9375 10.53 4.53 9.9375 5.25 9.9375H12.75C13.47 9.9375 14.0625 10.53 14.0625 11.25C14.0625 11.809 13.7054 12.2911 13.2087 12.4788C12.9665 12.5703 12.75 12.7724 12.75 13.0312C12.75 13.2901 12.9599 13.5 13.2188 13.5H13.5C15 13.5 15.75 12.75 15.75 11.25V7.5C15.75 6 15 5.25 13.5 5.25ZM7.5 8.8125H5.25C4.9425 8.8125 4.6875 8.5575 4.6875 8.25C4.6875 7.9425 4.9425 7.6875 5.25 7.6875H7.5C7.8075 7.6875 8.0625 7.9425 8.0625 8.25C8.0625 8.5575 7.8075 8.8125 7.5 8.8125Z" fill="#2B7FFF"/>
</svg>
