<svg width="30" height="30" viewBox="0 0 30 30" fill="none" xmlns="http://www.w3.org/2000/svg">
<path d="M11.2494 2.5C7.97439 2.5 5.31189 5.1625 5.31189 8.4375C5.31189 11.65 7.82439 14.25 11.0994 14.3625C11.1994 14.35 11.2994 14.35 11.3744 14.3625C11.3994 14.3625 11.4119 14.3625 11.4369 14.3625C11.4494 14.3625 11.4494 14.3625 11.4619 14.3625C14.6619 14.25 17.1744 11.65 17.1869 8.4375C17.1869 5.1625 14.5244 2.5 11.2494 2.5Z" fill="#292D32"/>
<path d="M17.6 17.6891C14.1125 15.3641 8.42495 15.3641 4.91245 17.6891C3.32495 18.7516 2.44995 20.1891 2.44995 21.7266C2.44995 23.2641 3.32495 24.6891 4.89995 25.7391C6.64995 26.9141 8.94995 27.5016 11.25 27.5016C13.55 27.5016 15.85 26.9141 17.6 25.7391C19.175 24.6766 20.05 23.2516 20.05 21.7016C20.0375 20.1641 19.175 18.7391 17.6 17.6891Z" fill="#292D32"/>
<path d="M24.9867 9.17464C25.1867 11.5996 23.4617 13.7246 21.0742 14.0121C21.0617 14.0121 21.0617 14.0121 21.0492 14.0121H21.0117C20.9367 14.0121 20.8617 14.0121 20.7992 14.0371C19.5867 14.0996 18.4742 13.7121 17.6367 12.9996C18.9242 11.8496 19.6617 10.1246 19.5117 8.24964C19.4242 7.23714 19.0742 6.31214 18.5492 5.52464C19.0242 5.28714 19.5742 5.13714 20.1367 5.08714C22.5867 4.87464 24.7742 6.69964 24.9867 9.17464Z" fill="#292D32"/>
<path d="M27.4884 20.738C27.3884 21.9505 26.6134 23.0005 25.3134 23.713C24.0634 24.4005 22.4884 24.7255 20.9259 24.688C21.8259 23.8755 22.3509 22.863 22.4509 21.788C22.5759 20.238 21.8384 18.7505 20.3634 17.563C19.5259 16.9005 18.5509 16.3755 17.4884 15.988C20.2509 15.188 23.7259 15.7255 25.8634 17.4505C27.0134 18.3755 27.6009 19.538 27.4884 20.738Z" fill="#292D32"/>
</svg>
