<svg width="24" height="24" viewBox="0 0 24 24" fill="none" xmlns="http://www.w3.org/2000/svg">
<path d="M19.9893 12.9925C19.9893 17.9898 16.4912 20.4884 12.3335 21.9376C12.1158 22.0114 11.8793 22.0079 11.6639 21.9276C7.49614 20.4884 3.99805 17.9898 3.99805 12.9925V5.99632C3.99805 5.73125 4.10335 5.47703 4.29078 5.2896C4.47822 5.10216 4.73243 4.99686 4.9975 4.99686C6.99641 4.99686 9.49505 3.79752 11.2341 2.27834C11.4458 2.09744 11.7152 1.99805 11.9937 1.99805C12.2722 1.99805 12.5415 2.09744 12.7533 2.27834C14.5023 3.80751 16.991 4.99686 18.9899 4.99686C19.255 4.99686 19.5092 5.10216 19.6966 5.2896C19.884 5.47703 19.9893 5.73125 19.9893 5.99632V12.9925Z" stroke="#C10007" stroke-width="1.99891" stroke-linecap="round" stroke-linejoin="round"/>
</svg>
