<svg width="12" height="12" viewBox="0 0 12 12" fill="none" xmlns="http://www.w3.org/2000/svg">
<g clip-path="url(#clip0_45410_63007)">
<path d="M4.99731 5.49609V8.49446" stroke="#FB2C36" stroke-width="0.999456" stroke-linecap="round" stroke-linejoin="round"/>
<path d="M6.99609 5.49609V8.49446" stroke="#FB2C36" stroke-width="0.999456" stroke-linecap="round" stroke-linejoin="round"/>
<path d="M9.49473 2.99805V9.99424C9.49473 10.2593 9.38943 10.5135 9.20199 10.701C9.01456 10.8884 8.76034 10.9937 8.49527 10.9937H3.49799C3.23292 10.9937 2.9787 10.8884 2.79127 10.701C2.60383 10.5135 2.49854 10.2593 2.49854 9.99424V2.99805" stroke="#FB2C36" stroke-width="0.999456" stroke-linecap="round" stroke-linejoin="round"/>
<path d="M1.49927 2.99805H10.4944" stroke="#FB2C36" stroke-width="0.999456" stroke-linecap="round" stroke-linejoin="round"/>
<path d="M3.9978 2.99891V1.99946C3.9978 1.73438 4.1031 1.48017 4.29054 1.29273C4.47797 1.1053 4.73219 1 4.99726 1H6.99617C7.26124 1 7.51546 1.1053 7.70289 1.29273C7.89033 1.48017 7.99563 1.73438 7.99563 1.99946V2.99891" stroke="#FB2C36" stroke-width="0.999456" stroke-linecap="round" stroke-linejoin="round"/>
</g>
<defs>
<clipPath id="clip0_45410_63007">
<rect width="11.9935" height="11.9935" fill="white"/>
</clipPath>
</defs>
</svg>
