<svg width="24" height="24" viewBox="0 0 24 24" fill="none" xmlns="http://www.w3.org/2000/svg">
<path d="M15.9914 20.9889V18.99C15.9914 17.9297 15.5702 16.9129 14.8205 16.1631C14.0707 15.4134 13.0539 14.9922 11.9936 14.9922H5.99685C4.93656 14.9922 3.9197 15.4134 3.16996 16.1631C2.42022 16.9129 1.99902 17.9297 1.99902 18.99V20.9889" stroke="#1447E6" stroke-width="1.99891" stroke-linecap="round" stroke-linejoin="round"/>
<path d="M8.99489 10.9937C11.2028 10.9937 12.9927 9.20381 12.9927 6.99587C12.9927 4.78793 11.2028 2.99805 8.99489 2.99805C6.78696 2.99805 4.99707 4.78793 4.99707 6.99587C4.99707 9.20381 6.78696 10.9937 8.99489 10.9937Z" stroke="#1447E6" stroke-width="1.99891" stroke-linecap="round" stroke-linejoin="round"/>
<path d="M18.9893 7.99609V13.9928" stroke="#1447E6" stroke-width="1.99891" stroke-linecap="round" stroke-linejoin="round"/>
<path d="M21.9879 10.9941H15.9912" stroke="#1447E6" stroke-width="1.99891" stroke-linecap="round" stroke-linejoin="round"/>
</svg>
