<svg width="20" height="20" viewBox="0 0 20 20" fill="none" xmlns="http://www.w3.org/2000/svg">
<g clip-path="url(#clip0_45410_63615)">
<path d="M1.71809 10.288C1.64866 10.101 1.64866 9.89519 1.71809 9.70813C2.39436 8.06836 3.5423 6.66632 5.01636 5.67975C6.49042 4.69317 8.22423 4.1665 9.99798 4.1665C11.7717 4.1665 13.5055 4.69317 14.9796 5.67975C16.4537 6.66632 17.6016 8.06836 18.2779 9.70813C18.3473 9.89519 18.3473 10.101 18.2779 10.288C17.6016 11.9278 16.4537 13.3298 14.9796 14.3164C13.5055 15.303 11.7717 15.8296 9.99798 15.8296C8.22423 15.8296 6.49042 15.303 5.01636 14.3164C3.5423 13.3298 2.39436 11.9278 1.71809 10.288Z" stroke="#4A5565" stroke-width="1.66631" stroke-linecap="round" stroke-linejoin="round"/>
<path d="M9.99751 12.4975C11.3779 12.4975 12.497 11.3784 12.497 9.998C12.497 8.61758 11.3779 7.49854 9.99751 7.49854C8.61709 7.49854 7.49805 8.61758 7.49805 9.998C7.49805 11.3784 8.61709 12.4975 9.99751 12.4975Z" stroke="#4A5565" stroke-width="1.66631" stroke-linecap="round" stroke-linejoin="round"/>
</g>
<defs>
<clipPath id="clip0_45410_63615">
<rect width="19.9957" height="19.9957" fill="white"/>
</clipPath>
</defs>
</svg>
