<svg width="20" height="20" viewBox="0 0 20 20" fill="none" xmlns="http://www.w3.org/2000/svg">
<path d="M8.55469 17.4961C8.70094 17.7494 8.91129 17.9597 9.16459 18.106C9.4179 18.2522 9.70523 18.3292 9.99771 18.3292C10.2902 18.3292 10.5775 18.2522 10.8308 18.106C11.0841 17.9597 11.2945 17.7494 11.4407 17.4961" stroke="#0F172B" stroke-width="1.66631" stroke-linecap="round" stroke-linejoin="round"/>
<path d="M2.71768 12.7686C2.60884 12.8879 2.53701 13.0363 2.51094 13.1956C2.48486 13.355 2.50566 13.5185 2.5708 13.6663C2.63594 13.814 2.74262 13.9397 2.87786 14.0279C3.01309 14.1162 3.17106 14.1632 3.33255 14.1633H16.663C16.8245 14.1634 16.9825 14.1165 17.1178 14.0284C17.2531 13.9404 17.3599 13.8149 17.4253 13.6672C17.4906 13.5195 17.5116 13.3561 17.4857 13.1967C17.4598 13.0373 17.3882 12.8889 17.2795 12.7695C16.1715 11.6272 14.9967 10.4133 14.9967 6.66494C14.9967 5.33914 14.47 4.06765 13.5326 3.13017C12.5951 2.19269 11.3236 1.66602 9.99778 1.66602C8.67198 1.66602 7.40049 2.19269 6.46301 3.13017C5.52553 4.06765 4.99885 5.33914 4.99885 6.66494C4.99885 10.4133 3.82327 11.6272 2.71768 12.7686Z" stroke="#0F172B" stroke-width="1.66631" stroke-linecap="round" stroke-linejoin="round"/>
</svg>
