<svg width="84" height="84" viewBox="0 0 84 84" fill="none" xmlns="http://www.w3.org/2000/svg">
<rect width="84" height="84" rx="16" fill="url(#paint0_linear_16824_237038)"/>
<path d="M42 17C28.225 17 17 28.225 17 42C17 55.775 28.225 67 42 67C55.775 67 67 55.775 67 42C67 28.225 55.775 17 42 17ZM50.4 47.75C51.125 48.475 51.125 49.675 50.4 50.4C50.025 50.775 49.55 50.95 49.075 50.95C48.6 50.95 48.125 50.775 47.75 50.4L42 44.65L36.25 50.4C35.875 50.775 35.4 50.95 34.925 50.95C34.45 50.95 33.975 50.775 33.6 50.4C32.875 49.675 32.875 48.475 33.6 47.75L39.35 42L33.6 36.25C32.875 35.525 32.875 34.325 33.6 33.6C34.325 32.875 35.525 32.875 36.25 33.6L42 39.35L47.75 33.6C48.475 32.875 49.675 32.875 50.4 33.6C51.125 34.325 51.125 35.525 50.4 36.25L44.65 42L50.4 47.75Z" fill="white"/>
<defs>
<linearGradient id="paint0_linear_16824_237038" x1="11.1666" y1="3" x2="76.1666" y2="84" gradientUnits="userSpaceOnUse">
<stop stop-color="#EE5E65"/>
<stop offset="1" stop-color="#720A0F"/>
</linearGradient>
</defs>
</svg>
