<svg width="24" height="24" viewBox="0 0 24 24" fill="none" xmlns="http://www.w3.org/2000/svg">
<g clip-path="url(#clip0_16824_239016)">
<path d="M5.172 3.12227C5.2216 3.12187 5.27121 3.12147 5.32231 3.12107C5.37652 3.12135 5.43073 3.12163 5.48658 3.12192C5.54439 3.12167 5.6022 3.12142 5.66176 3.12116C5.8221 3.1206 5.98241 3.12068 6.14275 3.12102C6.31572 3.12124 6.48868 3.12066 6.66164 3.12018C7.00044 3.11937 7.33924 3.11933 7.67804 3.11958C7.95339 3.11977 8.22874 3.1197 8.5041 3.11945C8.56286 3.1194 8.56286 3.1194 8.62281 3.11934C8.70239 3.11927 8.78198 3.1192 8.86156 3.11913C9.60803 3.11848 10.3545 3.11874 11.101 3.11928C11.784 3.11974 12.467 3.11914 13.15 3.11801C13.8512 3.11687 14.5525 3.11642 15.2537 3.11673C15.6474 3.1169 16.0411 3.11679 16.4349 3.11597C16.77 3.11528 17.1052 3.11525 17.4404 3.11607C17.6114 3.11647 17.7824 3.11657 17.9534 3.11585C18.1387 3.11508 18.3241 3.11577 18.5094 3.1166C18.5635 3.11615 18.6176 3.1157 18.6734 3.11523C18.955 3.11784 19.1452 3.12544 19.3604 3.32759C19.5115 3.5137 19.5215 3.68557 19.5204 3.91716C19.5208 3.95254 19.5212 3.98792 19.5216 4.02438C19.5227 4.14273 19.5228 4.26106 19.5229 4.37942C19.5235 4.46436 19.5241 4.5493 19.5248 4.63423C19.5264 4.86483 19.5271 5.09543 19.5276 5.32603C19.5279 5.47013 19.5284 5.61422 19.5289 5.75832C19.5308 6.2611 19.5318 6.76387 19.5322 7.26665C19.5326 7.73521 19.5349 8.20374 19.5381 8.6723C19.5407 9.07469 19.5419 9.47708 19.542 9.87948C19.5421 10.1198 19.5428 10.36 19.5449 10.6003C19.5469 10.8263 19.5471 11.0523 19.546 11.2783C19.5458 11.3612 19.5464 11.444 19.5476 11.5269C19.5562 12.1527 19.5562 12.1527 19.4194 12.3538C19.3253 12.4376 19.2352 12.4999 19.126 12.562C19.0797 12.5988 19.0334 12.6356 18.9857 12.6735C18.9411 12.7073 18.8965 12.741 18.8506 12.7758C18.7977 12.8162 18.7447 12.8565 18.6918 12.8969C18.6637 12.9183 18.6356 12.9397 18.6066 12.9618C18.4401 13.0893 18.2748 13.2183 18.1094 13.3471C18.0737 13.3749 18.038 13.4027 18.0013 13.4313C17.9282 13.4881 17.8552 13.545 17.7821 13.6019C17.6051 13.7397 17.428 13.8774 17.251 14.0151C17.1807 14.0698 17.1104 14.1245 17.04 14.1792C16.6182 14.5073 16.6182 14.5073 16.5126 14.5894C16.4426 14.6438 16.3726 14.6983 16.3026 14.7528C16.1222 14.8931 15.9418 15.0333 15.7612 15.1734C15.7242 15.2022 15.6872 15.2309 15.649 15.2606C15.5793 15.3147 15.5096 15.3688 15.4399 15.4228C15.4077 15.4478 15.3755 15.4728 15.3423 15.4986C15.3107 15.5221 15.2791 15.5456 15.2466 15.5698C15.1401 15.6516 15.1401 15.6516 15.0615 15.7512C14.8268 16.0022 14.622 16.0545 14.2877 16.0758C14.0177 16.0847 13.7481 16.0852 13.4779 16.0838C13.3601 16.0843 13.2423 16.0849 13.1245 16.0856C12.8781 16.0866 12.6317 16.0862 12.3853 16.0848C12.1018 16.0832 11.8184 16.0847 11.5349 16.0877C11.2605 16.0905 10.9862 16.0907 10.7118 16.0898C10.5958 16.0897 10.4799 16.0904 10.3639 16.0917C9.31763 16.1023 9.31763 16.1023 8.98454 15.802C8.91024 15.7235 8.83734 15.6437 8.76661 15.562C8.70324 15.5105 8.63875 15.4604 8.57233 15.4129C8.54392 15.3919 8.51551 15.371 8.48624 15.3494C8.45791 15.3286 8.42958 15.3079 8.4004 15.2866C8.11788 15.0773 7.84158 14.8618 7.56791 14.6411C7.36195 14.4752 7.15383 14.3127 6.94379 14.152C6.61809 13.9027 6.29485 13.6503 5.97125 13.3983C5.85934 13.3112 5.74735 13.2242 5.63532 13.1373C4.60357 12.3364 4.60357 12.3364 4.50098 12.2338C4.49599 12.1224 4.49406 12.0123 4.49409 11.9009C4.49391 11.8656 4.49374 11.8304 4.49356 11.7941C4.49304 11.675 4.49287 11.556 4.49269 11.4369C4.49239 11.3519 4.49208 11.267 4.49175 11.182C4.49094 10.9504 4.49044 10.7188 4.49006 10.4872C4.48982 10.3427 4.48953 10.1981 4.48924 10.0535C4.48834 9.6013 4.48767 9.14914 4.48728 8.69697C4.48683 8.17458 4.48559 7.65221 4.4837 7.12982C4.48229 6.72639 4.48159 6.32297 4.48144 5.91954C4.48133 5.67845 4.4809 5.43736 4.47973 5.19627C4.47864 4.96938 4.47844 4.74251 4.47892 4.51562C4.47894 4.43237 4.47864 4.34911 4.478 4.26585C4.47717 4.15211 4.4775 4.03843 4.47812 3.92469C4.47761 3.8918 4.47709 3.85891 4.47656 3.82502C4.47962 3.59135 4.53859 3.45832 4.68848 3.28072C4.8549 3.16221 4.96853 3.12249 5.172 3.12227ZM8.43848 6.28072C8.40634 6.3099 8.37419 6.33909 8.34107 6.36916C7.43795 7.21717 6.93733 8.53826 6.87989 9.75917C6.84596 11.0633 7.29211 12.2622 8.11036 13.2651C8.14544 13.3109 8.14544 13.3109 8.18122 13.3576C8.38701 13.6164 8.64667 13.814 8.90723 14.0151C8.94391 14.0437 8.98059 14.0723 9.01838 14.1017C9.57828 14.5162 10.2074 14.7733 10.876 14.9526C10.9166 14.9641 10.9573 14.9757 10.9992 14.9876C11.3743 15.0796 11.8968 15.1395 12.2625 15.0004C12.4098 14.8998 12.4972 14.7872 12.5635 14.6245C12.6004 14.3923 12.5984 14.175 12.4727 13.9711C12.242 13.6989 11.9083 13.6848 11.5732 13.646C10.5769 13.5234 9.67468 13.032 9.05372 12.2426C8.45399 11.3898 8.18998 10.414 8.32111 9.37831C8.50542 8.37347 8.98371 7.47681 9.82526 6.88015C10.142 6.66721 10.4655 6.49468 10.8291 6.37447C10.8712 6.3596 10.9132 6.34474 10.9565 6.32942C11.9548 6.03694 13.0387 6.21136 13.9384 6.696C14.1741 6.82944 14.3795 6.98869 14.5791 7.17134C14.6111 7.19902 14.643 7.22669 14.676 7.25521C15.2915 7.82132 15.6504 8.63364 15.7144 9.45998C15.7348 10.0979 15.5973 10.8824 15.1943 11.396C15.0135 11.5828 14.8271 11.659 14.5674 11.6889C14.4385 11.6713 14.4385 11.6713 14.3535 11.6069C14.2246 11.4305 14.2457 11.263 14.2479 11.0529C14.2482 10.9933 14.2482 10.9933 14.2486 10.9325C14.2491 10.8461 14.2496 10.7596 14.2503 10.6732C14.2514 10.5362 14.252 10.3993 14.2526 10.2623C14.2541 9.87286 14.2561 9.48341 14.259 9.09396C14.2608 8.85587 14.2619 8.61779 14.2625 8.3797C14.2629 8.28904 14.2635 8.19838 14.2644 8.10773C14.2657 7.98061 14.266 7.85352 14.2662 7.72639C14.2671 7.67053 14.2671 7.67053 14.268 7.61353C14.2668 7.30268 14.2023 7.08459 13.9873 6.84908C13.7911 6.72551 13.6385 6.68245 13.4072 6.70259C13.1537 6.78312 13.0179 6.93888 12.8916 7.17134C12.8916 7.20228 12.8916 7.23322 12.8916 7.26509C12.8566 7.2521 12.8215 7.23911 12.7854 7.22573C12.7162 7.20026 12.7162 7.20026 12.6455 7.17427C12.5998 7.15741 12.5542 7.14056 12.5071 7.12319C11.917 6.91797 11.305 7.01245 10.7504 7.27846C9.98756 7.70502 9.58857 8.34215 9.34083 9.1628C9.1395 9.99607 9.31537 10.9165 9.753 11.6428C10.1165 12.2034 10.5955 12.6176 11.2481 12.8169C11.9572 12.9494 12.585 12.7726 13.1729 12.3745C13.1979 12.4022 13.2229 12.4299 13.2487 12.4585C13.5822 12.8123 13.9217 13.0471 14.4154 13.0871C15.0898 13.0992 15.6695 12.8615 16.1578 12.3985C16.8811 11.6155 17.1544 10.3728 17.1165 9.33439C17.0437 8.14919 16.4213 6.97925 15.562 6.17269C13.4536 4.35708 10.4734 4.33351 8.43848 6.28072Z" fill="white"/>
<path d="M9.53285 17.4288C9.57706 17.4281 9.62128 17.4273 9.66683 17.4266C9.71575 17.426 9.76466 17.4254 9.81506 17.4248C9.8919 17.4237 9.8919 17.4237 9.97028 17.4225C10.4445 17.4159 10.9188 17.4122 11.393 17.4095C11.7433 17.4074 12.0934 17.4038 12.4436 17.3981C12.72 17.3938 12.9963 17.3921 13.2727 17.3913C13.3899 17.3906 13.5071 17.389 13.6242 17.3866C14.6858 17.3659 14.6858 17.3659 15.0174 17.6656C15.0914 17.7443 15.164 17.8244 15.2344 17.9063C15.2977 17.9578 15.3622 18.008 15.4286 18.0554C15.4571 18.0764 15.4855 18.0973 15.5147 18.119C15.5431 18.1397 15.5714 18.1604 15.6006 18.1817C15.8831 18.391 16.1594 18.6065 16.4331 18.8272C16.639 18.9931 16.8472 19.1556 17.0572 19.3163C17.2737 19.482 17.489 19.6491 17.7041 19.8165C17.7398 19.8443 17.7755 19.8721 17.8123 19.9007C17.8853 19.9576 17.9584 20.0144 18.0314 20.0713C18.2084 20.2091 18.3854 20.3468 18.5625 20.4845C18.6328 20.5392 18.7031 20.5938 18.7734 20.6485C18.8082 20.6756 18.843 20.7027 18.8789 20.7306C19.5469 21.2501 20.2148 21.7696 20.8828 22.2892C20.9176 22.3162 20.9525 22.3433 20.9883 22.3712C21.0585 22.4258 21.1286 22.4804 21.1988 22.5349C21.3769 22.6735 21.555 22.8119 21.7332 22.9504C21.9086 23.0866 22.0838 23.2231 22.2591 23.3596C22.3587 23.4371 22.4585 23.5144 22.5582 23.5918C22.6189 23.639 22.6796 23.6862 22.7402 23.7335C22.7823 23.766 22.7823 23.766 22.8252 23.7992C22.8896 23.8494 22.9527 23.9012 23.0156 23.9532C23.0156 23.9687 23.0156 23.9842 23.0156 24.0001C15.7453 24.0001 8.475 24.0001 0.984375 24.0001C1.24819 23.7363 1.24819 23.7363 1.37402 23.6363C1.41574 23.603 1.41574 23.603 1.45831 23.569C1.48754 23.5459 1.51676 23.5229 1.54688 23.4991C1.57788 23.4745 1.60889 23.4499 1.64084 23.4245C1.88129 23.234 2.12394 23.0465 2.36755 22.8601C2.55864 22.7137 2.74856 22.5659 2.93848 22.4181C2.97418 22.3903 3.00988 22.3625 3.04666 22.3339C3.11969 22.277 3.19273 22.2201 3.26575 22.1633C3.44274 22.0255 3.61981 21.8878 3.79688 21.7501C3.86719 21.6954 3.9375 21.6407 4.00781 21.586C7.80469 18.6329 7.80469 18.6329 7.91035 18.5507C7.98002 18.4965 8.04968 18.4424 8.11934 18.3882C8.30497 18.2438 8.49066 18.0994 8.67645 17.9552C8.7154 17.925 8.75434 17.8948 8.79446 17.8636C8.86964 17.8052 8.94483 17.7469 9.02005 17.6885C9.05362 17.6625 9.08718 17.6364 9.12177 17.6095C9.1515 17.5865 9.18123 17.5634 9.21186 17.5396C9.33594 17.441 9.36694 17.4312 9.53285 17.4288Z" fill="white"/>
<path d="M0.046875 10.5C0.196321 10.5897 0.324586 10.6692 0.459045 10.7748C0.492007 10.8006 0.524969 10.8264 0.558929 10.8529C0.593946 10.8805 0.628962 10.9081 0.665039 10.9365C0.740903 10.9959 0.81677 11.0553 0.892639 11.1147C0.931273 11.145 0.969907 11.1753 1.00971 11.2065C1.18837 11.3465 1.36763 11.4857 1.54688 11.625C1.61719 11.6797 1.6875 11.7344 1.75781 11.7891C1.81002 11.8297 1.81002 11.8297 1.86328 11.8711C6.39844 15.3984 6.39844 15.3984 6.50407 15.4806C6.57384 15.5349 6.64362 15.5891 6.7134 15.6434C6.89739 15.7865 7.08135 15.9296 7.26526 16.0728C7.30357 16.1026 7.34188 16.1325 7.38135 16.1632C7.45472 16.2203 7.52809 16.2774 7.60144 16.3346C7.63455 16.3603 7.66767 16.3861 7.70178 16.4127C7.74528 16.4465 7.74528 16.4465 7.78965 16.4811C7.87999 16.5507 7.97111 16.6193 8.0625 16.6875C8.00103 16.8719 7.91645 16.9146 7.76074 17.0303C7.70481 17.0723 7.6489 17.1143 7.59302 17.1564C7.56284 17.179 7.53265 17.2016 7.50156 17.2249C7.33257 17.3525 7.16593 17.483 6.99902 17.6133C6.92658 17.6697 6.85413 17.7261 6.78168 17.7825C6.7454 17.8107 6.70912 17.839 6.67175 17.8681C6.49476 18.0059 6.31769 18.1436 6.14062 18.2812C6.07031 18.3359 6 18.3906 5.92969 18.4453C4.66406 19.4297 3.39844 20.4141 2.13281 21.3984C2.09799 21.4255 2.06316 21.4526 2.02728 21.4805C1.9572 21.535 1.88711 21.5895 1.81702 21.644C1.63762 21.7835 1.45832 21.9231 1.27917 22.0629C0.117978 22.9688 0.117978 22.9688 0.046875 22.9688C0.046875 18.8541 0.046875 14.7394 0.046875 10.5Z" fill="white"/>
<path d="M23.9531 10.5C23.9531 14.6147 23.9531 18.7294 23.9531 22.9688C23.8037 22.8791 23.6754 22.7995 23.541 22.6939C23.508 22.6681 23.475 22.6424 23.4411 22.6158C23.4061 22.5882 23.371 22.5606 23.335 22.5322C23.2591 22.4728 23.1832 22.4134 23.1074 22.3541C23.0687 22.3238 23.0301 22.2934 22.9903 22.2622C22.8116 22.1222 22.6324 21.983 22.4531 21.8438C22.3828 21.7891 22.3125 21.7344 22.2422 21.6797C22.2074 21.6526 22.1726 21.6255 22.1367 21.5977C17.6016 18.0703 17.6016 18.0703 17.4959 17.9882C17.4262 17.9339 17.3564 17.8796 17.2866 17.8254C17.1026 17.6823 16.9187 17.5391 16.7347 17.3959C16.6964 17.3661 16.6581 17.3363 16.6187 17.3056C16.5453 17.2485 16.4719 17.1913 16.3986 17.1342C16.3654 17.1084 16.3323 17.0826 16.2982 17.0561C16.2692 17.0335 16.2402 17.0109 16.2104 16.9877C16.12 16.918 16.0289 16.8495 15.9375 16.7812C15.999 16.5968 16.0835 16.5541 16.2393 16.4385C16.2952 16.3965 16.3511 16.3544 16.407 16.3123C16.4372 16.2897 16.4673 16.2671 16.4984 16.2438C16.6674 16.1163 16.8341 15.9857 17.001 15.8555C17.0734 15.7991 17.1459 15.7427 17.2183 15.6863C17.2546 15.658 17.2909 15.6298 17.3283 15.6007C17.5052 15.4629 17.6823 15.3252 17.8594 15.1875C17.9297 15.1328 18 15.0781 18.0703 15.0234C19.3359 14.0391 20.6016 13.0547 21.8672 12.0703C21.9194 12.0297 21.9194 12.0297 21.9727 11.9882C22.0428 11.9337 22.1129 11.8792 22.183 11.8247C22.3624 11.6852 22.5417 11.5456 22.7208 11.4058C23.882 10.5 23.882 10.5 23.9531 10.5Z" fill="white"/>
<path d="M12.2444 8.46089C12.5152 8.61738 12.6796 8.8636 12.7893 9.15229C12.9284 9.68947 12.9296 10.3849 12.6545 10.875C12.4895 11.1404 12.3039 11.3825 11.9983 11.4843C11.6926 11.5211 11.4525 11.4783 11.2014 11.2968C10.8389 10.9757 10.6598 10.5481 10.6294 10.0687C10.6219 9.50997 10.7034 9.11999 11.0725 8.6894C11.4176 8.39138 11.8086 8.2746 12.2444 8.46089Z" fill="white"/>
<path d="M20.9062 7.26562C21.2225 7.47647 21.2225 7.47647 21.3371 7.57635C21.3627 7.59848 21.3882 7.62061 21.4146 7.64341C21.4412 7.66666 21.4677 7.68991 21.4951 7.71387C21.5531 7.76405 21.6111 7.81423 21.6691 7.86438C21.7127 7.90224 21.7127 7.90224 21.7573 7.94087C21.8899 8.0555 22.0234 8.169 22.1572 8.28223C22.1822 8.30336 22.2072 8.32449 22.2329 8.34627C22.4379 8.51935 22.6455 8.68924 22.8536 8.85864C23.0034 8.98157 23.1504 9.10744 23.2969 9.23438C23.1461 9.44464 22.9737 9.58021 22.7666 9.72949C22.5064 9.9207 22.2502 10.1154 21.999 10.3184C21.7727 10.5006 21.5459 10.682 21.3164 10.8604C21.2435 10.9172 21.2435 10.9172 21.1692 10.9752C21.0469 11.0625 21.0469 11.0625 20.9062 11.1094C20.9062 9.84094 20.9062 8.5725 20.9062 7.26562Z" fill="white"/>
<path d="M3.09375 7.26562C3.09375 8.53406 3.09375 9.8025 3.09375 11.1094C2.9529 11.0389 2.85355 10.9809 2.73303 10.886C2.69989 10.86 2.66675 10.8341 2.6326 10.8074C2.59722 10.7794 2.56184 10.7515 2.52539 10.7227C2.44959 10.6632 2.37378 10.6038 2.29797 10.5443C2.23967 10.4985 2.23967 10.4985 2.18019 10.4517C2.02903 10.3331 1.87725 10.2153 1.7254 10.0976C1.61948 10.0155 1.51376 9.93302 1.40808 9.85052C1.29314 9.76081 1.17777 9.67174 1.06165 9.58356C0.997293 9.53398 0.997293 9.53398 0.931641 9.4834C0.895748 9.45615 0.859856 9.4289 0.822876 9.40082C0.786802 9.36483 0.786802 9.36483 0.75 9.32812C0.75 9.28172 0.75 9.23531 0.75 9.1875C0.844452 9.09574 0.938372 9.01278 1.04004 8.92969C1.06967 8.90492 1.09929 8.88016 1.12982 8.85465C1.1915 8.80311 1.25331 8.75173 1.31525 8.70051C1.42571 8.60886 1.53497 8.51586 1.64418 8.42274C1.8949 8.2092 2.1483 7.99911 2.40381 7.79132C2.49494 7.71708 2.58575 7.64254 2.67627 7.56757C2.72316 7.52883 2.77005 7.4901 2.81836 7.4502C2.86102 7.41485 2.90368 7.3795 2.94763 7.34308C3.04688 7.26562 3.04688 7.26562 3.09375 7.26562Z" fill="white"/>
<path d="M12.2812 0.000338001C12.4311 0.0679196 12.5367 0.170174 12.6562 0.281588C12.7269 0.341065 12.7975 0.40052 12.8684 0.459635C13.0017 0.571107 13.1335 0.684328 13.2656 0.797213C13.37 0.886206 13.4745 0.975063 13.5791 1.06381C13.6041 1.08509 13.6292 1.10636 13.655 1.12828C13.8539 1.29662 14.057 1.45919 14.2626 1.61936C14.2894 1.64196 14.3162 1.66455 14.3438 1.68784C14.3438 1.70331 14.3438 1.71878 14.3438 1.73471C12.7969 1.73471 11.25 1.73471 9.65625 1.73471C9.92028 1.47068 9.92028 1.47068 10.0492 1.35898C10.0917 1.32211 10.0917 1.32211 10.135 1.2845C10.1794 1.24632 10.1794 1.24632 10.2246 1.20737C10.2556 1.18059 10.2866 1.1538 10.3186 1.12621C10.5785 0.902528 10.8429 0.68482 11.1094 0.469088C11.2467 0.355862 11.384 0.242619 11.5212 0.129244C11.7504 -0.0518415 11.9992 -0.0354128 12.2812 0.000338001Z" fill="white"/>
</g>
<defs>
<clipPath id="clip0_16824_239016">
<rect width="24" height="24" fill="white"/>
</clipPath>
</defs>
</svg>
