<svg width="24" height="24" viewBox="0 0 24 24" fill="none" xmlns="http://www.w3.org/2000/svg">
<path d="M14.6279 9.50253C14.683 9.50209 14.738 9.50164 14.7948 9.50118C14.8831 9.50124 14.8831 9.50124 14.9732 9.50131C15.0344 9.50111 15.0955 9.50091 15.1585 9.5007C15.2877 9.50035 15.4168 9.50036 15.546 9.50061C15.7106 9.50088 15.8752 9.50009 16.0399 9.499C16.198 9.49814 16.3561 9.49832 16.5143 9.49838C16.6023 9.49773 16.6023 9.49773 16.6921 9.49707C17.3518 9.50055 17.3518 9.50055 17.6021 9.71745C17.8217 9.95948 17.8712 10.2126 17.87 10.5302C17.87 10.5911 17.87 10.6521 17.87 10.7149C17.8695 10.7808 17.869 10.8466 17.8685 10.9125C17.8683 10.9804 17.8682 11.0483 17.8681 11.1162C17.8677 11.2942 17.8668 11.4722 17.8658 11.6503C17.8648 11.8322 17.8644 12.0141 17.8639 12.1961C17.8629 12.5525 17.8613 12.909 17.8594 13.2654C18.0604 13.2499 18.2615 13.2345 18.4687 13.2185C18.4842 12.8937 18.4997 12.5688 18.5156 12.2342C18.4383 12.2342 18.3609 12.2342 18.2812 12.2342C18.1974 12.1823 18.1974 12.1823 18.1406 12.0935C18.1224 11.9593 18.1224 11.9593 18.1219 11.7976C18.1217 11.7395 18.1216 11.6814 18.1214 11.6215C18.1219 11.5607 18.1225 11.4999 18.123 11.4373C18.1225 11.3765 18.1219 11.3157 18.1214 11.2531C18.1216 11.1949 18.1217 11.1368 18.1219 11.0769C18.1221 11.0236 18.1222 10.9702 18.1224 10.9152C18.1406 10.781 18.1406 10.781 18.2042 10.6928C18.3101 10.6208 18.3905 10.6303 18.5156 10.6404C18.5096 10.6024 18.5036 10.5644 18.4975 10.5252C18.4752 10.2772 18.4646 10.0765 18.6222 9.87411C18.6665 9.82566 18.712 9.77832 18.7588 9.7322C18.7814 9.70962 18.8039 9.68703 18.8272 9.66376C18.94 9.56216 19.0057 9.51519 19.1596 9.51651C19.2656 9.56228 19.2656 9.56228 19.3594 9.70291C19.3437 9.87222 19.3077 9.89458 19.1719 10.0135C19.0015 10.1716 18.9947 10.3229 18.9847 10.5478C18.9846 10.5783 18.9845 10.6089 18.9844 10.6404C19.0201 10.6375 19.0559 10.6346 19.0928 10.6316C19.2187 10.6404 19.2187 10.6404 19.2957 10.6928C19.388 10.8208 19.3776 10.9203 19.378 11.0769C19.3782 11.1351 19.3784 11.1932 19.3786 11.2531C19.378 11.3139 19.3775 11.3747 19.3769 11.4373C19.3775 11.4981 19.378 11.5589 19.3786 11.6215C19.3784 11.6796 19.3782 11.7377 19.378 11.7976C19.3779 11.851 19.3777 11.9043 19.3775 11.9593C19.3594 12.0935 19.3594 12.0935 19.2957 12.1818C19.1898 12.2538 19.1094 12.2443 18.9844 12.2342C18.9858 12.2738 18.9858 12.2738 18.9873 12.3143C18.9913 12.436 18.9937 12.5577 18.9961 12.6795C18.9976 12.721 18.9992 12.7626 19.0008 12.8054C19.005 13.0882 18.9694 13.3154 18.7969 13.5467C18.5206 13.7637 18.1994 13.7697 17.8594 13.781C17.8332 13.8666 17.8332 13.8666 17.8066 13.9539C17.7246 14.1715 17.6306 14.2617 17.4375 14.3904C17.2433 14.4672 17.0803 14.4961 16.8721 14.497C16.817 14.4975 16.7619 14.4979 16.7052 14.4984C16.6463 14.4983 16.5874 14.4983 16.5267 14.4983C16.4656 14.4985 16.4044 14.4987 16.3414 14.4989C16.2123 14.4992 16.0831 14.4992 15.954 14.499C15.7893 14.4987 15.6247 14.4995 15.4601 14.5006C15.3019 14.5014 15.1438 14.5012 14.9857 14.5012C14.927 14.5016 14.8683 14.502 14.8078 14.5025C14.1482 14.499 14.1482 14.499 13.8978 14.2821C13.6661 14.0266 13.6289 13.7619 13.6277 13.428C13.6275 13.3938 13.6272 13.3597 13.627 13.3244C13.6264 13.2121 13.6264 13.0998 13.6265 12.9875C13.6263 12.9089 13.6261 12.8303 13.6259 12.7517C13.6255 12.5873 13.6256 12.4228 13.6258 12.2584C13.6261 12.0483 13.6253 11.8383 13.6242 11.6282C13.6235 11.466 13.6235 11.3038 13.6236 11.1416C13.6236 11.0642 13.6233 10.9867 13.6229 10.9093C13.6223 10.8008 13.6226 10.6922 13.6231 10.5837C13.6231 10.5221 13.6231 10.4605 13.6231 10.397C13.6491 10.1321 13.7092 9.89056 13.9131 9.70877C14.1458 9.55364 14.3501 9.50378 14.6279 9.50253ZM14.1094 10.2185C14.0861 10.3451 14.0772 10.4423 14.079 10.5684C14.0786 10.6029 14.0782 10.6373 14.0778 10.6727C14.0768 10.786 14.0774 10.8992 14.0782 11.0125C14.0781 11.0915 14.0778 11.1704 14.0775 11.2494C14.0772 11.4147 14.0777 11.5801 14.0788 11.7454C14.0801 11.9571 14.0794 12.1687 14.078 12.3804C14.0771 12.5435 14.0774 12.7065 14.078 12.8695C14.0781 12.9476 14.078 13.0256 14.0774 13.1037C14.0768 13.2128 14.0777 13.3219 14.079 13.4311C14.0786 13.4632 14.0781 13.4953 14.0776 13.5284C14.0814 13.6997 14.108 13.7793 14.2109 13.9182C14.3644 14.0305 14.4366 14.045 14.6248 14.0457C14.6803 14.0465 14.7359 14.0472 14.7931 14.048C14.8527 14.0475 14.9122 14.047 14.9736 14.0465C15.0659 14.0469 15.0659 14.0469 15.1601 14.0472C15.2901 14.0476 15.4201 14.0471 15.5502 14.046C15.7165 14.0446 15.8827 14.0454 16.049 14.0468C16.2081 14.0479 16.3672 14.0471 16.5263 14.0465C16.6157 14.0472 16.6157 14.0472 16.7069 14.048C16.7624 14.0472 16.8179 14.0465 16.8752 14.0457C16.9239 14.0455 16.9726 14.0454 17.0228 14.0452C17.2095 14.0035 17.2775 13.9338 17.3906 13.781C17.4139 13.6545 17.4228 13.5573 17.4209 13.4311C17.4215 13.3795 17.4215 13.3795 17.4222 13.3269C17.4232 13.2136 17.4225 13.1004 17.4217 12.9871C17.4219 12.9081 17.4221 12.8291 17.4224 12.7502C17.4228 12.5848 17.4223 12.4195 17.4212 12.2542C17.4198 12.0425 17.4206 11.8308 17.422 11.6191C17.4228 11.4561 17.4226 11.2931 17.422 11.13C17.4218 11.052 17.422 10.974 17.4225 10.8959C17.4231 10.7867 17.4222 10.6776 17.4209 10.5684C17.4214 10.5363 17.4219 10.5042 17.4224 10.4712C17.4186 10.2999 17.3919 10.2203 17.2891 10.0814C17.1355 9.96902 17.0634 9.95455 16.8752 9.95383C16.7919 9.95272 16.7919 9.95272 16.7069 9.95159C16.6473 9.95207 16.5877 9.95254 16.5263 9.95303C16.4648 9.95281 16.4033 9.95258 16.3399 9.95235C16.2098 9.95201 16.0798 9.9525 15.9498 9.9536C15.7835 9.95494 15.6173 9.95417 15.4509 9.95276C15.2918 9.95171 15.1327 9.95245 14.9736 9.95303C14.8842 9.95232 14.8842 9.95232 14.7931 9.95159C14.7375 9.95233 14.682 9.95307 14.6248 9.95383C14.5761 9.95402 14.5273 9.9542 14.4771 9.9544C14.2905 9.99604 14.2224 10.0658 14.1094 10.2185ZM18.6094 11.1092C18.6094 11.3257 18.6094 11.5423 18.6094 11.7654C18.7022 11.7654 18.795 11.7654 18.8906 11.7654C18.8906 11.5488 18.8906 11.3323 18.8906 11.1092C18.7978 11.1092 18.705 11.1092 18.6094 11.1092Z" fill="currentColor"/>
<path d="M5.0893 1.99759C5.13642 1.99726 5.13642 1.99726 5.18449 1.99692C5.28997 1.99636 5.39542 1.99681 5.50091 1.99725C5.57644 1.99706 5.65197 1.99681 5.7275 1.9965C5.93282 1.99586 6.13812 1.99611 6.34344 1.99655C6.55809 1.99691 6.77273 1.99658 6.98737 1.99636C7.34786 1.9961 7.70834 1.99644 8.06882 1.99711C8.48588 1.99788 8.90293 1.99763 9.31999 1.99685C9.67775 1.99622 10.0355 1.99613 10.3933 1.99649C10.6071 1.99671 10.8209 1.99674 11.0347 1.99628C11.2357 1.99587 11.4367 1.99615 11.6377 1.99697C11.7116 1.99715 11.7854 1.9971 11.8593 1.99679C11.9599 1.99641 12.0605 1.99688 12.1612 1.99759C12.2176 1.99764 12.2739 1.99769 12.332 1.99775C12.469 2.01544 12.469 2.01544 12.5574 2.07831C12.6407 2.20238 12.6275 2.31478 12.6278 2.4624C12.6282 2.50873 12.6282 2.50873 12.6286 2.55599C12.6292 2.65805 12.6288 2.76007 12.6283 2.86212C12.6284 2.93305 12.6285 3.00398 12.6287 3.0749C12.6289 3.22354 12.6286 3.37216 12.6279 3.5208C12.6271 3.71138 12.6276 3.90193 12.6284 4.09251C12.629 4.23897 12.6288 4.38542 12.6284 4.53187C12.6283 4.60214 12.6284 4.67242 12.6288 4.74269C12.6291 4.84089 12.6286 4.93904 12.6278 5.03723C12.6277 5.09312 12.6276 5.14901 12.6275 5.20659C12.6096 5.34357 12.6096 5.34357 12.5574 5.42133C12.4261 5.51466 12.3211 5.5019 12.1612 5.50205C12.1298 5.50227 12.0983 5.50249 12.066 5.50272C11.9605 5.50328 11.855 5.50283 11.7496 5.50239C11.674 5.50258 11.5985 5.50283 11.523 5.50314C11.3177 5.50378 11.1123 5.50353 10.907 5.50308C10.6924 5.50273 10.4777 5.50306 10.2631 5.50328C9.90262 5.50353 9.54213 5.5032 9.18165 5.50253C8.76459 5.50176 8.34754 5.50201 7.93048 5.50278C7.57272 5.50342 7.21495 5.50351 6.85719 5.50314C6.64337 5.50293 6.42956 5.5029 6.21575 5.50336C6.01475 5.50377 5.81377 5.50349 5.61278 5.50267C5.53891 5.50249 5.46505 5.50254 5.39118 5.50285C5.29054 5.50323 5.18994 5.50275 5.0893 5.50205C5.03292 5.502 4.97654 5.50195 4.91845 5.50189C4.78149 5.48419 4.78149 5.48419 4.69305 5.42133C4.60978 5.29726 4.62296 5.18486 4.62266 5.03723C4.62242 5.00635 4.62217 4.97547 4.62192 4.94365C4.6213 4.84159 4.62171 4.73957 4.62218 4.63751C4.62209 4.56659 4.62195 4.49566 4.62178 4.42473C4.62157 4.2761 4.62187 4.12747 4.62253 3.97884C4.62333 3.78826 4.62287 3.59771 4.62202 3.40713C4.62152 3.26067 4.62168 3.11422 4.62204 2.96777C4.62214 2.89749 4.62202 2.82722 4.62169 2.75695C4.62134 2.65875 4.62188 2.5606 4.62266 2.4624C4.62278 2.40652 4.62289 2.35063 4.623 2.29304C4.64086 2.15607 4.64086 2.15607 4.69305 2.07831C4.82433 1.98498 4.92933 1.99774 5.0893 1.99759ZM5.10961 2.48419C5.10961 3.31951 5.10961 4.15482 5.10961 5.01544C7.42992 5.01544 9.75024 5.01544 12.1409 5.01544C12.1409 4.18013 12.1409 3.34482 12.1409 2.48419C9.82055 2.48419 7.50024 2.48419 5.10961 2.48419Z" fill="currentColor"/>
<path d="M5.81082 6.12259C5.86919 6.12219 5.92755 6.12179 5.98768 6.12139C6.05247 6.12166 6.11727 6.12195 6.18206 6.12225C6.2502 6.12206 6.31834 6.12181 6.38648 6.1215C6.57166 6.12086 6.75682 6.12111 6.942 6.12155C7.13562 6.12191 7.32924 6.12158 7.52286 6.12136C7.84804 6.1211 8.17321 6.12144 8.49839 6.12211C8.87455 6.12288 9.2507 6.12263 9.62686 6.12185C9.94959 6.12122 10.2723 6.12113 10.5951 6.12149C10.7879 6.12171 10.9808 6.12174 11.1736 6.12128C11.3549 6.12087 11.5362 6.12115 11.7175 6.12197C11.7841 6.12215 11.8507 6.1221 11.9173 6.12179C12.0081 6.12141 12.0989 6.12197 12.1896 6.12259C12.2405 6.12264 12.2913 6.12269 12.3437 6.12275C12.469 6.14044 12.469 6.14044 12.5556 6.20331C12.6415 6.32695 12.6275 6.4388 12.6278 6.5874C12.6282 6.63373 12.6282 6.63373 12.6286 6.68099C12.6292 6.78305 12.6288 6.88507 12.6283 6.98712C12.6284 7.05805 12.6285 7.12898 12.6287 7.1999C12.6289 7.34854 12.6286 7.49717 12.6279 7.6458C12.6271 7.83638 12.6276 8.02693 12.6284 8.21751C12.629 8.36397 12.6288 8.51042 12.6284 8.65687C12.6283 8.72714 12.6284 8.79742 12.6288 8.86769C12.6291 8.96589 12.6286 9.06404 12.6278 9.16223C12.6277 9.21812 12.6276 9.27401 12.6275 9.33159C12.6096 9.46857 12.6096 9.46857 12.5556 9.54633C12.432 9.636 12.3416 9.62689 12.1896 9.62705C12.1313 9.62745 12.0729 9.62784 12.0128 9.62825C11.948 9.62798 11.8832 9.62769 11.8184 9.62739C11.7503 9.62758 11.6821 9.62783 11.614 9.62814C11.4288 9.62878 11.2436 9.62853 11.0585 9.62808C10.8649 9.62773 10.6712 9.62806 10.4776 9.62828C10.1524 9.62853 9.82726 9.6282 9.50208 9.62753C9.12592 9.62676 8.74977 9.62701 8.37361 9.62778C8.05088 9.62842 7.72815 9.62851 7.40541 9.62814C7.21256 9.62793 7.01971 9.6279 6.82685 9.62836C6.64556 9.62877 6.46427 9.62849 6.28298 9.62767C6.21637 9.62749 6.14976 9.62754 6.08315 9.62785C5.99237 9.62823 5.9016 9.62767 5.81082 9.62705C5.75998 9.627 5.70913 9.62695 5.65674 9.62689C5.53149 9.60919 5.53149 9.60919 5.44483 9.54633C5.35902 9.42269 5.37296 9.31084 5.37266 9.16223C5.37242 9.13135 5.37217 9.10047 5.37192 9.06865C5.3713 8.96659 5.37171 8.86457 5.37218 8.76251C5.37209 8.69159 5.37195 8.62066 5.37178 8.54973C5.37157 8.4011 5.37187 8.25247 5.37253 8.10384C5.37333 7.91326 5.37287 7.72271 5.37202 7.53213C5.37152 7.38567 5.37168 7.23922 5.37204 7.09277C5.37214 7.02249 5.37202 6.95222 5.37169 6.88195C5.37134 6.78375 5.37188 6.6856 5.37266 6.5874C5.37278 6.53152 5.37289 6.47563 5.373 6.41804C5.39086 6.28107 5.39086 6.28107 5.44483 6.20331C5.56843 6.11364 5.65892 6.12275 5.81082 6.12259ZM5.85961 6.60919C5.85961 7.44451 5.85961 8.27982 5.85961 9.14044C7.93242 9.14044 10.0052 9.14044 12.1409 9.14044C12.1409 8.30513 12.1409 7.46982 12.1409 6.60919C10.068 6.60919 7.99524 6.60919 5.85961 6.60919Z" fill="currentColor"/>
<path d="M6.53235 10.2476C6.61043 10.247 6.61043 10.247 6.69009 10.2464C6.77578 10.2468 6.77578 10.2468 6.86321 10.2472C6.92336 10.247 6.9835 10.2467 7.04547 10.2465C7.2105 10.2458 7.37552 10.2461 7.54055 10.2465C7.71315 10.2469 7.88575 10.2466 8.05835 10.2463C8.34822 10.2461 8.63809 10.2464 8.92795 10.2471C9.26322 10.2479 9.59847 10.2476 9.93373 10.2468C10.2214 10.2462 10.5091 10.2461 10.7968 10.2465C10.9687 10.2467 11.1406 10.2467 11.3125 10.2463C11.5041 10.2458 11.6957 10.2464 11.8873 10.2472C11.9444 10.2469 12.0015 10.2467 12.0604 10.2464C12.1385 10.247 12.1385 10.247 12.2181 10.2476C12.2861 10.2476 12.2861 10.2476 12.3554 10.2477C12.469 10.2654 12.469 10.2654 12.5539 10.3283C12.6422 10.4515 12.6275 10.5628 12.6278 10.7124C12.6282 10.7587 12.6282 10.7587 12.6286 10.806C12.6292 10.908 12.6288 11.01 12.6283 11.1121C12.6284 11.183 12.6285 11.254 12.6287 11.3249C12.6289 11.4735 12.6286 11.6221 12.6279 11.7708C12.6271 11.9614 12.6276 12.1519 12.6284 12.3425C12.629 12.4889 12.6288 12.6354 12.6284 12.7819C12.6283 12.8521 12.6284 12.9224 12.6288 12.9927C12.6291 13.0909 12.6286 13.189 12.6278 13.2872C12.6277 13.3431 12.6276 13.399 12.6275 13.4566C12.6096 13.5936 12.6096 13.5936 12.5539 13.6713C12.438 13.7571 12.3616 13.7519 12.2181 13.752C12.1661 13.7524 12.114 13.7528 12.0604 13.7532C12.0033 13.7529 11.9461 13.7527 11.8873 13.7524C11.8271 13.7526 11.767 13.7529 11.705 13.7531C11.54 13.7538 11.375 13.7535 11.2099 13.7531C11.0373 13.7527 10.8647 13.753 10.6921 13.7533C10.4022 13.7535 10.1124 13.7532 9.82252 13.7525C9.48725 13.7517 9.15201 13.752 8.81674 13.7528C8.52904 13.7534 8.24134 13.7535 7.95364 13.7531C7.78174 13.7529 7.60985 13.7529 7.43796 13.7533C7.24637 13.7538 7.0548 13.7532 6.86321 13.7524C6.77751 13.7528 6.77751 13.7528 6.69009 13.7532C6.63803 13.7528 6.58598 13.7524 6.53235 13.752C6.48703 13.752 6.44172 13.7519 6.39503 13.7519C6.28149 13.7342 6.28149 13.7342 6.19661 13.6713C6.10827 13.5481 6.12296 13.4368 6.12266 13.2872C6.12242 13.2563 6.12217 13.2254 6.12192 13.1936C6.1213 13.0916 6.12171 12.9896 6.12218 12.8875C6.12209 12.8166 6.12195 12.7456 6.12178 12.6747C6.12157 12.5261 6.12187 12.3775 6.12253 12.2288C6.12333 12.0382 6.12287 11.8477 6.12202 11.6571C6.12152 11.5107 6.12168 11.3642 6.12204 11.2177C6.12214 11.1475 6.12202 11.0772 6.12169 11.0069C6.12134 10.9087 6.12188 10.8106 6.12266 10.7124C6.12278 10.6565 6.12289 10.6006 6.123 10.543C6.14086 10.4061 6.14086 10.4061 6.19661 10.3283C6.31246 10.2425 6.38883 10.2477 6.53235 10.2476ZM6.60961 10.7342C6.60961 11.5695 6.60961 12.4048 6.60961 13.2654C8.43492 13.2654 10.2602 13.2654 12.1409 13.2654C12.1409 12.4301 12.1409 11.5948 12.1409 10.7342C10.3155 10.7342 8.49024 10.7342 6.60961 10.7342Z" fill="currentColor"/>
<path d="M7.25388 14.3725C7.32249 14.3719 7.32249 14.3719 7.39249 14.3713C7.44261 14.3716 7.49273 14.3719 7.54436 14.3722C7.59719 14.3719 7.65002 14.3717 7.70445 14.3714C7.87955 14.3708 8.05463 14.3712 8.22973 14.3717C8.3511 14.3716 8.47247 14.3715 8.59384 14.3713C8.84841 14.3711 9.10296 14.3714 9.35752 14.372C9.65188 14.3728 9.94623 14.3726 10.2406 14.3718C10.5237 14.3711 10.8068 14.3711 11.0899 14.3716C11.2104 14.3716 11.3309 14.3715 11.4514 14.3712C11.6197 14.3708 11.7879 14.3714 11.9561 14.3722C12.0313 14.3717 12.0313 14.3717 12.108 14.3713C12.1537 14.3717 12.1995 14.3721 12.2466 14.3725C12.2864 14.3726 12.3262 14.3726 12.3672 14.3727C12.4928 14.3945 12.5344 14.4293 12.6096 14.531C12.6275 14.668 12.6275 14.668 12.6278 14.8373C12.6281 14.8682 12.6283 14.8991 12.6286 14.9309C12.6292 15.033 12.6288 15.135 12.6283 15.2371C12.6284 15.308 12.6285 15.3789 12.6287 15.4498C12.6289 15.5985 12.6286 15.7471 12.6279 15.8957C12.6271 16.0863 12.6276 16.2769 12.6284 16.4674C12.629 16.6139 12.6288 16.7603 12.6284 16.9068C12.6283 16.9771 12.6284 17.0473 12.6288 17.1176C12.6291 17.2158 12.6286 17.314 12.6278 17.4122C12.6277 17.4681 12.6276 17.5239 12.6275 17.5815C12.6096 17.7185 12.6096 17.7185 12.5521 17.7963C12.4441 17.878 12.3813 17.8768 12.2466 17.877C12.2009 17.8774 12.1551 17.8778 12.108 17.8782C12.0328 17.8778 12.0328 17.8778 11.9561 17.8773C11.8769 17.8777 11.8769 17.8777 11.796 17.8781C11.6209 17.8787 11.4458 17.8783 11.2707 17.8778C11.1494 17.8779 11.028 17.878 10.9066 17.8782C10.6521 17.8784 10.3975 17.8781 10.143 17.8775C9.84859 17.8767 9.55424 17.8769 9.25987 17.8777C8.97678 17.8784 8.69369 17.8784 8.41059 17.8779C8.29008 17.8778 8.16957 17.878 8.04906 17.8783C7.88082 17.8786 7.7126 17.8781 7.54436 17.8773C7.49425 17.8776 7.44413 17.8779 7.39249 17.8782C7.32388 17.8776 7.32388 17.8776 7.25388 17.877C7.21409 17.8769 7.17431 17.8769 7.13332 17.8768C7.00765 17.855 6.96607 17.8201 6.89086 17.7185C6.873 17.5815 6.873 17.5815 6.87266 17.4122C6.87242 17.3813 6.87217 17.3504 6.87192 17.3186C6.8713 17.2165 6.87171 17.1145 6.87218 17.0124C6.87209 16.9415 6.87195 16.8706 6.87178 16.7997C6.87157 16.651 6.87187 16.5024 6.87253 16.3538C6.87333 16.1632 6.87287 15.9726 6.87202 15.7821C6.87152 15.6356 6.87168 15.4891 6.87204 15.3427C6.87214 15.2724 6.87202 15.2021 6.87169 15.1319C6.87134 15.0337 6.87188 14.9355 6.87266 14.8373C6.87278 14.7814 6.87289 14.7256 6.873 14.668C6.89086 14.531 6.89086 14.531 6.94839 14.4532C7.05639 14.3715 7.11917 14.3727 7.25388 14.3725ZM7.35961 14.8591C7.35961 15.6944 7.35961 16.5297 7.35961 17.3904C8.93742 17.3904 10.5152 17.3904 12.1409 17.3904C12.1409 16.5551 12.1409 15.7197 12.1409 14.8591C10.563 14.8591 8.98524 14.8591 7.35961 14.8591Z" fill="currentColor"/>
<path d="M7.97541 18.4975C8.01484 18.4971 8.05427 18.4967 8.09489 18.4963C8.138 18.4966 8.1811 18.4969 8.22552 18.4972C8.29379 18.4968 8.29379 18.4968 8.36344 18.4964C8.51419 18.4958 8.66492 18.4962 8.81567 18.4967C8.92022 18.4966 9.02478 18.4965 9.12934 18.4963C9.34859 18.4961 9.56783 18.4964 9.78709 18.497C10.0685 18.4978 10.3498 18.4974 10.6312 18.4965C10.8471 18.496 11.0631 18.4962 11.279 18.4966C11.3828 18.4966 11.4865 18.4965 11.5903 18.4962C11.7352 18.4958 11.8801 18.4964 12.025 18.4972C12.0681 18.4969 12.1112 18.4966 12.1556 18.4963C12.195 18.4967 12.2344 18.4971 12.2751 18.4975C12.3264 18.4976 12.3264 18.4976 12.3789 18.4977C12.4961 18.5207 12.5378 18.5619 12.6096 18.656C12.6275 18.793 12.6275 18.793 12.6278 18.9623C12.6281 18.9932 12.6283 19.0241 12.6286 19.0559C12.6292 19.158 12.6288 19.26 12.6283 19.3621C12.6284 19.433 12.6285 19.5039 12.6287 19.5748C12.6289 19.7235 12.6286 19.8721 12.6279 20.0207C12.6271 20.2113 12.6276 20.4019 12.6284 20.5924C12.629 20.7389 12.6288 20.8853 12.6284 21.0318C12.6283 21.1021 12.6284 21.1723 12.6288 21.2426C12.6291 21.3408 12.6286 21.439 12.6278 21.5372C12.6277 21.5931 12.6276 21.6489 12.6275 21.7065C12.6073 21.861 12.5889 21.8914 12.469 21.9841C12.3789 22.0018 12.3789 22.0018 12.2751 22.002C12.2356 22.0024 12.1962 22.0028 12.1556 22.0032C12.0909 22.0028 12.0909 22.0028 12.025 22.0023C11.9567 22.0027 11.9567 22.0027 11.887 22.0031C11.7363 22.0037 11.5856 22.0033 11.4348 22.0028C11.3302 22.0029 11.2257 22.003 11.1211 22.0032C10.9019 22.0034 10.6826 22.0031 10.4634 22.0025C10.182 22.0017 9.90065 22.0021 9.61927 22.003C9.40333 22.0035 9.1874 22.0033 8.97145 22.0029C8.86769 22.0028 8.76393 22.003 8.66016 22.0033C8.51527 22.0036 8.37041 22.0031 8.22552 22.0023C8.18241 22.0026 8.13931 22.0029 8.09489 22.0032C8.05546 22.0028 8.01603 22.0024 7.97541 22.002C7.94115 22.0019 7.9069 22.0019 7.8716 22.0018C7.75434 21.9788 7.71264 21.9376 7.64086 21.8435C7.623 21.7065 7.623 21.7065 7.62266 21.5372C7.62242 21.5063 7.62217 21.4754 7.62192 21.4436C7.6213 21.3415 7.62171 21.2395 7.62218 21.1374C7.62209 21.0665 7.62195 20.9956 7.62178 20.9247C7.62157 20.776 7.62187 20.6274 7.62253 20.4788C7.62333 20.2882 7.62287 20.0976 7.62202 19.9071C7.62152 19.7606 7.62168 19.6141 7.62204 19.4677C7.62214 19.3974 7.62202 19.3271 7.62169 19.2569C7.62134 19.1587 7.62188 19.0605 7.62266 18.9623C7.62278 18.9064 7.62289 18.8506 7.623 18.793C7.65227 18.5684 7.75499 18.4979 7.97541 18.4975ZM8.10961 18.9841C8.10961 19.8194 8.10961 20.6547 8.10961 21.5154C9.43992 21.5154 10.7702 21.5154 12.1409 21.5154C12.1409 20.6801 12.1409 19.8447 12.1409 18.9841C10.8105 18.9841 9.48024 18.9841 8.10961 18.9841Z" fill="currentColor"/>
<path d="M14.019 18.4974C14.0915 18.4968 14.0915 18.4968 14.1654 18.4961C14.2176 18.4964 14.2697 18.4967 14.3235 18.497C14.377 18.4968 14.4306 18.4967 14.4858 18.4965C14.5991 18.4965 14.7125 18.4967 14.8258 18.4973C14.9996 18.4981 15.1733 18.4973 15.347 18.4964C15.457 18.4965 15.567 18.4967 15.677 18.497C15.7552 18.4965 15.7552 18.4965 15.835 18.4961C15.8834 18.4965 15.9317 18.497 15.9815 18.4974C16.0453 18.4976 16.0453 18.4976 16.1105 18.4978C16.219 18.5156 16.219 18.5156 16.3047 18.5779C16.3596 18.6563 16.3596 18.6563 16.3508 18.8027C16.3383 18.8472 16.3257 18.8917 16.3127 18.9375C16.2025 18.9926 16.1375 18.99 16.0147 18.9897C15.9514 18.9897 15.9514 18.9897 15.8868 18.9897C15.8411 18.9895 15.7954 18.9892 15.7484 18.989C15.7017 18.9889 15.655 18.9888 15.6069 18.9888C15.4574 18.9885 15.3079 18.9879 15.1584 18.9873C15.0572 18.9871 14.956 18.9869 14.8548 18.9867C14.6064 18.9862 14.358 18.9853 14.1096 18.9844C14.1096 19.3247 14.1096 19.665 14.1096 20.0156C14.2332 20.014 14.3567 20.0124 14.4841 20.0107C14.6037 20.0096 14.7233 20.0087 14.8429 20.0079C14.9261 20.0072 15.0092 20.0062 15.0924 20.005C15.2119 20.0033 15.3313 20.0025 15.4509 20.0019C15.4881 20.0012 15.5253 20.0004 15.5636 19.9997C15.8193 19.9996 15.8193 19.9996 15.9394 20.0776C15.9846 20.1563 15.9846 20.1563 15.9758 20.3027C15.9633 20.3472 15.9507 20.3917 15.9377 20.4375C15.7865 20.5131 15.6215 20.49 15.4554 20.489C15.3979 20.4889 15.3979 20.4889 15.3392 20.4888C15.2164 20.4885 15.0937 20.4879 14.9709 20.4873C14.8878 20.4871 14.8047 20.4869 14.7215 20.4867C14.5176 20.4862 14.3136 20.4853 14.1096 20.4844C14.1096 20.8247 14.1096 21.165 14.1096 21.5156C14.3356 21.5132 14.3356 21.5132 14.5661 21.5107C14.7118 21.5096 14.8574 21.5087 15.0031 21.5079C15.1045 21.5072 15.2058 21.5062 15.3072 21.505C15.4527 21.5033 15.5983 21.5025 15.7438 21.5019C15.7892 21.5012 15.8347 21.5004 15.8814 21.4997C15.9448 21.4997 15.9448 21.4997 16.0094 21.4997C16.0465 21.4994 16.0837 21.499 16.122 21.4987C16.2448 21.5201 16.2872 21.556 16.3596 21.6563C16.3508 21.8027 16.3508 21.8027 16.3127 21.9375C16.1963 21.9957 16.1171 21.991 15.9868 21.9919C15.9385 21.9924 15.8901 21.9928 15.8403 21.9933C15.7879 21.9935 15.7356 21.9937 15.6816 21.9939C15.6011 21.9943 15.6011 21.9943 15.519 21.9947C15.4054 21.9952 15.2918 21.9955 15.1782 21.9956C15.004 21.9961 14.8299 21.9976 14.6557 21.999C14.5455 21.9993 14.4353 21.9996 14.3251 21.9998C14.2728 22.0003 14.2205 22.0009 14.1666 22.0015C14.1182 22.0014 14.0697 22.0012 14.0197 22.0011C13.9557 22.0013 13.9557 22.0013 13.8903 22.0016C13.7815 21.9844 13.7815 21.9844 13.6974 21.9322C13.6132 21.8005 13.623 21.6929 13.6227 21.5374C13.6224 21.5065 13.6222 21.4757 13.6219 21.4438C13.6213 21.3418 13.6217 21.2398 13.6222 21.1377C13.6221 21.0668 13.622 20.9959 13.6218 20.9249C13.6216 20.7763 13.6219 20.6277 13.6225 20.479C13.6233 20.2884 13.6229 20.0979 13.622 19.9073C13.6215 19.7609 13.6217 19.6144 13.622 19.468C13.6221 19.3977 13.622 19.3274 13.6217 19.2571C13.6213 19.1589 13.6219 19.0608 13.6227 18.9626C13.6228 18.9067 13.6229 18.8508 13.623 18.7932C13.6409 18.6563 13.6409 18.6563 13.6975 18.5679C13.8098 18.498 13.8869 18.4978 14.019 18.4974Z" fill="currentColor"/>
<path d="M14.0187 1.99744C14.0912 1.99677 14.0912 1.99677 14.1652 1.99609C14.2173 1.99638 14.2695 1.99666 14.3232 1.99696C14.3768 1.99682 14.4304 1.99669 14.4856 1.99655C14.5989 1.99645 14.7122 1.99671 14.8255 1.9973C14.9993 1.99805 15.173 1.99731 15.3468 1.99641C15.4568 1.9965 15.5667 1.99668 15.6767 1.99696C15.755 1.99653 15.755 1.99653 15.8348 1.99609C15.8831 1.99654 15.9314 1.99698 15.9812 1.99744C16.0451 1.9976 16.0451 1.9976 16.1102 1.99778C16.2187 2.01563 16.2187 2.01563 16.3044 2.07793C16.3594 2.15626 16.3594 2.15626 16.3506 2.30274C16.338 2.34722 16.3254 2.39169 16.3125 2.43751C16.2022 2.49263 16.1373 2.49005 16.0144 2.4897C15.9511 2.4897 15.9511 2.4897 15.8865 2.48969C15.8408 2.48945 15.7952 2.48921 15.7481 2.48896C15.7015 2.48889 15.6548 2.48883 15.6067 2.48876C15.4572 2.4885 15.3077 2.48791 15.1582 2.48731C15.057 2.48708 14.9558 2.48686 14.8546 2.48667C14.6062 2.48619 14.3578 2.48528 14.1094 2.48438C14.1094 2.8247 14.1094 3.16501 14.1094 3.51563C14.2541 3.51319 14.2541 3.51319 14.4018 3.51069C14.4953 3.50971 14.5889 3.50874 14.6824 3.50791C14.7474 3.5072 14.8124 3.50624 14.8773 3.50502C14.9708 3.50332 15.0642 3.5026 15.1576 3.5019C15.2138 3.50116 15.2701 3.50043 15.328 3.49967C15.4687 3.51563 15.4687 3.51563 15.559 3.57765C15.6094 3.65626 15.6094 3.65626 15.6006 3.80274C15.588 3.84722 15.5754 3.89169 15.5625 3.93751C15.4279 4.00478 15.3124 3.98961 15.1622 3.98896C15.1012 3.98881 15.0401 3.98866 14.9773 3.9885C14.9126 3.98811 14.8479 3.98771 14.7832 3.98731C14.7181 3.98708 14.6531 3.98686 14.588 3.98667C14.4284 3.98612 14.2689 3.98535 14.1094 3.98438C14.1105 4.04505 14.1105 4.04505 14.1116 4.10694C14.114 4.25711 14.1157 4.40726 14.1171 4.55745C14.1178 4.62242 14.1187 4.68739 14.12 4.75236C14.1217 4.84579 14.1224 4.93923 14.1231 5.03266C14.1238 5.08888 14.1246 5.14509 14.1253 5.20301C14.1094 5.34376 14.1094 5.34376 14.0457 5.43406C13.9687 5.48438 13.9687 5.48438 13.8486 5.47559C13.7344 5.43751 13.7344 5.43751 13.6406 5.34376C13.6284 5.21242 13.6284 5.21242 13.6277 5.04274C13.6275 5.01187 13.6272 4.98099 13.627 4.94918C13.6263 4.84687 13.6264 4.74459 13.6265 4.64228C13.6263 4.57129 13.6261 4.50029 13.6259 4.4293C13.6255 4.28039 13.6256 4.13148 13.6258 3.98256C13.6261 3.79162 13.6253 3.60069 13.6242 3.40975C13.6235 3.26309 13.6235 3.11644 13.6236 2.96978C13.6236 2.89938 13.6233 2.82897 13.6229 2.75857C13.6223 2.66015 13.6226 2.56176 13.6231 2.46334C13.6231 2.40731 13.6231 2.35128 13.6231 2.29355C13.6406 2.15626 13.6406 2.15626 13.6972 2.06789C13.8095 1.99804 13.8866 1.99778 14.0187 1.99744Z" fill="currentColor"/>
<path d="M15.2649 10.2457C15.3032 10.2455 15.3416 10.2452 15.3811 10.245C15.4619 10.2447 15.5427 10.2448 15.6235 10.2452C15.7465 10.2456 15.8693 10.2442 15.9922 10.2427C16.0711 10.2426 16.1499 10.2427 16.2287 10.2428C16.2651 10.2423 16.3015 10.2418 16.339 10.2412C16.6004 10.2445 16.7532 10.3041 16.9687 10.4536C17.1487 10.6955 17.1319 10.9579 17.1298 11.2475C17.1312 11.3153 17.1312 11.3153 17.1326 11.3844C17.1324 11.6766 17.1041 11.8615 16.9218 12.0942C16.6903 12.2416 16.5005 12.2561 16.235 12.2551C16.1966 12.2554 16.1582 12.2556 16.1187 12.2559C16.0379 12.2562 15.9571 12.2561 15.8763 12.2557C15.7534 12.2553 15.6305 12.2567 15.5076 12.2582C15.4287 12.2582 15.3499 12.2582 15.2711 12.2581C15.2165 12.2589 15.2165 12.2589 15.1608 12.2597C14.8994 12.2564 14.7466 12.1968 14.5312 12.0473C14.3511 11.8054 14.3679 11.543 14.37 11.2534C14.3691 11.2082 14.3682 11.163 14.3672 11.1165C14.3674 10.8242 14.3957 10.6393 14.578 10.4067C14.8095 10.2592 14.9993 10.2447 15.2649 10.2457ZM14.8593 10.7817C14.8547 10.8509 14.8532 10.9203 14.8531 10.9897C14.853 11.0316 14.8529 11.0736 14.8529 11.1168C14.8531 11.1609 14.8532 11.205 14.8534 11.2504C14.8532 11.2945 14.8531 11.3387 14.8529 11.3841C14.8529 11.426 14.853 11.468 14.8531 11.5112C14.8531 11.5499 14.8532 11.5886 14.8532 11.6285C14.8493 11.7195 14.8493 11.7195 14.9062 11.7661C15.0306 11.7708 15.1538 11.7726 15.2782 11.7723C15.3341 11.7724 15.3341 11.7724 15.3912 11.7724C15.4702 11.7725 15.5491 11.7724 15.6281 11.7722C15.7494 11.7719 15.8707 11.7722 15.992 11.7725C16.0685 11.7724 16.1451 11.7724 16.2216 11.7723C16.2581 11.7724 16.2946 11.7725 16.3323 11.7726C16.5003 11.7875 16.5003 11.7875 16.6405 11.7192C16.6452 11.65 16.6467 11.5805 16.6468 11.5112C16.6468 11.4692 16.6469 11.4273 16.6469 11.3841C16.6467 11.3179 16.6467 11.3179 16.6464 11.2504C16.6466 11.2063 16.6468 11.1622 16.6469 11.1168C16.6469 11.0539 16.6469 11.0539 16.6468 10.9897C16.6467 10.9316 16.6467 10.9316 16.6466 10.8723C16.6505 10.7814 16.6505 10.7814 16.5937 10.7348C16.4692 10.7301 16.346 10.7283 16.2216 10.7286C16.1843 10.7285 16.147 10.7285 16.1086 10.7284C16.0297 10.7284 15.9507 10.7285 15.8717 10.7287C15.7504 10.729 15.6291 10.7287 15.5078 10.7284C15.4313 10.7284 15.3548 10.7285 15.2782 10.7286C15.2417 10.7285 15.2052 10.7284 15.1676 10.7283C14.9995 10.7133 14.9995 10.7133 14.8593 10.7817Z" fill="currentColor"/>
</svg>
