<svg width="24" height="24" viewBox="0 0 24 24" fill="none" xmlns="http://www.w3.org/2000/svg">
<g clip-path="url(#clip0_19142_120384)">
<path d="M11.1508 4.48617C11.3227 4.59233 11.4585 4.73001 11.5999 4.8732C11.6327 4.90562 11.6654 4.93804 11.6992 4.97144C11.8065 5.07795 11.9131 5.18512 12.0197 5.29236C12.0945 5.367 12.1693 5.44162 12.2441 5.51621C12.4005 5.67229 12.5565 5.82872 12.7123 5.98538C12.9117 6.18588 13.112 6.38553 13.3125 6.58494C13.467 6.73874 13.621 6.89298 13.7749 7.04736C13.8486 7.12115 13.9224 7.1948 13.9963 7.26831C14.0997 7.37116 14.2024 7.4746 14.305 7.57822C14.3354 7.6083 14.3659 7.63839 14.3973 7.66938C14.6776 7.95498 14.7783 8.24966 14.8416 8.63739C14.848 8.67463 14.8545 8.71187 14.8611 8.75025C14.882 8.87245 14.9024 8.99475 14.9227 9.11707C14.9372 9.20271 14.9517 9.28835 14.9662 9.37398C14.9966 9.55317 15.0266 9.73241 15.0564 9.91169C15.0945 10.1405 15.1333 10.3691 15.1723 10.5977C15.2023 10.7745 15.232 10.9514 15.2616 11.1282C15.2758 11.2125 15.2901 11.2968 15.3044 11.381C15.4935 12.4923 15.4935 12.4923 15.3417 12.7405C15.234 12.8913 15.1204 13.0171 14.9897 13.1484C14.9537 13.1848 14.9537 13.1848 14.9169 13.222C14.8368 13.3027 14.7564 13.3831 14.6761 13.4635C14.6184 13.5216 14.5607 13.5797 14.503 13.6378C14.3466 13.7952 14.1899 13.9523 14.0331 14.1093C13.935 14.2076 13.8369 14.306 13.7388 14.4044C13.3962 14.7482 13.0532 15.0918 12.71 15.4351C12.3911 15.7542 12.0729 16.0739 11.7549 16.3938C11.4811 16.6692 11.2069 16.9442 10.9323 17.2188C10.7687 17.3824 10.6052 17.5463 10.4422 17.7106C10.2887 17.8654 10.1345 18.0197 9.97996 18.1735C9.92369 18.2297 9.86763 18.286 9.81178 18.3426C9.10637 19.057 8.26845 19.5495 7.23905 19.5652C6.2966 19.5634 5.45694 19.3545 4.73838 18.7175C4.70862 18.6914 4.67887 18.6653 4.64821 18.6384C4.26363 18.2965 3.90335 17.9297 3.54178 17.5639C3.47049 17.4921 3.39917 17.4204 3.32782 17.3487C3.15572 17.1755 2.98392 17.0021 2.81229 16.8286C2.28751 17.0811 1.84873 17.6363 1.60123 18.1519C1.42918 18.709 1.43967 19.276 1.44005 19.8532C1.4401 20.0055 1.43949 20.1579 1.43869 20.3102C1.43654 20.7428 1.43537 21.1755 1.43506 21.6081C1.43483 21.8739 1.43369 22.1396 1.432 22.4053C1.43154 22.5062 1.43143 22.6071 1.43168 22.708C1.43201 22.8488 1.4312 22.9895 1.43014 23.1303C1.43052 23.1717 1.43091 23.2132 1.4313 23.2558C1.42788 23.511 1.38863 23.6575 1.21854 23.8598C0.973731 24.0499 0.719162 24.0367 0.421665 24.0004C0.206869 23.8987 0.0974958 23.7934 -0.000209881 23.5786C-0.0212148 23.4128 -0.0198969 23.2481 -0.0191499 23.0812C-0.0194716 23.0311 -0.0197933 22.981 -0.0201247 22.9293C-0.020983 22.7635 -0.0208007 22.5977 -0.0205346 22.4319C-0.0207485 22.3163 -0.0209972 22.2006 -0.0212792 22.0849C-0.0216983 21.8421 -0.0215838 21.5993 -0.0211182 21.3565C-0.0205822 21.0469 -0.021523 20.7373 -0.0228956 20.4277C-0.0237606 20.1885 -0.0237416 19.9493 -0.023475 19.7101C-0.0234679 19.5961 -0.0237482 19.482 -0.0243326 19.368C-0.030268 18.0189 0.287145 17.1076 1.24772 16.1373C1.37767 16.0073 1.5088 15.8787 1.64042 15.7504C1.5782 15.6112 1.51171 15.5182 1.40055 15.4142C1.37209 15.3869 1.34363 15.3596 1.3143 15.3315C1.25493 15.2754 1.19536 15.2195 1.13559 15.1638C0.909263 14.9456 0.732753 14.7235 0.683323 14.4057C0.705004 14.1882 0.743892 14.0472 0.893757 13.8847C0.93822 13.8362 0.93822 13.8362 0.983581 13.7868C1.13873 13.6242 1.2958 13.4639 1.4551 13.3054C1.49127 13.2693 1.52743 13.2331 1.5647 13.1958C1.68303 13.0775 1.80152 12.9594 1.92002 12.8413C2.00258 12.7588 2.08514 12.6763 2.16769 12.5938C2.38404 12.3776 2.60054 12.1616 2.81707 11.9456C3.03839 11.7247 3.25954 11.5038 3.48072 11.2828C3.91403 10.85 4.34748 10.4174 4.78104 9.98481C4.71475 9.81475 4.64023 9.66205 4.54648 9.50525C4.5195 9.4599 4.49252 9.41456 4.46473 9.36783C4.43666 9.32103 4.40859 9.27423 4.37967 9.22602C4.32392 9.13259 4.2682 9.03914 4.2125 8.94568C4.18781 8.90446 4.16312 8.86324 4.13769 8.82077C4.05458 8.67953 4.02174 8.59255 4.01639 8.42914C4.01376 8.37739 4.01376 8.37739 4.01108 8.32459C4.06349 8.00677 4.29457 7.77876 4.51431 7.56072C4.54353 7.53118 4.57275 7.50164 4.60285 7.4712C4.69882 7.37438 4.79529 7.27809 4.89182 7.18183C4.95909 7.11434 5.02635 7.04683 5.09359 6.97931C5.2343 6.83818 5.37527 6.69732 5.51643 6.55664C5.69698 6.37662 5.87679 6.19587 6.05639 6.01489C6.195 5.87542 6.33404 5.7364 6.47322 5.59749C6.53969 5.53103 6.60601 5.46442 6.67218 5.39766C6.76483 5.30432 6.85805 5.2116 6.95145 5.11901C6.97846 5.09154 7.00548 5.06407 7.03331 5.03577C7.2341 4.83857 7.42704 4.71374 7.71164 4.66962C8.09013 4.69283 8.2767 4.89318 8.53104 5.15668C8.57896 5.20435 8.62699 5.25189 8.67514 5.29932C8.80003 5.42264 8.92362 5.54715 9.04667 5.67231C9.37951 5.39841 9.67502 5.09084 9.97446 4.78132C10.0346 4.72023 10.0346 4.72023 10.0959 4.6579C10.1498 4.60241 10.1498 4.60241 10.2048 4.5458C10.5039 4.28911 10.8184 4.31296 11.1508 4.48617ZM9.14042 13.9223C9.13998 13.9686 9.13954 14.0149 9.13909 14.0627C9.13721 14.236 9.13412 14.4093 9.13069 14.5826C9.12937 14.6574 9.12837 14.7321 9.12771 14.8068C9.12042 15.5841 9.12042 15.5841 8.90604 15.8911C8.70742 16.0424 8.51139 16.0562 8.26865 16.0482C8.09868 16.0233 8.00108 15.9582 7.87479 15.8442C7.75244 15.6724 7.71579 15.5506 7.71018 15.3408C7.70852 15.2908 7.70685 15.2408 7.70514 15.1893C7.70356 15.1118 7.70356 15.1118 7.70194 15.0327C7.70034 14.9801 7.69874 14.9275 7.69709 14.8733C7.69323 14.7438 7.68998 14.6143 7.68729 14.4848C7.38893 14.7308 7.11761 15.0016 6.84519 15.2755C6.79627 15.3245 6.74735 15.3735 6.69841 15.4224C6.57062 15.5504 6.44297 15.6785 6.31535 15.8067C6.18471 15.9378 6.05393 16.0688 5.92316 16.1998C5.66732 16.4561 5.41163 16.7126 5.15604 16.9692C5.40696 17.5056 5.93765 17.8359 6.46854 18.0473C6.95192 18.1868 7.57455 18.1495 8.01541 17.9067C8.42393 17.6747 8.73514 17.3473 9.06296 17.0168C9.12224 16.9575 9.18154 16.8982 9.24086 16.839C9.36435 16.7155 9.4876 16.5917 9.61066 16.4678C9.76868 16.3087 9.92721 16.1502 10.0859 15.9918C10.2081 15.8698 10.33 15.7476 10.4518 15.6253C10.5102 15.5667 10.5687 15.5082 10.6272 15.4497C10.7086 15.3684 10.7896 15.2867 10.8706 15.205C10.8949 15.1808 10.9192 15.1566 10.9443 15.1317C11.0717 15.0171 11.0717 15.0171 11.1092 14.8598C10.844 14.726 10.5787 14.5925 10.3132 14.4593C10.2229 14.4139 10.1326 14.3684 10.0423 14.3228C9.9128 14.2575 9.78315 14.1924 9.65348 14.1274C9.59268 14.0966 9.59268 14.0966 9.53066 14.0652C9.47436 14.0371 9.47436 14.0371 9.41693 14.0084C9.38383 13.9917 9.35073 13.9751 9.31662 13.9579C9.23479 13.9161 9.23479 13.9161 9.14042 13.9223Z" fill="currentColor"/>
<path d="M20.0757 -0.0288663C20.2339 -0.0295362 20.3919 -0.0327161 20.5501 -0.0359387C20.6519 -0.036519 20.7536 -0.0369516 20.8553 -0.0372205C20.902 -0.0384729 20.9487 -0.0397253 20.9968 -0.0410156C21.3034 -0.0380374 21.4605 0.0305852 21.6817 0.243682C21.8034 0.393637 21.8031 0.531809 21.8044 0.717426C21.8049 0.768275 21.8053 0.819124 21.8058 0.871513C21.8061 0.953912 21.8061 0.953912 21.8064 1.03797C21.8067 1.09444 21.8069 1.15091 21.8072 1.20909C21.8076 1.32864 21.808 1.44819 21.8081 1.56774C21.8086 1.75066 21.81 1.93355 21.8115 2.11647C21.8118 2.23255 21.8121 2.34864 21.8123 2.46473C21.8128 2.51948 21.8134 2.57422 21.814 2.63062C21.8139 2.68176 21.8137 2.73291 21.8136 2.7856C21.8138 2.85289 21.8138 2.85289 21.8141 2.92153C21.7844 3.13694 21.6779 3.25912 21.528 3.41099C21.3478 3.53393 21.2533 3.54472 21.0372 3.54524C21.0054 3.54568 20.9736 3.54613 20.9408 3.54658C20.8733 3.54744 20.8057 3.54779 20.7382 3.54769C20.5629 3.54757 20.3877 3.55148 20.2125 3.55476C20.1784 3.55529 20.1444 3.55583 20.1093 3.55637C18.6781 3.58018 17.6074 4.06264 16.6132 5.08882C16.5301 5.17328 16.447 5.25772 16.364 5.34214C16.2347 5.47401 16.1057 5.60605 15.977 5.73844C15.8517 5.86714 15.7256 5.99511 15.5995 6.123C15.5609 6.16308 15.5223 6.20315 15.4826 6.24445C15.4466 6.28078 15.4106 6.31711 15.3735 6.35455C15.3262 6.40297 15.3262 6.40297 15.2781 6.45237C15.1875 6.51539 15.1875 6.51539 15.0972 6.51606C14.9581 6.44803 14.8683 6.35357 14.7593 6.24374C14.7359 6.22042 14.7126 6.1971 14.6885 6.17306C14.6116 6.09604 14.5352 6.01852 14.4587 5.94099C14.4054 5.88743 14.3521 5.8339 14.2987 5.7804C14.1585 5.6396 14.0187 5.49839 13.8789 5.3571C13.7362 5.21294 13.5931 5.06919 13.45 4.9254C13.1694 4.64328 12.8893 4.36073 12.6094 4.07789C12.6787 3.91775 12.7688 3.81233 12.8912 3.6887C12.9301 3.64924 12.9689 3.60978 13.009 3.56912C13.0724 3.50554 13.0724 3.50554 13.1371 3.44068C13.1814 3.39607 13.2257 3.35144 13.27 3.30681C13.3632 3.21302 13.4567 3.11943 13.5502 3.02595C13.6448 2.93136 13.7391 2.83646 13.833 2.74122C14.9648 1.59405 16.1345 0.725339 17.6982 0.266368C17.7347 0.255567 17.7711 0.244767 17.8086 0.233638C18.5591 0.0256259 19.2998 -0.0276096 20.0757 -0.0288663Z" fill="currentColor"/>
<path d="M21.4192 7.05743C21.466 7.05653 21.5128 7.05562 21.5611 7.05469C21.7821 7.0908 21.918 7.18087 22.057 7.3574C22.1349 7.47041 22.2082 7.58534 22.2805 7.70197C22.3072 7.74409 22.3339 7.78621 22.3613 7.82961C22.4396 7.95366 22.5169 8.0782 22.594 8.20294C22.6237 8.25045 22.6237 8.25045 22.654 8.29891C23.1185 9.04353 23.5667 9.81098 23.8596 10.6404C23.8754 10.6781 23.8912 10.7157 23.9074 10.7545C24.1021 11.2674 24.078 11.9771 23.8746 12.4812C23.5233 13.2078 23.062 13.7173 22.2993 14.0096C22.0067 14.1069 21.7352 14.1331 21.428 14.1297C21.3601 14.1291 21.3601 14.1291 21.2908 14.1285C20.947 14.1204 20.655 14.076 20.344 13.9217C20.2966 13.8984 20.2491 13.875 20.2003 13.851C19.5566 13.5046 19.1477 12.9767 18.8909 12.2986C18.7168 11.5953 18.8493 10.9182 19.1252 10.2654C19.1383 10.2338 19.1513 10.2021 19.1648 10.1695C19.5278 9.30381 20.0442 8.50196 20.5579 7.71954C20.5891 7.67144 20.6203 7.62334 20.6525 7.57378C20.6823 7.52925 20.712 7.48472 20.7426 7.43884C20.7686 7.39961 20.7946 7.36037 20.8215 7.31995C20.9919 7.11678 21.1589 7.05777 21.4192 7.05743Z" fill="currentColor"/>
</g>
<defs>
<clipPath id="clip0_19142_120384">
<rect width="24" height="24" fill="currentColor"/>
</clipPath>
</defs>
</svg>
