<svg width="84" height="84" viewBox="0 0 84 84" fill="none" xmlns="http://www.w3.org/2000/svg">
<path d="M0 16C0 7.16344 7.16344 0 16 0H68C76.8366 0 84 7.16344 84 16V68C84 76.8366 76.8366 84 68 84H16C7.16344 84 0 76.8366 0 68V16Z" fill="url(#paint0_linear_16824_237023)"/>
<g clip-path="url(#clip0_16824_237023)">
<path d="M38.25 12C47.1059 12 55.9617 12 65.0859 12C65.0859 15.2484 65.0859 18.4969 65.0859 21.8438C67.3676 21.8438 69.6492 21.8438 72 21.8438C72 24.2027 72 26.5617 72 28.9922C69.7184 28.9922 67.4367 28.9922 65.0859 28.9922C65.0859 32.202 65.0859 35.4117 65.0859 38.7188C56.2301 38.7188 47.3742 38.7188 38.25 38.7188C38.25 29.9016 38.25 21.0844 38.25 12ZM46.4531 18.6797C46.4531 23.0883 46.4531 27.4969 46.4531 32.0391C47.5746 32.0391 48.6961 32.0391 49.8516 32.0391C49.8516 31.0723 49.8516 30.1055 49.8516 29.1094C50.4425 29.1239 50.4425 29.1239 51.0454 29.1387C52.5636 29.1509 53.7996 28.9224 55.0078 27.9375C55.0883 27.8728 55.1688 27.8082 55.2518 27.7416C56.1998 26.8933 56.8206 25.6478 56.9107 24.3811C56.9446 22.6846 56.4916 21.3743 55.3301 20.1226C52.952 17.8798 49.4605 18.6797 46.4531 18.6797Z" fill="white"/>
<path d="M15.8671 32.8594C17.0659 32.8594 18.2647 32.8594 19.4999 32.8594C19.4999 34.793 19.4999 36.7266 19.4999 38.7188C19.8479 38.8348 20.196 38.9508 20.5546 39.0703C22.028 39.9975 22.9544 41.3696 23.3671 43.0547C23.3857 43.3681 23.3947 43.6681 23.39 43.9807C23.3896 44.0654 23.3893 44.1501 23.389 44.2373C23.3877 44.5048 23.3847 44.7721 23.3817 45.0396C23.3806 45.2221 23.3795 45.4047 23.3785 45.5873C23.376 46.0322 23.3719 46.477 23.3671 46.9219C23.2311 46.9334 23.0952 46.9448 22.9551 46.9567C20.9028 47.1459 19.0868 47.6569 17.6286 49.213C16.9417 50.0412 16.4364 50.9392 16.1015 51.9609C16.075 52.0393 16.0486 52.1177 16.0213 52.1985C15.5301 53.9638 15.8699 55.892 16.7117 57.482C17.699 59.0716 19.2819 60.1956 21.0673 60.7207C21.8258 60.8893 22.5978 60.9917 23.3671 61.1016C23.3671 64.698 23.3671 68.2945 23.3671 72C19.6159 72 15.8647 72 11.9999 72C11.9896 68.3215 11.9809 64.6431 11.976 60.9646C11.9754 60.5299 11.9748 60.0952 11.9741 59.6604C11.974 59.5739 11.9739 59.4873 11.9738 59.3981C11.9717 57.9987 11.968 56.5992 11.9637 55.1998C11.9593 53.7627 11.9567 52.3257 11.9558 50.8886C11.9551 50.0026 11.9531 49.1166 11.9493 48.2305C11.9465 47.55 11.9462 46.8694 11.9469 46.1888C11.9467 45.9105 11.9458 45.6322 11.944 45.3539C11.9304 43.1447 12.1152 41.6034 13.6771 39.9199C14.3121 39.315 15.0076 38.8906 15.8671 38.7188C15.8671 36.7852 15.8671 34.8516 15.8671 32.8594Z" fill="white"/>
<path d="M36.1855 50.1606C36.3809 50.1637 36.5762 50.166 36.7716 50.1677C37.2825 50.1739 37.7926 50.19 38.3032 50.2082C38.8255 50.2251 39.348 50.2325 39.8705 50.2407C40.8932 50.2583 41.9152 50.2862 42.9375 50.3208C42.1552 51.5652 42.1552 51.5652 41.8155 52.0402C41.321 52.7357 40.9147 53.3987 40.6105 54.1992C40.0788 55.5758 39.407 57.0345 38.0156 57.7037C35.3135 58.4905 31.9851 57.96 29.2266 57.7037C29.3779 57.3137 29.5322 56.9866 29.7768 56.6467C29.8404 56.5573 29.9041 56.4679 29.9696 56.3757C30.0386 56.2798 30.1076 56.1839 30.1787 56.085C30.903 55.0654 31.6026 54.0317 32.29 52.9869C32.4333 52.7701 32.5787 52.5545 32.7263 52.3406C32.902 52.0744 33.0562 51.8193 33.2069 51.5405C33.9627 50.2222 34.7337 50.0933 36.1855 50.1606Z" fill="white"/>
<path d="M51.0706 50.1268C51.581 50.1559 52.0917 50.1685 52.6027 50.1826C53.6008 50.2126 54.597 50.2604 55.5938 50.3199C55.1613 51.0036 54.7284 51.6858 54.2722 52.3538C54.2284 52.4181 54.1846 52.4825 54.1394 52.5487C54.0018 52.7508 53.864 52.9526 53.7261 53.1544C53.5933 53.349 53.4604 53.5435 53.3285 53.7387C53.2334 53.8772 53.1364 54.0144 53.0377 54.1504C52.7022 54.6217 52.449 55.0922 52.2097 55.6195C51.3078 57.4541 51.3078 57.4541 50.4573 57.7867C49.2094 58.1169 47.8503 57.9773 46.5775 57.8959C46.0742 57.8668 45.5705 57.8542 45.0666 57.8401C44.0823 57.8101 43.1001 57.7623 42.1172 57.7028C42.315 57.1812 42.5829 56.7445 42.8981 56.2869C42.9532 56.206 43.0082 56.125 43.0649 56.0416C43.2417 55.782 43.4191 55.5229 43.5967 55.2638C43.767 55.0144 43.9371 54.7649 44.1064 54.5148C44.2254 54.3413 44.3463 54.1692 44.4691 53.9984C44.8392 53.4759 45.1335 52.9614 45.3992 52.3781C46.6801 49.7651 48.4714 49.963 51.0706 50.1268Z" fill="white"/>
<path d="M22.7829 50.294C22.9013 50.294 22.9013 50.294 23.0222 50.2939C23.2809 50.2941 23.5395 50.2959 23.7983 50.2978C23.9785 50.2982 24.1588 50.2985 24.3391 50.2988C24.8119 50.2997 25.2846 50.302 25.7574 50.3046C26.2405 50.307 26.7236 50.308 27.2068 50.3092C28.1534 50.3117 29.1001 50.3157 30.0467 50.3207C29.9556 50.4874 29.8641 50.654 29.7724 50.8205C29.7215 50.9133 29.6706 51.0061 29.6182 51.1017C29.3844 51.5081 29.1142 51.8831 28.8382 52.2616C28.3248 52.9769 27.8269 53.7008 27.3401 54.4346C27.177 54.6798 27.0126 54.9242 26.8468 55.1677C26.3444 55.908 26.3444 55.908 25.9287 56.6982C25.7177 57.136 25.5387 57.4238 25.1248 57.7035C23.7315 58.0077 22.1896 57.8551 20.9061 57.2347C20.0094 56.6151 19.4421 55.8228 19.1483 54.7738C19.034 53.6402 19.1234 52.7505 19.802 51.8267C20.6244 50.8302 21.4597 50.2892 22.7829 50.294Z" fill="white"/>
<path d="M64.3828 50.32C64.3828 52.7563 64.3828 55.1926 64.3828 57.7028C61.2117 57.7028 58.0406 57.7028 54.7734 57.7028C54.9363 57.2957 55.0523 57.0211 55.2866 56.6737C55.3445 56.5867 55.4024 56.4997 55.4621 56.4101C55.5989 56.2097 55.7376 56.0105 55.8776 55.8123C56.3281 55.1665 56.724 54.5254 57.085 53.8264C58.9835 50.1848 60.2169 49.8112 64.3828 50.32Z" fill="white"/>
<path d="M49.8516 22.0778C50.2189 22.0657 50.5863 22.0536 50.9648 22.0412C51.1356 22.0332 51.1356 22.0332 51.3098 22.025C52.0595 22.0132 52.5584 22.1735 53.1328 22.6637C53.5068 23.1662 53.5453 23.6473 53.526 24.2572C53.4472 24.79 53.1671 25.1088 52.7739 25.4543C52.3932 25.6876 52.0842 25.7248 51.6483 25.7221C51.554 25.7218 51.4597 25.7215 51.3626 25.7212C51.1838 25.7196 51.1838 25.7196 51.0015 25.7179C50.4323 25.7143 50.4323 25.7143 49.8516 25.7106C49.8516 24.5118 49.8516 23.313 49.8516 22.0778Z" fill="white"/>
</g>
<defs>
<linearGradient id="paint0_linear_16824_237023" x1="-0.297909" y1="8.08247e-07" x2="80.1276" y2="84" gradientUnits="userSpaceOnUse">
<stop stop-color="#FFDE81"/>
<stop offset="1" stop-color="#C49100"/>
</linearGradient>
<clipPath id="clip0_16824_237023">
<rect width="60" height="60" fill="white" transform="translate(12 12)"/>
</clipPath>
</defs>
</svg>
