<svg width="84" height="84" viewBox="0 0 84 84" fill="none" xmlns="http://www.w3.org/2000/svg">
<rect width="84" height="84" rx="16" fill="url(#paint0_linear_16824_236998)"/>
<path d="M52.475 17H31.525C22.425 17 17 22.425 17 31.525V52.45C17 61.575 22.425 67 31.525 67H52.45C61.55 67 66.975 61.575 66.975 52.475V31.525C67 22.425 61.575 17 52.475 17ZM55.825 30.825L36.525 50.125H44.075C45.1 50.125 45.95 50.975 45.95 52C45.95 53.025 45.1 53.875 44.075 53.875H32C30.975 53.875 30.125 53.025 30.125 52V39.925C30.125 38.9 30.975 38.05 32 38.05C33.025 38.05 33.875 38.9 33.875 39.925V47.475L53.175 28.175C53.55 27.8 54.025 27.625 54.5 27.625C54.975 27.625 55.45 27.8 55.825 28.175C56.55 28.9 56.55 30.1 55.825 30.825Z" fill="white"/>
<defs>
<linearGradient id="paint0_linear_16824_236998" x1="-0.297909" y1="8.08247e-07" x2="80.1276" y2="84" gradientUnits="userSpaceOnUse">
<stop stop-color="#4E83FF"/>
<stop offset="1" stop-color="#083190"/>
</linearGradient>
</defs>
</svg>
