<svg width="84" height="84" viewBox="0 0 84 84" fill="none" xmlns="http://www.w3.org/2000/svg">
<rect width="84" height="84" rx="16" fill="url(#paint0_linear_16824_237015)"/>
<path d="M65.75 50.75C66.45 50.75 67 51.3 67 52V54.5C67 58.65 63.65 62 59.5 62C59.5 57.875 56.125 54.5 52 54.5C47.875 54.5 44.5 57.875 44.5 62H39.5C39.5 57.875 36.125 54.5 32 54.5C27.875 54.5 24.5 57.875 24.5 62C20.35 62 17 58.65 17 54.5V49.5C17 48.125 18.125 47 19.5 47H43.25C46.7 47 49.5 44.2 49.5 40.75V27C49.5 25.625 50.625 24.5 52 24.5H54.1C55.9 24.5 57.55 25.475 58.45 27.025L60.05 29.825C60.275 30.225 59.975 30.75 59.5 30.75C56.05 30.75 53.25 33.55 53.25 37V44.5C53.25 47.95 56.05 50.75 59.5 50.75H65.75Z" fill="white"/>
<path d="M32 67C34.7614 67 37 64.7614 37 62C37 59.2386 34.7614 57 32 57C29.2386 57 27 59.2386 27 62C27 64.7614 29.2386 67 32 67Z" fill="white"/>
<path d="M52 67C54.7614 67 57 64.7614 57 62C57 59.2386 54.7614 57 52 57C49.2386 57 47 59.2386 47 62C47 64.7614 49.2386 67 52 67Z" fill="white"/>
<path d="M67 43.325V47H59.5C58.125 47 57 45.875 57 44.5V37C57 35.625 58.125 34.5 59.5 34.5H62.725L66.35 40.85C66.775 41.6 67 42.45 67 43.325Z" fill="white"/>
<path d="M44.7 17H26.225C21.125 17 17 21.125 17 26.225V42.175C17 43.55 18.125 44.675 19.5 44.675H42.375C44.925 44.675 47 42.6 47 40.05V19.3C47 18.025 45.975 17 44.7 17ZM37.175 29.675L31.95 34.725C31.575 35.075 31.1 35.25 30.65 35.25C30.175 35.25 29.7 35.075 29.35 34.725L26.825 32.325C26.075 31.6 26.05 30.4 26.775 29.65C27.475 28.9 28.675 28.9 29.425 29.6L30.65 30.775L34.575 26.975C35.325 26.25 36.5 26.275 37.225 27.025C37.95 27.775 37.925 28.95 37.175 29.675Z" fill="white"/>
<defs>
<linearGradient id="paint0_linear_16824_237015" x1="-0.297909" y1="8.08247e-07" x2="80.1276" y2="84" gradientUnits="userSpaceOnUse">
<stop stop-color="#90FFA7"/>
<stop offset="1" stop-color="#079C25"/>
</linearGradient>
</defs>
</svg>
