<svg width="20" height="20" viewBox="0 0 20 20" fill="none" xmlns="http://www.w3.org/2000/svg">
<path d="M5.83317 1.66602H4.99984C2.49984 1.66602 1.6665 3.15768 1.6665 4.99935V5.83268V17.4993C1.6665 18.191 2.44984 18.5827 2.99984 18.166L4.42484 17.0993C4.75817 16.8493 5.22484 16.8827 5.52484 17.1827L6.90817 18.5743C7.23317 18.8993 7.7665 18.8993 8.0915 18.5743L9.4915 17.1743C9.78317 16.8827 10.2498 16.8493 10.5748 17.0993L11.9998 18.166C12.5498 18.5743 13.3332 18.1827 13.3332 17.4993V3.33268C13.3332 2.41602 14.0832 1.66602 14.9998 1.66602H5.83317ZM4.97484 11.6743C4.5165 11.6743 4.1415 11.2993 4.1415 10.841C4.1415 10.3827 4.5165 10.0077 4.97484 10.0077C5.43317 10.0077 5.80817 10.3827 5.80817 10.841C5.80817 11.2993 5.43317 11.6743 4.97484 11.6743ZM4.97484 8.34102C4.5165 8.34102 4.1415 7.96602 4.1415 7.50768C4.1415 7.04935 4.5165 6.67435 4.97484 6.67435C5.43317 6.67435 5.80817 7.04935 5.80817 7.50768C5.80817 7.96602 5.43317 8.34102 4.97484 8.34102ZM9.99984 11.466H7.49984C7.15817 11.466 6.87484 11.1827 6.87484 10.841C6.87484 10.4993 7.15817 10.216 7.49984 10.216H9.99984C10.3415 10.216 10.6248 10.4993 10.6248 10.841C10.6248 11.1827 10.3415 11.466 9.99984 11.466ZM9.99984 8.13268H7.49984C7.15817 8.13268 6.87484 7.84935 6.87484 7.50768C6.87484 7.16602 7.15817 6.88268 7.49984 6.88268H9.99984C10.3415 6.88268 10.6248 7.16602 10.6248 7.50768C10.6248 7.84935 10.3415 8.13268 9.99984 8.13268Z" fill="#2B7FFF"/>
<path d="M15.0085 1.66602V2.91602C15.5585 2.91602 16.0835 3.14102 16.4668 3.51602C16.8668 3.92435 17.0835 4.44935 17.0835 4.99935V7.01602C17.0835 7.63268 16.8085 7.91602 16.1835 7.91602H14.5835V3.34102C14.5835 3.10768 14.7752 2.91602 15.0085 2.91602V1.66602ZM15.0085 1.66602C14.0835 1.66602 13.3335 2.41602 13.3335 3.34102V9.16602H16.1835C17.5002 9.16602 18.3335 8.33268 18.3335 7.01602V4.99935C18.3335 4.08268 17.9585 3.24935 17.3585 2.64102C16.7502 2.04102 15.9252 1.67435 15.0085 1.66602C15.0168 1.66602 15.0085 1.66602 15.0085 1.66602Z" fill="#2B7FFF"/>
</svg>
