<svg width="20" height="20" viewBox="0 0 20 20" fill="none" xmlns="http://www.w3.org/2000/svg">
<path d="M13.4501 2.46524L5.9251 4.96524C0.866764 6.6569 0.866764 9.41524 5.9251 11.0986L8.15843 11.8402L8.9001 14.0736C10.5834 19.1319 13.3501 19.1319 15.0334 14.0736L17.5418 6.5569C18.6584 3.1819 16.8251 1.34024 13.4501 2.46524ZM13.7168 6.94857L10.5501 10.1319C10.4251 10.2569 10.2668 10.3152 10.1084 10.3152C9.9501 10.3152 9.79176 10.2569 9.66676 10.1319C9.4251 9.89024 9.4251 9.49024 9.66676 9.24857L12.8334 6.06524C13.0751 5.82357 13.4751 5.82357 13.7168 6.06524C13.9584 6.3069 13.9584 6.7069 13.7168 6.94857Z" fill="#00C16A"/>
</svg>
