<svg width="20" height="20" viewBox="0 0 20 20" fill="none" xmlns="http://www.w3.org/2000/svg">
<g clip-path="url(#clip0_19170_105917)">
<path fill-rule="evenodd" clip-rule="evenodd" d="M6.3165 3.33203C6.02273 3.33213 5.7342 3.40987 5.48015 3.55738C5.2261 3.7049 5.01555 3.91694 4.86984 4.17203L1.8865 9.39286C1.74236 9.64483 1.66652 9.93008 1.6665 10.2204V13.9687C1.66652 14.2273 1.72672 14.4824 1.84234 14.7137L2.774 16.577C2.91239 16.854 3.12516 17.0869 3.38848 17.2497C3.6518 17.4125 3.95526 17.4987 4.26484 17.4987H4.99984C5.44186 17.4987 5.86579 17.3231 6.17835 17.0105C6.49091 16.698 6.6665 16.2741 6.6665 15.832H13.3332C13.3332 16.2741 13.5088 16.698 13.8213 17.0105C14.1339 17.3231 14.5578 17.4987 14.9998 17.4987H15.7348C16.0444 17.4987 16.3479 17.4125 16.6112 17.2497C16.8745 17.0869 17.0873 16.854 17.2257 16.577L18.1573 14.7137C18.2732 14.4829 18.3332 14.227 18.3332 13.9687V10.2204C18.3332 9.93008 18.2573 9.64483 18.1132 9.39286L15.1298 4.17203C14.9841 3.91694 14.7736 3.7049 14.5195 3.55738C14.2655 3.40987 13.9769 3.33213 13.6832 3.33203H6.3165ZM9.99984 9.9987C8.669 9.9987 7.43984 9.71286 6.20567 9.25286C6.00786 9.15407 5.77891 9.1379 5.56918 9.20792C5.35946 9.27793 5.18613 9.42839 5.08734 9.6262C4.98854 9.82401 4.97238 10.053 5.04239 10.2627C5.1124 10.4724 5.26286 10.6457 5.46067 10.7445C5.87234 10.9487 7.9665 11.6654 9.99984 11.6654C11.5448 11.6654 13.1398 11.437 14.5373 10.7454C14.7341 10.6453 14.8837 10.4719 14.9539 10.2625C15.024 10.0532 15.0091 9.82465 14.9123 9.6262C14.8635 9.52822 14.7957 9.44084 14.7131 9.36904C14.6304 9.29725 14.5344 9.24245 14.4305 9.20778C14.3267 9.17311 14.217 9.15925 14.1078 9.16698C13.9986 9.17472 13.8919 9.2039 13.794 9.25286C12.6565 9.8212 11.2465 9.9987 9.99984 9.9987Z" fill="white"/>
</g>
<defs>
<clipPath id="clip0_19170_105917">
<rect width="20" height="20" fill="white"/>
</clipPath>
</defs>
</svg>
