<svg width="20" height="20" viewBox="0 0 20 20" fill="none" xmlns="http://www.w3.org/2000/svg">
<path d="M15.6251 11.582H14.0866C13.9215 11.582 13.7602 11.631 13.623 11.7228L11.7417 12.982C11.4417 13.182 11.0917 13.2737 10.7501 13.2737C10.4584 13.2737 10.1667 13.207 9.90008 13.057C9.49859 12.8448 9.20368 12.4549 9.05884 12.0179C8.94283 11.6678 8.71152 11.3434 8.37814 11.1857C7.99545 11.0048 7.65044 10.7657 7.35841 10.4737C6.64175 9.75703 6.25008 8.7487 6.25008 7.6237V4.3737V4.16536C6.25008 3.70513 5.87699 3.33203 5.41675 3.33203C3.16675 3.33203 1.66675 4.45703 1.66675 7.08203V11.582C1.66675 14.207 3.16675 15.332 5.41675 15.332H8.54175V17.707H6.16675C5.82508 17.707 5.54175 17.9904 5.54175 18.332C5.54175 18.6737 5.82508 18.957 6.16675 18.957H12.1667C12.5084 18.957 12.7917 18.6737 12.7917 18.332C12.7917 17.9904 12.5084 17.707 12.1667 17.707H9.79175V15.332H12.9167C14.9129 15.332 16.3188 14.4465 16.6106 12.4137C16.6759 11.9581 16.2937 11.582 15.8334 11.582H15.6251Z" fill="white"/>
<path d="M15.625 1.66797H10.2083C8.96667 1.66797 8.03333 2.3013 7.66667 3.33464C7.55833 3.6513 7.5 4.0013 7.5 4.3763V7.6263C7.5 8.43464 7.76667 9.11797 8.24167 9.59297C8.71667 10.068 9.4 10.3346 10.2083 10.3346V11.493C10.2083 11.918 10.6917 12.1763 11.05 11.943L13.4583 10.3346H15.625C16 10.3346 16.35 10.2763 16.6667 10.168C17.7 9.8013 18.3333 8.86797 18.3333 7.6263V4.3763C18.3333 2.7513 17.25 1.66797 15.625 1.66797ZM10.5167 6.66797C10.1667 6.66797 9.89167 6.38464 9.89167 6.04297C9.89167 5.7013 10.1667 5.41797 10.5167 5.41797C10.8667 5.41797 11.1417 5.7013 11.1417 6.04297C11.1417 6.38464 10.8667 6.66797 10.5167 6.66797ZM12.8667 6.66797C12.5167 6.66797 12.2417 6.38464 12.2417 6.04297C12.2417 5.7013 12.525 5.41797 12.8667 5.41797C13.2083 5.41797 13.4917 5.7013 13.4917 6.04297C13.4917 6.38464 13.2083 6.66797 12.8667 6.66797ZM15.2083 6.66797C14.8583 6.66797 14.5833 6.38464 14.5833 6.04297C14.5833 5.7013 14.8667 5.41797 15.2083 5.41797C15.55 5.41797 15.8333 5.7013 15.8333 6.04297C15.8333 6.38464 15.55 6.66797 15.2083 6.66797Z" fill="white"/>
<path d="M18.3333 4.3763V7.6263C18.3333 8.86797 17.7 9.8013 16.6667 10.168C16.35 10.2763 16 10.3346 15.625 10.3346H13.4583L11.05 11.943C10.6917 12.1763 10.2083 11.918 10.2083 11.493V10.3346C9.4 10.3346 8.71667 10.068 8.24167 9.59297C7.76667 9.11797 7.5 8.43464 7.5 7.6263V4.3763C7.5 4.0013 7.55833 3.6513 7.66667 3.33464C8.03333 2.3013 8.96667 1.66797 10.2083 1.66797H15.625C17.25 1.66797 18.3333 2.7513 18.3333 4.3763Z" fill="white"/>
</svg>
