<svg width="20" height="20" viewBox="0 0 20 20" fill="none" xmlns="http://www.w3.org/2000/svg">
<path d="M17.5 18.332H2.5C2.15833 18.332 1.875 18.0487 1.875 17.707C1.875 17.3654 2.15833 17.082 2.5 17.082H17.5C17.8417 17.082 18.125 17.3654 18.125 17.707C18.125 18.0487 17.8417 18.332 17.5 18.332Z" fill="white"/>
<path d="M15.85 2.90005C14.2333 1.28338 12.65 1.24172 10.9916 2.90005L9.98331 3.90838C9.89998 3.99172 9.86665 4.12505 9.89998 4.24172C10.5333 6.45005 12.3 8.21672 14.5083 8.85005C14.5416 8.85838 14.575 8.86672 14.6083 8.86672C14.7 8.86672 14.7833 8.83338 14.85 8.76672L15.85 7.75838C16.675 6.94172 17.075 6.15005 17.075 5.35005C17.0833 4.52505 16.6833 3.72505 15.85 2.90005Z" fill="white"/>
<path d="M13.0084 9.60963C12.7668 9.49297 12.5334 9.3763 12.3084 9.24297C12.1251 9.13464 11.9501 9.01797 11.7751 8.89297C11.6334 8.8013 11.4668 8.66797 11.3084 8.53464C11.2918 8.5263 11.2334 8.4763 11.1668 8.40964C10.8918 8.1763 10.5834 7.8763 10.3084 7.54297C10.2834 7.5263 10.2418 7.46797 10.1834 7.39297C10.1001 7.29297 9.95844 7.1263 9.83344 6.93463C9.73344 6.80963 9.61677 6.6263 9.50844 6.44297C9.3751 6.21797 9.25844 5.99297 9.14177 5.75964C9.12412 5.72181 9.10703 5.68417 9.09047 5.64675C8.96749 5.36898 8.60529 5.28778 8.39049 5.50258L3.61677 10.2763C3.50844 10.3846 3.40844 10.593 3.38344 10.7346L2.93344 13.9263C2.8501 14.493 3.00844 15.0263 3.35844 15.3846C3.65844 15.6763 4.0751 15.8346 4.5251 15.8346C4.6251 15.8346 4.7251 15.8263 4.8251 15.8096L8.0251 15.3596C8.1751 15.3346 8.38344 15.2346 8.48344 15.1263L13.2512 10.3585C13.4675 10.1422 13.3859 9.77103 13.1046 9.65098C13.0729 9.63747 13.0409 9.62369 13.0084 9.60963Z" fill="white"/>
</svg>
