<svg width="18" height="18" viewBox="0 0 18 18" fill="none" xmlns="http://www.w3.org/2000/svg">
<path d="M12.6 6.75H9.5625V10.08L11.115 8.5275C11.2275 8.415 11.37 8.3625 11.5125 8.3625C11.655 8.3625 11.7975 8.415 11.91 8.5275C12.1275 8.745 12.1275 9.105 11.91 9.3225L9.3975 11.835C9.18 12.0525 8.82 12.0525 8.6025 11.835L6.09 9.3225C5.8725 9.105 5.8725 8.745 6.09 8.5275C6.3075 8.31 6.6675 8.31 6.885 8.5275L8.4375 10.08V6.75H5.4C3 6.75 1.5 8.25 1.5 10.65V12.5925C1.5 15 3 16.5 5.4 16.5H12.5925C14.9925 16.5 16.4925 15 16.4925 12.6V10.65C16.5 8.25 15 6.75 12.6 6.75Z" fill="#2B7FFF"/>
<path d="M9.5625 2.0625C9.5625 1.755 9.3075 1.5 9 1.5C8.6925 1.5 8.4375 1.755 8.4375 2.0625V6.75H9.5625V2.0625Z" fill="#2B7FFF"/>
</svg>
