<svg width="20" height="20" viewBox="0 0 20 20" fill="none" xmlns="http://www.w3.org/2000/svg">
<g clip-path="url(#clip0_2153_380228)">
<path d="M15.1024 1.09396C15.5065 1.44112 15.8448 1.8151 16.1328 2.26355C16.1605 2.30645 16.1882 2.34935 16.2168 2.39356C16.8943 3.50981 17.0714 4.88243 16.7744 6.1471C16.5728 6.93486 16.1958 7.62696 15.6641 8.24011C15.6306 8.28237 15.5973 8.32467 15.564 8.36707C15.4385 8.50862 15.3021 8.62778 15.1563 8.74793C15.121 8.77779 15.0857 8.80765 15.0493 8.83841C14.0292 9.66665 12.7068 10.0259 11.4052 9.90317C10.406 9.79047 9.47631 9.40164 8.71096 8.74793C8.65288 8.70004 8.65288 8.70004 8.59362 8.65119C7.65357 7.83983 7.05347 6.61271 6.95818 5.37604C6.89438 4.04969 7.23357 2.73042 8.13134 1.72244C8.2186 1.62759 8.30847 1.5355 8.39846 1.44324C8.4397 1.39769 8.4397 1.39769 8.48177 1.35123C9.0676 0.721965 9.88826 0.345403 10.7031 0.115113C10.7496 0.101769 10.7961 0.0884255 10.844 0.0746773C12.3147 -0.270155 13.9486 0.133892 15.1024 1.09396ZM11.4691 1.54273C11.3557 1.71689 11.3529 1.86429 11.3672 2.06824C11.3173 2.07549 11.2673 2.08274 11.2158 2.09021C10.8764 2.16612 10.5824 2.40683 10.3906 2.69324C10.1546 3.10752 10.0856 3.51876 10.1816 3.98932C10.3134 4.38684 10.5806 4.66506 10.9107 4.91004C10.941 4.93311 10.9714 4.95618 11.0026 4.97996C11.2458 5.16381 11.4929 5.34231 11.7407 5.51986C11.9249 5.65189 12.1075 5.78568 12.2876 5.92322C12.328 5.95398 12.3683 5.98475 12.4098 6.01645C12.5 6.09168 12.5 6.09168 12.5391 6.1698C12.5609 6.4362 12.5609 6.4362 12.4884 6.58926C12.3196 6.73056 12.1438 6.69983 11.9312 6.69226C11.89 6.69171 11.8488 6.69115 11.8064 6.69058C11.5061 6.68483 11.5061 6.68483 11.3672 6.63855C11.3384 6.53327 11.3384 6.53327 11.3159 6.39929C11.2663 6.16273 11.2047 6.01061 11.0156 5.8573C10.8669 5.7608 10.7261 5.77055 10.5554 5.79443C10.3905 5.83972 10.2809 5.93907 10.19 6.08466C10.0777 6.36825 10.1517 6.69754 10.2634 6.96936C10.4464 7.3376 10.7186 7.61116 11.1084 7.74451C11.2303 7.79059 11.2303 7.79059 11.3281 7.84949C11.3733 7.9508 11.3836 8.03462 11.3932 8.14475C11.4149 8.30274 11.4863 8.36721 11.6016 8.47449C11.7561 8.56392 11.8941 8.57085 12.0703 8.55261C12.2616 8.48566 12.383 8.37919 12.4748 8.19907C12.5185 8.06693 12.5097 7.94845 12.5 7.81043C12.5371 7.80881 12.5741 7.8072 12.6123 7.80554C12.942 7.75626 13.2009 7.52848 13.4079 7.28079C13.6903 6.88867 13.7443 6.52631 13.711 6.05261C13.6007 5.52918 13.2719 5.19851 12.8513 4.89756C12.7662 4.83643 12.6818 4.7743 12.5975 4.71198C12.4718 4.61898 12.3459 4.52614 12.2199 4.4335C12.1886 4.41052 12.1574 4.38754 12.1252 4.36387C12.0629 4.31806 12.0006 4.27227 11.9383 4.2265C11.8511 4.16238 11.7642 4.09801 11.6773 4.03357C11.651 4.01432 11.6247 3.99506 11.5976 3.97522C11.3414 3.7845 11.3414 3.7845 11.3137 3.62601C11.3128 3.59615 11.3119 3.56629 11.3111 3.53552C11.3095 3.50576 11.3079 3.476 11.3063 3.44534C11.3281 3.3573 11.3281 3.3573 11.4012 3.26941C11.5782 3.17046 11.7342 3.17675 11.9336 3.17908C11.9702 3.17815 12.0068 3.17721 12.0445 3.17626C12.2239 3.17664 12.316 3.18103 12.4646 3.28803C12.5401 3.39785 12.5649 3.4586 12.5781 3.58923C12.6099 3.79053 12.6652 3.88101 12.8125 4.02136C12.9782 4.12118 13.1316 4.12113 13.3203 4.09949C13.5045 4.02175 13.622 3.88685 13.711 3.70886C13.7548 3.30158 13.6479 2.94018 13.3985 2.61511C13.3574 2.55711 13.3574 2.55711 13.3155 2.49793C13.1404 2.29133 12.8697 2.15627 12.6172 2.06824C12.5785 2.06824 12.5399 2.06824 12.5 2.06824C12.5036 2.00781 12.5036 2.00781 12.5073 1.94617C12.4966 1.72322 12.4308 1.61065 12.2779 1.45056C11.9995 1.26675 11.7004 1.28548 11.4691 1.54273Z" fill="#0F172B"/>
<path d="M11.4062 11.522C11.4354 11.562 11.4645 11.602 11.4944 11.6432C11.6534 11.8016 11.8325 11.7833 12.0463 11.7839C12.0726 11.7834 12.0989 11.7829 12.1261 11.7824C12.2092 11.7809 12.2923 11.7809 12.3755 11.7812C12.5521 11.7815 12.7287 11.78 12.9053 11.7783C13.1098 11.7766 13.3143 11.7756 13.5189 11.7762C13.6003 11.7761 13.6817 11.7747 13.7632 11.7734C14.0563 11.7734 14.2693 11.7885 14.4922 11.9907C14.7043 12.2196 14.7429 12.3904 14.7359 12.6977C14.7137 12.9679 14.5682 13.0956 14.3726 13.2635C14.2164 13.3777 14.055 13.3638 13.8701 13.3641C13.8386 13.3643 13.8071 13.3645 13.7746 13.3647C13.7061 13.3651 13.6377 13.3655 13.5692 13.3657C13.4606 13.3662 13.3521 13.3669 13.2435 13.3678C12.9348 13.3702 12.6262 13.3723 12.3175 13.3736C12.1286 13.3744 11.9398 13.3758 11.751 13.3775C11.6792 13.3781 11.6074 13.3784 11.5356 13.3786C11.4348 13.3788 11.334 13.3797 11.2333 13.3807C11.1892 13.3806 11.1892 13.3806 11.1442 13.3804C10.8941 13.3843 10.669 13.429 10.4883 13.6143C10.4097 13.7943 10.4031 13.9457 10.4297 14.1392C10.4975 14.3069 10.5809 14.3743 10.7422 14.4517C10.854 14.463 10.9572 14.4681 11.0689 14.4675C11.1013 14.4677 11.1337 14.468 11.1671 14.4683C11.2742 14.469 11.3812 14.4688 11.4882 14.4686C11.563 14.4688 11.6378 14.469 11.7126 14.4692C11.8694 14.4696 12.0263 14.4695 12.1831 14.4691C12.3831 14.4687 12.583 14.4694 12.7829 14.4706C12.9375 14.4713 13.0921 14.4713 13.2467 14.4711C13.3204 14.4711 13.394 14.4713 13.4677 14.4718C14.2422 14.4762 14.7695 14.2729 15.383 13.7891C15.5533 13.6549 15.7281 13.5286 15.9058 13.4043C16.1381 13.2416 16.3693 13.0775 16.5991 12.9112C16.6428 12.8795 16.6428 12.8795 16.6874 12.8473C16.7465 12.8045 16.8056 12.7617 16.8646 12.7189C17.0402 12.5917 17.216 12.4648 17.3919 12.338C17.5426 12.2293 17.693 12.1202 17.843 12.0104C18.7708 11.3328 18.7708 11.3328 19.1797 11.3657C19.4436 11.4379 19.6162 11.5254 19.7656 11.7564C19.8956 11.9939 19.9199 12.2015 19.8659 12.4636C19.7618 12.7979 19.4676 12.9963 19.1895 13.1846C19.1306 13.2253 19.0717 13.2661 19.0129 13.307C18.9826 13.328 18.9522 13.3491 18.921 13.3708C18.7652 13.4803 18.6124 13.5937 18.4595 13.7071C18.1315 13.9499 17.8013 14.1895 17.4701 14.4279C17.3237 14.5333 17.1775 14.639 17.0312 14.7447C16.9727 14.787 16.9141 14.8293 16.8555 14.8716C16.8265 14.8926 16.7975 14.9135 16.7676 14.9351C16.6797 14.9986 16.5918 15.062 16.5039 15.1255C16.4749 15.1465 16.4459 15.1674 16.416 15.189C16.3574 15.2313 16.2988 15.2736 16.2401 15.3158C16.0933 15.4215 15.9472 15.5279 15.8022 15.6361C14.5991 16.5282 13.3993 17.0002 11.8949 16.9952C11.8491 16.9952 11.8033 16.9952 11.7561 16.9952C11.6067 16.9952 11.4573 16.9949 11.3078 16.9946C11.2035 16.9945 11.0991 16.9944 10.9947 16.9944C10.7493 16.9943 10.5039 16.994 10.2585 16.9936C9.97878 16.9931 9.69906 16.9929 9.41933 16.9927C8.84466 16.9923 8.26999 16.9916 7.69531 16.9907C7.60381 16.8322 7.51231 16.6736 7.42081 16.515C7.40731 16.4916 7.39382 16.4682 7.37992 16.4441C7.23428 16.1917 7.08866 15.9393 6.94321 15.6867C6.7362 15.3274 6.52891 14.9683 6.31954 14.6104C6.20494 14.4144 6.09074 14.2182 5.97656 14.022C5.96299 13.9987 5.94941 13.9754 5.93543 13.9514C5.84822 13.8019 5.76132 13.6521 5.67479 13.5022C5.64673 13.4536 5.61857 13.4052 5.59031 13.3567C5.5509 13.2892 5.51188 13.2214 5.47287 13.1536C5.45037 13.1148 5.42787 13.076 5.40469 13.0359C5.35289 12.9309 5.32312 12.8493 5.3125 12.7329C5.35724 12.6386 5.40079 12.5618 5.45898 12.4766C5.47488 12.4527 5.49077 12.4289 5.50714 12.4043C6.16102 11.4497 7.15723 10.8539 8.2832 10.6373C9.39348 10.4369 10.5567 10.7928 11.4062 11.522Z" fill="#0F172B"/>
<path d="M3.71575 12.4587C4.00149 12.6637 4.16233 13.0573 4.33343 13.3571C4.37219 13.4247 4.41096 13.4923 4.44974 13.5598C4.48968 13.6295 4.52958 13.6991 4.56946 13.7688C4.69289 13.9843 4.81716 14.1992 4.94134 14.4143C4.99012 14.4988 5.0389 14.5833 5.08767 14.6679C5.11183 14.7097 5.136 14.7516 5.16089 14.7948C5.23469 14.9227 5.30843 15.0507 5.38216 15.1787C5.59868 15.5545 5.81542 15.9301 6.03406 16.3047C6.07982 16.3831 6.12552 16.4615 6.17116 16.54C6.27791 16.7234 6.38552 16.9062 6.49545 17.0878C6.52545 17.1379 6.52545 17.1379 6.55606 17.1891C6.59308 17.2509 6.63051 17.3125 6.66844 17.3738C6.79538 17.5872 6.85279 17.7678 6.82641 18.0205C6.69478 18.3959 6.22551 18.5625 5.90081 18.7478C5.83365 18.7863 5.76649 18.8248 5.69934 18.8633C5.62986 18.9032 5.56037 18.943 5.49086 18.9828C5.31001 19.0864 5.1296 19.1908 4.9492 19.2952C4.82167 19.3689 4.69391 19.4422 4.56612 19.5154C4.42556 19.5962 4.28629 19.6784 4.14834 19.7635C3.89824 19.9161 3.68214 20.0399 3.37991 20.0354C3.04487 19.9158 2.8962 19.6013 2.73431 19.3068C2.69586 19.2386 2.65741 19.1703 2.61891 19.102C2.5792 19.0315 2.53971 18.9608 2.50026 18.8901C2.37788 18.6713 2.25198 18.4545 2.1264 18.2375C2.10212 18.1954 2.07785 18.1533 2.05284 18.11C1.89116 17.8296 1.72828 17.55 1.56487 17.2707C1.35224 16.9072 1.14285 16.542 0.9346 16.176C0.72987 15.8163 0.521383 15.459 0.308379 15.1042C0.28882 15.0714 0.269261 15.0387 0.249108 15.0049C0.22347 14.9623 0.22347 14.9623 0.197314 14.9188C0.109915 14.7598 0.0846387 14.5919 0.11712 14.4143C0.23217 14.1291 0.425628 14.0302 0.688409 13.8869C0.773555 13.8389 0.858699 13.7909 0.943841 13.7429C0.987913 13.7184 1.03199 13.6938 1.07739 13.6686C1.29248 13.5483 1.50545 13.4245 1.71868 13.301C1.80296 13.2525 1.88724 13.2039 1.97152 13.1554C2.14637 13.0546 2.32078 12.953 2.4949 12.8508C2.53797 12.8256 2.58105 12.8003 2.62544 12.7743C2.70769 12.7261 2.78988 12.6777 2.87202 12.6292C2.9087 12.6077 2.94538 12.5862 2.98318 12.564C3.01538 12.545 3.04757 12.526 3.08075 12.5065C3.28816 12.3935 3.49445 12.3923 3.71575 12.4587Z" fill="#0F172B"/>
</g>
<defs>
<clipPath id="clip0_2153_380228">
<rect width="20" height="20" fill="white"/>
</clipPath>
</defs>
</svg>
