<svg width="20" height="20" viewBox="0 0 20 20" fill="none" xmlns="http://www.w3.org/2000/svg">
<path d="M15.3916 14.0263L15.7166 16.6596C15.7999 17.3513 15.0582 17.8346 14.4666 17.4763L11.5832 15.7596C11.3832 15.643 11.3332 15.393 11.4416 15.193C11.8582 14.4263 12.0832 13.5596 12.0832 12.693C12.0832 9.64297 9.46658 7.15964 6.24991 7.15964C5.59158 7.15964 4.94991 7.25963 4.34991 7.45964C4.04158 7.55964 3.74158 7.2763 3.81658 6.95964C4.57491 3.9263 7.49158 1.66797 10.9749 1.66797C15.0416 1.66797 18.3332 4.74297 18.3332 8.53464C18.3332 10.7846 17.1749 12.7763 15.3916 14.0263Z" fill="white"/>
<path d="M10.8334 12.6935C10.8334 13.6852 10.4667 14.6018 9.85008 15.3268C9.02508 16.3268 7.71675 16.9685 6.25008 16.9685L4.07508 18.2602C3.70841 18.4852 3.24175 18.1768 3.29175 17.7518L3.50008 16.1102C2.38341 15.3352 1.66675 14.0935 1.66675 12.6935C1.66675 11.2268 2.45008 9.93516 3.65008 9.16849C4.39175 8.68516 5.28341 8.41016 6.25008 8.41016C8.78341 8.41016 10.8334 10.3268 10.8334 12.6935Z" fill="white"/>
</svg>
