<svg width="20" height="20" viewBox="0 0 20 20" fill="none" xmlns="http://www.w3.org/2000/svg">
<path d="M1.98903 2.41808C2.02413 2.41805 2.05923 2.41801 2.0954 2.41798C2.21301 2.41792 2.33063 2.41813 2.44824 2.41834C2.53255 2.41836 2.61686 2.41835 2.70117 2.41833C2.93012 2.41832 3.15907 2.41855 3.38802 2.41882C3.62726 2.41906 3.8665 2.41909 4.10574 2.41913C4.55881 2.41925 5.01188 2.41957 5.46495 2.41997C5.98074 2.4204 6.49653 2.42062 7.01232 2.42081C8.07337 2.42122 9.13441 2.42191 10.1955 2.42278C10.1956 2.45467 10.1956 2.48655 10.1957 2.51941C10.1981 3.29603 10.201 4.07264 10.2047 4.84926C10.2064 5.22483 10.208 5.6004 10.209 5.97597C10.2099 6.3034 10.2112 6.63082 10.213 6.95824C10.2139 7.13154 10.2147 7.30483 10.2149 7.47813C10.2151 7.64143 10.2159 7.80471 10.2171 7.968C10.2175 8.02776 10.2176 8.08752 10.2175 8.14727C10.2171 8.64272 10.2693 9.01008 10.6251 9.3759C10.8868 9.58717 11.164 9.65875 11.499 9.66022C11.5405 9.66056 11.5405 9.66056 11.5829 9.6609C11.6749 9.66156 11.7669 9.66168 11.8589 9.6618C11.9251 9.66216 11.9914 9.66256 12.0576 9.66298C12.2369 9.66405 12.4162 9.66464 12.5955 9.66515C12.7831 9.66576 12.9707 9.66681 13.1583 9.66781C13.5132 9.66963 13.8682 9.67107 14.2232 9.67236C14.6274 9.67386 15.0316 9.67579 15.4359 9.67775C16.2672 9.68179 17.0985 9.68522 17.9298 9.6884C17.9298 10.5005 17.9298 11.3126 17.9298 12.1493C14.8103 12.1493 11.6908 12.1493 8.47671 12.1493C8.47671 11.595 8.47671 11.0407 8.47671 10.4697C8.38996 10.0793 8.28763 9.8754 7.9689 9.64934C7.71467 9.52223 7.40639 9.55414 7.1315 9.59319C7.00199 9.60909 6.9557 9.60162 6.83609 9.57122C6.63604 9.56065 6.43822 9.56317 6.24038 9.59563C6.07195 9.61247 5.97788 9.58791 5.82046 9.53215C5.82046 9.37747 5.82046 9.22278 5.82046 9.0634C5.88607 9.06255 5.88607 9.06255 5.953 9.06168C6.11594 9.05941 6.27886 9.05639 6.44178 9.05315C6.51217 9.05186 6.58257 9.05076 6.65296 9.04987C6.75441 9.04855 6.85581 9.04651 6.95724 9.04433C7.00413 9.04396 7.00413 9.04396 7.05197 9.04357C7.24402 9.03857 7.36902 9.00442 7.53921 8.90715C7.56499 8.90715 7.59077 8.90715 7.61734 8.90715C7.74047 8.58656 7.75184 8.28401 7.75009 7.94387C7.75017 7.88922 7.75028 7.83457 7.75043 7.77992C7.7506 7.66603 7.75035 7.55215 7.7498 7.43826C7.74913 7.29318 7.74952 7.14812 7.75022 7.00304C7.75065 6.8904 7.75051 6.77777 7.75021 6.66513C7.75013 6.61167 7.75022 6.55821 7.7505 6.50475C7.76679 6.06532 7.76679 6.06532 7.61734 5.66497C7.38546 5.48898 7.1851 5.4865 6.90062 5.48912C6.85676 5.48891 6.8129 5.4887 6.76771 5.48848C6.62321 5.48799 6.47873 5.48863 6.33423 5.48934C6.23359 5.48933 6.13295 5.48927 6.03231 5.48917C5.8216 5.48911 5.6109 5.48958 5.40019 5.49049C5.15697 5.49153 4.91376 5.4916 4.67054 5.49114C4.43601 5.49072 4.20148 5.49097 3.96694 5.49151C3.86737 5.49169 3.76781 5.4917 3.66824 5.49155C3.52911 5.49144 3.39 5.49208 3.25087 5.49293C3.20977 5.49276 3.16868 5.49258 3.12633 5.4924C2.91689 5.49453 2.75439 5.49931 2.57827 5.6259C2.4511 5.77953 2.44597 5.90939 2.44468 6.10502C2.44419 6.14679 2.44419 6.14679 2.44368 6.1894C2.44277 6.28107 2.44273 6.37271 2.44278 6.46437C2.4425 6.52834 2.4422 6.59231 2.44188 6.65628C2.44135 6.79022 2.44129 6.92414 2.44152 7.05808C2.44175 7.22942 2.44055 7.40071 2.43897 7.57204C2.43796 7.70411 2.43785 7.83617 2.43799 7.96825C2.43793 8.0314 2.43755 8.09455 2.43685 8.1577C2.43599 8.24616 2.43637 8.33453 2.43705 8.42298C2.43697 8.47322 2.43689 8.52347 2.43681 8.57523C2.46881 8.75533 2.52831 8.81768 2.6564 8.94622C2.80062 9.0264 2.9295 9.03568 3.09295 9.04051C3.13371 9.04191 3.17446 9.0433 3.21644 9.04473C3.26769 9.04606 3.31893 9.04739 3.37173 9.04875C3.53528 9.05359 3.69883 9.05842 3.86734 9.0634C3.86734 9.69504 3.86734 10.3267 3.86734 10.9775C3.73843 11.0419 3.60952 11.1064 3.47671 11.1728C3.28387 11.3228 3.16418 11.5289 3.08609 11.7587C3.0732 11.8876 3.06031 12.0165 3.04702 12.1493C2.23492 12.1493 1.42281 12.1493 0.586087 12.1493C0.582559 11.0152 0.579681 9.88112 0.577991 8.747C0.577832 8.64214 0.577669 8.53726 0.577504 8.43239C0.577463 8.40633 0.577422 8.38026 0.57738 8.35341C0.576701 7.93183 0.575469 7.51026 0.574032 7.08868C0.572569 6.65583 0.571714 6.22298 0.571386 5.79013C0.571182 5.54712 0.570704 5.30412 0.569567 5.06111C0.568504 4.83225 0.568179 4.6034 0.568414 4.37454C0.568371 4.29067 0.568062 4.2068 0.567461 4.12294C0.56668 4.00811 0.566872 3.89333 0.567297 3.7785C0.566842 3.74559 0.566387 3.71268 0.565918 3.67878C0.56963 3.30586 0.711178 3.00318 0.965573 2.73452C1.27315 2.46795 1.59733 2.41672 1.98903 2.41808Z" fill="#0F172B"/>
<path d="M10.7031 3.55469C13.5777 3.55469 16.4523 3.55469 19.414 3.55469C19.4173 4.39338 19.4205 5.23208 19.4238 6.09619C19.4252 6.36086 19.4267 6.62552 19.4281 6.8982C19.4288 7.22179 19.4288 7.22179 19.429 7.37335C19.4292 7.47905 19.4297 7.58471 19.4305 7.69041C19.4318 7.85064 19.4318 8.01085 19.4318 8.17109C19.4323 8.21805 19.4329 8.265 19.4335 8.31338C19.4322 8.57239 19.4144 8.73568 19.2578 8.94531C19.0424 9.14964 18.8468 9.19135 18.5566 9.19013C18.51 9.1904 18.51 9.1904 18.4625 9.19067C18.3586 9.19116 18.2547 9.1911 18.1507 9.19104C18.0762 9.19127 18.0016 9.19154 17.927 9.19183C17.7245 9.19252 17.522 9.1927 17.3195 9.19275C17.193 9.19281 17.0664 9.19298 16.9399 9.19318C16.4983 9.19391 16.0568 9.19423 15.6152 9.19416C15.2037 9.19412 14.7923 9.19494 14.3808 9.19618C14.0275 9.1972 13.6741 9.19762 13.3207 9.19757C13.1097 9.19755 12.8987 9.19777 12.6877 9.1986C12.4892 9.19935 12.2907 9.19936 12.0922 9.19879C12.0195 9.19871 11.9467 9.19889 11.874 9.19936C11.7744 9.19997 11.675 9.1996 11.5754 9.199C11.5468 9.1994 11.5182 9.19981 11.4888 9.20022C11.2495 9.19704 11.0382 9.12284 10.8656 8.95248C10.8515 8.92998 10.8373 8.90747 10.8227 8.88428C10.8079 8.86167 10.793 8.83906 10.7777 8.81577C10.7059 8.68288 10.6983 8.5739 10.6984 8.42593C10.6984 8.38313 10.6983 8.34033 10.6982 8.29624C10.6984 8.24909 10.6985 8.20193 10.6987 8.15335C10.6987 8.103 10.6987 8.05265 10.6987 8.00078C10.6986 7.86449 10.6989 7.72821 10.6991 7.59193C10.6994 7.46408 10.6994 7.33623 10.6994 7.20838C10.6996 6.8344 10.7002 6.46041 10.7007 6.08643C10.7015 5.25095 10.7023 4.41548 10.7031 3.55469ZM15.8127 5.27939C15.7183 5.37597 15.617 5.46291 15.5148 5.55099C15.3856 5.66332 15.2592 5.77881 15.1326 5.89401C14.8178 6.17179 14.8178 6.17179 14.6213 6.16364C14.4497 6.10489 14.3336 5.96405 14.2059 5.83984C14.0694 5.71209 13.9665 5.64509 13.789 5.58594C13.608 5.60435 13.535 5.64633 13.4009 5.76904C13.3029 5.92641 13.2827 5.98999 13.3203 6.17188C13.5016 6.47649 13.8425 6.70928 14.1113 6.93443C14.1699 6.98393 14.2275 7.03463 14.2848 7.08557C14.4166 7.19838 14.5177 7.28116 14.6948 7.29248C14.9699 7.24288 15.1508 7.04958 15.3467 6.86279C15.3951 6.81714 15.4437 6.77151 15.4922 6.72592C15.5153 6.70426 15.5383 6.6826 15.562 6.66029C15.66 6.56887 15.761 6.48101 15.8624 6.39343C15.9872 6.28491 16.1094 6.17355 16.232 6.06262C16.32 5.98384 16.4092 5.90683 16.499 5.83008C16.703 5.66391 16.703 5.66391 16.8115 5.4332C16.8203 5.2861 16.8064 5.21101 16.7285 5.08301C16.6177 4.97838 16.5441 4.93157 16.394 4.90723C16.1425 4.94232 15.9807 5.10352 15.8127 5.27939Z" fill="#0F172B"/>
<path d="M0.585969 12.657C0.930634 12.6488 1.27526 12.6426 1.62001 12.6388C1.78012 12.6369 1.94017 12.6345 2.10025 12.6305C2.25501 12.6266 2.40971 12.6245 2.56451 12.6236C2.62329 12.623 2.68207 12.6217 2.74082 12.6198C3.04406 12.6104 3.27067 12.6156 3.50717 12.8277C3.56286 12.8873 3.61787 12.9475 3.67191 13.0085C3.71722 13.0478 3.76321 13.0863 3.81046 13.1231C3.84136 13.1475 3.84136 13.1475 3.87288 13.1724C3.89357 13.1884 3.91426 13.2044 3.93558 13.2209C3.95843 13.2387 3.98129 13.2564 4.00483 13.2747C4.07593 13.3295 4.14732 13.3839 4.21878 13.4382C4.25358 13.465 4.25358 13.465 4.28909 13.4922C4.94622 13.994 5.70299 14.2343 6.53445 14.1244C7.15671 14.0136 7.6766 13.7125 8.05454 13.2061C8.17035 13.0281 8.26418 12.8474 8.35941 12.657C11.5176 12.657 14.6758 12.657 17.9297 12.657C17.9297 14.1356 17.9297 14.1356 17.5782 14.532C17.3021 14.7672 17.0522 14.8932 16.685 14.8936C16.6589 14.8937 16.6328 14.8939 16.6058 14.894C16.5183 14.8944 16.4308 14.8942 16.3433 14.894C16.2799 14.8941 16.2165 14.8943 16.1531 14.8945C15.9789 14.895 15.8047 14.895 15.6305 14.8949C15.4426 14.8949 15.2547 14.8953 15.0668 14.8957C14.6987 14.8963 14.3306 14.8966 13.9625 14.8966C13.6633 14.8966 13.3641 14.8968 13.0649 14.897C12.2166 14.8977 11.3683 14.8981 10.5199 14.898C10.4513 14.898 10.4513 14.898 10.3813 14.898C10.3356 14.898 10.2898 14.898 10.2426 14.898C9.50047 14.898 8.75837 14.8987 8.01626 14.8998C7.25428 14.901 6.49231 14.9015 5.73034 14.9014C5.30254 14.9014 4.87475 14.9016 4.44695 14.9025C4.0827 14.9032 3.71846 14.9033 3.35421 14.9028C3.1684 14.9025 2.9826 14.9025 2.7968 14.9032C2.62658 14.9038 2.45638 14.9037 2.28616 14.903C2.2247 14.9029 2.16324 14.9031 2.10179 14.9035C1.63758 14.9066 1.27447 14.8541 0.927918 14.5265C0.675568 14.259 0.572763 14.0144 0.57834 13.6412C0.57845 13.6129 0.578561 13.5846 0.578675 13.5555C0.579109 13.4659 0.580089 13.3764 0.581086 13.2869C0.581478 13.2258 0.581835 13.1648 0.582154 13.1038C0.583012 12.9548 0.584358 12.8059 0.585969 12.657ZM8.32034 13.5164C8.2943 13.6319 8.2943 13.6319 8.32034 13.7507C8.43409 13.8732 8.50016 13.905 8.6674 13.9266C8.72627 13.9273 8.78516 13.9272 8.84402 13.9264C8.87537 13.9264 8.90671 13.9265 8.939 13.9265C9.00505 13.9265 9.07111 13.926 9.13717 13.9252C9.23799 13.9241 9.33874 13.9244 9.43958 13.9249C9.50392 13.9247 9.56826 13.9243 9.6326 13.9239C9.66259 13.924 9.69259 13.9241 9.72349 13.9243C9.89965 13.9212 10.0172 13.9009 10.1563 13.7898C10.1999 13.6763 10.2049 13.621 10.1636 13.5066C10.1214 13.4323 10.1214 13.4323 10.0391 13.3992C9.92084 13.3943 9.80353 13.3918 9.68524 13.3912C9.65008 13.391 9.61492 13.3908 9.5787 13.3906C9.50426 13.3902 9.42982 13.3899 9.35538 13.3898C9.24135 13.3894 9.12734 13.3882 9.01332 13.387C8.94107 13.3867 8.86882 13.3865 8.79657 13.3864C8.76239 13.3859 8.72821 13.3854 8.69299 13.3849C8.64528 13.3851 8.64528 13.3851 8.59661 13.3852C8.56866 13.3851 8.5407 13.385 8.5119 13.3848C8.41449 13.4036 8.38019 13.4385 8.32034 13.5164Z" fill="#0F172B"/>
<path d="M5.11722 7.69515C5.28158 7.85951 5.31698 7.99496 5.32055 8.22176C5.32172 8.28744 5.32172 8.28744 5.32291 8.35445C5.32356 8.40169 5.32421 8.44894 5.32489 8.49761C5.3257 8.546 5.32651 8.59439 5.32735 8.64424C5.32947 8.77274 5.33143 8.90124 5.33332 9.02974C5.33528 9.16093 5.33746 9.29211 5.33961 9.42329C5.3438 9.68057 5.34777 9.93786 5.35159 10.1952C5.39717 10.1571 5.39717 10.1571 5.44368 10.1182C5.57775 10.0152 5.65164 10.0185 5.81439 10.0261C5.9299 10.0437 6.00373 10.0824 6.09378 10.1561C6.13245 10.2141 6.13245 10.2141 6.1719 10.2733C6.18756 10.2564 6.20322 10.2394 6.21936 10.222C6.34639 10.0976 6.44174 10.021 6.62356 10.012C6.81371 10.0247 6.90361 10.0967 7.03128 10.2342C7.03128 10.26 7.03128 10.2858 7.03128 10.3123C7.05706 10.3123 7.08284 10.3123 7.1094 10.3123C7.11907 10.289 7.12874 10.2656 7.1387 10.2415C7.19907 10.1359 7.23466 10.0949 7.34378 10.0389C7.53419 10.0055 7.66007 10.019 7.82962 10.1146C8.0736 10.4062 8.02114 10.8428 8.02017 11.2041C8.02005 11.3005 8.02097 11.3969 8.02196 11.4933C8.0246 12.1512 7.90463 12.7017 7.43976 13.1927C7.07667 13.527 6.61008 13.6851 6.12033 13.6777C5.34001 13.6333 4.80646 13.3533 4.23221 12.8476C4.12612 12.7544 4.01692 12.6675 3.90384 12.5828C3.56925 12.3219 3.56925 12.3219 3.539 12.1231C3.5336 11.9619 3.54183 11.8311 3.59866 11.6795C3.73219 11.5371 3.8541 11.4878 4.04788 11.4744C4.1517 11.4821 4.23667 11.4964 4.33597 11.5233C4.33602 11.4788 4.33608 11.4343 4.33613 11.3884C4.33679 10.9688 4.33846 10.5493 4.34113 10.1297C4.34246 9.91402 4.34344 9.69833 4.3436 9.48263C4.34377 9.27442 4.34488 9.06624 4.34665 8.85804C4.34715 8.77865 4.34732 8.69925 4.34714 8.61986C4.34695 8.50855 4.34797 8.39732 4.34927 8.28603C4.34893 8.25327 4.3486 8.22051 4.34825 8.18675C4.3514 8.02557 4.36491 7.92174 4.46743 7.79372C4.66937 7.6003 4.86792 7.5814 5.11722 7.69515Z" fill="#0F172B"/>
<path d="M5.30291 17.8803C5.35526 17.8801 5.35526 17.8801 5.40867 17.8799C5.52586 17.8795 5.64304 17.8796 5.76024 17.8798C5.84416 17.8796 5.92809 17.8794 6.01201 17.8792C6.24017 17.8786 6.46833 17.8786 6.69649 17.8787C6.88685 17.8788 7.07722 17.8786 7.26759 17.8784C7.71666 17.8779 8.16572 17.8779 8.61479 17.8782C9.07828 17.8784 9.54176 17.8779 10.0052 17.8771C10.403 17.8764 10.8007 17.8762 11.1984 17.8763C11.4361 17.8764 11.6737 17.8763 11.9113 17.8757C12.1348 17.8752 12.3583 17.8753 12.5817 17.8758C12.6638 17.8759 12.7458 17.8758 12.8279 17.8755C12.9398 17.8751 13.0518 17.8754 13.1637 17.8759C13.1962 17.8756 13.2287 17.8753 13.2622 17.875C13.5073 17.8773 13.6657 17.9352 13.855 18.098C14.0383 18.3111 14.0854 18.4825 14.0756 18.7598C14.0473 18.991 13.956 19.1552 13.7758 19.304C13.4693 19.499 13.0788 19.4454 12.7296 19.4424C12.6453 19.4425 12.5609 19.4427 12.4766 19.4431C12.2482 19.4436 12.0198 19.4427 11.7914 19.4416C11.5522 19.4405 11.3131 19.4407 11.0739 19.4408C10.6724 19.4407 10.2709 19.4396 9.86938 19.438C9.40521 19.4362 8.94104 19.4356 8.47686 19.4357C7.98248 19.4358 7.48811 19.4349 6.99373 19.4339C6.85131 19.4336 6.7089 19.4335 6.56649 19.4335C6.34278 19.4334 6.11909 19.4326 5.89539 19.4315C5.81329 19.4311 5.73118 19.431 5.64908 19.4311C5.53704 19.4311 5.42503 19.4304 5.313 19.4296C5.26422 19.4299 5.26422 19.4299 5.21446 19.4301C4.99171 19.4274 4.82742 19.3858 4.65514 19.2337C4.46572 19.0074 4.38807 18.8169 4.41405 18.5155C4.46851 18.2605 4.59051 18.1132 4.80467 17.9686C4.82487 17.9549 4.84506 17.9413 4.86586 17.9272C5.00896 17.8719 5.15164 17.8796 5.30291 17.8803Z" fill="#0F172B"/>
<path d="M7.06715 15.3868C7.11679 15.3868 7.11679 15.3868 7.16743 15.3869C7.20528 15.3868 7.24313 15.3868 7.28213 15.3867C7.34492 15.3869 7.34492 15.3869 7.40899 15.3871C7.47472 15.3871 7.47472 15.3871 7.54178 15.3871C7.68741 15.3872 7.83304 15.3875 7.97867 15.3878C8.07933 15.3878 8.17999 15.3879 8.28065 15.3879C8.51901 15.3881 8.75738 15.3884 8.99574 15.3888C9.26705 15.3892 9.53836 15.3894 9.80967 15.3896C10.3679 15.39 10.9261 15.3907 11.4844 15.3916C11.4884 15.421 11.4925 15.4503 11.4967 15.4806C11.5157 15.6165 11.5351 15.7524 11.5546 15.8883C11.561 15.9344 11.5673 15.9806 11.5739 16.0282C11.6335 16.4411 11.7342 16.8361 11.856 17.2346C11.875 17.3056 11.875 17.3056 11.875 17.3838C10.1348 17.3838 8.39453 17.3838 6.60156 17.3838C6.65313 17.1775 6.70469 16.9713 6.75781 16.7588C6.78833 16.6048 6.8174 16.452 6.84326 16.2973C6.84968 16.2609 6.8561 16.2245 6.86272 16.1869C6.90111 15.9626 6.92705 15.7401 6.94325 15.5131C6.9559 15.4074 6.96064 15.3936 7.06715 15.3868Z" fill="#0F172B"/>
<path d="M2.92969 5.97656C4.34766 5.97656 5.76562 5.97656 7.22656 5.97656C7.22656 6.82734 7.22656 7.67813 7.22656 8.55469C6.7625 8.55469 6.29844 8.55469 5.82031 8.55469C5.80742 8.37422 5.79453 8.19375 5.78125 8.00781C5.69924 7.69538 5.60272 7.47409 5.32471 7.29248C5.06528 7.14815 4.8563 7.11748 4.56787 7.1875C4.30291 7.27857 4.11353 7.4374 3.97736 7.68143C3.89183 7.86045 3.88052 8.02672 3.87695 8.22266C3.87373 8.33223 3.87051 8.4418 3.86719 8.55469C3.55781 8.55469 3.24844 8.55469 2.92969 8.55469C2.92969 7.70391 2.92969 6.85313 2.92969 5.97656Z" fill="#0F172B"/>
<path d="M11.4941 1.40243C11.529 1.40279 11.5638 1.40314 11.5997 1.4035C11.6261 1.40395 11.6525 1.40441 11.6797 1.40487C11.6802 1.44918 11.6802 1.44918 11.6808 1.49439C11.6829 1.62896 11.6862 1.76349 11.6895 1.89804C11.69 1.94452 11.6906 1.99099 11.6911 2.03888C11.6962 2.3803 11.6962 2.3803 11.875 2.65487C12.1 2.76959 12.3434 2.74753 12.5895 2.74748C12.673 2.74765 12.7563 2.74907 12.8397 2.75055C12.8933 2.75078 12.9468 2.75093 13.0003 2.75101C13.0486 2.75133 13.0969 2.75165 13.1466 2.75198C13.3072 2.72935 13.3905 2.67815 13.5156 2.57675C13.6581 2.34307 13.6538 2.10544 13.6597 1.837C13.661 1.79539 13.6623 1.75377 13.6637 1.71089C13.6669 1.6089 13.6695 1.50689 13.6719 1.40487C13.8008 1.40487 13.9297 1.40487 14.0625 1.40487C14.0631 1.43205 14.0636 1.45922 14.0642 1.48722C14.0671 1.61116 14.0709 1.73506 14.0747 1.85898C14.0756 1.90173 14.0765 1.94448 14.0774 1.98852C14.0842 2.30103 14.0842 2.30103 14.2188 2.57675C14.3939 2.71622 14.51 2.75271 14.7327 2.75238C14.7717 2.75246 14.7717 2.75246 14.8114 2.75255C14.8661 2.75249 14.9207 2.75204 14.9753 2.75122C15.0584 2.75009 15.1414 2.75042 15.2245 2.75093C15.5765 2.7506 15.5765 2.7506 15.8984 2.61581C16.0622 2.40281 16.0374 2.13568 16.0425 1.87851C16.0438 1.83299 16.0451 1.78747 16.0465 1.74057C16.0497 1.62868 16.0523 1.51678 16.0547 1.40487C16.1965 1.40487 16.3383 1.40487 16.4844 1.40487C16.4859 1.51077 16.4859 1.51077 16.4874 1.6188C16.4896 1.71188 16.4919 1.80496 16.4941 1.89804C16.4947 1.94452 16.4952 1.99099 16.4958 2.03888C16.5009 2.3803 16.5009 2.3803 16.6797 2.65487C16.9047 2.76959 17.1481 2.74753 17.3942 2.74748C17.4777 2.74765 17.561 2.74907 17.6444 2.75055C17.698 2.75078 17.7515 2.75093 17.805 2.75101C17.8533 2.75133 17.9015 2.75165 17.9513 2.75198C18.1118 2.72935 18.1951 2.67815 18.3203 2.57675C18.4628 2.34307 18.4585 2.10544 18.4644 1.837C18.4657 1.79539 18.467 1.75377 18.4684 1.71089C18.4716 1.60889 18.4743 1.5069 18.4766 1.40487C18.5381 1.40308 18.5996 1.40181 18.6612 1.40075C18.6955 1.39999 18.7297 1.39923 18.765 1.39844C18.977 1.41179 19.129 1.50772 19.2725 1.65878C19.5788 2.13005 19.4141 2.23045 19.4141 3.0455C16.5395 3.0455 13.6648 3.0455 10.7031 3.0455C10.7031 1.80064 10.7031 1.80064 10.929 1.56738C10.9622 1.54616 10.9622 1.54616 10.9961 1.5245C11.0182 1.50965 11.0404 1.49479 11.0632 1.47949C11.2049 1.40712 11.3368 1.40036 11.4941 1.40243Z" fill="#0F172B"/>
<path d="M14.6485 0.584592C14.7314 0.570048 14.7314 0.570048 14.8328 0.570401C14.8692 0.570426 14.9056 0.570452 14.9431 0.570477C14.9812 0.571107 15.0194 0.571736 15.0586 0.572385C15.0968 0.572259 15.1349 0.572133 15.1741 0.572003C15.4584 0.574165 15.4584 0.574165 15.5469 0.662717C15.5552 0.773407 15.5588 0.880181 15.5587 0.990933C15.5588 1.02349 15.559 1.05605 15.5592 1.0896C15.5594 1.15852 15.5594 1.22744 15.5593 1.29637C15.5591 1.40191 15.56 1.50742 15.561 1.61296C15.5611 1.67987 15.5612 1.74678 15.5611 1.81369C15.5615 1.84531 15.5618 1.87693 15.5622 1.9095C15.5604 2.13058 15.5604 2.13058 15.4924 2.21401C15.4112 2.27918 15.3634 2.27938 15.2601 2.27984C15.2275 2.27999 15.1949 2.28015 15.1613 2.2803C15.1105 2.27962 15.1105 2.27962 15.0586 2.27893C15.0078 2.27961 15.0078 2.27961 14.9559 2.2803C14.9234 2.28015 14.8908 2.28 14.8572 2.27984C14.8126 2.27964 14.8126 2.27964 14.7671 2.27944C14.6875 2.26428 14.6875 2.26428 14.6192 2.22493C14.5407 2.09988 14.5545 1.9667 14.5562 1.82361C14.5561 1.79197 14.5561 1.76033 14.5561 1.72774C14.5562 1.66089 14.5566 1.59403 14.5572 1.52718C14.5581 1.42482 14.558 1.32249 14.5578 1.22012C14.558 1.15517 14.5583 1.09022 14.5586 1.02527C14.5586 0.994624 14.5585 0.963982 14.5585 0.932411C14.5604 0.783092 14.5637 0.71175 14.6485 0.584592Z" fill="#0F172B"/>
<path d="M17.3492 0.572268C17.4033 0.572456 17.4033 0.572456 17.4585 0.572649C17.5124 0.571705 17.5124 0.571705 17.5674 0.570742C17.6192 0.570704 17.6192 0.570704 17.672 0.570665C17.7036 0.570549 17.7352 0.570432 17.7678 0.570312C17.8516 0.584856 17.8516 0.584856 17.9204 0.624739C17.997 0.747167 17.9854 0.875609 17.9843 1.01561C17.9844 1.04629 17.9845 1.07697 17.9847 1.10857C17.9847 1.17342 17.9845 1.23827 17.984 1.30312C17.9834 1.40223 17.984 1.50129 17.9848 1.6004C17.9847 1.66345 17.9846 1.72649 17.9843 1.78954C17.9847 1.83392 17.9847 1.83392 17.985 1.87919C17.9834 2.00216 17.9757 2.09464 17.9198 2.20522C17.8347 2.27918 17.7936 2.28375 17.6819 2.28255C17.6493 2.2824 17.6167 2.28225 17.5832 2.28209C17.5493 2.28113 17.5154 2.28018 17.4805 2.27919C17.4296 2.27912 17.4296 2.27912 17.3778 2.27904C17.1259 2.27553 17.1259 2.27553 16.9922 2.18642C16.9808 2.07095 16.9767 1.96379 16.978 1.84828C16.978 1.81477 16.978 1.78125 16.9779 1.74671C16.978 1.67579 16.9784 1.60486 16.9791 1.53393C16.98 1.42513 16.9799 1.31637 16.9796 1.20757C16.9798 1.13875 16.9801 1.06993 16.9804 1.00112C16.9804 0.968441 16.9804 0.935766 16.9803 0.902101C16.9842 0.589663 17.0652 0.574549 17.3492 0.572268Z" fill="#0F172B"/>
<path d="M12.6539 0.570736C12.7078 0.569301 12.7078 0.569301 12.7628 0.567837C12.7973 0.567686 12.8318 0.567535 12.8674 0.567379C12.899 0.567058 12.9306 0.566737 12.9632 0.566406C13.047 0.585384 13.047 0.585384 13.1158 0.645332C13.183 0.779065 13.181 0.90414 13.1797 1.05047C13.1799 1.08023 13.18 1.10998 13.1801 1.14064C13.1802 1.20341 13.1799 1.26619 13.1795 1.32896C13.1788 1.42491 13.1794 1.52079 13.1802 1.61673C13.1801 1.67781 13.18 1.7389 13.1797 1.79998C13.1801 1.8429 13.1801 1.8429 13.1805 1.88668C13.1788 2.00703 13.1702 2.09684 13.1158 2.20512C13.028 2.28162 12.9829 2.28425 12.8674 2.28308C12.8329 2.28293 12.7984 2.28278 12.7628 2.28262C12.7269 2.28166 12.6909 2.28071 12.6539 2.27972C12.6178 2.27967 12.5818 2.27962 12.5446 2.27957C12.2767 2.27605 12.2767 2.27605 12.1876 2.18695C12.1798 2.07298 12.1767 1.96281 12.1772 1.84881C12.1772 1.81529 12.1771 1.78178 12.177 1.74724C12.177 1.67631 12.1771 1.60539 12.1774 1.53446C12.1778 1.42566 12.1774 1.31689 12.1769 1.2081C12.177 1.13928 12.1771 1.07046 12.1772 1.00164C12.1771 0.968969 12.1769 0.936294 12.1768 0.902629C12.1798 0.534462 12.3405 0.571173 12.6539 0.570736Z" fill="#0F172B"/>
</svg>
