<svg width="20" height="20" viewBox="0 0 20 20" fill="none" xmlns="http://www.w3.org/2000/svg">
<path d="M5.83341 1.66797H5.00008C2.50008 1.66797 1.66675 3.15964 1.66675 5.0013V5.83463V17.5013C1.66675 18.193 2.45008 18.5846 3.00008 18.168L4.42508 17.1013C4.75841 16.8513 5.22508 16.8846 5.52508 17.1846L6.90841 18.5763C7.23341 18.9013 7.76675 18.9013 8.09175 18.5763L9.49175 17.1763C9.78341 16.8846 10.2501 16.8513 10.5751 17.1013L12.0001 18.168C12.5501 18.5763 13.3334 18.1846 13.3334 17.5013V3.33464C13.3334 2.41797 14.0834 1.66797 15.0001 1.66797H5.83341ZM4.97508 11.6763C4.51675 11.6763 4.14175 11.3013 4.14175 10.843C4.14175 10.3846 4.51675 10.0096 4.97508 10.0096C5.43341 10.0096 5.80841 10.3846 5.80841 10.843C5.80841 11.3013 5.43341 11.6763 4.97508 11.6763ZM4.97508 8.34297C4.51675 8.34297 4.14175 7.96797 4.14175 7.50963C4.14175 7.0513 4.51675 6.6763 4.97508 6.6763C5.43341 6.6763 5.80841 7.0513 5.80841 7.50963C5.80841 7.96797 5.43341 8.34297 4.97508 8.34297ZM10.0001 11.468H7.50008C7.15841 11.468 6.87508 11.1846 6.87508 10.843C6.87508 10.5013 7.15841 10.218 7.50008 10.218H10.0001C10.3417 10.218 10.6251 10.5013 10.6251 10.843C10.6251 11.1846 10.3417 11.468 10.0001 11.468ZM10.0001 8.13463H7.50008C7.15841 8.13463 6.87508 7.8513 6.87508 7.50963C6.87508 7.16797 7.15841 6.88463 7.50008 6.88463H10.0001C10.3417 6.88463 10.6251 7.16797 10.6251 7.50963C10.6251 7.8513 10.3417 8.13463 10.0001 8.13463Z" fill="#0F172B"/>
<path d="M15.0083 1.66797V2.91797C15.5583 2.91797 16.0833 3.14297 16.4666 3.51797C16.8666 3.9263 17.0833 4.4513 17.0833 5.0013V7.01797C17.0833 7.63464 16.8083 7.91797 16.1833 7.91797H14.5833V3.34297C14.5833 3.10964 14.7749 2.91797 15.0083 2.91797V1.66797ZM15.0083 1.66797C14.0833 1.66797 13.3333 2.41797 13.3333 3.34297V9.16797H16.1833C17.4999 9.16797 18.3333 8.33464 18.3333 7.01797V5.0013C18.3333 4.08464 17.9583 3.2513 17.3583 2.64297C16.7499 2.04297 15.9249 1.6763 15.0083 1.66797C15.0166 1.66797 15.0083 1.66797 15.0083 1.66797Z" fill="#0F172B"/>
</svg>
