<svg width="20" height="20" viewBox="0 0 20 20" fill="none" xmlns="http://www.w3.org/2000/svg">
<path d="M9.9998 11.668C5.8248 11.668 2.4248 14.468 2.4248 17.918C2.4248 18.1513 2.60814 18.3346 2.84147 18.3346H17.1581C17.3915 18.3346 17.5748 18.1513 17.5748 17.918C17.5748 14.468 14.1748 11.668 9.9998 11.668Z" fill="#0F172B"/>
<path d="M13.9333 8.6263L13.1333 7.8263C13.5499 7.2013 13.7916 6.4513 13.7916 5.64297C13.7916 3.44297 12.0083 1.66797 9.81658 1.66797C7.62492 1.66797 5.83325 3.4513 5.83325 5.64297C5.83325 7.83464 7.61659 9.61797 9.80825 9.61797C10.6166 9.61797 11.3666 9.3763 11.9916 8.95964L12.7916 9.75963C12.9499 9.91797 13.1583 9.99297 13.3583 9.99297C13.5666 9.99297 13.7749 9.91797 13.9249 9.75963C14.2416 9.4513 14.2416 8.94297 13.9333 8.6263Z" fill="#0F172B"/>
</svg>
