<svg width="24" height="24" viewBox="0 0 24 24" fill="none" xmlns="http://www.w3.org/2000/svg">
<g clip-path="url(#clip0_46192_26956)">
<path d="M23.2031 0.654627C23.2691 0.808604 23.2508 0.886155 23.2031 1.04721C23.0767 1.31155 22.8467 1.49025 22.6267 1.67581C22.3363 1.92938 22.0672 2.20546 21.7952 2.47835C21.7004 2.57334 21.6054 2.66809 21.5104 2.76281C21.221 3.05201 20.9343 3.34037 20.6719 3.65463C20.6279 3.70541 20.5839 3.75613 20.5399 3.80679C19.9814 4.45448 19.4412 5.11407 18.9258 5.79655C18.8379 5.91229 18.7492 6.02733 18.6603 6.1423C18.33 6.57036 18.0081 7.00122 17.7082 7.4512C17.5792 7.64414 17.4458 7.83277 17.3075 8.01908C17.0001 8.43323 16.7141 8.85928 16.4326 9.29135C16.3847 9.36463 16.3368 9.4379 16.2889 9.51118C15.9636 10.009 15.6401 10.5077 15.3281 11.014C15.2986 11.0618 15.269 11.1096 15.2386 11.1589C14.7643 11.9281 14.3099 12.706 13.875 13.4984C13.8264 13.5865 13.7777 13.6746 13.7291 13.7628C13.3933 14.3729 13.0674 14.9879 12.75 15.6078C12.7359 15.6353 12.7218 15.6629 12.7072 15.6913C11.9636 17.1444 11.3106 18.6282 10.681 20.1337C10.3754 20.8643 10.0666 21.5925 9.72656 22.3079C9.70346 22.3568 9.68037 22.4058 9.65657 22.4561C9.47367 22.8352 9.31865 23.0994 8.90625 23.2484C8.07343 23.4789 7.17247 23.4916 6.31641 23.3978C6.28461 23.3945 6.25281 23.3912 6.22005 23.3878C5.82156 23.3381 5.6088 23.2195 5.35524 22.9174C5.12841 22.6205 4.92335 22.3086 4.7168 21.9974C4.62478 21.8594 4.53259 21.7216 4.44031 21.5838C4.40654 21.5333 4.40654 21.5333 4.37209 21.4818C3.86796 20.7311 3.33613 19.9959 2.7453 19.3109C2.63591 19.183 2.53058 19.0529 2.42578 18.9212C2.24502 18.6986 2.05162 18.4905 1.85449 18.2826C0.75 17.1148 0.75 17.1148 0.75 16.5453C0.847278 15.9788 1.28746 15.5979 1.73437 15.2796C1.94648 15.1417 2.16621 15.0212 2.39062 14.9046C2.43008 14.8832 2.46954 14.8617 2.51019 14.8396C2.92646 14.6402 3.4529 14.6461 3.88477 14.7962C3.96549 14.8309 4.04562 14.867 4.125 14.9046C4.16216 14.9205 4.19932 14.9364 4.23761 14.9528C5.73492 15.6347 6.92617 17.2726 7.64062 18.7015C7.65724 18.6654 7.67386 18.6294 7.69098 18.5922C7.90369 18.1333 8.12247 17.6774 8.34239 17.2219C8.46257 16.9729 8.58261 16.7239 8.70081 16.474C9.2619 15.2884 9.84063 14.1085 10.48 12.963C10.5522 12.8324 10.6229 12.7012 10.6934 12.5697C11.0513 11.9013 11.4257 11.2442 11.8125 10.5921C11.8371 10.5505 11.8617 10.509 11.887 10.4661C12.227 9.89223 12.5776 9.32558 12.9375 8.764C12.9727 8.70896 12.9727 8.70896 13.0086 8.65281C13.6164 7.70464 14.2508 6.77361 14.9062 5.85775C14.9304 5.82391 14.9545 5.79006 14.9794 5.75519C15.351 5.23441 15.7329 4.72265 16.125 4.21713C16.1476 4.18788 16.1702 4.15864 16.1935 4.1285C16.9513 3.14882 17.7613 2.1604 18.75 1.40463C18.784 1.37762 18.8179 1.35061 18.8529 1.32278C19.3777 0.93453 20.0928 0.881767 20.7217 0.789393C20.8031 0.77715 20.8846 0.764904 20.966 0.752657C22.9659 0.455388 22.9659 0.455388 23.2031 0.654627Z" fill="#00C16A"/>
</g>
<defs>
<clipPath id="clip0_46192_26956">
<rect width="24" height="24" fill="white"/>
</clipPath>
</defs>
</svg>
