<svg width="24" height="24" viewBox="0 0 24 24" fill="none" xmlns="http://www.w3.org/2000/svg">
<g clip-path="url(#clip0_45410_40352)">
<path d="M12.2807 -0.00151123C12.4965 0.100692 12.5981 0.208553 12.7026 0.420364C12.7185 0.567455 12.7185 0.567455 12.7163 0.730361C12.7158 0.788822 12.7154 0.847283 12.7149 0.907516C12.7138 0.968152 12.7126 1.02879 12.7114 1.09126C12.7104 1.18358 12.7104 1.18358 12.7094 1.27776C12.7078 1.42948 12.7055 1.58116 12.7026 1.73286C12.7304 1.71607 12.7583 1.69928 12.787 1.68197C12.9147 1.60549 13.043 1.53001 13.1713 1.45454C13.2151 1.42811 13.2589 1.40167 13.3041 1.37443C13.5951 1.20447 13.8279 1.08895 14.1724 1.13979C14.3907 1.22499 14.5646 1.32781 14.6713 1.54536C14.7373 1.77701 14.7471 1.98869 14.6537 2.21333C14.4259 2.58492 13.9268 2.77852 13.558 2.98384C13.4635 3.03673 13.3691 3.08965 13.2746 3.14259C13.2333 3.1656 13.1921 3.1886 13.1496 3.2123C13.0667 3.2593 12.985 3.30824 12.9041 3.35862C12.7963 3.42036 12.7963 3.42036 12.7026 3.42036C12.718 5.64786 12.7335 7.87536 12.7494 10.1704C13.5325 9.39886 14.3157 8.62736 15.1225 7.83247C15.3705 7.58957 15.6185 7.34667 15.8741 7.09641C16.095 6.87738 16.095 6.87738 16.3155 6.65796C16.4138 6.56021 16.5128 6.46329 16.6124 6.36682C16.7394 6.24368 16.865 6.11926 16.9896 5.99378C17.0573 5.92641 17.1262 5.86043 17.1953 5.79451C17.4121 5.58547 17.4121 5.58547 17.4904 5.30784C17.4673 5.18732 17.4344 5.08144 17.3901 4.96724C17.3747 4.90811 17.3593 4.84899 17.3435 4.78807C17.3277 4.73263 17.3119 4.67719 17.2956 4.62007C17.2783 4.55752 17.2611 4.49496 17.244 4.43239C17.2175 4.33629 17.1907 4.24032 17.1631 4.14457C16.9479 3.39689 16.9479 3.39689 17.1088 3.04536C17.2498 2.88516 17.4133 2.73011 17.6325 2.70607C17.9056 2.69821 18.0694 2.71357 18.2807 2.90474C18.4728 3.14659 18.542 3.39995 18.6205 3.69575C18.6394 3.76428 18.6394 3.76428 18.6586 3.83418C18.6894 3.94613 18.7196 4.05818 18.7494 4.17036C18.7681 4.15122 18.7867 4.13208 18.806 4.11235C18.8914 4.02499 18.9771 3.93801 19.0629 3.85103C19.0923 3.82091 19.1216 3.79078 19.1518 3.75975C19.5157 3.39207 19.5157 3.39207 19.7761 3.35316C20.0643 3.35279 20.2641 3.35256 20.4838 3.56099C20.6653 3.81694 20.6715 4.05321 20.6244 4.35786C20.5569 4.51052 20.4599 4.61482 20.3432 4.73286C20.3221 4.75461 20.301 4.77635 20.2793 4.79876C20.1312 4.95126 19.9803 5.10063 19.8276 5.24849C19.8559 5.25603 19.8843 5.26356 19.9135 5.27133C20.0432 5.30615 20.1727 5.34177 20.3022 5.37739C20.3691 5.39516 20.3691 5.39516 20.4373 5.41328C20.755 5.50153 20.9794 5.59142 21.2045 5.84029C21.3077 6.05467 21.3184 6.23331 21.2807 6.46724C21.1782 6.67223 21.0545 6.81594 20.8588 6.93599C20.5636 6.99633 20.3507 6.96694 20.0641 6.88325C20.0256 6.87267 19.987 6.86209 19.9473 6.85119C19.8252 6.81761 19.7033 6.78313 19.5815 6.74849C19.459 6.71393 19.3364 6.67959 19.2137 6.64579C19.1376 6.62481 19.0616 6.60339 18.9858 6.58147C18.7485 6.51356 18.7485 6.51356 18.5151 6.56099C18.4144 6.64087 18.4144 6.64087 18.3146 6.74458C18.2749 6.784 18.2353 6.82343 18.1945 6.86405C18.1513 6.90779 18.108 6.95154 18.0635 6.99661C18.0166 7.04358 17.9696 7.09051 17.9226 7.13742C17.7968 7.26317 17.6715 7.38934 17.5462 7.5156C17.4286 7.63399 17.3107 7.752 17.1927 7.87005C16.848 8.21554 16.5038 8.56164 16.1596 8.90767C15.39 9.68014 14.6205 10.4526 13.8276 11.2485C17.1688 11.2717 17.1688 11.2717 20.5776 11.2954C20.624 11.1561 20.624 11.1561 20.6713 11.0141C20.7183 10.9202 20.7183 10.9202 20.7682 10.8371C20.7869 10.8056 20.8056 10.7741 20.8248 10.7417C20.8447 10.7088 20.8647 10.6759 20.8852 10.642C20.9275 10.5716 20.9698 10.5012 21.0121 10.4307C21.0334 10.3953 21.0548 10.3599 21.0768 10.3234C21.1375 10.2215 21.1965 10.1187 21.2549 10.0155C21.2731 9.98379 21.2912 9.95212 21.31 9.9195C21.3441 9.85999 21.3778 9.80023 21.411 9.74017C21.5431 9.51316 21.6982 9.37151 21.9514 9.29311C22.2024 9.26686 22.369 9.28851 22.5932 9.42036C22.7485 9.57565 22.8282 9.7214 22.8744 9.93599C22.8666 10.2895 22.7234 10.5283 22.5434 10.8266C22.5168 10.8719 22.4902 10.9171 22.4627 10.9638C22.3974 11.0746 22.3315 11.1851 22.2651 11.2954C22.3034 11.2944 22.3416 11.2934 22.3811 11.2924C22.5553 11.2885 22.7295 11.286 22.9037 11.2836C22.964 11.2821 23.0242 11.2805 23.0863 11.2789C23.5864 11.2737 23.5864 11.2737 23.7515 11.3752C23.9477 11.572 24.0196 11.7161 24.02 11.9956C24.0134 12.2366 23.9829 12.3807 23.8119 12.561C23.626 12.6972 23.4963 12.7185 23.2676 12.7153C23.1799 12.7147 23.1799 12.7147 23.0904 12.714C23.0298 12.7128 22.9691 12.7116 22.9067 12.7104C22.8451 12.7098 22.7836 12.7091 22.7202 12.7085C22.5685 12.7068 22.4168 12.7045 22.2651 12.7016C22.2819 12.7295 22.2987 12.7573 22.316 12.786C22.3924 12.9137 22.4679 13.042 22.5434 13.1704C22.5698 13.2142 22.5963 13.258 22.6235 13.3031C22.7935 13.5942 22.909 13.827 22.8581 14.1714C22.7729 14.3898 22.6701 14.5636 22.4526 14.6704C22.2209 14.7363 22.0092 14.7462 21.7846 14.6528C21.413 14.4249 21.2194 13.9259 21.0141 13.5571C20.9612 13.4626 20.9083 13.3681 20.8553 13.2736C20.8323 13.2324 20.8093 13.1911 20.7856 13.1486C20.7386 13.0658 20.6897 12.984 20.6393 12.9032C20.5776 12.7954 20.5776 12.7954 20.5776 12.7016C17.2363 12.7248 17.2363 12.7248 13.8276 12.7485C14.9848 13.9231 14.9848 13.9231 16.1655 15.1215C16.4084 15.3696 16.6513 15.6176 16.9015 15.8731C17.1206 16.094 17.1206 16.094 17.34 16.3146C17.4377 16.4129 17.5346 16.5119 17.6311 16.6114C17.7543 16.7384 17.8787 16.864 18.0042 16.9887C18.0715 17.0563 18.1375 17.1253 18.2034 17.1943C18.4125 17.4112 18.4125 17.4112 18.6901 17.4894C18.8106 17.4664 18.9165 17.4335 19.0307 17.3891C19.1194 17.3661 19.1194 17.3661 19.2099 17.3426C19.2653 17.3267 19.3207 17.3109 19.3779 17.2946C19.4404 17.2774 19.503 17.2602 19.5655 17.243C19.6616 17.2165 19.7576 17.1898 19.8534 17.1621C20.601 16.947 20.601 16.947 20.9526 17.1079C21.1128 17.2488 21.2678 17.4124 21.2919 17.6315C21.2997 17.9046 21.2844 18.0684 21.0932 18.2797C20.8513 18.4718 20.598 18.541 20.3022 18.6196C20.2565 18.6322 20.2108 18.6447 20.1638 18.6577C20.0518 18.6884 19.9398 18.7187 19.8276 18.7485C19.8467 18.7671 19.8659 18.7858 19.8856 18.805C19.9729 18.8904 20.0599 18.9762 20.1469 19.062C20.1921 19.106 20.1921 19.106 20.2382 19.1509C20.6059 19.5147 20.6059 19.5147 20.6448 19.7752C20.6451 20.0634 20.6454 20.2632 20.4369 20.4829C20.181 20.6643 19.9447 20.6705 19.6401 20.6235C19.4874 20.5559 19.3831 20.459 19.2651 20.3422C19.2433 20.3211 19.2216 20.3 19.1992 20.2783C19.0467 20.1302 18.8973 19.9794 18.7494 19.8266C18.7419 19.855 18.7344 19.8833 18.7266 19.9125C18.6918 20.0422 18.6562 20.1717 18.6205 20.3012C18.6087 20.3458 18.5969 20.3904 18.5846 20.4364C18.4964 20.754 18.4065 20.9784 18.1576 21.2036C17.9433 21.3068 17.7646 21.3175 17.5307 21.2797C17.3257 21.1772 17.182 21.0535 17.0619 20.8579C17.0016 20.5626 17.031 20.3497 17.1147 20.0632C17.1253 20.0246 17.1358 19.9861 17.1467 19.9463C17.1803 19.8242 17.2148 19.7024 17.2494 19.5805C17.284 19.458 17.3183 19.3354 17.3521 19.2127C17.3731 19.1366 17.3945 19.0606 17.4165 18.9848C17.4844 18.7475 17.4844 18.7475 17.4369 18.5141C17.3571 18.4135 17.3571 18.4135 17.2534 18.3136C17.2139 18.274 17.1745 18.2344 17.1339 18.1936C17.0901 18.1503 17.0464 18.1071 17.0013 18.0625C16.9544 18.0156 16.9074 17.9686 16.8605 17.9217C16.7348 17.7959 16.6086 17.6705 16.4823 17.5453C16.3639 17.4277 16.2459 17.3097 16.1279 17.1917C15.7824 16.847 15.4363 16.5029 15.0903 16.1586C13.9316 15.0043 13.9316 15.0043 12.7494 13.8266C12.734 16.0541 12.7185 18.2816 12.7026 20.5766C12.7954 20.6076 12.8882 20.6385 12.9838 20.6704C13.0777 20.7173 13.0777 20.7173 13.1609 20.7672C13.1924 20.7859 13.2238 20.8046 13.2562 20.8239C13.2891 20.8438 13.322 20.8637 13.3559 20.8842C13.4263 20.9265 13.4968 20.9688 13.5672 21.0111C13.6026 21.0325 13.638 21.0539 13.6745 21.0759C13.7765 21.1366 13.8792 21.1955 13.9825 21.2539C14.03 21.2812 14.03 21.2812 14.0784 21.309C14.1379 21.3432 14.1977 21.3769 14.2578 21.41C14.4848 21.5421 14.6264 21.6973 14.7048 21.9505C14.7311 22.2014 14.7094 22.3681 14.5776 22.5922C14.4223 22.7475 14.2765 22.8272 14.0619 22.8735C13.7085 22.8656 13.4696 22.7224 13.1713 22.5424C13.1261 22.5158 13.0808 22.4892 13.0342 22.4618C12.9233 22.3965 12.8128 22.3306 12.7026 22.2641C12.7036 22.3024 12.7045 22.3407 12.7055 22.3801C12.7095 22.5543 12.7119 22.7285 12.7143 22.9028C12.7159 22.963 12.7174 23.0233 12.719 23.0853C12.7242 23.5855 12.7242 23.5855 12.6227 23.7506C12.4259 23.9467 12.2818 24.0186 12.0024 24.019C11.7614 24.0125 11.6172 23.982 11.4369 23.811C11.2835 23.6108 11.2764 23.4304 11.2785 23.1869C11.2782 23.128 11.2782 23.128 11.2778 23.0679C11.2773 22.9357 11.2777 22.8034 11.2781 22.6712C11.278 22.5757 11.2777 22.4802 11.2774 22.3847C11.2767 22.1217 11.2769 21.8588 11.2772 21.5958C11.2775 21.3124 11.2769 21.029 11.2764 20.7457C11.2756 20.2224 11.2755 19.6992 11.2758 19.1759C11.276 18.6925 11.2759 18.2091 11.2757 17.7257C11.2756 17.6609 11.2756 17.5961 11.2756 17.5313C11.2755 17.4337 11.2755 17.336 11.2754 17.2384C11.2749 16.3304 11.2747 15.4224 11.2751 14.5143C11.2751 14.4801 11.2751 14.4459 11.2751 14.4106C11.2752 14.1325 11.2753 13.8544 11.2755 13.5764C11.2759 12.4916 11.2755 11.4069 11.2744 10.3221C11.2732 9.10378 11.2726 7.88543 11.273 6.66709C11.273 6.53723 11.273 6.40737 11.2731 6.27751C11.2731 6.24554 11.2731 6.21356 11.2731 6.18062C11.2732 5.69754 11.2728 5.21446 11.2722 4.73138C11.2715 4.18212 11.2715 3.63286 11.2723 3.08359C11.2727 2.80321 11.2728 2.52284 11.2721 2.24246C11.2714 1.98596 11.2716 1.72948 11.2726 1.47299C11.2727 1.38003 11.2726 1.28707 11.2721 1.19411C11.2715 1.06804 11.272 0.942024 11.2729 0.815956C11.2724 0.779611 11.272 0.743266 11.2715 0.70582C11.2748 0.46335 11.3309 0.32601 11.4838 0.139114C11.7286 -0.0510255 11.9832 -0.0377913 12.2807 -0.00151123Z" fill="#6B7280"/>
<path d="M9.88985 5.29688C9.88985 9.72094 9.88985 14.145 9.88985 18.7031C9.51981 18.6503 9.51981 18.6503 9.35097 18.5759C9.31357 18.5594 9.27617 18.543 9.23764 18.526C9.1986 18.5081 9.15956 18.4901 9.11934 18.4717C9.07828 18.4529 9.03722 18.4341 8.99491 18.4148C8.35111 18.1133 7.78492 17.7338 7.26485 17.25C7.22215 17.2104 7.22215 17.2104 7.17858 17.17C5.94447 16.0114 5.04057 14.3883 4.95968 12.6672C4.95845 12.6039 4.9575 12.5405 4.9568 12.4772C4.95612 12.4257 4.95612 12.4257 4.95541 12.3731C4.94744 11.6225 4.94909 10.8999 5.15547 10.1719C5.16552 10.1356 5.17556 10.0993 5.18591 10.0619C5.3355 9.5371 5.55154 9.05665 5.81172 8.57812C5.8507 8.50453 5.8507 8.50453 5.89046 8.42944C6.56998 7.20044 8.34199 5.29688 9.88985 5.29688Z" fill="#6B7280"/>
<path d="M5.90508 17.7008C6.08849 17.7921 6.20577 17.9086 6.29619 18.0926C6.36448 18.2967 6.37755 18.4983 6.28613 18.6971C6.12806 18.948 5.94271 19.154 5.73296 19.3628C5.68156 19.4146 5.68156 19.4146 5.62913 19.4674C5.55705 19.5398 5.48479 19.612 5.41237 19.684C5.302 19.794 5.19254 19.9048 5.08312 20.0157C5.01268 20.0862 4.94218 20.1567 4.87163 20.2271C4.82298 20.2765 4.82298 20.2765 4.77335 20.3269C4.5373 20.5597 4.34264 20.6988 4.00408 20.7345C3.75396 20.7072 3.59352 20.6241 3.42986 20.4356C3.27839 20.2279 3.25965 20.08 3.28045 19.8263C3.38961 19.5093 3.60069 19.2916 3.83526 19.0607C3.87074 19.0251 3.90622 18.9896 3.94278 18.953C4.01749 18.8783 4.09243 18.8039 4.16759 18.7297C4.2823 18.6164 4.3961 18.5022 4.50982 18.3879C4.58276 18.3152 4.65576 18.2426 4.72881 18.1701C4.77958 18.1191 4.77958 18.1191 4.83138 18.0671C5.144 17.7602 5.45886 17.5538 5.90508 17.7008Z" fill="#6B7280"/>
<path d="M4.34613 3.35202C4.5806 3.47456 4.75318 3.64796 4.93744 3.83512C4.97299 3.8706 5.00854 3.90609 5.04517 3.94264C5.1198 4.01736 5.19421 4.0923 5.26839 4.16746C5.38173 4.28216 5.49593 4.39596 5.61026 4.50968C5.68291 4.58263 5.75552 4.65562 5.82806 4.72867C5.87904 4.77944 5.87904 4.77944 5.93105 4.83124C6.14913 5.05342 6.34803 5.26896 6.34863 5.59769C6.33981 5.81597 6.28516 5.97462 6.14062 6.13969C5.95173 6.30509 5.75158 6.36321 5.50199 6.34682C5.14963 6.28469 4.87709 5.97562 4.63531 5.73282C4.6008 5.69856 4.56629 5.66429 4.53074 5.62899C4.45836 5.55691 4.38616 5.48466 4.31414 5.41223C4.20417 5.30186 4.09336 5.1924 3.98245 5.08298C3.91193 5.01254 3.84147 4.94205 3.77106 4.8715C3.72162 4.82285 3.72162 4.82285 3.67118 4.77322C3.43847 4.53717 3.29931 4.34251 3.26367 4.00394C3.29096 3.75382 3.37398 3.59339 3.5625 3.42972C3.81057 3.24884 4.0661 3.21858 4.34613 3.35202Z" fill="#6B7280"/>
<path d="M2.13153 7.13079C2.16816 7.14584 2.20479 7.16089 2.24253 7.1764C2.35887 7.22437 2.47481 7.27323 2.59076 7.32214C2.66782 7.35409 2.74491 7.38598 2.82202 7.41781C2.97069 7.47928 3.11912 7.54128 3.26737 7.60375C3.39243 7.65637 3.51774 7.70745 3.64385 7.75756C3.69375 7.77744 3.74364 7.79732 3.79504 7.8178C3.83731 7.83428 3.87958 7.85076 3.92314 7.86774C4.14672 7.9805 4.2823 8.15751 4.36029 8.39147C4.38432 8.67983 4.35702 8.86647 4.17279 9.0946C3.97461 9.28311 3.80527 9.3111 3.54239 9.30708C3.16198 9.24999 2.81004 9.07271 2.45892 8.92175C2.3772 8.88752 2.29544 8.85337 2.21365 8.8193C1.01935 8.31896 1.01935 8.31896 0.844664 7.9696C0.82036 7.72576 0.815593 7.51793 0.917906 7.29284C1.28688 6.90495 1.66356 6.93062 2.13153 7.13079Z" fill="#6B7280"/>
<path d="M4.00099 14.7505C4.21427 14.9384 4.34047 15.073 4.36281 15.369C4.35197 15.6137 4.27973 15.7835 4.10367 15.9533C3.90857 16.1124 3.68545 16.1935 3.45259 16.2834C3.38346 16.3109 3.38346 16.3109 3.31293 16.3389C3.1665 16.3968 3.01979 16.454 2.87306 16.5112C2.77389 16.5504 2.67474 16.5896 2.57561 16.6288C1.5454 17.0356 1.5454 17.0356 1.21193 16.9155C1.01103 16.7845 0.873295 16.6379 0.795916 16.4058C0.768197 16.1332 0.802968 15.9772 0.9424 15.7429C1.2602 15.4278 1.84037 15.2812 2.24897 15.1137C2.33884 15.0766 2.42856 15.0393 2.51814 15.0015C2.6487 14.9466 2.77968 14.8928 2.91078 14.8391C2.96999 14.8138 2.96999 14.8138 3.03038 14.7881C3.35475 14.6576 3.67776 14.5889 4.00099 14.7505Z" fill="#6B7280"/>
<path d="M8.06948 0.837011C8.53598 1.09686 8.69141 1.77802 8.88533 2.25088C8.92235 2.34075 8.95972 2.43047 8.99743 2.52005C9.05238 2.65061 9.10623 2.78159 9.15987 2.9127C9.18513 2.9719 9.18513 2.9719 9.21091 3.0323C9.32006 3.30373 9.3668 3.55198 9.3276 3.8447C9.2251 4.04969 9.10135 4.19341 8.90572 4.31345C8.65579 4.37491 8.48816 4.36522 8.24746 4.27958C7.98771 4.11004 7.86966 3.85268 7.76314 3.57352C7.74946 3.53895 7.73578 3.50438 7.72169 3.46876C7.67837 3.35891 7.63578 3.24879 7.59322 3.13865C7.5647 3.06603 7.53614 2.99343 7.50753 2.92084C7.43873 2.74597 7.37073 2.5708 7.30301 2.39551C7.26678 2.30217 7.23009 2.20902 7.19323 2.11592C7.17199 2.06187 7.15075 2.00782 7.12886 1.95212C7.11034 1.90529 7.09182 1.85847 7.07274 1.81022C6.99588 1.58749 7.00476 1.43244 7.08345 1.21384C7.30795 0.869614 7.66406 0.680123 8.06948 0.837011Z" fill="#6B7280"/>
<path d="M8.85682 19.6709C9.05991 19.7763 9.18534 19.8957 9.28162 20.1076C9.38574 20.6134 9.11532 21.0888 8.92127 21.5402C8.88704 21.6219 8.85289 21.7037 8.81882 21.7855C8.31849 22.9798 8.31849 22.9798 7.96912 23.1544C7.72528 23.1787 7.51745 23.1835 7.29236 23.0812C7.09694 22.8953 6.9945 22.7505 6.9707 22.478C6.97359 22.2094 7.07751 21.98 7.17829 21.7346C7.20833 21.66 7.20833 21.66 7.23899 21.5838C7.28141 21.4789 7.32418 21.3742 7.36726 21.2696C7.43273 21.1101 7.49649 20.95 7.56015 20.7898C7.60171 20.6877 7.64336 20.5857 7.68512 20.4837C7.71334 20.4122 7.71334 20.4122 7.74213 20.3394C7.86093 20.0557 7.9848 19.8506 8.25037 19.6857C8.45439 19.6177 8.65261 19.5988 8.85682 19.6709Z" fill="#6B7280"/>
<path d="M0.70264 11.2793C0.758023 11.2788 0.813406 11.2782 0.870467 11.2775C0.929895 11.2777 0.989323 11.2778 1.05055 11.278C1.11198 11.2777 1.17341 11.2775 1.2367 11.2772C1.36653 11.2768 1.49635 11.2769 1.62618 11.2774C1.79205 11.2779 1.95788 11.277 2.12375 11.2756C2.28262 11.2745 2.44148 11.2749 2.60036 11.275C2.65969 11.2745 2.71902 11.274 2.78015 11.2734C3.29262 11.2775 3.29262 11.2775 3.51607 11.4858C3.6556 11.6638 3.69195 11.8236 3.70357 12.0483C3.65855 12.3094 3.57604 12.4395 3.37544 12.6108C3.21468 12.718 3.15437 12.7168 2.96514 12.7182C2.88205 12.7191 2.88205 12.7191 2.79729 12.72C2.73738 12.7201 2.67746 12.7202 2.61574 12.7203C2.55418 12.7206 2.49262 12.7209 2.42919 12.7212C2.2988 12.7218 2.16842 12.722 2.03803 12.7219C1.87142 12.7219 1.70485 12.7232 1.53824 12.7248C1.37885 12.7261 1.21947 12.726 1.06007 12.7261C1.00045 12.7268 0.940819 12.7275 0.879385 12.7282C0.363838 12.7255 0.363838 12.7255 0.141067 12.517C-0.0490723 12.2722 -0.0358382 12.0177 0.0004419 11.7202C0.150122 11.4042 0.357799 11.2811 0.70264 11.2793Z" fill="#6B7280"/>
</g>
<defs>
<clipPath id="clip0_45410_40352">
<rect width="24" height="24" fill="white"/>
</clipPath>
</defs>
</svg>
