<svg width="24" height="24" viewBox="0 0 24 24" fill="none" xmlns="http://www.w3.org/2000/svg">
<path d="M3.8682 5.64247C3.93671 5.65648 4.00523 5.67047 4.07376 5.68445C4.10943 5.69183 4.14511 5.69921 4.18187 5.70682C5.5116 5.98024 6.85074 6.13602 8.20395 6.23354C8.23764 6.23603 8.27133 6.23853 8.30603 6.2411C10.7457 6.4206 13.2554 6.41808 15.695 6.24095C15.7998 6.23338 15.9046 6.2262 16.0095 6.21907C17.3659 6.12537 18.7103 5.95188 20.0399 5.66539C20.7216 5.52006 20.7216 5.52006 20.9334 5.65221C21.0766 5.79326 21.099 5.88991 21.1414 6.08552C21.1488 6.11812 21.1561 6.15073 21.1637 6.18432C21.1798 6.2561 21.1954 6.32798 21.2107 6.39993C21.2359 6.51786 21.2622 6.63545 21.2889 6.75304C21.3505 7.02529 21.4102 7.29792 21.4699 7.57057C21.4926 7.67365 21.5153 7.77673 21.538 7.87981C21.5985 8.155 21.6589 8.43023 21.7193 8.70547C21.8201 9.16542 21.9211 9.62534 22.022 10.0853C22.0476 10.2016 22.0731 10.3179 22.0986 10.4342C22.2615 11.1769 22.4255 11.9194 22.5912 12.6615C22.6507 12.9282 22.7099 13.195 22.7691 13.4618C22.8239 13.7084 22.8791 13.9549 22.9346 14.2014C22.9685 14.3526 23.0021 14.504 23.0355 14.6554C23.0508 14.7243 23.0663 14.7932 23.0819 14.862C23.2524 15.612 23.2524 15.612 23.204 15.9367C23.119 16.0597 23.119 16.0597 22.9696 16.171C22.9222 16.2102 22.9222 16.2102 22.8738 16.2501C20.6954 17.9679 17.3077 18.2279 14.6258 18.3742C14.5905 18.3761 14.5551 18.3781 14.5187 18.3802C13.6943 18.4253 12.8702 18.4305 12.0448 18.4298C12.0108 18.4298 11.9768 18.4298 11.9418 18.4298C10.8499 18.4293 9.76148 18.4176 8.6727 18.3273C8.61817 18.3228 8.61817 18.3228 8.56254 18.3183C2.62895 17.8305 2.62895 17.8305 0.844577 15.9835C0.829108 15.9681 0.813639 15.9526 0.797702 15.9367C0.766259 15.5959 0.825231 15.2772 0.900493 14.9464C0.917 14.8711 0.917 14.8711 0.933842 14.7943C0.970396 14.6281 1.00764 14.4621 1.04489 14.296C1.07103 14.1778 1.09713 14.0596 1.12318 13.9413C1.18581 13.6574 1.24894 13.3736 1.31226 13.0899C1.39246 12.7304 1.4721 12.3709 1.55174 12.0113C1.58082 11.88 1.60991 11.7487 1.639 11.6174C1.64619 11.585 1.65339 11.5525 1.6608 11.5191C1.70446 11.322 1.74819 11.125 1.79197 10.928C1.96319 10.1575 2.13256 9.38661 2.29829 8.6149C2.3281 8.4762 2.35799 8.33752 2.38792 8.19885C2.39742 8.15481 2.40692 8.11077 2.41671 8.06539C2.43532 7.97915 2.45394 7.89292 2.47255 7.80669C2.51686 7.60119 2.56094 7.39564 2.60452 7.18999C2.64459 7.00084 2.68525 6.81182 2.72637 6.6229C2.74099 6.55521 2.75538 6.48746 2.76952 6.41967C2.78855 6.32848 2.80847 6.23748 2.82842 6.14649C2.83918 6.09612 2.84993 6.04575 2.86101 5.99385C3.03605 5.47968 3.41237 5.54715 3.8682 5.64247ZM9.70395 7.35854C9.6025 7.58187 9.61032 7.71871 9.67282 7.95308C9.68793 8.01202 9.70304 8.07097 9.7186 8.1317C9.73515 8.19333 9.75175 8.25494 9.7684 8.31654C9.80053 8.43745 9.83199 8.5585 9.86325 8.67964C9.8776 8.73308 9.89194 8.78653 9.90672 8.84159C10.0007 9.30992 9.84448 9.72368 9.70687 10.1674C9.67973 10.2571 9.65397 10.3471 9.62965 10.4376C9.4164 11.2278 9.4164 11.2278 9.07727 11.4509C8.88898 11.5559 8.69341 11.6397 8.49371 11.7203C8.35893 11.7789 8.24432 11.8566 8.12522 11.9422C7.31113 12.475 6.47614 12.435 5.53054 12.4189C5.47692 12.4182 5.42329 12.4174 5.36804 12.4167C5.26618 12.4149 5.16433 12.4121 5.06253 12.4082C4.78871 12.4009 4.78871 12.4009 4.54135 12.5081C4.43844 12.6264 4.40708 12.6859 4.40708 12.8429C4.48309 13.0063 4.53666 13.0699 4.68833 13.171C4.78578 13.1794 4.78578 13.1794 4.89367 13.1696C4.95659 13.1661 4.95659 13.1661 5.02078 13.1625C5.06667 13.1597 5.11255 13.157 5.15982 13.1542C6.39297 13.1052 7.40343 13.2159 8.54087 13.7189C8.59438 13.7423 8.64788 13.7657 8.70302 13.7898C8.85473 13.8572 9.00517 13.9267 9.15518 13.9978C9.20014 14.0187 9.24509 14.0397 9.2914 14.0613C9.59076 14.2112 9.59076 14.2112 9.68174 14.3887C9.68907 14.4355 9.6964 14.4822 9.70395 14.5304C9.71987 14.5962 9.71987 14.5962 9.73611 14.6632C9.76684 14.8112 9.79717 14.9593 9.827 15.1076C9.83775 15.1586 9.84851 15.2097 9.85959 15.2624C9.96467 15.7824 9.95864 16.1274 9.77133 16.6251C9.61761 16.999 9.61761 16.999 9.65708 17.3898C9.75129 17.5112 9.75129 17.5112 9.89145 17.5773C10.0617 17.5853 10.0617 17.5853 10.2196 17.5304C10.3405 17.3999 10.3849 17.283 10.4247 17.1115C10.6371 16.2974 11.0153 15.8421 11.6258 15.2804C11.7078 15.2022 11.7897 15.1237 11.8714 15.0451C12.0688 14.8558 12.2683 14.6688 12.4696 14.4835C12.8204 14.5839 13.1631 14.7012 13.5056 14.8269C13.5592 14.8465 13.6128 14.8661 13.668 14.8864C13.8409 14.95 14.0137 15.0141 14.1864 15.0783C14.2157 15.0891 14.2449 15.1 14.2751 15.1112C15.0852 15.4116 15.8782 15.7283 16.6385 16.1418C16.6918 16.1706 16.7451 16.1994 16.8 16.2291C16.8447 16.2542 16.8893 16.2794 16.9354 16.3053C17.0836 16.367 17.1854 16.3755 17.3446 16.3585C17.4891 16.2687 17.4891 16.2687 17.579 16.1242C17.5945 15.9554 17.5945 15.9554 17.5321 15.796C17.368 15.641 17.2046 15.5626 16.9952 15.4826C15.9896 15.071 15.5563 14.5693 15.0946 13.5929C15.0479 13.4991 15.0011 13.4053 14.954 13.3117C15.0138 13.2941 15.0138 13.2941 15.0748 13.2761C15.2468 13.2137 15.3958 13.1296 15.552 13.0361C16.3687 12.5676 17.0275 12.3315 17.9766 12.3668C18.011 12.368 18.0455 12.3692 18.081 12.3704C18.1741 12.3744 18.2672 12.3807 18.3602 12.3871C18.5488 12.3715 18.6196 12.3198 18.7508 12.1867C18.7872 12.0945 18.7872 12.0945 18.7801 11.9992C18.781 11.9528 18.781 11.9528 18.782 11.9054C18.7328 11.7574 18.6454 11.7082 18.5165 11.6242C18.3554 11.5994 18.3554 11.5994 18.1757 11.6071C18.1045 11.6074 18.0334 11.6076 17.9622 11.6077C17.9242 11.608 17.8863 11.6084 17.8471 11.6087C16.9596 11.6146 16.0911 11.5255 15.2118 11.4103C15.1523 11.4025 15.0928 11.3947 15.0315 11.3867C14.693 11.3421 14.3546 11.2963 14.0165 11.2492C13.9203 9.9473 13.9777 8.98324 14.6976 7.87117C14.775 7.7164 14.7862 7.62306 14.7665 7.45229C14.6698 7.3147 14.6004 7.27208 14.4413 7.21791C14.2495 7.21791 14.2 7.27325 14.0633 7.40541C14.0044 7.51408 13.9557 7.61599 13.909 7.72951C13.8799 7.79539 13.8506 7.86119 13.8212 7.92692C13.7981 7.97858 13.7981 7.97858 13.7746 8.03129C13.3637 8.94003 12.7936 9.56706 12.0477 10.2179C11.5266 9.98599 10.905 9.37968 10.6935 8.84199C10.5556 8.43976 10.473 8.02148 10.4031 7.60276C10.3557 7.43648 10.3071 7.37072 10.1727 7.26479C9.97245 7.18776 9.86683 7.22207 9.70395 7.35854Z" fill="#6B7280"/>
<path d="M10.5469 9.9375C10.7272 10.0115 10.8394 10.1262 10.975 10.2643C10.9974 10.287 11.0198 10.3096 11.0429 10.333C11.1141 10.405 11.185 10.4774 11.2559 10.5498C11.3271 10.6223 11.3984 10.6948 11.4699 10.7671C11.5345 10.8326 11.5989 10.8983 11.6633 10.964C11.7772 11.0737 11.8284 11.1035 11.9824 11.1328C12.3729 11.075 12.6861 10.6141 12.9534 10.3418C12.981 10.3138 13.0085 10.2858 13.0369 10.257C13.0742 10.2189 13.0742 10.2189 13.1123 10.18C13.1719 10.125 13.1719 10.125 13.2188 10.125C13.2192 10.1723 13.2196 10.2196 13.2201 10.2683C13.2219 10.4441 13.225 10.6199 13.2285 10.7956C13.2298 10.8716 13.2308 10.9477 13.2315 11.0237C13.2325 11.1331 13.2346 11.2424 13.2371 11.3518C13.2371 11.3857 13.2372 11.4196 13.2372 11.4545C13.2418 11.6111 13.2549 11.7038 13.3474 11.8322C13.4628 11.913 13.5351 11.9384 13.6738 11.9586C13.7419 11.9689 13.7419 11.9689 13.8114 11.9794C13.8633 11.9862 13.9152 11.993 13.9688 12C14.0591 12.0122 14.0591 12.0122 14.1512 12.0246C14.351 12.0509 14.5509 12.0753 14.751 12.0996C14.8209 12.1082 14.8908 12.1168 14.9607 12.1254C15.13 12.1463 15.2994 12.1669 15.4688 12.1875C15.4688 12.2184 15.4688 12.2494 15.4688 12.2812C15.4295 12.3001 15.3902 12.319 15.3498 12.3385C15.204 12.409 15.0585 12.48 14.9131 12.5513C14.8502 12.5821 14.7872 12.6126 14.7241 12.643C14.6333 12.6867 14.5429 12.7311 14.4525 12.7756C14.3708 12.8154 14.3708 12.8154 14.2874 12.856C14.1541 12.9388 14.1083 12.9776 14.0625 13.125C14.0621 13.4183 14.2426 13.6473 14.3936 13.8867C14.446 13.9708 14.4984 14.0551 14.5505 14.1394C14.5737 14.1764 14.597 14.2134 14.621 14.2515C14.6719 14.3438 14.6719 14.3438 14.6719 14.4375C14.378 14.3585 14.094 14.2583 13.81 14.1498C13.7748 14.1364 13.7396 14.1231 13.7033 14.1093C13.5562 14.0532 13.4092 13.997 13.2625 13.9401C13.1541 13.8982 13.0456 13.857 12.937 13.8159C12.8879 13.7965 12.8879 13.7965 12.8378 13.7768C12.631 13.6992 12.457 13.6485 12.2344 13.6875C12.0989 13.7809 11.9912 13.8958 11.8792 14.0156C11.8467 14.0489 11.8142 14.0822 11.7807 14.1165C11.6772 14.2228 11.5749 14.33 11.4727 14.4375C11.3696 14.5448 11.2663 14.6518 11.1626 14.7585C11.0982 14.8249 11.0342 14.8916 10.9706 14.9588C10.9416 14.9888 10.9127 15.0189 10.8828 15.0498C10.8575 15.0765 10.8321 15.1031 10.806 15.1306C10.7344 15.1875 10.7344 15.1875 10.5938 15.1875C10.586 15.1471 10.5782 15.1066 10.5702 15.0649C10.541 14.9147 10.5113 14.7645 10.4813 14.6144C10.4684 14.5495 10.4558 14.4845 10.4433 14.4195C10.4253 14.326 10.4066 14.2326 10.3878 14.1392C10.3767 14.083 10.3657 14.0268 10.3543 13.9689C10.3106 13.8217 10.2855 13.7832 10.1719 13.6875C10.0801 13.637 10.0801 13.637 9.97667 13.5956C9.93757 13.579 9.89847 13.5624 9.85818 13.5453C9.81614 13.5279 9.77409 13.5105 9.73077 13.4925C9.6875 13.4742 9.64422 13.4559 9.59963 13.437C9.46141 13.3786 9.32301 13.3206 9.18457 13.2627C9.04598 13.2046 8.90744 13.1464 8.76901 13.0879C8.68287 13.0515 8.59664 13.0153 8.51031 12.9794C8.45187 12.9548 8.45187 12.9548 8.39226 12.9296C8.35792 12.9153 8.32358 12.9009 8.28819 12.8861C8.20312 12.8438 8.20312 12.8438 8.10938 12.75C8.1998 12.7024 8.29025 12.6549 8.38081 12.6075C8.46099 12.5651 8.54077 12.5218 8.62017 12.478C8.82279 12.3673 9.01369 12.2722 9.23602 12.2084C9.53132 12.1119 9.78367 12.0081 9.93987 11.7224C10.1659 11.2364 10.3115 10.7137 10.4529 10.198C10.5 10.0312 10.5 10.0312 10.5469 9.9375Z" fill="#6B7280"/>
</svg>
