<svg width="24" height="24" viewBox="0 0 24 24" fill="none" xmlns="http://www.w3.org/2000/svg">
<g clip-path="url(#clip0_45410_40385)">
<path d="M4.21875 9.75C9.35437 9.75 14.49 9.75 19.7812 9.75C19.7812 12.9211 19.7812 16.0922 19.7812 19.3594C14.6456 19.3594 9.51 19.3594 4.21875 19.3594C4.21875 16.1883 4.21875 13.0172 4.21875 9.75ZM13.752 10.9307C13.6807 10.9826 13.6093 11.0345 13.5379 11.0863C13.5009 11.1133 13.4639 11.1404 13.4258 11.1682C13.2411 11.3016 13.0527 11.4295 12.8643 11.5576C12.7892 11.6088 12.7141 11.66 12.639 11.7112C12.6026 11.7361 12.5662 11.7609 12.5287 11.7865C12.3649 11.8983 12.2015 12.0106 12.0381 12.123C12.0075 12.1441 11.9768 12.1652 11.9453 12.1869C11.8841 12.229 11.823 12.271 11.7619 12.3131C11.6735 12.3739 11.585 12.4346 11.4965 12.4953C11.1155 12.7566 10.7357 13.0195 10.3564 13.2832C10.3107 13.315 10.265 13.3468 10.2178 13.3796C10.1316 13.4395 10.0455 13.4997 9.95951 13.5599C9.88727 13.6103 9.8147 13.6602 9.74163 13.7093C9.59093 13.8121 9.51878 13.8686 9.43652 14.0361C9.40721 14.2043 9.40721 14.2043 9.49178 14.3448C9.63387 14.5135 9.77253 14.5696 9.97632 14.6349C10.0114 14.647 10.0465 14.6591 10.0827 14.6715C10.1942 14.7097 10.306 14.7464 10.418 14.7832C10.4939 14.8089 10.5699 14.8347 10.6458 14.8607C10.8312 14.9238 11.017 14.9856 11.2031 15.0469C11.2031 15.2282 11.1258 15.3362 11.0347 15.4865C11.008 15.5312 11.008 15.5312 10.9809 15.5769C10.9224 15.6748 10.8636 15.7725 10.8047 15.8701C10.7643 15.9376 10.724 16.0051 10.6837 16.0726C10.4875 16.4003 10.2892 16.7266 10.088 17.0513C10.0706 17.0794 10.0532 17.1075 10.0353 17.1365C9.95336 17.2687 9.87103 17.4007 9.78818 17.5325C9.75902 17.5792 9.72987 17.6259 9.69983 17.6741C9.67432 17.7146 9.64882 17.7551 9.62254 17.7969C9.56586 17.9001 9.52599 17.9764 9.51562 18.0938C9.62598 18.2237 9.62598 18.2237 9.75 18.3281C10.0432 18.1911 10.299 18.0273 10.5615 17.8389C10.6446 17.78 10.7276 17.7212 10.8107 17.6624C10.8526 17.6327 10.8945 17.603 10.9376 17.5724C11.1303 17.4366 11.3248 17.3036 11.5195 17.1709C11.5933 17.1205 11.6671 17.0702 11.7409 17.0198C11.7764 16.9956 11.812 16.9714 11.8486 16.9464C12.0732 16.793 12.2972 16.6386 12.5213 16.4844C12.6419 16.4014 12.7627 16.3185 12.8835 16.2358C13.2432 15.9892 13.602 15.7413 13.96 15.4922C14.0006 15.4641 14.0412 15.436 14.0831 15.407C14.121 15.3805 14.159 15.354 14.1982 15.3267C14.2319 15.3032 14.2657 15.2797 14.3005 15.2555C14.4288 15.1587 14.5161 15.0879 14.5723 14.9355C14.5801 14.7713 14.5387 14.7063 14.4375 14.5781C14.2577 14.4551 14.0669 14.3816 13.8624 14.311C13.8304 14.2997 13.7985 14.2885 13.7656 14.2769C13.6645 14.2413 13.5632 14.2061 13.4619 14.1709C13.393 14.1467 13.324 14.1225 13.2551 14.0983C13.0868 14.0392 12.9184 13.9805 12.75 13.9219C12.9848 13.5093 13.2216 13.098 13.4619 12.6886C13.5132 12.6011 13.5643 12.5134 13.6154 12.4258C13.7741 12.1543 13.9343 11.8842 14.1019 11.618C14.1286 11.5752 14.1553 11.5324 14.1828 11.4882C14.2322 11.4096 14.2822 11.3313 14.3331 11.2536C14.4644 11.0565 14.4644 11.0565 14.4545 10.8296C14.398 10.7387 14.398 10.7387 14.3438 10.6875C14.0918 10.6408 13.9423 10.7877 13.752 10.9307Z" fill="#6B7280"/>
<path d="M5.99112 1.67836C6.02346 1.67806 6.0558 1.67775 6.08911 1.67743C6.19612 1.67651 6.30312 1.67596 6.41013 1.67549C6.46508 1.6752 6.46508 1.6752 6.52115 1.67491C6.71519 1.67394 6.90922 1.67326 7.10326 1.67283C7.30307 1.67231 7.50285 1.6707 7.70265 1.66883C7.85679 1.6676 8.01093 1.66721 8.16508 1.66705C8.23869 1.66682 8.3123 1.66628 8.38591 1.6654C9.13111 1.65712 9.13111 1.65712 9.4213 1.87416C9.6088 2.20229 9.6088 2.20229 9.6088 3.74916C11.1866 3.74916 12.7644 3.74916 14.39 3.74916C14.39 3.23869 14.39 2.72822 14.39 2.20229C14.6136 1.81113 14.6136 1.81113 14.8285 1.71843C15.1178 1.64435 15.4208 1.66104 15.7176 1.66341C15.792 1.6634 15.8665 1.66333 15.9409 1.6632C16.0964 1.66314 16.2519 1.66372 16.4073 1.66479C16.6062 1.66612 16.8049 1.66599 17.0037 1.6654C17.1573 1.66507 17.3108 1.66544 17.4643 1.66602C17.5376 1.66623 17.6109 1.66625 17.6842 1.66606C17.7868 1.66592 17.8892 1.6667 17.9918 1.66772C18.05 1.66797 18.1082 1.66823 18.1681 1.66849C18.3741 1.69197 18.5335 1.75696 18.6859 1.89925C18.8654 2.13401 18.8967 2.2599 18.8946 2.54982C18.8945 2.60112 18.8945 2.60112 18.8944 2.65346C18.8942 2.76284 18.8936 2.87221 18.893 2.98158C18.8927 3.05568 18.8925 3.12978 18.8923 3.20387C18.8918 3.38564 18.891 3.5674 18.89 3.74916C18.923 3.74895 18.9559 3.74874 18.9898 3.74853C19.3021 3.74664 19.6144 3.74522 19.9268 3.7443C20.0873 3.74382 20.2478 3.74316 20.4083 3.74209C20.5935 3.74086 20.7786 3.74042 20.9637 3.74001C21.0489 3.73928 21.0489 3.73928 21.1359 3.73854C21.7914 3.73845 22.3911 3.83611 22.892 4.29408C23.3787 4.82442 23.4545 5.44932 23.4543 6.13563C23.4545 6.23645 23.4562 6.33717 23.458 6.43797C23.4609 6.79089 23.451 7.06076 23.2494 7.35854C23.0169 7.57974 22.8274 7.59982 22.5182 7.59907C22.4814 7.59917 22.4446 7.59926 22.4067 7.59936C22.2824 7.59963 22.158 7.59956 22.0337 7.59949C21.9441 7.59962 21.8544 7.59976 21.7648 7.59992C21.5177 7.6003 21.2705 7.60038 21.0234 7.60041C20.7572 7.6005 20.491 7.60085 20.2248 7.60117C19.6424 7.60181 19.0599 7.60209 18.4775 7.60229C18.114 7.60242 17.7505 7.60262 17.3871 7.60283C16.3813 7.60341 15.3756 7.60389 14.3699 7.60405C14.3048 7.60406 14.2398 7.60407 14.1747 7.60408C14.1095 7.60409 14.0443 7.6041 13.9791 7.60411C13.8483 7.60413 13.7175 7.60415 13.5867 7.60417C13.5542 7.60418 13.5218 7.60418 13.4884 7.60419C12.4364 7.60436 11.3843 7.6051 10.3323 7.6062C9.22044 7.60735 8.10853 7.60799 6.99663 7.60805C6.39038 7.60809 5.78412 7.60836 5.17787 7.60921C4.66171 7.60993 4.14556 7.61017 3.62941 7.60979C3.36593 7.6096 3.10245 7.60965 2.83897 7.6103C2.59791 7.6109 2.35686 7.61085 2.1158 7.61028C2.02846 7.61019 1.94111 7.61033 1.85376 7.61074C1.73527 7.61126 1.61681 7.61091 1.49831 7.61034C1.4642 7.6107 1.43008 7.61106 1.39493 7.61142C1.17675 7.60917 1.02879 7.56647 0.843171 7.45229C0.531444 7.12324 0.545816 6.78455 0.547123 6.35588C0.54727 6.25548 0.546176 6.15513 0.544983 6.05473C0.541767 5.37255 0.66401 4.79623 1.13028 4.2765C1.66509 3.77821 2.3413 3.7341 3.03513 3.74001C3.09474 3.74014 3.15436 3.74027 3.21578 3.74041C3.37245 3.74084 3.5291 3.74168 3.68576 3.74272C3.84635 3.74369 4.00695 3.74411 4.16754 3.74458C4.4813 3.74561 4.79505 3.74718 5.1088 3.74916C5.10732 3.68108 5.10732 3.68108 5.10582 3.61163C5.10241 3.44233 5.10027 3.27304 5.0985 3.10371C5.09756 3.0306 5.09628 2.9575 5.09465 2.8844C5.09236 2.77897 5.09131 2.67358 5.09049 2.56813C5.08952 2.53575 5.08855 2.50336 5.08755 2.47C5.08744 2.23343 5.14946 2.10369 5.2963 1.92104C5.52732 1.71255 5.68434 1.68078 5.99112 1.67836Z" fill="#6B7280"/>
<path d="M0.562413 9.75C1.18116 9.75 1.79991 9.75 2.43741 9.75C2.43741 13.2769 2.43741 16.8038 2.43741 20.4375C8.74866 20.4375 15.0599 20.4375 21.5624 20.4375C21.5624 16.9106 21.5624 13.3837 21.5624 9.75C22.1812 9.75 22.7999 9.75 23.4374 9.75C23.4395 11.1521 23.4412 12.5542 23.4422 13.9563C23.4423 14.122 23.4424 14.2876 23.4426 14.4532C23.4426 14.5027 23.4426 14.5027 23.4426 14.5532C23.443 15.0867 23.4438 15.6202 23.4446 16.1537C23.4455 16.7013 23.446 17.249 23.4462 17.7966C23.4464 18.1041 23.4466 18.4117 23.4473 18.7192C23.448 19.0087 23.4482 19.2982 23.448 19.5877C23.448 19.6939 23.4482 19.8001 23.4486 19.9062C23.4491 20.0514 23.4489 20.1966 23.4487 20.3418C23.4491 20.4045 23.4491 20.4045 23.4495 20.4685C23.4469 21.0128 23.3112 21.4493 22.9394 21.8555C22.5741 22.2027 22.1364 22.3182 21.6449 22.3187C21.6111 22.3188 21.5772 22.3189 21.5423 22.319C21.4286 22.3192 21.3149 22.3191 21.2012 22.3191C21.1189 22.3192 21.0367 22.3193 20.9545 22.3195C20.7282 22.3199 20.502 22.32 20.2757 22.32C20.0318 22.3201 19.7879 22.3204 19.544 22.3208C19.0106 22.3214 18.4771 22.3217 17.9437 22.3219C17.6106 22.322 17.2776 22.3222 16.9445 22.3224C16.0225 22.323 15.1005 22.3235 14.1785 22.3236C14.1195 22.3236 14.0605 22.3237 13.9997 22.3237C13.9405 22.3237 13.8814 22.3237 13.8204 22.3237C13.7005 22.3237 13.5807 22.3237 13.4608 22.3238C13.4013 22.3238 13.3419 22.3238 13.2806 22.3238C12.317 22.324 11.3534 22.3248 10.3898 22.3259C9.40068 22.327 8.41152 22.3276 7.42236 22.3276C6.86693 22.3277 6.3115 22.328 5.75607 22.3288C5.28312 22.3295 4.81017 22.3298 4.33722 22.3294C4.09593 22.3292 3.85464 22.3292 3.61335 22.3299C3.39235 22.3305 3.17136 22.3304 2.95036 22.3299C2.87052 22.3298 2.79068 22.3299 2.71084 22.3303C2.04031 22.3335 1.51182 22.253 0.998936 21.791C0.613651 21.3881 0.555059 20.8896 0.556776 20.3587C0.556736 20.3133 0.556696 20.2679 0.556655 20.2211C0.556577 20.0691 0.556835 19.9171 0.557091 19.7651C0.557105 19.656 0.557097 19.547 0.557071 19.438C0.557057 19.142 0.557333 18.8461 0.55766 18.5501C0.557923 18.2722 0.55797 17.9942 0.558019 17.7163C0.558121 17.1658 0.558433 16.6153 0.558877 16.0649C0.559307 15.5302 0.559639 14.9956 0.559838 14.461C0.55985 14.428 0.559863 14.395 0.559875 14.3611C0.559936 14.1956 0.559996 14.0302 0.560054 13.8648C0.56054 12.4932 0.561378 11.1216 0.562413 9.75Z" fill="#6B7280"/>
</g>
<defs>
<clipPath id="clip0_45410_40385">
<rect width="24" height="24" fill="white"/>
</clipPath>
</defs>
</svg>
