<svg width="20" height="20" viewBox="0 0 20 20" fill="none" xmlns="http://www.w3.org/2000/svg">
<path d="M9.99935 1.66797C5.40768 1.66797 1.66602 5.40964 1.66602 10.0013C1.66602 14.593 5.40768 18.3346 9.99935 18.3346C14.591 18.3346 18.3327 14.593 18.3327 10.0013C18.3327 5.40964 14.591 1.66797 9.99935 1.66797ZM13.6243 12.9763C13.5077 13.1763 13.2993 13.2846 13.0827 13.2846C12.9743 13.2846 12.866 13.2596 12.766 13.193L10.1827 11.6513C9.54102 11.268 9.06602 10.4263 9.06602 9.68464V6.26797C9.06602 5.9263 9.34935 5.64297 9.69102 5.64297C10.0327 5.64297 10.316 5.9263 10.316 6.26797V9.68464C10.316 9.98464 10.566 10.4263 10.8243 10.5763L13.4077 12.118C13.7077 12.293 13.8077 12.6763 13.6243 12.9763Z" fill="#62748E"/>
</svg>
