<svg width="24" height="24" viewBox="0 0 24 24" fill="none" xmlns="http://www.w3.org/2000/svg">
<g clip-path="url(#clip0_45410_40377)">
<path d="M17.1562 2.71953C17.4422 2.92386 17.6974 3.15313 17.945 3.40168C17.979 3.43541 18.013 3.46915 18.048 3.50391C18.1589 3.61422 18.2695 3.72487 18.3801 3.83556C18.4578 3.91302 18.5354 3.99048 18.6131 4.06792C18.7753 4.22974 18.9372 4.39173 19.0991 4.55385C19.3061 4.76108 19.5136 4.96778 19.7212 5.17434C19.8815 5.33395 20.0415 5.49388 20.2014 5.6539C20.2777 5.73024 20.3542 5.80647 20.4308 5.88258C20.5379 5.98912 20.6446 6.09609 20.7511 6.20319C20.7825 6.2342 20.8139 6.26521 20.8462 6.29716C21.2678 6.7235 21.4709 7.15252 21.4893 7.75566C21.4705 8.56441 21.0001 9.01497 20.456 9.55541C20.401 9.6104 20.346 9.66541 20.291 9.72044C20.1426 9.8689 19.9939 10.0171 19.8451 10.1652C19.6893 10.3204 19.5339 10.4758 19.3783 10.6312C19.0842 10.925 18.7898 11.2187 18.4953 11.5122C18.1599 11.8465 17.8248 12.1811 17.4897 12.5158C16.8007 13.2038 16.1114 13.8915 15.4219 14.5789C15.1071 14.3205 14.823 14.0332 14.5358 13.7451C14.4799 13.6891 14.424 13.6332 14.3681 13.5773C14.217 13.4262 14.0661 13.275 13.9152 13.1238C13.7572 12.9655 13.599 12.8074 13.4409 12.6492C13.1418 12.35 12.8429 12.0506 12.544 11.7512C12.2035 11.4103 11.8629 11.0694 11.5223 10.7286C10.822 10.0278 10.1219 9.32685 9.42188 8.62578C9.67254 8.32214 9.94789 8.04462 10.2253 7.76572C10.278 7.71257 10.3307 7.6594 10.3834 7.60623C10.5555 7.43266 10.7279 7.25933 10.9003 7.08605C10.9297 7.05646 10.9591 7.02687 10.9895 6.99639C11.2675 6.71692 11.5456 6.43754 11.824 6.15839C12.1787 5.80266 12.5329 5.44647 12.8865 5.08963C13.1359 4.83797 13.3859 4.58686 13.6363 4.33614C13.7855 4.18673 13.9344 4.03709 14.0827 3.88687C14.2224 3.74546 14.3627 3.60475 14.5036 3.46452C14.5548 3.41326 14.6059 3.36176 14.6566 3.30999C15.3304 2.62359 16.2327 2.23593 17.1562 2.71953Z" fill="#6B7280"/>
<path d="M11.9531 12.8438C12.1495 12.934 12.2856 13.0679 12.4371 13.2189C12.4664 13.2477 12.4957 13.2766 12.5259 13.3063C12.6227 13.4017 12.7192 13.4975 12.8156 13.5934C12.8829 13.6602 12.9503 13.727 13.0177 13.7939C13.159 13.9342 13.3001 14.0748 13.4411 14.2154C13.6209 14.3947 13.8015 14.5731 13.9823 14.7512C14.1219 14.8891 14.2609 15.0276 14.3997 15.1663C14.466 15.2323 14.5325 15.298 14.5992 15.3635C15.1149 15.8703 15.5231 16.3297 15.5303 17.0889C15.5311 17.8652 15.1137 18.321 14.5911 18.8514C14.5526 18.8906 14.514 18.9298 14.4743 18.9702C14.3931 19.0525 14.3117 19.1347 14.2302 19.2167C14.1072 19.3411 13.9853 19.4665 13.8634 19.5919C13.3238 20.1399 12.8259 20.6237 12.0146 20.6367C11.1551 20.6262 10.6356 20.0845 10.069 19.5092C10.0014 19.4412 9.93373 19.3733 9.86604 19.3054C9.68916 19.1278 9.51284 18.9497 9.33665 18.7714C9.1563 18.5891 8.9754 18.4074 8.79456 18.2256C8.44063 17.8697 8.08731 17.5131 7.73438 17.1562C7.80065 17.0059 7.87992 16.9054 7.996 16.7896C8.03084 16.7546 8.06567 16.7197 8.10157 16.6836C8.1398 16.6457 8.17804 16.6078 8.21743 16.5688C8.2778 16.5084 8.2778 16.5084 8.33939 16.4468C8.44962 16.3366 8.56006 16.2267 8.67059 16.1168C8.78612 16.0018 8.90138 15.8866 9.01667 15.7714C9.23495 15.5535 9.45347 15.3357 9.67208 15.118C9.92098 14.8702 10.1696 14.6221 10.4182 14.3739C10.9296 13.8636 11.4412 13.3536 11.9531 12.8438Z" fill="#6B7280"/>
<path d="M7.78125 8.67267C8.0344 8.84804 8.25817 9.04247 8.47421 9.26124C8.50353 9.29055 8.53284 9.31985 8.56305 9.35004C8.65863 9.44568 8.75388 9.54166 8.84912 9.63764C8.91583 9.70452 8.98255 9.77138 9.0493 9.83822C9.22397 10.0132 9.39836 10.1886 9.57269 10.3639C9.751 10.5432 9.92959 10.7222 10.1082 10.9013C10.4578 11.2519 10.8071 11.6028 11.1562 11.9539C11.09 12.1043 11.0107 12.2048 10.8946 12.3206C10.8598 12.3555 10.825 12.3905 10.7891 12.4265C10.7508 12.4644 10.7126 12.5023 10.6732 12.5414C10.6329 12.5816 10.5927 12.6219 10.5512 12.6634C10.441 12.7736 10.3306 12.8835 10.22 12.9934C10.1045 13.1083 9.98924 13.2235 9.87395 13.3387C9.65567 13.5567 9.43715 13.7745 9.21854 13.9921C8.96965 14.24 8.72102 14.4881 8.47241 14.7362C7.96107 15.2466 7.44939 15.7566 6.9375 16.2664C6.7443 16.1774 6.61089 16.0474 6.46209 15.8984C6.43371 15.8703 6.40533 15.8423 6.37609 15.8133C6.28234 15.7205 6.18894 15.6273 6.09558 15.534C6.03032 15.469 5.96505 15.4041 5.89978 15.3391C5.76288 15.2028 5.62618 15.0663 5.48959 14.9296C5.31534 14.7554 5.14045 14.5818 4.96538 14.4083C4.83025 14.2742 4.69556 14.1397 4.56098 14.0051C4.49674 13.941 4.43234 13.877 4.36779 13.8132C3.83636 13.2872 3.38155 12.787 3.35742 12.0008C3.37906 11.2958 3.74487 10.8043 4.23157 10.3241C4.27294 10.2827 4.31431 10.2412 4.35693 10.1985C4.46602 10.0895 4.57554 9.981 4.68524 9.87262C4.75201 9.8064 4.81846 9.73988 4.8848 9.67322C5.01334 9.54408 5.14238 9.41545 5.27161 9.28699C5.31083 9.24763 5.35005 9.20828 5.39046 9.16772C6.0328 8.53556 6.92734 8.19743 7.78125 8.67267Z" fill="#6B7280"/>
<path d="M0.93767 17.0625C1.25241 17.321 1.53657 17.6082 1.82371 17.8963C1.87962 17.9523 1.93555 18.0082 1.99149 18.0641C2.14256 18.2152 2.29348 18.3664 2.44438 18.5176C2.60239 18.6759 2.76053 18.834 2.91865 18.9922C3.21772 19.2914 3.51667 19.5908 3.81558 19.8902C4.15603 20.2311 4.49661 20.572 4.8372 20.9128C5.5375 21.6136 6.23764 22.3146 6.93767 23.0156C6.91829 23.0382 6.89891 23.0608 6.87894 23.0841C6.85355 23.1137 6.82817 23.1433 6.80201 23.1738C6.77683 23.2032 6.75165 23.2325 6.7257 23.2628C6.67594 23.3209 6.62638 23.3793 6.57695 23.4377C6.29333 23.7469 5.86509 23.9853 5.44335 24.0112C5.03544 24.0208 4.67459 24.0265 4.31267 23.8125C4.2717 23.7888 4.23073 23.7651 4.18853 23.7407C3.95487 23.5825 3.76517 23.3685 3.56853 23.168C3.52732 23.1263 3.48611 23.0847 3.44365 23.0418C3.34248 22.9395 3.24154 22.8371 3.1408 22.7344C3.00849 22.7864 2.87985 22.8407 2.75115 22.9014C2.39521 23.0401 2.0963 23.0335 1.73455 22.9219C1.44755 22.7756 1.21857 22.525 1.06072 22.2451C0.972583 21.8838 0.943039 21.5253 1.12975 21.1884C1.14757 21.1601 1.1654 21.1317 1.18376 21.1025C1.21083 21.0532 1.2379 21.0039 1.2658 20.9531C1.21171 20.7867 1.10146 20.6871 0.976306 20.569C0.937483 20.5315 0.89866 20.494 0.85866 20.4554C0.777404 20.3779 0.695866 20.3006 0.614032 20.2236C0.224404 19.8458 -0.000430524 19.4746 -0.0135396 18.926C-0.0189646 18.281 0.141762 17.8721 0.591235 17.4038C0.705588 17.2888 0.820939 17.1751 0.93767 17.0625Z" fill="#6B7280"/>
<path d="M3.46875 14.5312C3.6489 14.6055 3.76271 14.7199 3.89946 14.8569C3.92336 14.8808 3.94725 14.9046 3.97187 14.9291C4.05184 15.0089 4.13147 15.0891 4.21111 15.1692C4.26838 15.2265 4.32567 15.2838 4.38298 15.341C4.53852 15.4966 4.69377 15.6524 4.84897 15.8082C5.01121 15.971 5.17372 16.1336 5.33619 16.2962C5.64383 16.6041 5.95123 16.9123 6.25854 17.2205C6.60841 17.5715 6.95855 17.9221 7.30871 18.2727C8.02902 18.994 8.749 19.7157 9.46875 20.4375C9.40007 20.581 9.33133 20.6802 9.21806 20.7926C9.1702 20.8404 9.1702 20.8404 9.12139 20.8892C9.06982 20.9401 9.06982 20.9401 9.01721 20.9919C8.98197 21.0271 8.94673 21.0622 8.91042 21.0983C8.79792 21.2103 8.6851 21.322 8.57227 21.4336C8.49589 21.5095 8.41953 21.5854 8.3432 21.6614C8.15613 21.8474 7.96879 22.0332 7.78125 22.2188C7.6011 22.1445 7.48729 22.0301 7.35054 21.8931C7.31469 21.8573 7.31469 21.8573 7.27813 21.8209C7.19816 21.7411 7.11853 21.6609 7.03889 21.5808C6.98162 21.5235 6.92433 21.4662 6.86702 21.409C6.71148 21.2534 6.55623 21.0976 6.40103 20.9418C6.23879 20.779 6.07628 20.6164 5.91381 20.4538C5.60617 20.1459 5.29877 19.8377 4.99146 19.5295C4.64159 19.1785 4.29145 18.8279 3.94129 18.4773C3.22098 17.756 2.501 17.0343 1.78125 16.3125C1.84993 16.169 1.91867 16.0698 2.03194 15.9574C2.06385 15.9255 2.09575 15.8936 2.12861 15.8608C2.16299 15.8269 2.19737 15.793 2.23279 15.7581C2.26803 15.7229 2.30327 15.6878 2.33958 15.6517C2.45208 15.5397 2.5649 15.428 2.67773 15.3164C2.75411 15.2405 2.83047 15.1646 2.9068 15.0886C3.09387 14.9026 3.28121 14.7168 3.46875 14.5312Z" fill="#6B7280"/>
<path d="M23.2249 0.259442C23.626 0.550139 23.8959 0.917146 24.0003 1.40587C24.0632 1.95207 24.0182 2.46634 23.6714 2.91308C23.467 3.16992 23.2393 3.4017 23.0081 3.63426C22.9627 3.68001 22.9174 3.72576 22.8721 3.77151C22.7779 3.86646 22.6835 3.9612 22.589 4.05584C22.4679 4.17723 22.3475 4.29937 22.2273 4.4217C22.1344 4.51603 22.0409 4.60983 21.9473 4.70349C21.881 4.7701 21.8152 4.83725 21.7495 4.90441C21.7093 4.94435 21.669 4.98428 21.6276 5.02543C21.5924 5.0609 21.5571 5.09637 21.5208 5.13292C21.4222 5.20274 21.4222 5.20274 21.331 5.20452C21.1924 5.13448 21.0992 5.03904 20.9889 4.92976C20.965 4.90628 20.9412 4.8828 20.9165 4.85861C20.8378 4.781 20.7597 4.70287 20.6815 4.62468C20.627 4.57053 20.5726 4.5164 20.518 4.46228C20.404 4.34883 20.2902 4.23511 20.1766 4.12122C20.0307 3.97508 19.884 3.82982 19.7371 3.68477C19.6243 3.57326 19.5122 3.46122 19.4001 3.34902C19.3462 3.29522 19.2922 3.2416 19.2379 3.18817C19.1623 3.11355 19.0874 3.03822 19.0126 2.96266C18.9698 2.91992 18.927 2.87717 18.8828 2.83314C18.7972 2.71837 18.7972 2.71837 18.7949 2.62277C18.8606 2.49999 18.9417 2.41501 19.0399 2.31611C19.0815 2.27386 19.1232 2.23161 19.1661 2.18808C19.212 2.14229 19.2579 2.09652 19.3038 2.05076C19.351 2.00338 19.3982 1.95598 19.4453 1.90856C19.5443 1.80911 19.6436 1.70993 19.7431 1.61092C19.8696 1.48498 19.9953 1.35832 20.1208 1.23142C20.2182 1.1332 20.316 1.03542 20.4139 0.937766C20.4604 0.891307 20.5067 0.844705 20.5529 0.79795C21.281 0.0619141 22.2693 -0.340649 23.2249 0.259442Z" fill="#6B7280"/>
</g>
<defs>
<clipPath id="clip0_45410_40377">
<rect width="24" height="24" fill="white"/>
</clipPath>
</defs>
</svg>
