<svg width="24" height="24" viewBox="0 0 24 24" fill="none" xmlns="http://www.w3.org/2000/svg">
<path d="M2.12934 13.7251C2.20775 13.7242 2.20775 13.7242 2.28774 13.7233C2.34429 13.7229 2.40083 13.7226 2.45908 13.7222C2.5173 13.7218 2.57552 13.7215 2.6355 13.7211C2.75887 13.7204 2.88224 13.7199 3.00562 13.7195C3.1317 13.7191 3.25775 13.7182 3.38382 13.7167C3.56582 13.7147 3.74778 13.7139 3.92979 13.7134C3.98585 13.7126 4.04192 13.7118 4.09969 13.7109C4.46085 13.7119 4.73657 13.745 5.00883 14.0047C5.16494 14.2595 5.18255 14.4693 5.15531 14.7646C4.88069 14.6875 4.66741 14.5495 4.43186 14.3944C4.24325 14.2756 4.11998 14.2241 3.88969 14.249C3.87422 14.3573 3.85875 14.4656 3.84281 14.5771C3.89496 14.6083 3.89496 14.6083 3.94815 14.6402C4.07737 14.7176 4.20658 14.795 4.33577 14.8724C4.39164 14.9059 4.44751 14.9393 4.5034 14.9728C4.58382 15.0209 4.66421 15.0691 4.74461 15.1173C4.79296 15.1463 4.84132 15.1752 4.89115 15.2051C4.98043 15.2594 5.06834 15.316 5.15531 15.374C5.16567 15.5047 5.16849 15.6246 5.1641 15.7549C5.16315 15.8079 5.16315 15.8079 5.16218 15.862C5.16052 15.9493 5.158 16.0367 5.15531 16.124C4.84215 15.9737 4.54647 15.8074 4.25352 15.6205C4.10491 15.5528 4.042 15.5561 3.88969 15.6084C3.83099 15.6575 3.83099 15.6575 3.82854 15.7666C3.83034 15.8928 3.83034 15.8928 3.91851 15.966C3.95341 15.9873 3.98831 16.0087 4.02427 16.0306C4.06281 16.0543 4.10136 16.078 4.14107 16.1024C4.25927 16.1679 4.37846 16.2273 4.50071 16.2848C5.10861 16.5744 5.10861 16.5744 5.19564 16.7833C5.23278 17.0069 5.20249 17.2166 5.15531 17.4365C4.90786 17.3494 4.69729 17.2098 4.47691 17.0704C4.24668 16.9269 4.24668 16.9269 3.98344 16.874C3.93703 16.9049 3.89062 16.9359 3.84281 16.9678C3.83108 17.1357 3.83108 17.1357 3.84281 17.2959C3.87639 17.3084 3.90997 17.321 3.94457 17.334C4.07886 17.3903 4.19882 17.4561 4.32401 17.5304C4.36957 17.5574 4.41513 17.5844 4.46207 17.6122C4.50908 17.6403 4.55609 17.6683 4.60453 17.6973C4.65227 17.7255 4.7 17.7537 4.74918 17.7829C5.10164 17.9922 5.10164 17.9922 5.15531 18.0459C5.15874 18.1723 5.15964 18.2975 5.15824 18.4238C5.15803 18.4594 5.15782 18.4949 5.1576 18.5316C5.15705 18.6197 5.1562 18.7078 5.15531 18.7959C4.99509 18.7043 4.83488 18.6128 4.67466 18.5212C4.64574 18.5048 4.61683 18.4884 4.58703 18.4715C4.52756 18.4373 4.46846 18.4024 4.40972 18.367C4.22422 18.2563 4.10736 18.2121 3.88969 18.2334C3.87422 18.3417 3.85875 18.4499 3.84281 18.5615C3.88257 18.5817 3.92233 18.6019 3.96329 18.6228C4.11171 18.6992 4.25783 18.7794 4.40357 18.8608C4.46667 18.8953 4.53034 18.9289 4.59455 18.9613C4.81102 19.0713 4.99166 19.1767 5.15531 19.3584C5.22983 19.6046 5.19416 19.8585 5.15531 20.1084C4.84268 19.9569 4.54658 19.7919 4.25352 19.6048C4.10491 19.5372 4.042 19.5405 3.88969 19.5928C3.83099 19.6419 3.83099 19.6419 3.82854 19.7509C3.83034 19.8771 3.83034 19.8771 3.91851 19.9504C3.95341 19.9717 3.98831 19.993 4.02427 20.015C4.06281 20.0387 4.10136 20.0624 4.14107 20.0868C4.25927 20.1523 4.37846 20.2117 4.50071 20.2691C5.10861 20.5588 5.10861 20.5588 5.19564 20.7677C5.23278 20.9913 5.20249 21.201 5.15531 21.4209C4.90786 21.3338 4.69729 21.1942 4.47691 21.0548C4.24668 20.9113 4.24668 20.9113 3.98344 20.8584C3.93703 20.8893 3.89062 20.9203 3.84281 20.9521C3.83108 21.1201 3.83108 21.1201 3.84281 21.2803C3.87636 21.2928 3.90991 21.3053 3.94447 21.3182C4.07953 21.375 4.19989 21.4414 4.32566 21.5165C4.37143 21.5437 4.4172 21.5708 4.46436 21.5989C4.51158 21.6271 4.55881 21.6554 4.60746 21.6846C4.65559 21.7132 4.70372 21.7418 4.7533 21.7713C4.87177 21.8419 4.99014 21.9126 5.10844 21.9834C5.07335 22.1911 5.02331 22.2989 4.87406 22.4521C4.63129 22.5968 4.41111 22.6451 4.13124 22.6464C4.08742 22.6467 4.0436 22.647 3.99845 22.6473C3.95162 22.6474 3.90479 22.6475 3.85654 22.6475C3.78346 22.6477 3.78346 22.6477 3.70891 22.648C3.60596 22.6482 3.503 22.6483 3.40005 22.6483C3.24328 22.6484 3.08652 22.6493 2.92976 22.6502C2.82951 22.6503 2.72926 22.6504 2.629 22.6504C2.58246 22.6508 2.53591 22.6511 2.48796 22.6515C2.15942 22.6504 1.80843 22.6467 1.5518 22.414C1.52581 22.3915 1.49983 22.369 1.47306 22.3457C1.39118 22.2477 1.3535 22.1502 1.31156 22.0303C1.51897 21.8865 1.72938 21.7504 1.94767 21.6238C1.98559 21.6015 2.02352 21.5792 2.06259 21.5563C2.13948 21.5112 2.21674 21.4669 2.29436 21.4231C2.50589 21.305 2.50589 21.305 2.62882 21.1058C2.63246 20.9972 2.63246 20.9972 2.57133 20.9111C2.48468 20.847 2.48468 20.847 2.37416 20.8712C2.24456 20.9065 2.14947 20.9535 2.03464 21.0226C1.97614 21.0573 1.97614 21.0573 1.91645 21.0927C1.87636 21.1169 1.83627 21.1411 1.79496 21.166C1.71481 21.2141 1.63455 21.262 1.55418 21.3097C1.50118 21.3417 1.50118 21.3417 1.44712 21.3743C1.35844 21.4209 1.35844 21.4209 1.26469 21.4209C1.21936 21.1848 1.17996 20.9479 1.26469 20.7178C1.45868 20.4953 1.75443 20.377 2.01469 20.249C2.12419 20.1912 2.23195 20.1311 2.33988 20.0703C2.38478 20.0468 2.42967 20.0233 2.47593 19.9991C2.58716 19.928 2.58716 19.928 2.61857 19.7999C2.6342 19.6861 2.6342 19.6861 2.57426 19.5986C2.48374 19.5353 2.48374 19.5353 2.36423 19.5497C2.13811 19.6098 1.96388 19.7273 1.76859 19.8535C1.69327 19.9016 1.61783 19.9495 1.54227 19.9972C1.50921 20.0185 1.47614 20.0398 1.44207 20.0618C1.35844 20.1084 1.35844 20.1084 1.26469 20.1084C1.26469 19.8609 1.26469 19.6134 1.26469 19.3584C1.33194 19.3205 1.39919 19.2826 1.46848 19.2436C1.55778 19.193 1.64708 19.1424 1.73637 19.0918C1.78057 19.0669 1.82477 19.0421 1.87031 19.0164C2.3054 18.806 2.3054 18.806 2.61492 18.4696C2.63562 18.3593 2.63562 18.3593 2.53031 18.2334C2.21652 18.25 2.00375 18.3791 1.7393 18.541C1.65938 18.589 1.57943 18.6369 1.49943 18.6847C1.46445 18.706 1.42947 18.7273 1.39343 18.7493C1.31156 18.7959 1.31156 18.7959 1.26469 18.7959C1.22618 18.5462 1.19005 18.2918 1.26469 18.0459C1.45119 17.8433 1.67301 17.735 1.91801 17.6152C2.0116 17.5666 2.10468 17.5172 2.19742 17.467C2.28127 17.4221 2.3663 17.3794 2.45138 17.3369C2.58559 17.2608 2.58559 17.2608 2.62178 17.1299C2.63063 17.0082 2.63063 17.0082 2.57719 16.874C2.26381 16.8905 2.05278 17.0193 1.7891 17.1816C1.7098 17.2297 1.63039 17.2776 1.55088 17.3254C1.51615 17.3467 1.48141 17.368 1.44563 17.3899C1.35844 17.4365 1.35844 17.4365 1.26469 17.4365C1.21936 17.2004 1.17996 16.9635 1.26469 16.7334C1.45868 16.5109 1.75443 16.3926 2.01469 16.2646C2.12419 16.2068 2.23195 16.1467 2.33988 16.0859C2.38478 16.0624 2.42967 16.0389 2.47593 16.0147C2.58716 15.9437 2.58716 15.9437 2.61857 15.8155C2.6342 15.7018 2.6342 15.7018 2.57426 15.6142C2.48374 15.551 2.48374 15.551 2.36423 15.5654C2.13811 15.6254 1.96388 15.743 1.76859 15.8691C1.69327 15.9172 1.61783 15.9651 1.54227 16.0129C1.50921 16.0342 1.47614 16.0555 1.44207 16.0774C1.35844 16.124 1.35844 16.124 1.26469 16.124C1.26469 15.8765 1.26469 15.629 1.26469 15.374C1.35103 15.3254 1.43738 15.2768 1.52634 15.2268C1.61017 15.1793 1.69392 15.1316 1.77767 15.0839C1.83574 15.0509 1.89389 15.0181 1.95212 14.9854C2.036 14.9383 2.11957 14.8907 2.2031 14.843C2.27859 14.8003 2.27859 14.8003 2.35559 14.7567C2.47874 14.674 2.55247 14.6127 2.62406 14.4834C2.5908 14.3552 2.5908 14.3552 2.53031 14.249C2.23272 14.2675 2.04106 14.3752 1.79203 14.5332C1.72213 14.577 1.65207 14.6205 1.58182 14.6637C1.55126 14.6831 1.52071 14.7024 1.48922 14.7223C1.40531 14.7646 1.40531 14.7646 1.26469 14.7646C1.24846 14.5051 1.27269 14.2898 1.40531 14.0615C1.62359 13.8231 1.80395 13.7283 2.12934 13.7251Z" fill="#6B7280"/>
<path d="M19.7586 13.7257C19.8385 13.7246 19.8385 13.7246 19.9199 13.7235C20.1635 13.7214 20.4071 13.7194 20.6506 13.7184C20.779 13.7178 20.9073 13.7164 21.0357 13.7145C21.2209 13.7118 21.4061 13.7109 21.5914 13.7103C21.6485 13.7092 21.7056 13.7081 21.7644 13.707C22.0984 13.7079 22.3397 13.7389 22.5928 13.9692C22.802 14.2154 22.803 14.4522 22.7803 14.766C22.5065 14.6893 22.2948 14.5518 22.061 14.3958C21.8558 14.2659 21.7177 14.2278 21.4678 14.2504C21.4468 14.4068 21.4468 14.4068 21.4678 14.5785C21.5723 14.6862 21.5723 14.6862 21.7192 14.7611C21.7976 14.8065 21.7976 14.8065 21.8775 14.8527C21.9333 14.8834 21.9891 14.9141 22.045 14.9447C22.1003 14.9762 22.1556 15.0078 22.2108 15.0395C22.3122 15.0975 22.414 15.1549 22.5161 15.2117C22.6063 15.2627 22.6941 15.3179 22.7803 15.3754C22.7907 15.5061 22.7935 15.626 22.7891 15.7563C22.7881 15.8093 22.7881 15.8093 22.7872 15.8634C22.7855 15.9507 22.783 16.0381 22.7803 16.1254C22.4672 15.9751 22.1715 15.8088 21.8785 15.6219C21.7299 15.5542 21.667 15.5575 21.5147 15.6098C21.456 15.6589 21.456 15.6589 21.4535 15.768C21.4553 15.8942 21.4553 15.8942 21.5435 15.9674C21.5784 15.9887 21.6133 16.0101 21.6493 16.032C21.6878 16.0557 21.7264 16.0794 21.7661 16.1039C21.8843 16.1693 22.0035 16.2287 22.1257 16.2862C22.7336 16.5758 22.7336 16.5758 22.8206 16.7847C22.8578 17.0083 22.8275 17.218 22.7803 17.4379C22.6271 17.3853 22.4942 17.3155 22.357 17.2308C22.3228 17.2098 22.2887 17.1887 22.2535 17.167C22.1826 17.1228 22.1119 17.0783 22.0415 17.0333C21.8406 16.906 21.8406 16.906 21.6099 16.8818C21.5167 16.9144 21.5167 16.9144 21.4678 16.9692C21.4659 17.0785 21.4658 17.1879 21.4678 17.2973C21.5014 17.3099 21.535 17.3224 21.5696 17.3354C21.7039 17.3917 21.8238 17.4575 21.949 17.5318C21.9946 17.5588 22.0401 17.5858 22.0871 17.6136C22.1341 17.6417 22.1811 17.6697 22.2295 17.6987C22.2773 17.7269 22.325 17.7552 22.3742 17.7843C22.7266 17.9936 22.7266 17.9936 22.7803 18.0473C22.7837 18.1737 22.7846 18.2989 22.7832 18.4252C22.783 18.4608 22.7828 18.4963 22.7826 18.533C22.782 18.6211 22.7812 18.7092 22.7803 18.7973C22.6201 18.7057 22.4599 18.6142 22.2997 18.5226C22.2707 18.5062 22.2418 18.4898 22.2119 18.4729C22.1527 18.4388 22.0939 18.4039 22.0355 18.3684C21.8339 18.2472 21.7039 18.2155 21.4678 18.2348C21.4468 18.3912 21.4468 18.3912 21.4678 18.5629C21.5723 18.6706 21.5723 18.6706 21.7192 18.7455C21.7976 18.7908 21.7976 18.7908 21.8775 18.8371C21.9333 18.8678 21.9891 18.8985 22.045 18.9291C22.1003 18.9606 22.1556 18.9922 22.2108 19.0239C22.3122 19.0818 22.414 19.1393 22.5161 19.1961C22.6063 19.2471 22.6941 19.3023 22.7803 19.3598C22.7907 19.4905 22.7935 19.6104 22.7891 19.7406C22.7881 19.7937 22.7881 19.7937 22.7872 19.8478C22.7855 19.9351 22.783 20.0225 22.7803 20.1098C22.4672 19.9594 22.1715 19.7932 21.8785 19.6062C21.7299 19.5386 21.667 19.5419 21.5147 19.5942C21.456 19.6433 21.456 19.6433 21.4535 19.7523C21.4553 19.8786 21.4553 19.8786 21.5435 19.9518C21.5784 19.9731 21.6133 19.9944 21.6493 20.0164C21.6878 20.0401 21.7264 20.0638 21.7661 20.0882C21.8843 20.1537 22.0035 20.2131 22.1257 20.2706C22.7336 20.5602 22.7336 20.5602 22.8206 20.7691C22.8578 20.9927 22.8275 21.2024 22.7803 21.4223C22.5329 21.3352 22.3223 21.1956 22.1019 21.0562C21.8717 20.9127 21.8717 20.9127 21.6084 20.8598C21.562 20.8907 21.5156 20.9217 21.4678 20.9535C21.4561 21.1215 21.4561 21.1215 21.4678 21.2817C21.5014 21.2942 21.5349 21.3067 21.5695 21.3196C21.7045 21.3764 21.8249 21.4428 21.9507 21.5179C21.9964 21.5451 22.0422 21.5723 22.0894 21.6003C22.1366 21.6285 22.1838 21.6568 22.2325 21.686C22.2806 21.7146 22.3287 21.7432 22.3783 21.7728C22.4968 21.8433 22.6151 21.914 22.7334 21.9848C22.6906 22.2408 22.5988 22.38 22.3877 22.5356C22.1023 22.6715 21.7864 22.6486 21.477 22.6489C21.4283 22.6491 21.3797 22.6492 21.3295 22.6494C21.2269 22.6496 21.1242 22.6497 21.0215 22.6497C20.8652 22.6498 20.7088 22.6507 20.5525 22.6516C20.4524 22.6517 20.3524 22.6518 20.2524 22.6518C20.1828 22.6523 20.1828 22.6523 20.1118 22.6529C19.7836 22.6518 19.4331 22.6478 19.1768 22.4155C19.1508 22.3929 19.1248 22.3704 19.0981 22.3472C19.0162 22.2491 18.9785 22.1516 18.9366 22.0317C19.144 21.8879 19.3544 21.7518 19.5727 21.6252C19.6106 21.6029 19.6485 21.5806 19.6876 21.5577C19.7645 21.5127 19.8417 21.4683 19.9194 21.4245C20.1309 21.3064 20.1309 21.3064 20.2538 21.1072C20.2575 20.9986 20.2575 20.9986 20.1963 20.9125C20.1097 20.8484 20.1097 20.8484 19.9992 20.8726C19.8696 20.9079 19.7745 20.9549 19.6596 21.024C19.6011 21.0587 19.6011 21.0587 19.5414 21.0941C19.5014 21.1183 19.4613 21.1425 19.42 21.1674C19.3398 21.2155 19.2595 21.2634 19.1792 21.3111C19.1262 21.3431 19.1262 21.3431 19.0721 21.3757C18.9834 21.4223 18.9834 21.4223 18.8897 21.4223C18.8444 21.1862 18.805 20.9493 18.8897 20.7192C19.0837 20.4967 19.3794 20.3784 19.6397 20.2504C19.7492 20.1926 19.8569 20.1325 19.9649 20.0717C20.0098 20.0482 20.0547 20.0247 20.1009 20.0005C20.2122 19.9294 20.2122 19.9294 20.2436 19.8013C20.2592 19.6875 20.2592 19.6875 20.1993 19.6C20.1087 19.5367 20.1087 19.5367 19.9892 19.5511C19.7631 19.6112 19.5889 19.7288 19.3936 19.8549C19.3183 19.903 19.2428 19.9509 19.1673 19.9986C19.1342 20.0199 19.1011 20.0412 19.0671 20.0632C18.9834 20.1098 18.9834 20.1098 18.8897 20.1098C18.8897 19.8623 18.8897 19.6148 18.8897 19.3598C18.9564 19.3224 19.0231 19.2851 19.0918 19.2466C19.1807 19.1965 19.2696 19.1463 19.3584 19.0961C19.4022 19.0716 19.4461 19.0472 19.4912 19.022C19.759 18.8702 20.0084 18.7082 20.2491 18.516C20.2313 18.3618 20.2313 18.3618 20.1553 18.2348C19.8427 18.2443 19.6264 18.3819 19.3643 18.5424C19.2844 18.5904 19.2044 18.6383 19.1244 18.6861C19.0894 18.7074 19.0545 18.7287 19.0184 18.7507C18.9366 18.7973 18.9366 18.7973 18.8897 18.7973C18.8512 18.5476 18.815 18.2932 18.8897 18.0473C19.0762 17.8447 19.298 17.7364 19.543 17.6166C19.6366 17.568 19.7297 17.5186 19.8224 17.4685C19.9063 17.4235 19.9913 17.3808 20.0764 17.3383C20.2112 17.262 20.2112 17.262 20.2471 17.128C20.259 17.015 20.259 17.015 20.1963 16.9281C20.1097 16.864 20.1097 16.864 19.9992 16.8882C19.8696 16.9235 19.7745 16.9706 19.6596 17.0397C19.6206 17.0628 19.5816 17.0859 19.5414 17.1097C19.5014 17.1339 19.4613 17.1581 19.42 17.183C19.3398 17.2311 19.2595 17.279 19.1792 17.3268C19.1438 17.3481 19.1085 17.3694 19.0721 17.3913C18.9834 17.4379 18.9834 17.4379 18.8897 17.4379C18.8444 17.2018 18.805 16.9649 18.8897 16.7348C19.0837 16.5123 19.3794 16.394 19.6397 16.266C19.7492 16.2082 19.8569 16.1481 19.9649 16.0873C20.0098 16.0638 20.0547 16.0403 20.1009 16.0161C20.2113 15.9451 20.2113 15.9451 20.2463 15.8202C20.2605 15.6916 20.2605 15.6916 20.1553 15.5629C19.8454 15.5791 19.647 15.7032 19.3907 15.8705C19.3158 15.9186 19.2408 15.9665 19.1656 16.0143C19.1165 16.0462 19.1165 16.0462 19.0663 16.0788C18.9834 16.1254 18.9834 16.1254 18.8897 16.1254C18.8897 15.8779 18.8897 15.6304 18.8897 15.3754C18.9564 15.3381 19.0231 15.3007 19.0918 15.2623C19.1807 15.2121 19.2696 15.1619 19.3584 15.1117C19.4022 15.0873 19.4461 15.0628 19.4912 15.0376C19.759 14.8859 20.0084 14.7238 20.2491 14.5317C20.2313 14.3774 20.2313 14.3774 20.1553 14.2504C19.8585 14.2623 19.6641 14.3778 19.417 14.5346C19.3471 14.5784 19.2771 14.6219 19.2068 14.6651C19.1763 14.6845 19.1457 14.7038 19.1142 14.7238C19.0303 14.766 19.0303 14.766 18.8897 14.766C18.8735 14.5065 18.8977 14.2912 19.0303 14.0629C19.2501 13.8228 19.4313 13.73 19.7586 13.7257Z" fill="#6B7280"/>
<path d="M14.5304 1.87531C15.4272 2.58847 16.1068 3.5703 16.2547 4.72562C16.3752 5.95327 16.108 7.08118 15.3181 8.04816C14.6249 8.84043 13.68 9.46042 12.6085 9.56281C11.3657 9.63758 10.2547 9.39213 9.28042 8.57843C9.24972 8.55456 9.21903 8.5307 9.1874 8.50611C8.3776 7.85016 7.91895 6.81371 7.80456 5.79698C7.78134 5.56571 7.76282 5.34156 7.78042 5.10968C7.78416 5.05953 7.78791 5.00938 7.79177 4.95771C7.91133 3.80354 8.44668 2.80853 9.3185 2.04816C10.8219 0.85474 12.9432 0.781552 14.5304 1.87531ZM9.56167 2.62531C9.5297 2.65298 9.49774 2.68066 9.4648 2.70917C8.93242 3.19884 8.46005 4.01697 8.41909 4.7464C8.4176 4.9204 8.4176 4.9204 8.51778 5.00225C8.63783 5.07058 8.7068 5.08107 8.84397 5.08249C8.90898 5.08361 8.90898 5.08361 8.9753 5.08475C9.02179 5.08476 9.06827 5.08477 9.11617 5.08478C9.16425 5.08514 9.21233 5.08549 9.26187 5.08586C9.36348 5.08637 9.4651 5.0865 9.56671 5.08629C9.72209 5.08625 9.87735 5.0882 10.0327 5.09027C10.1315 5.09052 10.2303 5.09064 10.3291 5.09064C10.3755 5.09141 10.4218 5.09218 10.4696 5.09297C10.742 5.0903 10.742 5.0903 10.9716 4.94959C11.1689 4.70105 11.1689 4.70105 11.2492 4.40656C11.4635 4.39931 11.6775 4.39582 11.892 4.39569C11.9648 4.39513 12.0376 4.39357 12.1104 4.39097C12.3501 4.38281 12.5648 4.38525 12.796 4.45343C12.9558 4.62383 13.0343 4.803 13.1242 5.01593C13.2361 5.0719 13.3072 5.06963 13.4321 5.0711C13.4766 5.07171 13.521 5.07231 13.5668 5.07293C13.639 5.07345 13.639 5.07345 13.7127 5.07398C13.762 5.07436 13.8114 5.07473 13.8623 5.07512C13.9668 5.07577 14.0714 5.07628 14.176 5.07664C14.3361 5.07745 14.4961 5.07951 14.6562 5.08158C14.7577 5.08205 14.8592 5.08245 14.9607 5.08277C15.0326 5.084 15.0326 5.084 15.106 5.08525C15.3649 5.08748 15.3649 5.08748 15.5932 4.97916C15.6984 4.80364 15.6545 4.64218 15.6085 4.45343C15.3322 3.49944 14.7589 2.65571 13.8866 2.15695C12.4727 1.3912 10.7637 1.52548 9.56167 2.62531ZM8.49033 5.68714C8.39166 5.83201 8.41067 5.97587 8.43667 6.14093C8.69548 7.1242 9.2545 7.94394 10.1242 8.48468C10.5417 8.72377 11.0819 9.01418 11.5773 8.95343C11.708 8.85359 11.7591 8.79805 11.788 8.63431C11.7878 8.58367 11.7877 8.53302 11.7876 8.48084C11.7879 8.42327 11.7881 8.36571 11.7884 8.3064C11.7878 8.24375 11.7871 8.18111 11.7864 8.11847C11.7863 8.05403 11.7862 7.98959 11.7863 7.92515C11.7861 7.79022 11.7853 7.65532 11.7841 7.5204C11.7825 7.34765 11.7821 7.17491 11.7822 7.00215C11.7822 6.86912 11.7817 6.7361 11.781 6.60308C11.7807 6.53938 11.7805 6.47569 11.7804 6.412C11.7802 6.32292 11.7793 6.23385 11.7784 6.14478C11.7781 6.09413 11.7777 6.04348 11.7773 5.9913C11.7648 5.85962 11.7433 5.78204 11.671 5.67218C11.5421 5.60771 11.4378 5.61863 11.2935 5.61775C11.2339 5.6173 11.1743 5.61685 11.1129 5.61639C11.0475 5.61616 10.9822 5.61596 10.9168 5.61579C10.85 5.61552 10.7833 5.61525 10.7165 5.61498C10.5764 5.61448 10.4363 5.61421 10.2962 5.61405C10.1166 5.61379 9.93703 5.61266 9.75744 5.61133C9.61947 5.61046 9.4815 5.61021 9.34353 5.61014C9.27731 5.61 9.2111 5.60962 9.14488 5.60901C9.05231 5.60821 8.95973 5.60838 8.86716 5.6086C8.78811 5.60834 8.78811 5.60834 8.70746 5.60808C8.5775 5.61496 8.5775 5.61496 8.49033 5.68714ZM12.3807 5.67846C12.3023 5.80682 12.3094 5.90958 12.3091 6.05936C12.3087 6.1199 12.3082 6.18043 12.3078 6.2428C12.308 6.30894 12.3083 6.37508 12.3086 6.44123C12.3085 6.509 12.3084 6.57677 12.3082 6.64455C12.308 6.78656 12.3083 6.92857 12.309 7.07058C12.3098 7.25265 12.3093 7.43469 12.3085 7.61675C12.3079 7.7567 12.3081 7.89663 12.3085 8.03657C12.3086 8.10371 12.3085 8.17084 12.3081 8.23797C12.3078 8.33177 12.3084 8.42558 12.3091 8.51938C12.3092 8.57277 12.3093 8.62616 12.3094 8.68117C12.3165 8.81315 12.3165 8.81315 12.3927 8.90083C12.5255 8.99369 12.6485 8.95427 12.8023 8.93311C13.7105 8.75369 14.5256 8.21884 15.046 7.45343C15.364 6.95662 15.6554 6.41714 15.6554 5.81281C15.5565 5.67628 15.4998 5.63083 15.3324 5.60181C15.28 5.60181 15.2275 5.6018 15.1735 5.60179C15.1139 5.60135 15.0543 5.60091 14.9929 5.60046C14.928 5.60095 14.8632 5.60148 14.7983 5.60205C14.7316 5.60205 14.665 5.60198 14.5983 5.60185C14.4588 5.60178 14.3193 5.60237 14.1798 5.60344C14.0009 5.60477 13.8221 5.60464 13.6432 5.60404C13.5056 5.60372 13.3681 5.60408 13.2305 5.60466C13.1645 5.60488 13.0986 5.60489 13.0326 5.60471C12.9405 5.60457 12.8484 5.60545 12.7563 5.60637C12.6777 5.60675 12.6777 5.60675 12.5975 5.60713C12.4697 5.61632 12.4697 5.61632 12.3807 5.67846Z" fill="#6B7280"/>
<path d="M14.0508 2.87029C14.541 3.29441 14.9784 3.89406 15.0938 4.54607C14.8661 4.55772 14.6387 4.56619 14.4108 4.57182C14.3335 4.57417 14.2561 4.57736 14.1788 4.58144C13.5325 4.61462 13.5325 4.61462 13.3356 4.44459C13.2512 4.31866 13.2512 4.31866 13.1901 4.19257C13.0916 4.01824 12.9662 3.95777 12.7768 3.90497C12.5287 3.87381 12.2789 3.88117 12.0293 3.88104C11.9727 3.88046 11.9162 3.87989 11.8579 3.8793C11.3642 3.87026 11.3642 3.87026 10.9365 4.08611C10.8022 4.2419 10.8022 4.2419 10.6406 4.54607C10.0992 4.54607 9.55781 4.54607 9 4.54607C9.16562 3.80076 9.57021 3.17368 10.2059 2.73516C11.4294 1.9994 12.8911 1.96706 14.0508 2.87029Z" fill="#6B7280"/>
<path d="M11.5847 16.3833C11.6216 16.3833 11.6584 16.3832 11.6964 16.3831C11.7741 16.3832 11.8519 16.3838 11.9296 16.3847C12.0486 16.3861 12.1676 16.3857 12.2866 16.3851C12.3622 16.3854 12.4378 16.3858 12.5134 16.3863C12.5668 16.3861 12.5668 16.3861 12.6213 16.3859C12.8645 16.3902 12.8645 16.3902 12.9694 16.4584C13.061 16.592 13.0478 16.7022 13.0478 16.8629C13.0479 16.8948 13.0481 16.9267 13.0483 16.9595C13.0487 17.0648 13.048 17.1701 13.0473 17.2754C13.0473 17.3486 13.0473 17.4217 13.0474 17.4949C13.0474 17.6481 13.0469 17.8013 13.0461 17.9546C13.045 18.1513 13.045 18.3479 13.0453 18.5446C13.0455 18.6956 13.0451 18.8466 13.0447 18.9976C13.0445 19.0701 13.0445 19.1427 13.0445 19.2152C13.0445 19.3164 13.044 19.4176 13.0432 19.5189C13.043 19.5765 13.0428 19.6342 13.0425 19.6936C13.0303 19.8285 13.0303 19.8285 12.9366 19.9222C12.8037 19.9327 12.6756 19.9376 12.5427 19.938C12.5036 19.9383 12.4646 19.9386 12.4243 19.9389C12.3416 19.9394 12.2589 19.9396 12.1762 19.9396C12.0495 19.9398 11.9229 19.9415 11.7963 19.9433C11.716 19.9436 11.6357 19.9437 11.5554 19.9438C11.5175 19.9445 11.4795 19.9452 11.4404 19.9459C11.178 19.9437 11.178 19.9437 11.0751 19.8462C10.9959 19.7001 10.9965 19.5941 10.9957 19.4281C10.9954 19.3978 10.9951 19.3674 10.9948 19.3361C10.9939 19.2361 10.9941 19.136 10.9944 19.036C10.9942 18.9663 10.9939 18.8966 10.9936 18.8269C10.9932 18.681 10.9933 18.535 10.9938 18.3891C10.9943 18.2021 10.9934 18.0152 10.992 17.8282C10.9911 17.6844 10.9912 17.5405 10.9914 17.3966C10.9914 17.3277 10.9911 17.2587 10.9906 17.1898C10.9899 17.0934 10.9904 16.9971 10.9912 16.9007C10.9912 16.8459 10.9912 16.7911 10.9912 16.7346C11.0481 16.3945 11.2863 16.3789 11.5847 16.3833Z" fill="#6B7280"/>
<path d="M13.5469 17.5781C14.7534 17.5781 15.96 17.5781 17.2031 17.5781C17.2031 17.9803 17.2031 18.3825 17.2031 18.7969C15.9966 18.7969 14.79 18.7969 13.5469 18.7969C13.5469 18.3947 13.5469 17.9925 13.5469 17.5781Z" fill="#6B7280"/>
<path d="M6.84375 17.5781C8.05031 17.5781 9.25688 17.5781 10.5 17.5781C10.5 17.9803 10.5 18.3825 10.5 18.7969C9.29344 18.7969 8.08687 18.7969 6.84375 18.7969C6.84375 18.3947 6.84375 17.9925 6.84375 17.5781Z" fill="#6B7280"/>
<path d="M9 6.14062C9.7425 6.14062 10.485 6.14062 11.25 6.14062C11.25 6.88313 11.25 7.62563 11.25 8.39062C10.2866 8.10162 9.67401 7.59687 9.17175 6.73242C9.09375 6.5625 9.09375 6.5625 9 6.14062Z" fill="#6B7280"/>
<path d="M12.8438 6.14062C13.5863 6.14062 14.3288 6.14062 15.0938 6.14062C14.7569 7.15124 14.2898 7.7495 13.3416 8.22536C13.1713 8.30769 13.0319 8.353 12.8438 8.39062C12.8438 7.64812 12.8438 6.90562 12.8438 6.14062Z" fill="#6B7280"/>
<path d="M11.7656 10.0781C11.9358 10.0781 12.1059 10.0781 12.2812 10.0781C12.2812 11.9962 12.2812 13.9144 12.2812 15.8906C12.1111 15.8906 11.9409 15.8906 11.7656 15.8906C11.7656 13.9725 11.7656 12.0544 11.7656 10.0781Z" fill="#6B7280"/>
<path d="M5.67188 16.6406C5.8575 16.6406 6.04313 16.6406 6.23438 16.6406C6.36036 16.7666 6.33999 16.8299 6.34026 17.006C6.34055 17.0629 6.34085 17.1199 6.34115 17.1785C6.34096 17.2403 6.34077 17.3021 6.34058 17.3657C6.34064 17.4295 6.34073 17.4932 6.34085 17.557C6.34099 17.6906 6.34078 17.8243 6.34035 17.958C6.33981 18.1295 6.34012 18.301 6.34068 18.4725C6.34102 18.6041 6.34091 18.7358 6.34067 18.8674C6.34058 18.9615 6.34086 19.0555 6.34115 19.1496C6.34086 19.2065 6.34056 19.2635 6.34026 19.3221C6.34014 19.3976 6.34014 19.3976 6.34003 19.4746C6.32812 19.5938 6.32812 19.5938 6.23438 19.6875C6.04875 19.6875 5.86312 19.6875 5.67188 19.6875C5.67188 18.682 5.67188 17.6766 5.67188 16.6406Z" fill="#6B7280"/>
<path d="M17.8601 16.6406C18.0303 16.6406 18.2004 16.6406 18.3758 16.6406C18.3758 17.6461 18.3758 18.6516 18.3758 19.6875C18.1901 19.6875 18.0045 19.6875 17.8133 19.6875C17.6882 19.5625 17.7074 19.5018 17.7066 19.3272C17.7062 19.2713 17.7057 19.2155 17.7053 19.1579C17.7053 19.0973 17.7054 19.0367 17.7054 18.9743C17.7052 18.9117 17.705 18.8491 17.7048 18.7865C17.7045 18.6553 17.7045 18.524 17.7047 18.3928C17.705 18.2245 17.7042 18.0563 17.7031 17.8881C17.7024 17.7588 17.7024 17.6295 17.7025 17.5002C17.7025 17.408 17.7018 17.3158 17.7012 17.2236C17.7015 17.1676 17.7018 17.1116 17.7021 17.0539C17.702 17.0045 17.702 16.9552 17.702 16.9043C17.7195 16.7812 17.7195 16.7812 17.8601 16.6406Z" fill="#6B7280"/>
</svg>
