<svg width="84" height="84" viewBox="0 0 84 84" fill="none" xmlns="http://www.w3.org/2000/svg">
<path d="M0 16C0 7.16344 7.16344 0 16 0H68C76.8366 0 84 7.16344 84 16V68C84 76.8366 76.8366 84 68 84H16C7.16344 84 0 76.8366 0 68V16Z" fill="url(#paint0_linear_16720_241431)"/>
<path d="M42.0004 47C29.4754 47 19.2754 55.4 19.2754 65.75C19.2754 66.45 19.8254 67 20.5254 67H63.4754C64.1754 67 64.7254 66.45 64.7254 65.75C64.7254 55.4 54.5254 47 42.0004 47Z" fill="white"/>
<path d="M42 17C39.05 17 36.35 18.025 34.2 19.75C31.325 22.025 29.5 25.55 29.5 29.5C29.5 31.85 30.15 34.05 31.325 35.925C33.475 39.55 37.425 42 42 42C45.15 42 48.025 40.85 50.225 38.875C51.2 38.05 52.05 37.05 52.7 35.925C53.85 34.05 54.5 31.85 54.5 29.5C54.5 22.6 48.9 17 42 17ZM48.475 28.15L41.8 34.3C41.35 34.725 40.775 34.925 40.2 34.925C39.6 34.925 39 34.7 38.55 34.25L35.475 31.15C34.55 30.225 34.55 28.75 35.475 27.825C36.4 26.9 37.875 26.9 38.8 27.825L40.275 29.3L45.3 24.675C46.25 23.8 47.725 23.85 48.6 24.8C49.475 25.775 49.425 27.275 48.475 28.15Z" fill="white"/>
<defs>
<linearGradient id="paint0_linear_16720_241431" x1="-0.297909" y1="8.08247e-07" x2="80.1276" y2="84" gradientUnits="userSpaceOnUse">
<stop stop-color="#FFDE81"/>
<stop offset="1" stop-color="#C49100"/>
</linearGradient>
</defs>
</svg>
