<svg width="84" height="84" viewBox="0 0 84 84" fill="none" xmlns="http://www.w3.org/2000/svg">
<rect width="84" height="84" rx="16" fill="url(#paint0_linear_16720_241351)"/>
<g clip-path="url(#clip0_16720_241351)">
<path d="M40.7531 49.249C40.878 49.2486 41.003 49.2482 41.1317 49.2478C41.3949 49.2472 41.658 49.2469 41.9212 49.2469C42.3195 49.2467 42.7177 49.2446 43.116 49.2423C45.5533 49.2358 47.5765 49.4356 49.6172 50.9093C49.7416 50.999 49.7416 50.999 49.8685 51.0906C51.2862 52.2203 52.2437 54.085 52.4635 55.8716C52.5442 56.7064 52.5623 57.5321 52.5583 58.3704C52.5581 58.5744 52.5581 58.5744 52.5578 58.7826C52.5572 59.2124 52.5557 59.6421 52.5542 60.0719C52.5536 60.3652 52.5531 60.6586 52.5526 60.9519C52.5513 61.6669 52.5494 62.3818 52.5469 63.0968C51.695 63.5483 50.8715 63.9249 49.9395 64.1734C49.8326 64.2026 49.7257 64.2317 49.6156 64.2617C49.3043 64.3448 48.9923 64.4248 48.6797 64.503C48.6006 64.5231 48.5215 64.5433 48.4401 64.564C43.3394 65.8148 37.1862 65.0534 32.2735 63.3312C32.0746 63.1323 32.1393 62.8788 32.1374 62.6065C32.1363 62.4765 32.1351 62.3465 32.134 62.2125C32.1335 62.0703 32.133 61.9281 32.1325 61.7816C32.1318 61.6354 32.1311 61.4891 32.1304 61.3384C32.1293 61.027 32.1285 60.7156 32.1281 60.4042C32.1276 60.0881 32.126 59.7721 32.1233 59.456C32.0889 55.1 32.0889 55.1 32.9473 53.5533C32.9884 53.4758 33.0295 53.3982 33.0718 53.3183C34.0511 51.5167 35.5232 50.3068 37.4407 49.6047C38.5296 49.2896 39.627 49.2502 40.7531 49.249Z" fill="white"/>
<path d="M31.9659 43.1468C32.2689 43.1486 32.5719 43.1502 32.875 43.1516C33.612 43.1555 34.349 43.1613 35.086 43.1688C35.1195 43.3589 35.1195 43.3589 35.1536 43.5529C35.1841 43.722 35.2147 43.891 35.2453 44.06C35.2671 44.1849 35.2671 44.1849 35.2894 44.3123C35.5325 45.6438 36.1283 47.0325 37.1033 47.9954C37.3125 48.2078 37.3125 48.2078 37.3125 48.4422C37.2287 48.4736 37.1449 48.5051 37.0585 48.5374C34.6533 49.4833 32.8365 50.9871 31.7205 53.3462C31.1564 54.7342 30.9747 56.0921 30.9185 57.5755C30.9109 57.7628 30.9109 57.7628 30.9032 57.9539C30.8908 58.2599 30.8788 58.5659 30.8672 58.8719C28.0222 58.8266 24.3939 58.4276 21.8438 57.1141C21.8328 56.1666 21.8246 55.2191 21.8195 54.2715C21.8171 53.8313 21.8138 53.3912 21.8084 52.951C21.8033 52.5248 21.8005 52.0985 21.7993 51.6722C21.7985 51.5111 21.7968 51.35 21.7942 51.1889C21.7587 48.8638 22.4737 46.9867 24.0704 45.2782C26.2912 43.1069 29.0573 43.1173 31.9659 43.1468Z" fill="white"/>
<path d="M49.6172 43.1723C50.4216 43.1633 51.226 43.1572 52.0305 43.153C52.3034 43.1512 52.5764 43.1489 52.8494 43.1458C56.4951 43.1059 56.4951 43.1059 58.084 43.9487C58.2015 44.0094 58.2015 44.0094 58.3213 44.0714C59.0324 44.4547 59.6062 44.9321 60.1641 45.5161C60.29 45.6407 60.29 45.6407 60.4186 45.7678C61.924 47.3355 62.3532 49.3919 62.3192 51.4958C62.3183 51.6562 62.3177 51.8166 62.3172 51.977C62.3154 52.3926 62.3109 52.808 62.3056 53.2236C62.3008 53.6502 62.2987 54.0769 62.2963 54.5036C62.2913 55.3359 62.2834 56.1682 62.2734 57.0004C62.051 57.1137 61.8284 57.2265 61.6056 57.3391C61.4816 57.402 61.3576 57.4649 61.2299 57.5296C60.7464 57.7615 60.2624 57.9272 59.7466 58.0698C59.6445 58.0984 59.5424 58.1271 59.4372 58.1566C58.5536 58.3915 57.6617 58.5484 56.7583 58.685C56.6288 58.7047 56.4994 58.7243 56.366 58.7446C55.518 58.8627 54.6916 58.898 53.8359 58.8754C53.8313 58.7811 53.8266 58.6867 53.8219 58.5895C53.6814 55.8784 53.4313 53.4298 51.6094 51.2583C51.5583 51.1904 51.5073 51.1226 51.4547 51.0527C50.4843 49.8135 48.8707 48.9391 47.3906 48.4458C47.5423 48.1195 47.7114 47.8582 47.9399 47.5815C48.9545 46.2411 49.3459 44.8038 49.6172 43.1723Z" fill="white"/>
<path d="M59.3438 37.1977C60.1105 37.1887 60.8772 37.1826 61.644 37.1784C61.904 37.1767 62.164 37.1743 62.424 37.1712C66.2759 37.1269 66.2759 37.1269 67.8179 37.9741C67.8949 38.0149 67.972 38.0556 68.0514 38.0976C69.9517 39.1379 71.1903 40.7337 71.8299 42.7917C72.0558 43.631 72.0443 44.4549 72.0343 45.318C72.0337 45.4869 72.0332 45.6559 72.0328 45.8248C72.0315 46.265 72.0281 46.7052 72.0241 47.1454C72.0205 47.5964 72.0189 48.0473 72.0172 48.4983C72.0134 49.3799 72.0074 50.2615 72 51.1431C71.7777 51.2368 71.5553 51.3303 71.3329 51.4236C71.209 51.4757 71.0852 51.5278 70.9576 51.5814C70.4676 51.7802 69.9725 51.9449 69.4658 52.0952C69.3668 52.1248 69.2679 52.1543 69.1659 52.1848C68.1707 52.4716 67.1659 52.6466 66.1406 52.7837C66.0622 52.795 65.9838 52.8063 65.903 52.8179C65.3733 52.8909 64.8586 52.9133 64.3242 52.9082C64.1804 52.9071 64.0366 52.9061 63.8884 52.905C63.7809 52.9036 63.6733 52.9023 63.5625 52.9009C63.5608 52.8243 63.5591 52.7476 63.5573 52.6687C63.4902 49.9701 63.2264 47.5566 61.4531 45.4009C61.3882 45.3169 61.3232 45.2329 61.2563 45.1463C60.2343 43.8848 58.6492 42.9818 57.1172 42.4712C57.289 42.0837 57.5118 41.8068 57.791 41.4897C58.6011 40.4827 58.9852 39.3961 59.1877 38.1394C59.203 38.0483 59.2183 37.9572 59.2342 37.8633C59.2714 37.6416 59.3077 37.4197 59.3438 37.1977Z" fill="white"/>
<path d="M20.0101 37.4068C20.1437 37.4071 20.2773 37.4074 20.4149 37.4078C20.8375 37.4091 21.2601 37.412 21.6828 37.415C21.971 37.4162 22.2592 37.4173 22.5475 37.4182C23.2504 37.4208 23.9534 37.4247 24.6564 37.4297C24.6767 37.5619 24.6969 37.6942 24.7178 37.8304C24.9266 39.1726 24.9266 39.1726 25.4474 40.418C25.4877 40.4946 25.5281 40.5712 25.5696 40.6501C25.8652 41.1957 26.2086 41.6858 26.6193 42.1524C26.7658 42.3515 26.7658 42.3515 26.7658 42.7031C26.6085 42.765 26.6085 42.765 26.4481 42.8281C23.8821 43.8758 22.1179 45.6594 21.0236 48.2109C20.6192 49.3825 20.5334 50.5475 20.4889 51.7778C20.4813 51.9735 20.4813 51.9735 20.4736 52.1731C20.4612 52.493 20.4492 52.8129 20.4376 53.1328C13.6549 52.9125 13.6549 52.9125 12.0001 51.2578C11.9873 51.031 11.9827 50.8037 11.9813 50.5765C11.9801 50.4305 11.979 50.2845 11.9778 50.1341C11.9773 49.9731 11.9768 49.8121 11.9763 49.651C11.9757 49.4862 11.975 49.3213 11.9743 49.1564C11.9731 48.8094 11.9724 48.4624 11.972 48.1154C11.9713 47.674 11.9685 47.2326 11.9652 46.7912C11.963 46.4498 11.9624 46.1084 11.9622 45.7669C11.9619 45.6044 11.9609 45.4419 11.9594 45.2795C11.9405 43.1503 12.5935 41.2026 14.0858 39.6514C15.7385 38.0185 17.7314 37.3851 20.0101 37.4068Z" fill="white"/>
<path d="M46.4568 20.5981C47.785 21.79 48.4128 23.4135 48.5886 25.1528C48.6616 26.8675 47.9895 28.576 46.8853 29.8678C45.6944 31.0928 44.2255 31.8552 42.504 31.9497C40.5497 31.9727 38.9031 31.4797 37.459 30.0912C36.0563 28.6301 35.4918 26.9933 35.5259 24.9853C35.6438 23.1767 36.4519 21.6577 37.7813 20.4415C40.5092 18.3479 43.7888 18.5421 46.4568 20.5981Z" fill="white"/>
<path d="M45.6267 37.9653C47.045 38.9325 47.872 40.2726 48.2826 41.936C48.5393 43.6053 48.1911 45.128 47.2476 46.5196C46.1997 47.9329 44.7826 48.7311 43.0545 49.0277C41.3533 49.1907 39.658 48.6767 38.3304 47.5921C37.2218 46.5435 36.473 45.0781 36.3355 43.5519C36.3167 41.6786 36.823 40.1126 38.113 38.7234C40.1629 36.7658 43.2252 36.5166 45.6267 37.9653Z" fill="white"/>
<path d="M35.4924 32.05C36.7679 33.0086 37.6356 34.3177 37.8984 35.9057C37.9186 36.0219 37.9389 36.138 37.9597 36.2577C38.0116 36.8072 38.0153 37.1612 37.669 37.6077C37.4654 37.801 37.2581 37.9905 37.0478 38.1767C36.1091 39.074 35.4335 40.4313 35.2841 41.7271C35.2031 41.9995 35.2031 41.9995 34.9641 42.1766C33.307 42.9301 31.6794 43.1657 29.926 42.5849C28.3888 41.9968 27.1112 40.901 26.4177 39.3897C25.7862 37.7178 25.7757 36.1433 26.4438 34.4866C27.0292 33.2297 27.8104 32.396 28.9921 31.687C29.084 31.6217 29.1758 31.5564 29.2704 31.4892C31.2788 30.485 33.682 30.8196 35.4924 32.05Z" fill="white"/>
<path d="M26.2676 26.8257C26.3546 26.9224 26.4416 27.0191 26.5313 27.1187C26.6279 27.2226 26.7246 27.3265 26.8242 27.4336C27.5891 28.3741 28.1627 29.7551 28.1279 30.9804C27.9808 31.4623 27.5422 31.6958 27.1172 31.9234C26.9432 31.9814 26.9432 31.9814 26.7656 32.0405C26.6824 32.1941 26.605 32.3509 26.5313 32.5093C26.4047 32.6703 26.2751 32.8288 26.1431 32.9854C25.5258 33.7729 25.1745 34.563 24.9898 35.5467C24.7982 36.4927 24.7982 36.4927 24.3967 36.8269C23.0716 37.3473 21.1232 37.2959 19.8118 36.7647C18.3023 36.0199 17.0523 34.942 16.4531 33.3296C15.8812 31.6416 16.0077 30.0996 16.6948 28.4627C17.4936 26.8874 18.8061 25.9412 20.4311 25.3577C22.4935 24.7009 24.7 25.4006 26.2676 26.8257Z" fill="white"/>
<path d="M65.4375 26.063C66.7284 27.0075 67.5382 28.3694 67.8531 29.9361C68.0633 31.5391 67.776 33.1035 66.841 34.4423C65.6948 35.8898 64.4447 36.6249 62.625 36.9614C61.6468 37.0675 60.7444 36.9158 59.8125 36.6098C59.7264 36.5839 59.6403 36.5579 59.5516 36.5311C59.2174 36.2808 59.2098 35.969 59.124 35.5698C58.6675 33.6483 57.5954 32.0849 55.9453 30.9848C55.7752 29.7211 56.3109 28.4204 57.0188 27.3983C59.0476 24.7578 62.6829 24.1846 65.4375 26.063Z" fill="white"/>
<path d="M55.5728 31.9832C56.8684 32.8724 57.7165 34.1408 58.0548 35.6741C58.3404 37.3831 58.0231 38.9949 57.0514 40.4276C55.9997 41.802 54.6138 42.6561 52.8967 42.9141C51.8242 42.9927 50.5332 42.9959 49.6173 42.3538C49.4752 42.0438 49.4334 41.8599 49.383 41.5335C48.9118 39.8677 48.1178 38.1518 46.5558 37.2488C46.2189 36.9632 46.2189 36.9632 46.1525 36.7178C46.0857 35.3555 46.7616 33.9561 47.5885 32.9056C49.6704 30.6171 53.0434 30.3629 55.5728 31.9832Z" fill="white"/>
<path d="M30.8887 20.5366C32.2998 20.4802 33.7323 20.8688 34.8273 21.7849C34.9907 21.9461 34.9907 21.9461 35.2031 22.1951C35.1544 22.3371 35.1544 22.3371 35.1047 22.4821C35.041 22.6699 35.041 22.6699 34.9761 22.8616C34.9339 22.9853 34.8918 23.109 34.8484 23.2365C34.2721 25.0809 34.5351 27.0871 35.3986 28.7919C35.5189 29.0082 35.6431 29.2225 35.773 29.4332C35.9062 29.6951 35.9062 29.6951 35.9062 30.1638C35.6973 30.4001 35.4573 30.5592 35.2031 30.7498C35.1067 30.7102 35.0104 30.6706 34.9111 30.6298C32.918 29.8335 31.4944 29.8393 29.4609 30.3982C29.3048 30.4376 29.1486 30.4768 28.9922 30.5154C28.958 30.3781 28.9239 30.2408 28.8887 30.0993C28.3333 27.937 27.3881 26.2564 25.4766 25.0076C25.6824 24.1426 25.9975 23.4899 26.5312 22.781C26.6183 22.6602 26.7053 22.5393 26.7949 22.4148C27.8845 21.2757 29.3249 20.6457 30.8887 20.5366Z" fill="white"/>
<path d="M56.6482 21.6075C57.5988 22.3022 58.2876 23.2221 58.7575 24.3029C58.7575 24.4189 58.7575 24.5349 58.7575 24.6544C58.5168 24.827 58.5168 24.827 58.1863 25.0133C56.4468 26.082 55.4821 27.6119 55.0075 29.5763C54.9659 29.8102 54.9261 30.0445 54.8904 30.2794C54.383 30.223 53.894 30.1513 53.3962 30.0377C52.1692 29.7934 51.1155 29.9538 49.9291 30.2826C49.167 30.4849 49.167 30.4849 48.7966 30.5138C48.5119 30.2654 48.3709 30.1348 48.2107 29.8107C48.1885 29.3238 48.3876 28.98 48.6062 28.5582C49.4359 26.9515 49.5148 25.2344 49.1482 23.4825C49.1042 23.3628 49.0603 23.243 49.015 23.1195C48.9023 22.7408 48.8931 22.5618 49.031 22.1935C51.0117 20.1087 54.353 20.0681 56.6482 21.6075Z" fill="white"/>
<path d="M39.0198 32.2589C39.2456 32.2584 39.2456 32.2584 39.476 32.2578C39.6388 32.258 39.8015 32.2583 39.9643 32.2585C40.1327 32.2585 40.3011 32.2583 40.4694 32.2582C40.8214 32.258 41.1733 32.2583 41.5253 32.2588C41.9755 32.2595 42.4258 32.2591 42.876 32.2584C43.2234 32.258 43.5707 32.2581 43.9181 32.2584C44.0841 32.2585 44.2501 32.2584 44.4161 32.2581C44.6482 32.2578 44.8804 32.2584 45.1126 32.2589C45.2445 32.259 45.3764 32.2591 45.5123 32.2592C45.8395 32.2729 46.1349 32.3167 46.4531 32.3913C46.3703 32.8104 46.1972 33.1531 46.0063 33.5339C45.5911 34.4135 45.3708 35.3112 45.1641 36.2585C45.0947 36.2429 45.0254 36.2274 44.9539 36.2113C44.8613 36.1906 44.7687 36.1699 44.6733 36.1486C44.5822 36.1282 44.4912 36.1078 44.3973 36.0868C44.3023 36.0661 44.2073 36.0454 44.1094 36.0241C44.024 36.0029 43.9387 35.9818 43.8507 35.96C42.4146 35.727 41.0056 35.846 39.6562 36.3757C39.4222 36.4548 39.1879 36.5332 38.9531 36.61C38.801 36.3058 38.7889 36.0326 38.748 35.6945C38.5815 34.5731 38.2167 33.5435 37.5469 32.6257C37.5469 32.5483 37.5469 32.471 37.5469 32.3913C38.0442 32.2968 38.5138 32.2593 39.0198 32.2589Z" fill="white"/>
</g>
<defs>
<linearGradient id="paint0_linear_16720_241351" x1="133.18" y1="39.9324" x2="36.7371" y2="-54.2969" gradientUnits="userSpaceOnUse">
<stop stop-color="#645AFF"/>
<stop offset="1" stop-color="#A573FF"/>
</linearGradient>
<clipPath id="clip0_16720_241351">
<rect width="60" height="60" fill="white" transform="translate(12 12)"/>
</clipPath>
</defs>
</svg>
