<svg width="84" height="84" viewBox="0 0 84 84" fill="none" xmlns="http://www.w3.org/2000/svg">
<path d="M0 16C0 7.16344 7.16344 0 16 0H68C76.8366 0 84 7.16344 84 16V68C84 76.8366 76.8366 84 68 84H16C7.16344 84 0 76.8366 0 68V16Z" fill="url(#paint0_linear_16720_241373)"/>
<g clip-path="url(#clip0_16720_241373)">
<path d="M26.5578 11.986C26.7403 11.9851 26.7403 11.9851 26.9265 11.9842C27.0594 11.9841 27.1923 11.9841 27.3292 11.984C27.471 11.9835 27.6127 11.983 27.7588 11.9824C28.152 11.9811 28.5453 11.9804 28.9385 11.9798C29.3628 11.9791 29.7871 11.9778 30.2113 11.9765C31.236 11.9736 32.2607 11.9719 33.2854 11.9704C33.5751 11.97 33.8648 11.9695 34.1544 11.969C35.9551 11.9661 37.7557 11.9635 39.5563 11.962C39.9732 11.9617 40.3901 11.9614 40.807 11.961C40.9106 11.9609 41.0142 11.9608 41.121 11.9607C42.7975 11.9593 44.4739 11.9554 46.1504 11.9505C47.8735 11.9455 49.5966 11.9427 51.3197 11.9421C52.2864 11.9417 53.253 11.9404 54.2197 11.9365C55.0434 11.9332 55.8672 11.9319 56.6909 11.9332C57.1105 11.9338 57.5301 11.9335 57.9497 11.9306C60.629 11.9129 62.7695 12.1346 64.7992 14.0496C66.1801 15.4746 66.9745 17.1516 66.9766 19.1521C66.9768 19.2325 66.9771 19.3128 66.9773 19.3955C66.978 19.6646 66.9778 19.9336 66.9776 20.2026C66.978 20.3975 66.9783 20.5924 66.9787 20.7873C66.9796 21.3227 66.9799 21.8582 66.9799 22.3937C66.9802 22.9713 66.981 23.5489 66.9818 24.1264C66.9834 25.3894 66.9841 26.6523 66.9847 27.9152C66.985 28.7039 66.9855 29.4926 66.986 30.2813C66.9874 32.4654 66.9886 34.6495 66.989 36.8336C66.9891 36.9734 66.9891 37.1131 66.9891 37.2572C66.9891 37.3973 66.9892 37.5374 66.9892 37.6817C66.9892 37.9656 66.9893 38.2495 66.9893 38.5334C66.9894 38.6742 66.9894 38.815 66.9894 38.9601C66.9899 41.2416 66.9919 43.5231 66.9947 45.8046C66.9974 48.1474 66.9989 50.4903 66.999 52.8332C66.9991 54.1484 66.9998 55.4636 67.0019 56.7788C67.0037 57.8988 67.0043 59.0189 67.0034 60.1389C67.0029 60.7101 67.003 61.2813 67.0047 61.8525C67.0062 62.376 67.006 62.8995 67.0046 63.423C67.0044 63.6118 67.0047 63.8006 67.0058 63.9894C67.0179 66.3865 66.348 68.3008 64.7127 70.0904C62.6878 71.9921 60.3425 72.0905 57.7163 72.0752C57.2917 72.0734 56.8672 72.075 56.4426 72.0761C55.6135 72.0778 54.7845 72.0764 53.9554 72.0739C52.9883 72.071 52.0213 72.0712 51.0543 72.0716C49.3284 72.072 47.6025 72.0695 45.8766 72.0655C44.2044 72.0617 42.5322 72.06 40.8601 72.0607C39.0353 72.0615 37.2105 72.0612 35.3857 72.0589C35.2891 72.0588 35.1926 72.0587 35.0931 72.0586C34.8991 72.0583 34.7052 72.0581 34.5112 72.0578C33.8381 72.057 33.165 72.0569 32.4919 72.0571C31.6714 72.0573 30.8509 72.0561 30.0305 72.0534C29.6123 72.052 29.1942 72.0511 28.7761 72.0518C28.322 72.0525 27.8679 72.0505 27.4137 72.0482C27.2829 72.0489 27.152 72.0495 27.0172 72.0501C25.1539 72.0341 23.4358 71.3414 22.0981 70.0364C22.0142 69.9503 21.9304 69.8642 21.844 69.7755C21.771 69.7063 21.6981 69.6371 21.6229 69.5658C20.7051 68.6294 20.019 67.2062 19.8518 65.9083C19.8361 65.7929 19.8361 65.7929 19.82 65.6753C19.7043 64.6954 19.7217 63.7143 19.7273 62.7296C19.7279 62.5486 19.7284 62.3676 19.7289 62.1867C19.7302 61.7475 19.7322 61.3084 19.7346 60.8692C19.874 60.8675 20.0135 60.8658 20.1571 60.864C20.6791 60.8572 21.2011 60.8481 21.723 60.8385C21.9481 60.8346 22.1731 60.8313 22.3981 60.8286C22.7234 60.8246 23.0486 60.8185 23.3738 60.812C23.5224 60.8109 23.5224 60.8109 23.674 60.8097C24.8396 60.7816 25.8713 60.4582 26.7659 59.6973C27.659 58.7379 27.9888 57.688 27.978 56.3905C27.8858 55.376 27.4304 54.3881 26.6487 53.7208C25.5944 52.9454 24.5803 52.7526 23.2937 52.7348C23.1571 52.7317 23.1571 52.7317 23.0177 52.7285C22.6827 52.7212 22.3476 52.7157 22.0125 52.71C21.2608 52.6955 20.5091 52.681 19.7346 52.6661C19.7346 50.5005 19.7346 48.3348 19.7346 46.1036C22.0637 46.067 22.0637 46.067 22.7915 46.0581C22.9856 46.0543 23.1797 46.0504 23.3738 46.0464C23.5205 46.0453 23.5205 46.0453 23.6701 46.0442C24.8372 46.0162 25.8699 45.6938 26.7659 44.9317C27.6769 43.953 27.976 42.912 27.9625 41.5928C27.9313 41.0737 27.8374 40.6964 27.5862 40.2442C27.5377 40.1564 27.4892 40.0687 27.4392 39.9783C26.8386 38.9914 25.9977 38.3634 24.8773 38.0699C24.3957 37.9955 23.9178 37.9899 23.4311 37.9806C23.2903 37.9773 23.2903 37.9773 23.1466 37.9739C22.7979 37.966 22.4491 37.9589 22.1004 37.9517C20.9293 37.9264 20.9293 37.9264 19.7346 37.9005C19.7346 35.7348 19.7346 33.5692 19.7346 31.338C21.9978 31.3013 21.9978 31.3013 22.7038 31.2925C24.2083 31.266 25.5744 31.1924 26.7659 30.1661C27.5697 29.3318 27.9607 28.375 27.989 27.2218C27.9672 26.5715 27.9028 26.0486 27.5862 25.4786C27.5377 25.3908 27.4892 25.3031 27.4392 25.2126C26.8386 24.2258 25.9977 23.5978 24.8773 23.3042C24.3957 23.2298 23.9178 23.2243 23.4311 23.2149C23.3253 23.2125 23.2194 23.2101 23.1104 23.2076C22.7737 23.1999 22.437 23.193 22.1004 23.1861C21.8715 23.181 21.6427 23.1759 21.4139 23.1708C20.8542 23.1583 20.2944 23.1464 19.7346 23.1348C19.7287 22.6163 19.7245 22.0977 19.7218 21.5792C19.7206 21.4036 19.719 21.228 19.7169 21.0525C19.6865 18.3832 20.0742 16.0531 21.9685 14.0308C23.1937 12.8528 24.8304 11.9905 26.5578 11.986ZM42.0003 27.3536C41.8373 27.4241 41.8373 27.4241 41.6711 27.496C39.9001 28.3626 38.7241 29.8658 38.0163 31.6785C37.4292 33.488 37.5972 35.4014 38.4347 37.1035C39.4966 39.0053 41.0466 40.202 43.1428 40.8082C45.0386 41.2374 46.9119 40.8945 48.5628 39.8927C50.2756 38.7074 51.406 37.0487 51.7973 34.9877C52.0329 33.1282 51.6675 31.2549 50.5234 29.734C49.3473 28.2963 47.8553 27.2056 45.9846 26.8848C44.6189 26.76 43.2692 26.7968 42.0003 27.3536ZM38.1917 44.1993C38.1147 44.2402 38.0377 44.2812 37.9585 44.3233C37.3406 44.6607 36.7815 45.0455 36.2581 45.5177C36.188 45.577 36.1179 45.6364 36.0457 45.6976C34.8012 46.8281 34.1207 48.47 33.7971 50.088C33.7971 51.5188 33.7971 52.9497 33.7971 54.4239C41.0674 54.4239 48.3378 54.4239 55.8284 54.4239C55.8669 49.642 55.8669 49.642 53.5359 45.7227C51.6565 43.874 49.2482 43.3711 46.6859 43.373C46.5341 43.3725 46.3824 43.372 46.226 43.3715C45.9069 43.3706 45.5878 43.3707 45.2687 43.3713C44.946 43.3718 44.6234 43.371 44.3007 43.3689C41.1489 43.2641 41.1489 43.2641 38.1917 44.1993Z" fill="white"/>
<path d="M19.3899 39.623C19.5049 39.6219 19.6198 39.6208 19.7383 39.6196C19.8613 39.6198 19.9842 39.6199 20.1109 39.62C20.2384 39.6195 20.366 39.619 20.4974 39.6184C20.7668 39.6178 21.0362 39.6177 21.3056 39.6182C21.7171 39.6186 22.1285 39.6158 22.54 39.6129C22.8021 39.6126 23.0641 39.6125 23.3262 39.6126C23.4489 39.6116 23.5716 39.6105 23.698 39.6094C24.5232 39.6146 25.0393 39.7242 25.6741 40.2851C26.1775 40.8565 26.4138 41.3427 26.4138 42.1162C26.3367 42.758 26.1234 43.2524 25.7107 43.7568C25.1697 44.1653 24.7673 44.3557 24.0931 44.3635C23.9788 44.365 23.8646 44.3665 23.7469 44.368C23.6235 44.3689 23.5 44.3697 23.3729 44.3706C23.2456 44.3716 23.1182 44.3725 22.987 44.3735C22.7172 44.3751 22.4474 44.3764 22.1776 44.3773C21.7666 44.3793 21.3557 44.3845 20.9447 44.3896C20.6823 44.3908 20.4199 44.3918 20.1576 44.3926C20.0353 44.3947 19.9131 44.3967 19.7872 44.3988C18.9673 44.3964 18.2985 44.282 17.6809 43.7085C17.1252 43.0827 16.9827 42.5309 17.0022 41.7133C17.0812 41.0653 17.3659 40.5693 17.8518 40.1386C18.3622 39.7845 18.7684 39.6264 19.3899 39.623Z" fill="white"/>
<path d="M19.3899 54.3887C19.5049 54.3875 19.6198 54.3864 19.7383 54.3853C19.8613 54.3854 19.9842 54.3855 20.1109 54.3856C20.2384 54.3851 20.366 54.3846 20.4974 54.3841C20.7668 54.3834 21.0362 54.3833 21.3056 54.3838C21.7171 54.3842 22.1285 54.3815 22.54 54.3785C22.8021 54.3782 23.0641 54.3782 23.3262 54.3783C23.4489 54.3772 23.5716 54.3761 23.698 54.375C24.5215 54.3802 25.0344 54.493 25.6741 55.0434C26.1607 55.6089 26.3752 56.1355 26.4138 56.8818C26.3341 57.523 26.1233 58.0181 25.7107 58.5224C25.1697 58.9309 24.7673 59.1213 24.0931 59.1291C23.9788 59.1306 23.8646 59.1321 23.7469 59.1336C23.6235 59.1345 23.5 59.1354 23.3729 59.1363C23.2456 59.1372 23.1182 59.1382 22.987 59.1391C22.7172 59.1408 22.4474 59.142 22.1776 59.1429C21.7666 59.1449 21.3557 59.1501 20.9447 59.1553C20.6823 59.1565 20.4199 59.1574 20.1576 59.1582C20.0353 59.1603 19.9131 59.1623 19.7872 59.1645C18.9673 59.162 18.2985 59.0476 17.6809 58.4741C17.1252 57.8483 16.9827 57.2966 17.0022 56.4789C17.0812 55.831 17.3659 55.3349 17.8518 54.9042C18.3622 54.5501 18.7684 54.392 19.3899 54.3887Z" fill="white"/>
<path d="M19.3899 24.8574C19.5049 24.8563 19.6198 24.8552 19.7383 24.854C19.8613 24.8541 19.9842 24.8542 20.1109 24.8543C20.2384 24.8538 20.366 24.8533 20.4974 24.8528C20.7668 24.8522 21.0362 24.8521 21.3056 24.8526C21.7171 24.853 22.1285 24.8502 22.54 24.8472C22.8021 24.847 23.0641 24.8469 23.3262 24.847C23.4489 24.8459 23.5716 24.8449 23.698 24.8438C24.5232 24.849 25.0393 24.9585 25.6741 25.5195C26.172 26.0847 26.4352 26.5812 26.4138 27.3505C26.2859 28.0996 26.0821 28.6208 25.4763 29.1083C25.353 29.2099 25.353 29.2099 25.2273 29.3134C24.8519 29.5637 24.5317 29.5928 24.0931 29.5978C23.9788 29.5993 23.8646 29.6008 23.7469 29.6024C23.6235 29.6033 23.5 29.6041 23.3729 29.605C23.2456 29.606 23.1182 29.6069 22.987 29.6079C22.7172 29.6095 22.4474 29.6108 22.1776 29.6117C21.7666 29.6137 21.3557 29.6188 20.9447 29.624C20.6823 29.6252 20.4199 29.6262 20.1576 29.627C20.0353 29.629 19.9131 29.6311 19.7872 29.6332C18.9673 29.6308 18.2985 29.5163 17.6809 28.9429C17.1252 28.317 16.9827 27.7653 17.0022 26.9477C17.0812 26.2997 17.3659 25.8037 17.8518 25.373C18.3622 25.0188 18.7684 24.8607 19.3899 24.8574Z" fill="white"/>
</g>
<defs>
<linearGradient id="paint0_linear_16720_241373" x1="-0.297909" y1="8.08247e-07" x2="80.1276" y2="84" gradientUnits="userSpaceOnUse">
<stop stop-color="#90FFA7"/>
<stop offset="1" stop-color="#079C25"/>
</linearGradient>
<clipPath id="clip0_16720_241373">
<rect width="60" height="60" fill="white" transform="translate(12 12)"/>
</clipPath>
</defs>
</svg>
