<svg width="84" height="84" viewBox="0 0 84 84" fill="none" xmlns="http://www.w3.org/2000/svg">
<path d="M0 16C0 7.16344 7.16344 0 16 0H68C76.8366 0 84 7.16344 84 16V68C84 76.8366 76.8366 84 68 84H16C7.16344 84 0 76.8366 0 68V16Z" fill="url(#paint0_linear_16720_241419)"/>
<path d="M52.3503 19.3977L29.7753 26.8977C14.6003 31.9727 14.6003 40.2477 29.7753 45.2977L36.4753 47.5227L38.7003 54.2227C43.7503 69.3977 52.0503 69.3977 57.1003 54.2227L64.6253 31.6727C67.9753 21.5477 62.4753 16.0227 52.3503 19.3977ZM53.1503 32.8477L43.6503 42.3977C43.2753 42.7727 42.8003 42.9477 42.3253 42.9477C41.8503 42.9477 41.3753 42.7727 41.0003 42.3977C40.2753 41.6727 40.2753 40.4727 41.0003 39.7477L50.5003 30.1977C51.2253 29.4727 52.4253 29.4727 53.1503 30.1977C53.8753 30.9227 53.8753 32.1227 53.1503 32.8477Z" fill="white"/>
<defs>
<linearGradient id="paint0_linear_16720_241419" x1="-0.297909" y1="8.08247e-07" x2="80.1276" y2="84" gradientUnits="userSpaceOnUse">
<stop stop-color="#90FFA7"/>
<stop offset="1" stop-color="#079C25"/>
</linearGradient>
</defs>
</svg>
