<svg width="84" height="84" viewBox="0 0 84 84" fill="none" xmlns="http://www.w3.org/2000/svg">
<path d="M0 16C0 7.16344 7.16344 0 16 0H68C76.8366 0 84 7.16344 84 16V68C84 76.8366 76.8366 84 68 84H16C7.16344 84 0 76.8366 0 68V16Z" fill="url(#paint0_linear_16720_241385)"/>
<path d="M37.8984 13.7578C41.0318 13.7578 41.0318 13.7578 42 13.897C42.1147 13.9125 42.2294 13.928 42.3476 13.944C48.6971 14.8492 54.8034 17.5427 59.5204 21.9248C59.777 22.1624 60.0379 22.3924 60.3032 22.6201C62.7426 24.7458 64.6595 27.488 66.2578 30.2812C66.3346 30.4139 66.4113 30.5465 66.4904 30.6832C69.1519 35.4031 70.2422 40.7351 70.2422 46.1016C59.5688 46.1016 48.8953 46.1016 37.8984 46.1016C37.8984 35.4281 37.8984 24.7547 37.8984 13.7578ZM45.1641 25.4766C45.048 25.5612 44.932 25.6458 44.8125 25.7329C43.2998 27.0235 42.2492 29.2322 42.091 31.1909C41.9494 33.9138 42.5582 36.2679 44.346 38.3626C44.581 38.6213 44.581 38.6213 44.9297 38.8359C44.9977 38.7016 45.0656 38.5673 45.1357 38.429C45.2281 38.2497 45.3206 38.0704 45.4131 37.8911C45.4575 37.803 45.5019 37.7148 45.5477 37.624C46.3341 36.11 47.5541 35.2053 49.1484 34.6172C50.8279 34.1053 52.6169 34.3204 54.1655 35.1152C55.7151 36.0085 56.5576 37.1954 57.2344 38.8359C58.6238 37.7455 59.7137 35.845 60.0148 34.0917C60.3096 31.3798 59.9487 28.845 58.191 26.6499C56.6117 24.7503 54.5327 23.5856 52.0781 23.25C49.4908 23.0837 47.1435 23.7628 45.1641 25.4766Z" fill="white"/>
<path d="M35.5807 21.9611C35.6857 21.9615 35.7906 21.962 35.8988 21.9624C35.9785 21.963 36.0583 21.9635 36.1404 21.9641C36.1623 24.7155 36.1788 27.4668 36.189 30.2183C36.1938 31.4958 36.2004 32.7733 36.2111 34.0509C36.2205 35.1644 36.2265 36.2779 36.2286 37.3914C36.2298 37.981 36.2327 38.5705 36.2395 39.1601C36.2459 39.7152 36.2479 40.2702 36.2464 40.8254C36.2467 41.0289 36.2486 41.2325 36.2522 41.436C36.2781 42.9799 36.2781 42.9799 35.932 43.4704C35.6987 43.6731 35.4625 43.8295 35.2029 43.9953C35.0037 44.3233 34.8618 44.6446 34.7122 44.9969C34.46 45.3382 34.233 45.4062 33.8373 45.5342C33.285 45.7386 32.7916 46.067 32.2879 46.3684C32.0364 46.5169 31.785 46.6654 31.5335 46.8138C31.4042 46.8903 31.2749 46.9669 31.1416 47.0457C30.5106 47.4175 29.8758 47.7829 29.241 48.1482C28.9849 48.2957 28.7289 48.4433 28.4729 48.5908C28.3457 48.6641 28.2186 48.7373 28.0875 48.8128C27.4514 49.1793 26.8154 49.5463 26.1795 49.9133C25.9256 50.0598 25.6717 50.2063 25.4177 50.3528C25.2292 50.4615 25.2292 50.4615 25.0369 50.5725C23.8943 51.2317 23.8943 51.2317 23.5133 51.4515C23.2598 51.5977 23.0063 51.744 22.7528 51.8903C22.1124 52.2599 21.4719 52.6291 20.831 52.9977C20.7026 53.0716 20.5743 53.1455 20.4421 53.2216C20.1874 53.3682 19.9327 53.5147 19.6778 53.661C19.0515 54.0217 18.4285 54.3868 17.8102 54.761C17.6318 54.8685 17.6318 54.8685 17.4498 54.9782C17.2248 55.1142 17.0004 55.2512 16.7767 55.3894C16.6772 55.4494 16.5778 55.5094 16.4753 55.5713C16.3452 55.6511 16.3452 55.6511 16.2124 55.7326C15.9842 55.8313 15.9842 55.8313 15.6326 55.7141C15.4826 55.3846 15.356 55.0661 15.2371 54.7253C15.2014 54.6253 15.1657 54.5252 15.1289 54.4221C14.3287 52.1379 13.7551 49.7664 13.7297 47.3356C13.7285 47.2439 13.7274 47.1522 13.7262 47.0578C13.6563 40.0502 15.9229 33.9583 20.7888 28.8782C20.8719 28.7902 20.955 28.7023 21.0406 28.6117C24.4688 25.0716 29.3297 22.8424 34.1482 22.0813C34.3467 22.0468 34.3467 22.0468 34.5492 22.0117C34.9006 21.9718 35.2281 21.9592 35.5807 21.9611Z" fill="white"/>
<path d="M34.6172 47.0391C34.6571 47.124 34.6969 47.2089 34.738 47.2963C35.2222 48.262 35.708 48.7186 36.6313 49.2437C37.0571 49.4047 37.0571 49.4047 37.4352 49.3636C37.8705 49.3445 38.1879 49.3589 38.6016 49.5C38.9828 49.966 39.1772 50.4911 39.4006 51.0463C39.6475 51.6324 39.9355 52.1988 40.2163 52.7692C40.8767 54.1161 41.5091 55.4761 42.1376 56.8381C42.571 57.7754 43.0147 58.7073 43.4648 59.6367C44.048 60.8408 44.6156 62.0513 45.1759 63.2662C45.5037 63.9753 45.8357 64.6821 46.1762 65.3853C46.2112 65.4577 46.2462 65.5301 46.2823 65.6046C46.4504 65.9515 46.6191 66.298 46.7887 66.6442C46.8488 66.7677 46.9089 66.8913 46.9709 67.0186C47.0238 67.1266 47.0767 67.2346 47.1312 67.3459C47.2808 67.6806 47.3975 68.0177 47.5078 68.3672C44.898 69.4726 42.09 70.2492 39.2374 70.266C39.1439 70.2668 39.0504 70.2676 38.9541 70.2685C38.6535 70.2705 38.3529 70.2713 38.0522 70.2715C37.9496 70.2716 37.8469 70.2716 37.7411 70.2717C36.2053 70.2698 34.7166 70.2194 33.2109 69.8906C33.068 69.8605 33.068 69.8605 32.9222 69.8297C28.5518 68.8852 24.5417 66.8553 21.3194 63.7353C21.1956 63.6157 21.071 63.4968 20.9458 63.3787C19.3452 61.8679 17.039 59.5772 16.5703 57.3516C26.4727 51.6387 26.4727 51.6387 26.8536 51.4189C27.1072 51.2726 27.3607 51.1263 27.6142 50.98C28.2546 50.6105 28.8951 50.2412 29.536 49.8726C29.7942 49.724 30.0524 49.5754 30.3105 49.4268C30.4354 49.3549 30.5603 49.2831 30.6889 49.2091C31.3153 48.8478 31.9397 48.4835 32.5609 48.1134C32.6804 48.0423 32.7998 47.9712 32.9229 47.8979C33.1491 47.7628 33.375 47.6273 33.6006 47.4913C33.7503 47.4018 33.7503 47.4018 33.9031 47.3105C33.9905 47.2579 34.0779 47.2052 34.1679 47.151C34.3828 47.0391 34.3828 47.0391 34.6172 47.0391Z" fill="white"/>
<path d="M41.444 47.7812C41.5658 47.7838 41.5658 47.7838 41.69 47.7864C41.777 47.7859 41.864 47.7854 41.9537 47.7849C42.2454 47.7839 42.537 47.7872 42.8287 47.7904C43.0377 47.7905 43.2468 47.7904 43.4558 47.7901C44.0236 47.7899 44.5913 47.7934 45.159 47.7975C45.7522 47.8011 46.3455 47.8015 46.9387 47.8022C48.0622 47.804 49.1856 47.8088 50.3091 47.8147C51.5881 47.8212 52.8671 47.8245 54.1461 47.8274C56.7772 47.8335 59.4082 47.8438 62.0393 47.8569C62.0403 48.0639 62.041 48.2709 62.0416 48.4779C62.0421 48.5932 62.0425 48.7085 62.0429 48.8273C61.9834 54.0748 58.8076 59.36 55.2852 63.0411C55.1423 63.1906 55.0009 63.3416 54.8597 63.4927C53.4671 64.9447 51.74 66.1331 50.0129 67.1489C49.9435 67.1905 49.8741 67.2322 49.8026 67.2751C49.6055 67.3878 49.6055 67.3878 49.2659 67.5444C48.9143 67.4272 48.9143 67.4272 48.7587 67.1629C48.7064 67.0462 48.6542 66.9295 48.6003 66.8092C48.5405 66.6779 48.4808 66.5465 48.4192 66.4112C48.3721 66.3053 48.3721 66.3053 48.3239 66.1972C48.156 65.8203 47.9841 65.4452 47.8129 65.0697C47.7778 64.9924 47.7427 64.9151 47.7066 64.8354C47.3595 64.0724 46.9956 63.3178 46.6292 62.5639C46.0449 61.358 45.477 60.1453 44.9153 58.9288C44.4798 57.9877 44.0343 57.0519 43.5823 56.1186C42.9886 54.8926 42.4086 53.6609 41.8391 52.4235C41.5535 51.8038 41.2655 51.1862 40.963 50.5746C40.9126 50.4721 40.8623 50.3695 40.8104 50.2638C40.7182 50.0768 40.6246 49.8904 40.5296 49.7049C40.3627 49.3652 40.2419 49.0955 40.2452 48.7134C40.5035 48.1028 40.7528 47.792 41.444 47.7812Z" fill="white"/>
<path d="M52.9832 27.2194C53.7837 27.8949 54.2331 28.4757 54.3519 29.5238C54.3964 30.6037 54.2558 31.4231 53.5343 32.2484C52.8515 32.8898 52.0839 33.2318 51.148 33.2678C50.14 33.2306 49.266 32.8907 48.5625 32.1545C47.909 31.1476 47.7499 30.3095 47.8594 29.1077C48.1157 28.1911 48.7145 27.5174 49.5 26.9983C50.656 26.4741 51.9232 26.4849 52.9832 27.2194Z" fill="white"/>
<defs>
<linearGradient id="paint0_linear_16720_241385" x1="-0.297909" y1="8.08247e-07" x2="80.1276" y2="84" gradientUnits="userSpaceOnUse">
<stop stop-color="#FFDE81"/>
<stop offset="1" stop-color="#C49100"/>
</linearGradient>
</defs>
</svg>
