<svg width="84" height="84" viewBox="0 0 84 84" fill="none" xmlns="http://www.w3.org/2000/svg">
<rect width="84" height="84" rx="16" fill="url(#paint0_linear_16712_540255)"/>
<path d="M45.3032 18.1592C46.2477 18.9309 46.7938 20.2208 47.3906 21.2647C47.5059 21.4654 47.6211 21.666 47.7364 21.8666C47.8551 22.0733 47.9737 22.28 48.0922 22.4868C48.4679 23.1419 48.8446 23.7964 49.2216 24.4507C49.2934 24.5753 49.3652 24.6998 49.4391 24.8281C50.1532 26.0653 50.8794 27.2952 51.6093 28.523C51.6988 28.4869 51.7883 28.4508 51.8805 28.4137C53.2487 27.8703 54.5166 27.5697 55.9453 28.0543C57.148 28.5917 57.9404 29.3312 58.5234 30.5152C58.9831 31.7207 58.9755 32.9434 58.5234 34.148C58.0832 35.1023 57.4625 35.9021 56.4726 36.3087C56.3759 36.3304 56.2793 36.3522 56.1796 36.3746C57.1715 38.2011 58.1768 40.0214 59.2368 41.8094C59.6621 42.5271 60.0819 43.248 60.4996 43.9701C60.6151 44.1696 60.7308 44.3688 60.8465 44.5681C61.703 46.0502 62.3378 47.238 61.9713 49.0061C61.6345 49.9706 60.9225 50.8509 60.0102 51.3233C58.986 51.7226 57.7611 51.8068 56.7143 51.4258C56.1492 51.1617 55.6552 50.7883 55.2421 50.3199C55.2421 50.2425 55.2421 50.1652 55.2421 50.0855C54.6175 50.0393 53.9925 50.0027 53.3671 49.9683C53.2471 49.9614 53.127 49.9546 53.0033 49.9475C46.5601 49.5955 40.3151 50.7972 34.2715 53.0056C33.5981 53.2496 33.5981 53.2496 33.2109 53.2496C33.1733 53.1826 33.1358 53.1157 33.0971 53.0468C32.3046 51.6363 31.5027 50.232 30.6849 48.836C30.1536 47.9279 29.6302 47.0153 29.1093 46.1011C28.382 44.8247 27.6464 43.5532 26.9043 42.2852C26.8446 42.1822 26.7849 42.0792 26.7234 41.973C26.5839 41.737 26.44 41.5036 26.2937 41.2717C26.1776 41.0846 26.1776 41.0846 26.0593 40.8936C25.9512 40.7234 25.9512 40.7234 25.8409 40.5498C25.7109 40.2418 25.7109 40.2418 25.7871 39.9843C26.0258 39.6654 26.3257 39.4279 26.6337 39.1797C26.7726 39.0651 26.9113 38.9502 27.0499 38.8351C27.1551 38.7476 27.1551 38.7476 27.2625 38.6583C27.7573 38.2399 28.228 37.7944 28.7026 37.3534C28.8713 37.1982 29.0425 37.0457 29.2137 36.8932C30.2173 35.9956 31.1346 35.0277 32.039 34.0308C32.1045 33.9589 32.1699 33.887 32.2373 33.8129C34.889 30.8799 37.1246 27.5379 38.8212 23.9673C38.8999 23.8075 38.8999 23.8075 38.9802 23.6445C39.2081 23.1477 39.3257 22.8906 39.2204 22.3423C39.1709 22.2163 39.1213 22.0903 39.0703 21.9605C38.9485 20.822 39.0898 19.8125 39.7377 18.8541C41.1732 17.0931 43.4613 16.9419 45.3032 18.1592Z" fill="white"/>
<path d="M23.4963 40.8281C23.828 41.0063 23.9317 41.242 24.1128 41.5697C24.1869 41.7016 24.2609 41.8336 24.3372 41.9696C24.4167 42.1148 24.4962 42.2599 24.5756 42.4051C24.659 42.5546 24.7425 42.7041 24.8262 42.8534C24.9986 43.1612 25.1704 43.4694 25.3417 43.7778C25.7135 44.4452 26.0968 45.1059 26.4799 45.7669C26.6254 46.0187 26.7708 46.2704 26.9162 46.5222C26.988 46.6464 27.0597 46.7706 27.1337 46.8986C27.4262 47.405 27.7185 47.9116 28.0107 48.4182C28.1564 48.6708 28.3021 48.9234 28.4479 49.1759C28.7875 49.7644 29.1269 50.353 29.4659 50.9418C29.585 51.1488 29.7042 51.3557 29.8234 51.5627C29.9723 51.8211 30.1211 52.0796 30.2698 52.3381C30.3377 52.4561 30.4057 52.5741 30.4757 52.6956C30.5406 52.8086 30.6054 52.9216 30.6722 53.038C30.8035 53.2613 30.939 53.4823 31.0781 53.7009C31.1437 53.8042 31.2093 53.9075 31.2768 54.014C31.3361 54.1046 31.3954 54.1953 31.4565 54.2886C31.5703 54.5413 31.5703 54.5413 31.5664 54.7859C31.4017 55.1116 31.1903 55.2018 30.8708 55.3735C30.7492 55.44 30.6276 55.5065 30.5023 55.5751C30.3059 55.6797 30.3059 55.6797 30.1054 55.7864C29.8354 55.9337 29.5655 56.0811 29.2956 56.2286C29.1631 56.3007 29.0306 56.3727 28.8941 56.4469C28.4154 56.7101 27.945 56.9857 27.476 57.2659C27.2416 57.4044 27.0069 57.5425 26.7722 57.6806C26.6043 57.7795 26.4366 57.8788 26.2691 57.9783C23.9783 59.3329 21.7712 59.9341 19.1058 59.3423C17.8938 59.0195 16.962 58.4826 15.9843 57.7054C15.9099 57.6516 15.8354 57.5978 15.7586 57.5424C14.3546 56.4709 13.5191 54.5853 13.1718 52.9007C13.1261 52.433 13.1213 51.9714 13.1279 51.5018C13.1292 51.3778 13.1306 51.2537 13.132 51.1259C13.1763 49.013 13.9468 47.249 15.3979 45.7225C16.2491 44.918 17.201 44.3246 18.2182 43.7527C18.4189 43.6385 18.6197 43.5242 18.8203 43.4097C18.9575 43.3316 19.0947 43.2535 19.232 43.1755C19.9619 42.7609 20.6869 42.338 21.4116 41.9144C21.5875 41.8117 21.5875 41.8117 21.7671 41.707C22.3737 41.3564 22.3737 41.3564 22.963 40.9781C23.25 40.8304 23.25 40.8304 23.4963 40.8281Z" fill="white"/>
<path d="M33.0938 56.6484C33.2549 56.8071 33.2549 56.8071 33.4201 57.0307C33.5125 57.1538 33.5125 57.1538 33.6068 57.2794C33.6719 57.3684 33.7371 57.4575 33.8042 57.5493C33.9418 57.7335 34.0794 57.9177 34.2171 58.1018C34.285 58.1935 34.353 58.2852 34.423 58.3796C34.6863 58.7335 34.9552 59.0828 35.2251 59.4316C35.3186 59.5531 35.4121 59.6745 35.5085 59.7997C35.6474 59.9801 35.6474 59.9801 35.7891 60.1641C35.8863 60.2904 35.9835 60.4167 36.0807 60.5431C36.1292 60.6062 36.1778 60.6694 36.2279 60.7344C36.3255 60.8614 36.423 60.9883 36.5205 61.1153C36.7695 61.4393 37.0192 61.7626 37.2704 62.0848C37.4708 62.3421 37.6694 62.6004 37.8664 62.8603C38.029 63.0743 38.1938 63.2865 38.3626 63.4957C38.7927 64.0631 38.9574 64.5299 38.9087 65.2484C38.7739 65.8156 38.4371 66.1086 38.0156 66.4922C37.881 66.6214 37.7466 66.7508 37.6123 66.8804C37.3268 67.1529 37.0408 67.4247 36.7508 67.6924C36.6898 67.7491 36.6287 67.8057 36.5658 67.864C36.1709 68.1778 35.8366 68.2861 35.335 68.2939C35.2386 68.2973 35.1422 68.3006 35.0429 68.304C34.3269 68.1787 33.9154 67.6828 33.5039 67.1221C33.4027 66.9862 33.3014 66.8504 33.2 66.7147C33.1457 66.6415 33.0915 66.5684 33.0356 66.493C32.7098 66.0582 32.3736 65.6313 32.0391 65.2031C31.4648 64.4659 30.8928 63.727 30.3238 62.9857C30.1334 62.7377 29.9427 62.4898 29.7516 62.2423C29.1006 61.3986 28.4575 60.5495 27.8203 59.6953C28.179 59.3022 28.5484 59.0553 29.0114 58.7953C29.0808 58.7561 29.1502 58.7168 29.2217 58.6763C29.4426 58.5514 29.6642 58.4275 29.8857 58.3037C30.104 58.1809 30.3222 58.0579 30.5403 57.9348C30.6824 57.8546 30.8246 57.7746 30.967 57.6948C31.4906 57.4002 32.0031 57.0902 32.5107 56.7688C32.7422 56.6484 32.7422 56.6484 33.0938 56.6484Z" fill="white"/>
<path d="M58.7578 15.7468C59.2129 15.9785 59.577 16.2257 59.8125 16.6843C60.0458 17.4209 59.912 17.8904 59.5708 18.5666C59.3851 18.9199 59.1899 19.2672 58.9922 19.614C58.8959 19.7838 58.8959 19.7838 58.7976 19.9572C56.7453 23.5597 56.7453 23.5597 56.0625 23.9499C55.358 24.1203 54.9487 24.0922 54.3047 23.7155C53.9328 23.3598 53.7479 23.1107 53.6016 22.6169C53.6016 21.609 54.2307 20.7143 54.7148 19.863C54.7875 19.7347 54.8602 19.6064 54.935 19.4742C55.1534 19.0904 55.3733 18.7075 55.5938 18.3249C55.6569 18.2146 55.72 18.1044 55.7851 17.9908C55.9537 17.6981 56.1246 17.407 56.2969 17.1164C56.346 17.0311 56.3952 16.9459 56.4459 16.858C57.0089 15.926 57.6734 15.5704 58.7578 15.7468Z" fill="white"/>
<path d="M63.7104 34.7151C63.8994 34.7128 63.8994 34.7128 64.0922 34.7105C64.2965 34.7092 64.2965 34.7092 64.505 34.7079C64.7155 34.7065 64.7155 34.7065 64.9303 34.705C65.2277 34.7034 65.5251 34.7021 65.8225 34.7012C66.2759 34.6992 66.7293 34.6941 67.1827 34.6889C67.4717 34.6877 67.7608 34.6867 68.0499 34.6859C68.2525 34.6828 68.2525 34.6828 68.4591 34.6797C69.2666 34.6819 69.7896 34.771 70.4765 35.2046C70.838 35.5773 70.8569 35.9267 70.8793 36.4277C70.8622 37.0075 70.7633 37.3459 70.3593 37.7827C69.9245 38.0934 69.6259 38.1787 69.0941 38.1816C68.8934 38.1838 68.8934 38.1838 68.6887 38.1861C68.5453 38.1857 68.4019 38.1854 68.2541 38.1851C68.1057 38.1857 67.9573 38.1863 67.8045 38.1869C67.4909 38.1877 67.1774 38.1877 66.8639 38.1865C66.4634 38.1852 66.063 38.1875 65.6625 38.191C65.2788 38.1936 64.8951 38.1928 64.5114 38.1924C64.2966 38.1943 64.2966 38.1943 64.0774 38.1964C63.3265 38.1902 62.8375 38.1838 62.2734 37.6655C61.8723 37.2011 61.7327 36.8542 61.7671 36.2537C61.853 35.7302 62.065 35.4061 62.4492 35.0507C62.8797 34.7601 63.2032 34.7203 63.7104 34.7151Z" fill="white"/>
<path d="M67.7813 23.251C68.2979 23.5046 68.6287 23.7645 68.836 24.3057C68.9918 25.321 68.9918 25.321 68.7258 25.7883C68.1941 26.488 67.4391 26.8624 66.6827 27.2793C66.5453 27.3562 66.4081 27.4332 66.2709 27.5103C66.0003 27.6623 65.7292 27.8134 65.4578 27.9641C65.1375 28.1439 64.821 28.3282 64.506 28.5171C64.4229 28.5663 64.3398 28.6155 64.2542 28.6661C64.1072 28.7533 63.961 28.8417 63.8157 28.9315C63.2842 29.2408 62.7654 29.3484 62.1563 29.3447C61.5509 29.1468 61.2204 28.8148 60.8672 28.29C60.7018 27.7319 60.7253 27.2934 60.9612 26.768C61.4957 25.8703 62.7724 25.3897 63.6577 24.8916C63.8007 24.8105 63.9436 24.7293 64.0864 24.6481C64.3651 24.4899 64.6442 24.3326 64.9239 24.1763C65.1799 24.0328 65.4352 23.888 65.6896 23.7415C65.8019 23.6778 65.9142 23.6141 66.0299 23.5485C66.1273 23.4926 66.2247 23.4366 66.3251 23.379C66.8088 23.1612 67.2658 23.1452 67.7813 23.251Z" fill="white"/>
<defs>
<linearGradient id="paint0_linear_16712_540255" x1="133.18" y1="39.9324" x2="36.7371" y2="-54.2969" gradientUnits="userSpaceOnUse">
<stop stop-color="#645AFF"/>
<stop offset="1" stop-color="#A573FF"/>
</linearGradient>
</defs>
</svg>
