<svg width="20" height="20" viewBox="0 0 20 20" fill="none" xmlns="http://www.w3.org/2000/svg">
<path d="M13.4915 1.66797H6.50817C3.47484 1.66797 1.6665 3.4763 1.6665 6.50964V13.4846C1.6665 16.5263 3.47484 18.3346 6.50817 18.3346H13.4832C16.5165 18.3346 18.3248 16.5263 18.3248 13.493V6.50964C18.3332 3.4763 16.5248 1.66797 13.4915 1.66797ZM13.6415 11.9596L11.7915 13.8096C11.3415 14.2596 10.7582 14.4763 10.1748 14.4763C9.5915 14.4763 8.99984 14.2513 8.55817 13.8096C8.12484 13.3763 7.88317 12.8013 7.88317 12.193C7.88317 11.5846 8.12484 11.0013 8.55817 10.5763L9.73317 9.4013C9.97484 9.15964 10.3748 9.15964 10.6165 9.4013C10.8582 9.64297 10.8582 10.043 10.6165 10.2846L9.4415 11.4596C9.2415 11.6596 9.13317 11.918 9.13317 12.193C9.13317 12.468 9.2415 12.7346 9.4415 12.9263C9.84984 13.3346 10.5082 13.3346 10.9165 12.9263L12.7665 11.0763C13.8248 10.018 13.8248 8.3013 12.7665 7.24297C11.7082 6.18464 9.9915 6.18464 8.93317 7.24297L6.9165 9.25963C6.4915 9.68464 6.25817 10.243 6.25817 10.8346C6.25817 11.4263 6.4915 11.993 6.9165 12.4096C7.15817 12.6513 7.15817 13.0513 6.9165 13.293C6.67484 13.5346 6.27484 13.5346 6.03317 13.293C5.3665 12.6513 4.99984 11.7763 4.99984 10.843C4.99984 9.90964 5.35817 9.03464 6.0165 8.3763L8.03317 6.35964C9.57484 4.81797 12.0915 4.81797 13.6332 6.35964C15.1832 7.9013 15.1832 10.418 13.6415 11.9596Z" fill="#0F172B"/>
</svg>
