<svg width="20" height="20" viewBox="0 0 20 20" fill="none" xmlns="http://www.w3.org/2000/svg">
<path d="M16.75 5.78464C16.75 6.23464 16.5083 6.64297 16.125 6.8513L14.675 7.63464L13.4417 8.29297L10.8833 9.6763C10.6083 9.8263 10.3083 9.9013 10 9.9013C9.69167 9.9013 9.39167 9.8263 9.11667 9.6763L3.875 6.8513C3.49167 6.64297 3.25 6.23464 3.25 5.78464C3.25 5.33464 3.49167 4.9263 3.875 4.71797L5.51667 3.83464L6.825 3.1263L9.11667 1.89297C9.66667 1.59297 10.3333 1.59297 10.8833 1.89297L16.125 4.71797C16.5083 4.9263 16.75 5.33464 16.75 5.78464Z" fill="#292D32"/>
<path d="M8.24993 10.6565L3.37494 8.22316C2.99994 8.0315 2.5666 8.0565 2.20827 8.27316C1.84993 8.48983 1.6416 8.87316 1.6416 9.28983V13.8982C1.6416 14.6982 2.08327 15.4148 2.79993 15.7732L7.67493 18.2065C7.8416 18.2898 8.02493 18.3315 8.20827 18.3315C8.42493 18.3315 8.6416 18.2732 8.83327 18.1482C9.1916 17.9315 9.39993 17.5482 9.39993 17.1315V12.5232C9.40827 11.7315 8.9666 11.0148 8.24993 10.6565Z" fill="#292D32"/>
<path d="M18.3582 9.29267V13.901C18.3582 14.6927 17.9166 15.4093 17.1999 15.7677L12.3249 18.2093C12.1582 18.2927 11.9749 18.3343 11.7916 18.3343C11.5749 18.3343 11.3582 18.276 11.1582 18.151C10.8082 17.9343 10.5916 17.551 10.5916 17.1343V12.5343C10.5916 11.7343 11.0332 11.0177 11.7499 10.6593L13.5416 9.76767L14.7916 9.14267L16.6249 8.226C16.9999 8.03433 17.4332 8.051 17.7916 8.276C18.1416 8.49267 18.3582 8.876 18.3582 9.29267Z" fill="#292D32"/>
<path d="M14.6749 7.63333L13.4416 8.29167L5.5166 3.83333L6.82493 3.125L14.4749 7.44167C14.5583 7.49167 14.6249 7.55833 14.6749 7.63333Z" fill="#292D32"/>
<path d="M14.7917 9.14062V11.0323C14.7917 11.374 14.5084 11.6573 14.1667 11.6573C13.8251 11.6573 13.5417 11.374 13.5417 11.0323V9.76562L14.7917 9.14062Z" fill="#292D32"/>
</svg>
