<svg width="20" height="20" viewBox="0 0 20 20" fill="none" xmlns="http://www.w3.org/2000/svg">
<g clip-path="url(#clip0_2157_349838)">
<path d="M17.5793 5.62647C19.9959 9.81147 18.5618 15.1631 14.3768 17.5798C10.8909 19.5915 6.60009 18.9331 3.86593 16.2431C3.62955 16.0106 3.49522 15.6937 3.49249 15.3622C3.48975 15.0306 3.61884 14.7116 3.85135 14.4752C4.08385 14.2388 4.40073 14.1045 4.73228 14.1018C5.06383 14.099 5.38289 14.2281 5.61926 14.4606C6.60335 15.428 7.87989 16.0424 9.2498 16.2082C10.6197 16.3739 12.006 16.0817 13.1924 15.377C14.3788 14.6723 15.2986 13.5947 15.8084 12.3125C16.3182 11.0302 16.3893 9.61524 16.0106 8.28831C15.6319 6.96138 14.8248 5.79707 13.715 4.97697C12.6053 4.15687 11.2553 3.7271 9.87567 3.75467C8.49605 3.78224 7.16433 4.26561 6.08822 5.12939C5.01211 5.99318 4.25211 7.1888 3.92676 8.5298L4.35843 8.41814C5.62676 8.08647 6.56176 9.59313 5.7001 10.5831L3.82509 12.739C3.13676 13.5298 1.80593 13.2606 1.5301 12.2006C1.04961 10.3473 1.1901 8.38747 1.93005 6.62159C2.66999 4.85571 3.96857 3.38118 5.62676 2.42397C9.81259 0.00730228 15.1634 1.44147 17.5793 5.62647ZM10.0018 4.5848C10.3125 4.58482 10.6121 4.70057 10.8421 4.90948C11.0721 5.1184 11.2161 5.4055 11.2459 5.7148L11.2518 5.8348V9.48397L12.9684 11.2006C13.196 11.427 13.3278 11.7322 13.3365 12.0531C13.3452 12.3739 13.2302 12.6859 13.0152 12.9242C12.8002 13.1626 12.5017 13.3091 12.1817 13.3334C11.8616 13.3577 11.5445 13.2579 11.2959 13.0548L11.2009 12.969L9.1176 10.8856C8.91325 10.6813 8.78603 10.4124 8.7576 10.1248L8.75176 10.0015V5.8348C8.75176 5.50328 8.88346 5.18534 9.11788 4.95092C9.3523 4.7165 9.67024 4.5848 10.0018 4.5848Z" fill="#0F172B"/>
</g>
<defs>
<clipPath id="clip0_2157_349838">
<rect width="20" height="20" fill="white"/>
</clipPath>
</defs>
</svg>
