<svg width="20" height="20" viewBox="0 0 20 20" fill="none" xmlns="http://www.w3.org/2000/svg">
<g clip-path="url(#clip0_2157_349808)">
<path d="M8.75 0.625L20 11.875L13.125 18.75L1.875 7.5V0.625H8.75ZM5.625 5.625C5.87223 5.625 6.1139 5.55169 6.31946 5.41434C6.52502 5.27699 6.68524 5.08176 6.77985 4.85335C6.87446 4.62495 6.89921 4.37361 6.85098 4.13114C6.80275 3.88866 6.6837 3.66593 6.50888 3.49112C6.33407 3.3163 6.11134 3.19725 5.86886 3.14902C5.62639 3.10079 5.37505 3.12554 5.14665 3.22015C4.91824 3.31476 4.72301 3.47498 4.58566 3.68054C4.44831 3.8861 4.375 4.12777 4.375 4.375C4.375 4.70652 4.5067 5.02446 4.74112 5.25888C4.97554 5.4933 5.29348 5.625 5.625 5.625Z" fill="#0F172B"/>
<path d="M1.24951 2.5V8.125L11.5269 18.4023L10.5464 19.375L-0.000488281 8.75V2.5H1.24951Z" fill="#0F172B"/>
</g>
<defs>
<clipPath id="clip0_2157_349808">
<rect width="20" height="20" fill="white" transform="matrix(-1 0 0 1 20 0)"/>
</clipPath>
</defs>
</svg>
