<svg width="20" height="20" viewBox="0 0 20 20" fill="none" xmlns="http://www.w3.org/2000/svg">
<path d="M5.83317 1.66797H4.99984C2.49984 1.66797 1.6665 3.15964 1.6665 5.0013V5.83463V17.5013C1.6665 18.193 2.44984 18.5846 2.99984 18.168L4.42484 17.1013C4.75817 16.8513 5.22484 16.8846 5.52484 17.1846L6.90817 18.5763C7.23317 18.9013 7.7665 18.9013 8.0915 18.5763L9.4915 17.1763C9.78317 16.8846 10.2498 16.8513 10.5748 17.1013L11.9998 18.168C12.5498 18.5763 13.3332 18.1846 13.3332 17.5013V3.33464C13.3332 2.41797 14.0832 1.66797 14.9998 1.66797H5.83317ZM9.7915 8.95963H5.20817C4.8665 8.95963 4.58317 8.6763 4.58317 8.33463C4.58317 7.99297 4.8665 7.70963 5.20817 7.70963H9.7915C10.1332 7.70963 10.4165 7.99297 10.4165 8.33463C10.4165 8.6763 10.1332 8.95963 9.7915 8.95963Z" fill="#0F172B"/>
<path d="M15.0085 1.66797V2.91797C15.5585 2.91797 16.0835 3.14297 16.4668 3.51797C16.8668 3.9263 17.0835 4.4513 17.0835 5.0013V7.01797C17.0835 7.63464 16.8085 7.91797 16.1835 7.91797H14.5835V3.34297C14.5835 3.10964 14.7752 2.91797 15.0085 2.91797V1.66797ZM15.0085 1.66797C14.0835 1.66797 13.3335 2.41797 13.3335 3.34297V9.16797H16.1835C17.5002 9.16797 18.3335 8.33464 18.3335 7.01797V5.0013C18.3335 4.08464 17.9585 3.2513 17.3585 2.64297C16.7502 2.04297 15.9252 1.6763 15.0085 1.66797C15.0168 1.66797 15.0085 1.66797 15.0085 1.66797Z" fill="#292D32"/>
</svg>
