<svg width="20" height="20" viewBox="0 0 20 20" fill="none" xmlns="http://www.w3.org/2000/svg">
<path d="M5.83317 1.66797H4.99984C2.49984 1.66797 1.6665 3.15964 1.6665 5.0013V5.83463V17.5013C1.6665 18.193 2.44984 18.5846 2.99984 18.168L4.42484 17.1013C4.75817 16.8513 5.22484 16.8846 5.52484 17.1846L6.90817 18.5763C7.23317 18.9013 7.7665 18.9013 8.0915 18.5763L9.4915 17.1763C9.78317 16.8846 10.2498 16.8513 10.5748 17.1013L11.9998 18.168C12.5498 18.5763 13.3332 18.1846 13.3332 17.5013V3.33464C13.3332 2.41797 14.0832 1.66797 14.9998 1.66797H5.83317ZM4.97484 11.6763C4.5165 11.6763 4.1415 11.3013 4.1415 10.843C4.1415 10.3846 4.5165 10.0096 4.97484 10.0096C5.43317 10.0096 5.80817 10.3846 5.80817 10.843C5.80817 11.3013 5.43317 11.6763 4.97484 11.6763ZM4.97484 8.34297C4.5165 8.34297 4.1415 7.96797 4.1415 7.50963C4.1415 7.0513 4.5165 6.6763 4.97484 6.6763C5.43317 6.6763 5.80817 7.0513 5.80817 7.50963C5.80817 7.96797 5.43317 8.34297 4.97484 8.34297ZM9.99984 11.468H7.49984C7.15817 11.468 6.87484 11.1846 6.87484 10.843C6.87484 10.5013 7.15817 10.218 7.49984 10.218H9.99984C10.3415 10.218 10.6248 10.5013 10.6248 10.843C10.6248 11.1846 10.3415 11.468 9.99984 11.468ZM9.99984 8.13463H7.49984C7.15817 8.13463 6.87484 7.8513 6.87484 7.50963C6.87484 7.16797 7.15817 6.88463 7.49984 6.88463H9.99984C10.3415 6.88463 10.6248 7.16797 10.6248 7.50963C10.6248 7.8513 10.3415 8.13463 9.99984 8.13463Z" fill="#0F172B"/>
<path d="M15.0085 1.66797V2.91797C15.5585 2.91797 16.0835 3.14297 16.4668 3.51797C16.8668 3.9263 17.0835 4.4513 17.0835 5.0013V7.01797C17.0835 7.63464 16.8085 7.91797 16.1835 7.91797H14.5835V3.34297C14.5835 3.10964 14.7752 2.91797 15.0085 2.91797V1.66797ZM15.0085 1.66797C14.0835 1.66797 13.3335 2.41797 13.3335 3.34297V9.16797H16.1835C17.5002 9.16797 18.3335 8.33464 18.3335 7.01797V5.0013C18.3335 4.08464 17.9585 3.2513 17.3585 2.64297C16.7502 2.04297 15.9252 1.6763 15.0085 1.66797C15.0168 1.66797 15.0085 1.66797 15.0085 1.66797Z" fill="#0F172B"/>
</svg>
