<svg width="20" height="20" viewBox="0 0 20 20" fill="none" xmlns="http://www.w3.org/2000/svg">
<g clip-path="url(#clip0_2155_394730)">
<path d="M8.07045 2.65031C8.10471 2.65016 8.13897 2.65002 8.17426 2.64987C8.28929 2.64944 8.40431 2.64929 8.51933 2.64914C8.60172 2.6489 8.68411 2.64864 8.7665 2.64836C9.03733 2.64754 9.30815 2.64714 9.57898 2.64675C9.67227 2.64659 9.76556 2.64643 9.85886 2.64627C10.2973 2.64552 10.7357 2.64497 11.1741 2.64464C11.6798 2.64426 12.1854 2.64323 12.6911 2.64165C13.0822 2.64047 13.4732 2.63989 13.8643 2.63977C14.0977 2.63967 14.3312 2.63933 14.5646 2.63834C14.7844 2.63743 15.0043 2.63727 15.2241 2.63767C15.3045 2.63769 15.3849 2.63744 15.4654 2.6369C16.0741 2.63306 16.5442 2.68591 17.0314 3.08574C17.0591 3.10815 17.0869 3.13056 17.1154 3.15364C17.5132 3.51017 17.6877 4.09939 17.8818 4.58457C17.9203 4.68064 17.9591 4.77656 17.998 4.87247C18.0231 4.93469 18.0482 4.99692 18.0732 5.05916C18.0846 5.08725 18.096 5.11533 18.1076 5.14427C18.1863 5.34114 18.2553 5.54026 18.3204 5.74199C18.3441 5.7342 18.3677 5.7264 18.3921 5.71837C19.2844 5.42528 19.2844 5.42528 19.6632 5.55156C19.8223 5.66517 19.9371 5.78732 20.0001 5.97637C20.0123 6.13404 20.0128 6.29192 20.0148 6.45C20.0162 6.4931 20.0177 6.53621 20.0192 6.58062C20.0223 6.86852 19.9825 7.07335 19.8048 7.30449C19.604 7.50795 19.3791 7.54432 19.1017 7.57793C19.1192 7.62018 19.1366 7.66242 19.1546 7.70595C19.3014 8.07422 19.4106 8.4387 19.4874 8.82793C19.4993 8.88797 19.4993 8.88797 19.5114 8.94923C19.5876 9.35587 19.6153 9.75784 19.6158 10.1712C19.616 10.2134 19.6162 10.2555 19.6164 10.299C19.6169 10.437 19.6172 10.575 19.6174 10.713C19.6175 10.7604 19.6177 10.8079 19.6178 10.8567C19.6183 11.1074 19.6187 11.358 19.6189 11.6087C19.6191 11.8669 19.62 12.1252 19.6211 12.3835C19.6219 12.5828 19.6221 12.7821 19.6221 12.9814C19.6223 13.0767 19.6226 13.1719 19.6231 13.2671C19.6237 13.4003 19.6237 13.5335 19.6234 13.6667C19.6238 13.7056 19.6241 13.7446 19.6245 13.7848C19.6226 14.1082 19.573 14.4113 19.3361 14.6482C19.1528 14.7857 19.0159 14.8472 18.7892 14.8505C18.759 14.851 18.7287 14.8515 18.6975 14.852C18.6489 14.8524 18.6489 14.8524 18.5994 14.8529C18.5656 14.8532 18.5319 14.8535 18.4972 14.8538C18.4259 14.8544 18.3546 14.8548 18.2832 14.8551C18.2107 14.8555 18.1381 14.8563 18.0655 14.8575C17.9602 14.8592 17.855 14.8598 17.7498 14.8602C17.7016 14.8612 17.7016 14.8612 17.6526 14.8623C17.3924 14.8613 17.1897 14.7902 16.9914 14.6191C16.974 14.5973 16.9565 14.5755 16.9386 14.553C16.9206 14.5313 16.9025 14.5096 16.884 14.4873C16.7632 14.3023 16.7486 14.1451 16.7503 13.926C16.7505 13.8848 16.7505 13.8848 16.7506 13.8428C16.7511 13.7556 16.7521 13.6685 16.7531 13.5813C16.7534 13.522 16.7538 13.4627 16.7541 13.4034C16.755 13.2584 16.7563 13.1135 16.7579 12.9686C15.9994 12.9636 15.2408 12.9611 14.4822 12.9616C14.13 12.9617 13.7778 12.9611 13.4255 12.9585C13.1185 12.9563 12.8114 12.9556 12.5043 12.9567C12.3418 12.9572 12.1793 12.957 12.0167 12.955C11.8636 12.9531 11.7105 12.9532 11.5574 12.9549C11.5013 12.9551 11.4452 12.9546 11.3892 12.9534C11.0652 12.9438 11.0652 12.9438 10.7972 13.1023C10.7178 13.2108 10.651 13.3198 10.5861 13.4373C10.5546 13.4803 10.5222 13.5226 10.4883 13.5636C10.4484 13.6123 10.4484 13.6123 10.4078 13.6619C9.64975 14.5719 8.52734 15.1862 7.34387 15.3123C6.15725 15.3689 5.1069 15.1835 4.09367 14.5462C4.06583 14.5287 4.03798 14.5112 4.00929 14.4932C3.98822 14.4799 3.96714 14.4666 3.94543 14.4529C3.9113 14.4874 3.87716 14.5219 3.84198 14.5574C3.51999 14.8826 3.19758 15.2073 2.87477 15.5317C2.70882 15.6985 2.54303 15.8654 2.37757 16.0326C2.21784 16.194 2.05773 16.3551 1.89735 16.5158C1.83627 16.5772 1.77533 16.6387 1.71454 16.7003C1.62926 16.7868 1.54351 16.8727 1.45763 16.9585C1.43268 16.984 1.40773 17.0095 1.38202 17.0358C1.2058 17.2104 1.04615 17.3214 0.794647 17.3591C0.557563 17.3568 0.383253 17.3379 0.20871 17.1604C0.0546281 16.9856 -0.00610064 16.8876 -0.00964355 16.6502C-0.0106506 16.6101 -0.0116577 16.57 -0.0126953 16.5287C0.0167993 16.2464 0.19263 16.0799 0.385206 15.8905C0.412274 15.8634 0.439342 15.8363 0.467231 15.8084C0.55636 15.7194 0.645896 15.6307 0.735443 15.5421C0.797482 15.4803 0.859496 15.4184 0.921484 15.3566C1.0844 15.1941 1.24767 15.032 1.41102 14.8699C1.57776 14.7044 1.74416 14.5385 1.9106 14.3727C2.23699 14.0475 2.56375 13.7228 2.89075 13.3982C2.87203 13.3663 2.85332 13.3343 2.83403 13.3013C2.79716 13.2382 2.79716 13.2382 2.75954 13.1738C2.73519 13.1322 2.71083 13.0905 2.68574 13.0476C2.42339 12.5949 2.23555 12.1487 2.1095 11.6404C2.09575 11.586 2.09575 11.586 2.08173 11.5306C1.8394 10.4067 2.04297 9.19172 2.61731 8.20293C2.63137 8.17872 2.64543 8.1545 2.65992 8.12955C2.84797 7.81157 3.06149 7.53 3.32043 7.26543C3.35457 7.23023 3.38871 7.19504 3.42389 7.15877C3.69311 6.88521 3.69311 6.88521 3.79926 6.82369C3.88886 6.73669 3.88596 6.66418 3.88892 6.54291C3.88904 6.51547 3.88916 6.48803 3.88928 6.45977C3.90953 5.9054 3.90953 5.9054 4.08932 5.70934C4.28922 5.5323 4.42308 5.49035 4.69037 5.49068C5.01177 5.52614 5.31953 5.6397 5.62512 5.74199C5.63009 5.71372 5.63505 5.68545 5.64017 5.65632C5.66351 5.54974 5.6955 5.45617 5.736 5.355C5.75075 5.31796 5.76551 5.28091 5.78071 5.24274C5.79674 5.20311 5.81277 5.16347 5.82928 5.12264C5.84592 5.08136 5.86256 5.04008 5.8797 4.99754C5.915 4.9102 5.9504 4.82289 5.9859 4.73563C6.03961 4.60321 6.09261 4.47052 6.1456 4.3378C6.18009 4.25272 6.21463 4.16765 6.24921 4.0826C6.26476 4.04336 6.28032 4.00412 6.29634 3.96369C6.53695 3.37888 6.88357 2.99383 7.46426 2.73922C7.66945 2.65984 7.85149 2.65026 8.07045 2.65031ZM7.61731 3.78887C7.4091 4.13778 7.26496 4.52842 7.11277 4.90405C7.07239 5.00345 7.0314 5.1026 6.9904 5.20176C6.9646 5.26509 6.93884 5.32844 6.91312 5.3918C6.90083 5.42134 6.88855 5.45088 6.8759 5.48132C6.80519 5.64716 6.80519 5.64716 6.83606 5.82012C6.88576 5.82304 6.93546 5.82596 6.98666 5.82897C8.19513 5.91353 9.41538 6.37583 10.2345 7.30449C10.253 7.33596 10.2716 7.36743 10.2907 7.39986C10.3996 7.57277 10.4822 7.67816 10.6845 7.73113C10.8595 7.74948 11.0343 7.74528 11.2099 7.74194C11.2773 7.74209 11.3447 7.7424 11.4121 7.74288C11.5945 7.74365 11.7768 7.74201 11.9592 7.73987C12.1503 7.738 12.3415 7.73824 12.5326 7.73821C12.8534 7.73784 13.1742 7.736 13.495 7.73317C13.8658 7.72991 14.2365 7.72854 14.6072 7.72828C15.0023 7.728 15.3974 7.72652 15.7924 7.7246C15.9061 7.72411 16.0198 7.72383 16.1335 7.72358C16.3123 7.72312 16.491 7.72184 16.6697 7.71994C16.7352 7.71936 16.8008 7.71904 16.8663 7.719C16.9559 7.7189 17.0454 7.71784 17.1349 7.71654C17.185 7.71617 17.2351 7.71581 17.2867 7.71544C17.4682 7.68818 17.5956 7.6128 17.7125 7.47051C17.7794 7.20282 17.653 6.93769 17.5499 6.69597C17.535 6.66031 17.5202 6.62464 17.5049 6.58789C17.4565 6.47178 17.4075 6.35591 17.3585 6.24004C17.3248 6.15972 17.2912 6.07938 17.2576 5.99903C17.2063 5.87665 17.1551 5.7543 17.1036 5.63202C16.9943 5.37208 16.8867 5.11149 16.7805 4.85027C16.7414 4.75454 16.7022 4.65883 16.6631 4.56312C16.6386 4.50318 16.6143 4.44319 16.5901 4.38314C16.5566 4.30003 16.5226 4.21716 16.4885 4.13433C16.4697 4.08808 16.4509 4.04183 16.4315 3.99417C16.3333 3.79954 16.208 3.63854 16.0182 3.5252C15.9814 3.50254 15.9814 3.50254 15.9439 3.47942C15.7379 3.3766 15.5502 3.34773 15.3223 3.34873C15.2925 3.34856 15.2627 3.34838 15.2321 3.3482C15.1328 3.3477 15.0335 3.34777 14.9342 3.34783C14.8628 3.3476 14.7914 3.34733 14.7201 3.34704C14.5264 3.34635 14.3328 3.34616 14.1392 3.34611C14.0181 3.34606 13.8971 3.34589 13.776 3.34568C13.3533 3.34496 12.9307 3.34464 12.508 3.3447C12.1145 3.34475 11.721 3.34393 11.3275 3.34269C10.9893 3.34167 10.6511 3.34125 10.3129 3.3413C10.111 3.34132 9.9092 3.3411 9.70737 3.34027C9.51743 3.33951 9.3275 3.33951 9.13756 3.34008C9.06806 3.34016 8.99855 3.33998 8.92905 3.3395C8.41937 3.33626 7.96611 3.37187 7.61731 3.78887ZM4.21887 8.43731C3.60025 9.19675 3.39438 10.1019 3.48458 11.0603C3.60611 11.9428 4.12329 12.7188 4.82343 13.2522C4.99231 13.3686 5.16728 13.4651 5.35168 13.5545C5.38824 13.5722 5.4248 13.5899 5.46246 13.6082C6.26618 13.9702 7.124 13.949 7.94446 13.6651C8.77902 13.3362 9.42245 12.7246 9.80481 11.9139C10.1513 11.0872 10.1767 10.2295 9.87317 9.38701C9.51037 8.50791 8.87846 7.85952 8.00778 7.48378C6.66997 6.93631 5.15564 7.36575 4.21887 8.43731ZM14.8829 9.68731C14.8155 9.88956 14.8351 10.1061 14.8345 10.3178C14.8341 10.4019 14.8329 10.486 14.8317 10.5701C14.8314 10.624 14.8312 10.6779 14.8311 10.7318C14.8307 10.7805 14.8303 10.8293 14.8299 10.8795C14.8454 11.0305 14.8788 11.1227 14.9611 11.2498C15.0929 11.3383 15.2088 11.338 15.365 11.3387C15.4152 11.339 15.4654 11.3394 15.5171 11.3398C15.5718 11.3398 15.6265 11.3397 15.6811 11.3397C15.7374 11.3398 15.7936 11.34 15.8498 11.3402C15.9676 11.3405 16.0854 11.3405 16.2032 11.3403C16.3539 11.34 16.5046 11.3407 16.6553 11.3416C16.7714 11.3422 16.8875 11.3422 17.0036 11.3421C17.0592 11.3421 17.1147 11.3423 17.1703 11.3427C17.248 11.3432 17.3258 11.3429 17.4036 11.3425C17.4478 11.3425 17.492 11.3425 17.5375 11.3425C17.6711 11.3261 17.7443 11.2905 17.8517 11.2107C17.9761 10.9949 17.9429 10.7358 17.9421 10.4941C17.942 10.4102 17.9429 10.3264 17.9439 10.2426C17.944 10.1889 17.944 10.1353 17.944 10.0816C17.9441 10.0331 17.9442 9.98466 17.9444 9.93473C17.9244 9.75601 17.8599 9.65643 17.7345 9.53106C17.6186 9.51848 17.6186 9.51848 17.4807 9.51971C17.4546 9.51944 17.4286 9.51918 17.4017 9.51891C17.3154 9.51817 17.2291 9.51802 17.1428 9.51793C17.0828 9.51768 17.0229 9.51742 16.9629 9.51715C16.8372 9.51668 16.7114 9.51653 16.5856 9.51658C16.4245 9.51659 16.2634 9.51552 16.1022 9.51417C15.9784 9.51331 15.8545 9.51315 15.7307 9.51319C15.6713 9.5131 15.6119 9.51275 15.5525 9.51215C15.4693 9.51138 15.3862 9.51161 15.3031 9.51208C15.2558 9.51197 15.2085 9.51186 15.1598 9.51174C15.0152 9.5349 14.9705 9.57215 14.8829 9.68731Z" fill="#0F172B"/>
</g>
<defs>
<clipPath id="clip0_2155_394730">
<rect width="20" height="20" fill="white"/>
</clipPath>
</defs>
</svg>
