<svg width="20" height="20" viewBox="0 0 20 20" fill="none" xmlns="http://www.w3.org/2000/svg">
<path d="M16.7498 7.6858C15.2415 7.6858 14.6248 6.61914 15.3748 5.3108C15.8082 4.55247 15.5498 3.5858 14.7915 3.15247L13.3498 2.32747C12.6915 1.9358 11.8415 2.16914 11.4498 2.82747L11.3582 2.9858C10.6082 4.29414 9.37484 4.29414 8.6165 2.9858L8.52484 2.82747C8.14984 2.16914 7.29984 1.9358 6.6415 2.32747L5.19984 3.15247C4.4415 3.5858 4.18317 4.5608 4.6165 5.31914C5.37484 6.61914 4.75817 7.6858 3.24984 7.6858C2.38317 7.6858 1.6665 8.39414 1.6665 9.26914V10.7358C1.6665 11.6025 2.37484 12.3191 3.24984 12.3191C4.75817 12.3191 5.37484 13.3858 4.6165 14.6941C4.18317 15.4525 4.4415 16.4191 5.19984 16.8525L6.6415 17.6775C7.29984 18.0691 8.14984 17.8358 8.5415 17.1775L8.63317 17.0191C9.38317 15.7108 10.6165 15.7108 11.3748 17.0191L11.4665 17.1775C11.8582 17.8358 12.7082 18.0691 13.3665 17.6775L14.8082 16.8525C15.5665 16.4191 15.8248 15.4441 15.3915 14.6941C14.6332 13.3858 15.2498 12.3191 16.7582 12.3191C17.6248 12.3191 18.3415 11.6108 18.3415 10.7358V9.26914C18.3332 8.40247 17.6248 7.6858 16.7498 7.6858ZM9.99984 12.7108C8.50817 12.7108 7.2915 11.4941 7.2915 10.0025C7.2915 8.5108 8.50817 7.29414 9.99984 7.29414C11.4915 7.29414 12.7082 8.5108 12.7082 10.0025C12.7082 11.4941 11.4915 12.7108 9.99984 12.7108Z" fill="#0F172B"/>
</svg>
