<svg width="20" height="20" viewBox="0 0 20 20" fill="none" xmlns="http://www.w3.org/2000/svg">
<path d="M1.6665 3.33464C1.6665 2.41416 2.4127 1.66797 3.33317 1.66797C4.25364 1.66797 4.99984 2.41416 4.99984 3.33464C4.99984 4.03409 4.56897 4.63291 3.95817 4.88015V9.3763H9.37484V4.88015C8.76404 4.63291 8.33317 4.03409 8.33317 3.33464C8.33317 2.41416 9.07936 1.66797 9.99984 1.66797C10.9203 1.66797 11.6665 2.41416 11.6665 3.33464C11.6665 4.03409 11.2356 4.63291 10.6248 4.88015V9.3763H13.3332C14.1365 9.3763 14.6761 9.37497 15.0787 9.32086C15.4632 9.26915 15.6278 9.1798 15.7364 9.0712C15.845 8.96261 15.9344 8.79803 15.9861 8.41348C16.0402 8.01095 16.0415 7.47131 16.0415 6.66797V4.88015C15.4307 4.63291 14.9998 4.03409 14.9998 3.33464C14.9998 2.41416 15.746 1.66797 16.6665 1.66797C17.587 1.66797 18.3332 2.41416 18.3332 3.33464C18.3332 4.03409 17.9023 4.63291 17.2915 4.88015V6.7113C17.2915 7.46003 17.2915 8.08438 17.2249 8.58003C17.1546 9.1032 16.9998 9.57553 16.6203 9.95509C16.2407 10.3346 15.7684 10.4894 15.2452 10.5597C14.7496 10.6263 14.1252 10.6263 13.3765 10.6263L10.6248 10.6263L10.6248 15.1225C11.2356 15.3697 11.6665 15.9685 11.6665 16.668C11.6665 17.5884 10.9203 18.3346 9.99984 18.3346C9.07936 18.3346 8.33317 17.5884 8.33317 16.668C8.33317 15.9685 8.76404 15.3697 9.37484 15.1225V10.6263H3.95817V15.1225C4.56897 15.3697 4.99984 15.9685 4.99984 16.668C4.99984 17.5884 4.25364 18.3346 3.33317 18.3346C2.4127 18.3346 1.6665 17.5884 1.6665 16.668C1.6665 15.9685 2.09737 15.3697 2.70817 15.1225V4.88015C2.09737 4.63291 1.6665 4.03409 1.6665 3.33464Z" fill="#0F172B"/>
<path fill-rule="evenodd" clip-rule="evenodd" d="M14.375 12.5C14.375 12.1548 14.6548 11.875 15 11.875H16.9048C18.051 11.875 18.9583 12.82 18.9583 13.9583C18.9583 14.8571 18.3927 15.6353 17.5905 15.9231L18.8664 18.007C19.0466 18.3014 18.9541 18.6861 18.6597 18.8664C18.3653 19.0466 17.9805 18.9541 17.8003 18.6597L16.1974 16.0417H15.625V18.3333C15.625 18.6785 15.3452 18.9583 15 18.9583C14.6548 18.9583 14.375 18.6785 14.375 18.3333V12.5ZM15.625 14.7917H16.9048C17.3365 14.7917 17.7083 14.4308 17.7083 13.9583C17.7083 13.4859 17.3365 13.125 16.9048 13.125H15.625V14.7917Z" fill="#0F172B"/>
</svg>
